M48
; DRILL file KiCad 10.0.4 date 2026-07-07T22:36:50
; FORMAT={-:-/ absolute / inch / decimal}
; #@! TF.CreationDate,2026-07-07T22:36:50+12:00
; #@! TF.GenerationSoftware,Kicad,Pcbnew,10.0.4
; #@! TF.FileFunction,Plated,1,4,PTH
FMAT,2
INCH
; #@! TA.AperFunction,Plated,PTH,ViaDrill
T1C0.0118
; #@! TA.AperFunction,Plated,PTH,ComponentDrill
T2C0.0118
; #@! TA.AperFunction,Plated,PTH,ComponentDrill
T3C0.0197
; #@! TA.AperFunction,Plated,PTH,ViaDrill
T4C0.0315
; #@! TA.AperFunction,Plated,PTH,ComponentDrill
T5C0.0315
; #@! TA.AperFunction,Plated,PTH,ComponentDrill
T6C0.0394
; #@! TA.AperFunction,Plated,PTH,ComponentDrill
T7C0.1063
%
G90
G05
T1
X4.8661Y-3.315
X4.8661Y-3.4409
X5.0315Y-3.5591
X5.1496Y-3.4803
X5.1575Y-3.5108
X5.1575Y-4.7244
X5.1575Y-4.7638
X5.1654Y-3.1693
X5.1693Y-3.2165
X5.1811Y-3.5758
X5.189Y-3.4646
X5.2165Y-3.7756
X5.2677Y-4.7244
X5.2835Y-3.0945
X5.2913Y-3.6378
X5.2913Y-4.6142
X5.2992Y-4.5335
X5.315Y-3.2913
X5.3156Y-3.1693
X5.3228Y-4.6378
X5.3412Y-3.3088
X5.3465Y-3.7874
X5.4016Y-3.6063
X5.4094Y-3.1102
X5.4291Y-4.3622
X5.4528Y-4.7638
X5.4567Y-3.7638
X5.4567Y-3.9685
X5.4882Y-4.4961
X5.4961Y-3.0157
X5.5276Y-4.0079
X5.5354Y-3.1811
X5.5433Y-4.4173
X5.5433Y-4.4921
X5.5472Y-3.0394
X5.5512Y-3.874
X5.5551Y-4.1969
X5.5591Y-4.2283
X5.5647Y-4.085
X5.572Y-3.8193
X5.5748Y-3.2992
X5.5748Y-4.1339
X5.5906Y-3.622
X5.5984Y-3.0394
X5.5984Y-3.8996
X5.6142Y-4.1417
X5.622Y-3.2992
X5.622Y-3.3543
X5.626Y-3.3976
X5.6378Y-3.4961
X5.6388Y-4.0532
X5.6417Y-3.5922
X5.6457Y-4.4882
X5.6535Y-3.2283
X5.6654Y-4.1417
X5.6929Y-4.0315
X5.7008Y-4.2283
X5.7087Y-3.7854
X5.7165Y-3.9921
X5.7165Y-4.0787
X5.748Y-3.3386
X5.748Y-3.7795
X5.7874Y-4.0157
X5.7953Y-3.9055
X5.811Y-4.1102
X5.8189Y-3.7323
X5.8189Y-4.1969
X5.8268Y-3.4882
X5.8425Y-3.4252
X5.8701Y-3.6339
X5.8819Y-3.2874
X5.8898Y-4.0551
X5.9094Y-4.5315
X5.9291Y-4.2283
X5.9606Y-3.2992
X5.9606Y-4.1256
X5.9646Y-4.5354
X5.9685Y-4.0079
X5.9882Y-3.437
X5.9921Y-3.3465
X5.9921Y-4.1969
X6.0001Y-4.1417
X6.0039Y-3.1417
X6.063Y-3.4724
X6.3858Y-3.0
X6.4961Y-3.0512
X6.8937Y-3.2185
T2
X4.9055Y-3.9886
X4.9055Y-4.1461
X4.9843Y-3.9886
X4.9843Y-4.1461
X5.589Y-4.6969
X5.589Y-4.7362
X5.589Y-4.7756
T4
X5.0984Y-4.7047
X5.315Y-3.878
X5.4803Y-4.9134
X5.5866Y-4.6142
X5.5906Y-4.2992
X5.6614Y-4.9291
X5.8228Y-4.563
X5.8268Y-4.8976
X5.9213Y-3.7244
X6.0551Y-3.9685
T5
X6.4449Y-4.2657
X6.4449Y-4.3642
X6.4567Y-4.7067
X6.4567Y-4.8051
X6.9882Y-4.4567
X6.9882Y-4.5551
T6
X4.9213Y-3.5732
X4.9213Y-3.6732
X4.9213Y-3.7732
X4.9291Y-4.4301
X4.9291Y-4.5301
X5.1835Y-3.0079
X5.2835Y-3.0079
X5.3835Y-3.0079
X6.1874Y-3.0866
X6.2283Y-4.215
X6.2283Y-4.315
X6.2283Y-4.415
X6.2283Y-4.6378
X6.2283Y-4.7378
X6.2283Y-4.8378
X6.2874Y-3.0866
X6.4488Y-3.3228
X6.4488Y-3.4228
X6.4488Y-3.5228
X6.472Y-4.0472
X6.572Y-4.0472
X6.6295Y-3.3228
X6.6295Y-3.4228
X6.6295Y-3.5228
X6.672Y-4.0472
X6.7598Y-4.4024
X6.7598Y-4.5024
X6.7598Y-4.6024
X6.772Y-4.0472
X7.0551Y-3.2843
X7.0551Y-3.3843
X7.0551Y-3.4843
X7.0551Y-3.5843
X7.0551Y-3.7843
X7.0551Y-3.8843
X7.0551Y-3.9843
X7.0551Y-4.0843
T7
X4.9606Y-3.0906
X4.9606Y-4.8228
X7.0079Y-3.0906
X7.0079Y-4.8228
T3
G00X4.9457Y-3.8969
M15
G01X4.9142Y-3.8969
M16
G05
G00X4.9457Y-4.2378
M15
G01X4.9142Y-4.2378
M16
G05
G00X5.1169Y-3.8969
M15
G01X5.0736Y-3.8969
M16
G05
G00X5.1169Y-4.2378
M15
G01X5.0736Y-4.2378
M16
G05
M30
