%TF.GenerationSoftware,KiCad,Pcbnew,10.0.4*%
%TF.CreationDate,2026-07-07T22:36:50+12:00*%
%TF.ProjectId,FlightControllerF411,466c6967-6874-4436-9f6e-74726f6c6c65,rev?*%
%TF.SameCoordinates,Original*%
%TF.FileFunction,Legend,Bot*%
%TF.FilePolarity,Positive*%
%FSLAX46Y46*%
G04 Gerber Fmt 4.6, Leading zero omitted, Abs format (unit mm)*
G04 Created by KiCad (PCBNEW 10.0.4) date 2026-07-07 22:36:50*
%MOMM*%
%LPD*%
G01*
G04 APERTURE LIST*
%ADD10C,0.150000*%
%ADD11C,0.250000*%
%ADD12C,0.300000*%
%ADD13C,0.000000*%
%ADD14R,1.700000X1.700000*%
%ADD15C,1.700000*%
%ADD16C,1.600000*%
%ADD17C,4.700000*%
%ADD18C,0.600000*%
%ADD19O,2.300000X1.300000*%
%ADD20O,2.100000X1.300000*%
%ADD21C,0.500000*%
G04 APERTURE END LIST*
D10*
X126957143Y-112611847D02*
X126957143Y-111611847D01*
X126957143Y-112564228D02*
X127052381Y-112611847D01*
X127052381Y-112611847D02*
X127242857Y-112611847D01*
X127242857Y-112611847D02*
X127338095Y-112564228D01*
X127338095Y-112564228D02*
X127385714Y-112516609D01*
X127385714Y-112516609D02*
X127433333Y-112421371D01*
X127433333Y-112421371D02*
X127433333Y-112135657D01*
X127433333Y-112135657D02*
X127385714Y-112040419D01*
X127385714Y-112040419D02*
X127338095Y-111992800D01*
X127338095Y-111992800D02*
X127242857Y-111945180D01*
X127242857Y-111945180D02*
X127052381Y-111945180D01*
X127052381Y-111945180D02*
X126957143Y-111992800D01*
X128004762Y-111945180D02*
X127909524Y-111992800D01*
X127909524Y-111992800D02*
X127861905Y-112040419D01*
X127861905Y-112040419D02*
X127814286Y-112135657D01*
X127814286Y-112135657D02*
X127814286Y-112421371D01*
X127814286Y-112421371D02*
X127861905Y-112516609D01*
X127861905Y-112516609D02*
X127909524Y-112564228D01*
X127909524Y-112564228D02*
X128004762Y-112611847D01*
X128004762Y-112611847D02*
X128147619Y-112611847D01*
X128147619Y-112611847D02*
X128242857Y-112564228D01*
X128242857Y-112564228D02*
X128290476Y-112516609D01*
X128290476Y-112516609D02*
X128338095Y-112421371D01*
X128338095Y-112421371D02*
X128338095Y-112135657D01*
X128338095Y-112135657D02*
X128290476Y-112040419D01*
X128290476Y-112040419D02*
X128242857Y-111992800D01*
X128242857Y-111992800D02*
X128147619Y-111945180D01*
X128147619Y-111945180D02*
X128004762Y-111945180D01*
X128719048Y-111992800D02*
X128814286Y-111945180D01*
X128814286Y-111945180D02*
X129004762Y-111945180D01*
X129004762Y-111945180D02*
X129100000Y-111992800D01*
X129100000Y-111992800D02*
X129147619Y-112088038D01*
X129147619Y-112088038D02*
X129147619Y-112135657D01*
X129147619Y-112135657D02*
X129100000Y-112230895D01*
X129100000Y-112230895D02*
X129004762Y-112278514D01*
X129004762Y-112278514D02*
X128861905Y-112278514D01*
X128861905Y-112278514D02*
X128766667Y-112326133D01*
X128766667Y-112326133D02*
X128719048Y-112421371D01*
X128719048Y-112421371D02*
X128719048Y-112468990D01*
X128719048Y-112468990D02*
X128766667Y-112564228D01*
X128766667Y-112564228D02*
X128861905Y-112611847D01*
X128861905Y-112611847D02*
X129004762Y-112611847D01*
X129004762Y-112611847D02*
X129100000Y-112564228D01*
X129576191Y-111945180D02*
X129576191Y-112611847D01*
X129576191Y-112945180D02*
X129528572Y-112897561D01*
X129528572Y-112897561D02*
X129576191Y-112849942D01*
X129576191Y-112849942D02*
X129623810Y-112897561D01*
X129623810Y-112897561D02*
X129576191Y-112945180D01*
X129576191Y-112945180D02*
X129576191Y-112849942D01*
X129909524Y-112611847D02*
X130290476Y-112611847D01*
X130052381Y-112945180D02*
X130052381Y-112088038D01*
X130052381Y-112088038D02*
X130100000Y-111992800D01*
X130100000Y-111992800D02*
X130195238Y-111945180D01*
X130195238Y-111945180D02*
X130290476Y-111945180D01*
X130623810Y-111945180D02*
X130623810Y-112611847D01*
X130623810Y-112945180D02*
X130576191Y-112897561D01*
X130576191Y-112897561D02*
X130623810Y-112849942D01*
X130623810Y-112849942D02*
X130671429Y-112897561D01*
X130671429Y-112897561D02*
X130623810Y-112945180D01*
X130623810Y-112945180D02*
X130623810Y-112849942D01*
X131004762Y-112611847D02*
X131242857Y-111945180D01*
X131242857Y-111945180D02*
X131480952Y-112611847D01*
X132242857Y-111992800D02*
X132147619Y-111945180D01*
X132147619Y-111945180D02*
X131957143Y-111945180D01*
X131957143Y-111945180D02*
X131861905Y-111992800D01*
X131861905Y-111992800D02*
X131814286Y-112088038D01*
X131814286Y-112088038D02*
X131814286Y-112468990D01*
X131814286Y-112468990D02*
X131861905Y-112564228D01*
X131861905Y-112564228D02*
X131957143Y-112611847D01*
X131957143Y-112611847D02*
X132147619Y-112611847D01*
X132147619Y-112611847D02*
X132242857Y-112564228D01*
X132242857Y-112564228D02*
X132290476Y-112468990D01*
X132290476Y-112468990D02*
X132290476Y-112373752D01*
X132290476Y-112373752D02*
X131814286Y-112278514D01*
D11*
X132017000Y-78454949D02*
X132064619Y-78597806D01*
X132064619Y-78597806D02*
X132064619Y-78835901D01*
X132064619Y-78835901D02*
X132017000Y-78931139D01*
X132017000Y-78931139D02*
X131969380Y-78978758D01*
X131969380Y-78978758D02*
X131874142Y-79026377D01*
X131874142Y-79026377D02*
X131778904Y-79026377D01*
X131778904Y-79026377D02*
X131683666Y-78978758D01*
X131683666Y-78978758D02*
X131636047Y-78931139D01*
X131636047Y-78931139D02*
X131588428Y-78835901D01*
X131588428Y-78835901D02*
X131540809Y-78645425D01*
X131540809Y-78645425D02*
X131493190Y-78550187D01*
X131493190Y-78550187D02*
X131445571Y-78502568D01*
X131445571Y-78502568D02*
X131350333Y-78454949D01*
X131350333Y-78454949D02*
X131255095Y-78454949D01*
X131255095Y-78454949D02*
X131159857Y-78502568D01*
X131159857Y-78502568D02*
X131112238Y-78550187D01*
X131112238Y-78550187D02*
X131064619Y-78645425D01*
X131064619Y-78645425D02*
X131064619Y-78883520D01*
X131064619Y-78883520D02*
X131112238Y-79026377D01*
X131064619Y-79359711D02*
X132064619Y-79597806D01*
X132064619Y-79597806D02*
X131350333Y-79788282D01*
X131350333Y-79788282D02*
X132064619Y-79978758D01*
X132064619Y-79978758D02*
X131064619Y-80216854D01*
X132064619Y-80597806D02*
X131064619Y-80597806D01*
X131064619Y-80597806D02*
X131064619Y-80835901D01*
X131064619Y-80835901D02*
X131112238Y-80978758D01*
X131112238Y-80978758D02*
X131207476Y-81073996D01*
X131207476Y-81073996D02*
X131302714Y-81121615D01*
X131302714Y-81121615D02*
X131493190Y-81169234D01*
X131493190Y-81169234D02*
X131636047Y-81169234D01*
X131636047Y-81169234D02*
X131826523Y-81121615D01*
X131826523Y-81121615D02*
X131921761Y-81073996D01*
X131921761Y-81073996D02*
X132017000Y-80978758D01*
X132017000Y-80978758D02*
X132064619Y-80835901D01*
X132064619Y-80835901D02*
X132064619Y-80597806D01*
X132064619Y-81597806D02*
X131064619Y-81597806D01*
X131064619Y-82264472D02*
X131064619Y-82454948D01*
X131064619Y-82454948D02*
X131112238Y-82550186D01*
X131112238Y-82550186D02*
X131207476Y-82645424D01*
X131207476Y-82645424D02*
X131397952Y-82693043D01*
X131397952Y-82693043D02*
X131731285Y-82693043D01*
X131731285Y-82693043D02*
X131921761Y-82645424D01*
X131921761Y-82645424D02*
X132017000Y-82550186D01*
X132017000Y-82550186D02*
X132064619Y-82454948D01*
X132064619Y-82454948D02*
X132064619Y-82264472D01*
X132064619Y-82264472D02*
X132017000Y-82169234D01*
X132017000Y-82169234D02*
X131921761Y-82073996D01*
X131921761Y-82073996D02*
X131731285Y-82026377D01*
X131731285Y-82026377D02*
X131397952Y-82026377D01*
X131397952Y-82026377D02*
X131207476Y-82073996D01*
X131207476Y-82073996D02*
X131112238Y-82169234D01*
X131112238Y-82169234D02*
X131064619Y-82264472D01*
X134717000Y-78354949D02*
X134764619Y-78497806D01*
X134764619Y-78497806D02*
X134764619Y-78735901D01*
X134764619Y-78735901D02*
X134717000Y-78831139D01*
X134717000Y-78831139D02*
X134669380Y-78878758D01*
X134669380Y-78878758D02*
X134574142Y-78926377D01*
X134574142Y-78926377D02*
X134478904Y-78926377D01*
X134478904Y-78926377D02*
X134383666Y-78878758D01*
X134383666Y-78878758D02*
X134336047Y-78831139D01*
X134336047Y-78831139D02*
X134288428Y-78735901D01*
X134288428Y-78735901D02*
X134240809Y-78545425D01*
X134240809Y-78545425D02*
X134193190Y-78450187D01*
X134193190Y-78450187D02*
X134145571Y-78402568D01*
X134145571Y-78402568D02*
X134050333Y-78354949D01*
X134050333Y-78354949D02*
X133955095Y-78354949D01*
X133955095Y-78354949D02*
X133859857Y-78402568D01*
X133859857Y-78402568D02*
X133812238Y-78450187D01*
X133812238Y-78450187D02*
X133764619Y-78545425D01*
X133764619Y-78545425D02*
X133764619Y-78783520D01*
X133764619Y-78783520D02*
X133812238Y-78926377D01*
X133764619Y-79259711D02*
X134764619Y-79497806D01*
X134764619Y-79497806D02*
X134050333Y-79688282D01*
X134050333Y-79688282D02*
X134764619Y-79878758D01*
X134764619Y-79878758D02*
X133764619Y-80116854D01*
X134669380Y-81069234D02*
X134717000Y-81021615D01*
X134717000Y-81021615D02*
X134764619Y-80878758D01*
X134764619Y-80878758D02*
X134764619Y-80783520D01*
X134764619Y-80783520D02*
X134717000Y-80640663D01*
X134717000Y-80640663D02*
X134621761Y-80545425D01*
X134621761Y-80545425D02*
X134526523Y-80497806D01*
X134526523Y-80497806D02*
X134336047Y-80450187D01*
X134336047Y-80450187D02*
X134193190Y-80450187D01*
X134193190Y-80450187D02*
X134002714Y-80497806D01*
X134002714Y-80497806D02*
X133907476Y-80545425D01*
X133907476Y-80545425D02*
X133812238Y-80640663D01*
X133812238Y-80640663D02*
X133764619Y-80783520D01*
X133764619Y-80783520D02*
X133764619Y-80878758D01*
X133764619Y-80878758D02*
X133812238Y-81021615D01*
X133812238Y-81021615D02*
X133859857Y-81069234D01*
X134764619Y-81973996D02*
X134764619Y-81497806D01*
X134764619Y-81497806D02*
X133764619Y-81497806D01*
X134764619Y-82307330D02*
X133764619Y-82307330D01*
X134764619Y-82878758D02*
X134193190Y-82450187D01*
X133764619Y-82878758D02*
X134336047Y-82307330D01*
D12*
X175300828Y-84740225D02*
X175300828Y-85597368D01*
X176800828Y-85168796D02*
X175300828Y-85168796D01*
X175300828Y-85954510D02*
X176800828Y-86954510D01*
X175300828Y-86954510D02*
X176800828Y-85954510D01*
X175300828Y-82568796D02*
X175300828Y-81854510D01*
X175300828Y-81854510D02*
X176015114Y-81783082D01*
X176015114Y-81783082D02*
X175943685Y-81854510D01*
X175943685Y-81854510D02*
X175872257Y-81997368D01*
X175872257Y-81997368D02*
X175872257Y-82354510D01*
X175872257Y-82354510D02*
X175943685Y-82497368D01*
X175943685Y-82497368D02*
X176015114Y-82568796D01*
X176015114Y-82568796D02*
X176157971Y-82640225D01*
X176157971Y-82640225D02*
X176515114Y-82640225D01*
X176515114Y-82640225D02*
X176657971Y-82568796D01*
X176657971Y-82568796D02*
X176729400Y-82497368D01*
X176729400Y-82497368D02*
X176800828Y-82354510D01*
X176800828Y-82354510D02*
X176800828Y-81997368D01*
X176800828Y-81997368D02*
X176729400Y-81854510D01*
X176729400Y-81854510D02*
X176657971Y-81783082D01*
X175300828Y-83068796D02*
X176800828Y-83568796D01*
X176800828Y-83568796D02*
X175300828Y-84068796D01*
X176800828Y-88711653D02*
X176086542Y-88211653D01*
X176800828Y-87854510D02*
X175300828Y-87854510D01*
X175300828Y-87854510D02*
X175300828Y-88425939D01*
X175300828Y-88425939D02*
X175372257Y-88568796D01*
X175372257Y-88568796D02*
X175443685Y-88640225D01*
X175443685Y-88640225D02*
X175586542Y-88711653D01*
X175586542Y-88711653D02*
X175800828Y-88711653D01*
X175800828Y-88711653D02*
X175943685Y-88640225D01*
X175943685Y-88640225D02*
X176015114Y-88568796D01*
X176015114Y-88568796D02*
X176086542Y-88425939D01*
X176086542Y-88425939D02*
X176086542Y-87854510D01*
X175300828Y-89211653D02*
X176800828Y-90211653D01*
X175300828Y-90211653D02*
X176800828Y-89211653D01*
X175200828Y-95268796D02*
X175200828Y-94554510D01*
X175200828Y-94554510D02*
X175915114Y-94483082D01*
X175915114Y-94483082D02*
X175843685Y-94554510D01*
X175843685Y-94554510D02*
X175772257Y-94697368D01*
X175772257Y-94697368D02*
X175772257Y-95054510D01*
X175772257Y-95054510D02*
X175843685Y-95197368D01*
X175843685Y-95197368D02*
X175915114Y-95268796D01*
X175915114Y-95268796D02*
X176057971Y-95340225D01*
X176057971Y-95340225D02*
X176415114Y-95340225D01*
X176415114Y-95340225D02*
X176557971Y-95268796D01*
X176557971Y-95268796D02*
X176629400Y-95197368D01*
X176629400Y-95197368D02*
X176700828Y-95054510D01*
X176700828Y-95054510D02*
X176700828Y-94697368D01*
X176700828Y-94697368D02*
X176629400Y-94554510D01*
X176629400Y-94554510D02*
X176557971Y-94483082D01*
X175200828Y-95768796D02*
X176700828Y-96268796D01*
X176700828Y-96268796D02*
X175200828Y-96768796D01*
X175200828Y-97440225D02*
X175200828Y-98297368D01*
X176700828Y-97868796D02*
X175200828Y-97868796D01*
X175200828Y-98654510D02*
X176700828Y-99654510D01*
X175200828Y-99654510D02*
X176700828Y-98654510D01*
X176700828Y-101411653D02*
X175986542Y-100911653D01*
X176700828Y-100554510D02*
X175200828Y-100554510D01*
X175200828Y-100554510D02*
X175200828Y-101125939D01*
X175200828Y-101125939D02*
X175272257Y-101268796D01*
X175272257Y-101268796D02*
X175343685Y-101340225D01*
X175343685Y-101340225D02*
X175486542Y-101411653D01*
X175486542Y-101411653D02*
X175700828Y-101411653D01*
X175700828Y-101411653D02*
X175843685Y-101340225D01*
X175843685Y-101340225D02*
X175915114Y-101268796D01*
X175915114Y-101268796D02*
X175986542Y-101125939D01*
X175986542Y-101125939D02*
X175986542Y-100554510D01*
X175200828Y-101911653D02*
X176700828Y-102911653D01*
X175200828Y-102911653D02*
X176700828Y-101911653D01*
D13*
%TO.C,G\u002A\u002A\u002A*%
G36*
X159912839Y-86898200D02*
G01*
X160296689Y-87783588D01*
X160620756Y-88681374D01*
X160881355Y-89584196D01*
X160893225Y-89631696D01*
X161054696Y-90379704D01*
X161136278Y-90894468D01*
X161178378Y-91160114D01*
X161262908Y-91956394D01*
X161306924Y-92752012D01*
X161309064Y-93530435D01*
X161286552Y-93938339D01*
X161267964Y-94275132D01*
X161258258Y-94382724D01*
X161134635Y-95407168D01*
X160957270Y-96392986D01*
X160800752Y-97033271D01*
X160724976Y-97343258D01*
X160436567Y-98261062D01*
X160090856Y-99149479D01*
X160052970Y-99230286D01*
X159874782Y-99610343D01*
X159686659Y-100011589D01*
X159222788Y-100850472D01*
X159162807Y-100944060D01*
X158698057Y-101669206D01*
X158276734Y-102244825D01*
X158111280Y-102470871D01*
X158092041Y-102495528D01*
X157488311Y-103214892D01*
X156827984Y-103901349D01*
X156110107Y-104555771D01*
X155333725Y-105179028D01*
X154497884Y-105771993D01*
X154059562Y-106052456D01*
X153236327Y-106519271D01*
X152376522Y-106933876D01*
X151486312Y-107294103D01*
X150571861Y-107597781D01*
X149639333Y-107842743D01*
X148694895Y-108026819D01*
X147744710Y-108147842D01*
X147719999Y-108150113D01*
X147243537Y-108182282D01*
X146720734Y-108198114D01*
X146169321Y-108198084D01*
X145607025Y-108182664D01*
X145051578Y-108152327D01*
X144520708Y-108107547D01*
X144032143Y-108048795D01*
X143658227Y-107988564D01*
X143038632Y-107861720D01*
X142396016Y-107699964D01*
X141747885Y-107508231D01*
X141111740Y-107291454D01*
X140505085Y-107054568D01*
X139760669Y-106721836D01*
X138975551Y-106318606D01*
X138228691Y-105875524D01*
X137512125Y-105387125D01*
X136817890Y-104847944D01*
X136138023Y-104252516D01*
X135464559Y-103595375D01*
X135224083Y-103343430D01*
X134689441Y-102737864D01*
X134199467Y-102112759D01*
X133745882Y-101456452D01*
X133320405Y-100757277D01*
X132914756Y-100003571D01*
X132871425Y-99917706D01*
X132515854Y-99165394D01*
X132212348Y-98426765D01*
X131954922Y-97684747D01*
X131737592Y-96922264D01*
X131554374Y-96122244D01*
X131477745Y-95706081D01*
X131377829Y-94972527D01*
X131313945Y-94207795D01*
X131286138Y-93426506D01*
X131294454Y-92643278D01*
X131338937Y-91872734D01*
X131359065Y-91687349D01*
X133607185Y-91687349D01*
X133609175Y-91725267D01*
X133619237Y-91724558D01*
X133677350Y-91703424D01*
X133774345Y-91660958D01*
X133896138Y-91603155D01*
X133922687Y-91590277D01*
X134280696Y-91437973D01*
X134677163Y-91303917D01*
X135086021Y-91197004D01*
X135186985Y-91177486D01*
X135426396Y-91145674D01*
X135708807Y-91122450D01*
X136018538Y-91108176D01*
X136339914Y-91103213D01*
X136657256Y-91107923D01*
X136954886Y-91122668D01*
X137217128Y-91147810D01*
X137457610Y-91183246D01*
X137790719Y-91247262D01*
X138107947Y-91324668D01*
X138392190Y-91411160D01*
X138626343Y-91502433D01*
X138643198Y-91509980D01*
X138754922Y-91554554D01*
X138834701Y-91576792D01*
X138868556Y-91572641D01*
X138881289Y-91538493D01*
X138933066Y-91422867D01*
X139007394Y-91273679D01*
X139095291Y-91107643D01*
X139187776Y-90941473D01*
X139275868Y-90791882D01*
X139350586Y-90675584D01*
X139429534Y-90570470D01*
X139531194Y-90449076D01*
X139642905Y-90325386D01*
X139754153Y-90210267D01*
X139854427Y-90114585D01*
X139933212Y-90049207D01*
X139979996Y-90025000D01*
X140013242Y-90035818D01*
X140095183Y-90086953D01*
X140208399Y-90172873D01*
X140343688Y-90285572D01*
X140491845Y-90417042D01*
X140643668Y-90559279D01*
X140789953Y-90704275D01*
X140921496Y-90844024D01*
X140977022Y-90905137D01*
X141064324Y-90998847D01*
X141129100Y-91065282D01*
X141160317Y-91092944D01*
X141185731Y-91073928D01*
X141242653Y-91010446D01*
X141321879Y-90912538D01*
X141414696Y-90790563D01*
X141473344Y-90712117D01*
X141745537Y-90369575D01*
X142007431Y-90079155D01*
X142268769Y-89831459D01*
X142539296Y-89617089D01*
X142828755Y-89426647D01*
X142872228Y-89401003D01*
X143010952Y-89324539D01*
X143139345Y-89260765D01*
X143234247Y-89221405D01*
X143376194Y-89174558D01*
X143557648Y-89346169D01*
X143720340Y-89488137D01*
X143980898Y-89665710D01*
X144236841Y-89778415D01*
X144409348Y-89832793D01*
X144427998Y-90273274D01*
X144428011Y-90273573D01*
X144465617Y-90689447D01*
X144544445Y-91068027D01*
X144669242Y-91420206D01*
X144844759Y-91756880D01*
X145075742Y-92088940D01*
X145366940Y-92427280D01*
X145635224Y-92714028D01*
X145488843Y-92849762D01*
X145363994Y-92957657D01*
X145086605Y-93159596D01*
X144769548Y-93350745D01*
X144430691Y-93520779D01*
X144087902Y-93659372D01*
X143936716Y-93716467D01*
X143638779Y-93845824D01*
X143324663Y-94000443D01*
X143017050Y-94168887D01*
X142738625Y-94339716D01*
X142593583Y-94437347D01*
X142087069Y-94822713D01*
X141636077Y-95242297D01*
X141236228Y-95700984D01*
X140883144Y-96203655D01*
X140572445Y-96755193D01*
X140497500Y-96907771D01*
X140267060Y-97443471D01*
X140093802Y-97972524D01*
X139974294Y-98509404D01*
X139905105Y-99068587D01*
X139882805Y-99664547D01*
X139911213Y-100281563D01*
X140003546Y-100919314D01*
X140159336Y-101535922D01*
X140377996Y-102130033D01*
X140658940Y-102700291D01*
X141001582Y-103245341D01*
X141405334Y-103763828D01*
X141869611Y-104254396D01*
X142285778Y-104623596D01*
X142802277Y-105002349D01*
X143347513Y-105320407D01*
X143922088Y-105578075D01*
X144526603Y-105775655D01*
X145161662Y-105913451D01*
X145533442Y-105962946D01*
X146001507Y-105995612D01*
X146473089Y-105999034D01*
X146926870Y-105973166D01*
X147341535Y-105917966D01*
X147603280Y-105865611D01*
X148240889Y-105692341D01*
X148848617Y-105460979D01*
X149423443Y-105173799D01*
X149962344Y-104833073D01*
X150462297Y-104441075D01*
X150920280Y-104000078D01*
X151333268Y-103512354D01*
X151698241Y-102980177D01*
X152012175Y-102405820D01*
X152019074Y-102391512D01*
X152226733Y-101922451D01*
X152265471Y-101813587D01*
X154615477Y-101813587D01*
X154863470Y-102052084D01*
X154928819Y-102114536D01*
X155048347Y-102224727D01*
X155133399Y-102294272D01*
X155192353Y-102328621D01*
X155233589Y-102333225D01*
X155265488Y-102313533D01*
X155289936Y-102285069D01*
X155297506Y-102244825D01*
X155257133Y-102203600D01*
X155161442Y-102149789D01*
X155072017Y-102100951D01*
X154943759Y-102025131D01*
X154817064Y-101945384D01*
X154615477Y-101813587D01*
X152265471Y-101813587D01*
X152387880Y-101469591D01*
X152509737Y-101009748D01*
X152599521Y-100519738D01*
X152602668Y-100497943D01*
X152608338Y-100443719D01*
X155114288Y-100443719D01*
X155131599Y-100465052D01*
X155186641Y-100513660D01*
X155294055Y-100595648D01*
X155487011Y-100722934D01*
X155719006Y-100858771D01*
X155976103Y-100994664D01*
X156063118Y-101038047D01*
X156176903Y-101093658D01*
X156257785Y-101131762D01*
X156292261Y-101145899D01*
X156303253Y-101142123D01*
X156343650Y-101102730D01*
X156387538Y-101040176D01*
X156419051Y-100979079D01*
X156422327Y-100944060D01*
X156421836Y-100943671D01*
X156378922Y-100924755D01*
X156285704Y-100890966D01*
X156155561Y-100846972D01*
X156001875Y-100797438D01*
X155859488Y-100750604D01*
X155675113Y-100685192D01*
X155507420Y-100620895D01*
X155380314Y-100566594D01*
X155365518Y-100559658D01*
X155252626Y-100506818D01*
X155164610Y-100465758D01*
X155119445Y-100444865D01*
X155114288Y-100443719D01*
X152608338Y-100443719D01*
X152630132Y-100235273D01*
X152646435Y-99932303D01*
X152651573Y-99610343D01*
X152645540Y-99290707D01*
X152634353Y-99098279D01*
X155472699Y-99098279D01*
X155503989Y-99118984D01*
X155599135Y-99155228D01*
X155757805Y-99206624D01*
X155786142Y-99215249D01*
X156134151Y-99303392D01*
X156535660Y-99376144D01*
X156979288Y-99431410D01*
X157084529Y-99441662D01*
X157220554Y-99454223D01*
X157322730Y-99462819D01*
X157374557Y-99466005D01*
X157384791Y-99463233D01*
X157432253Y-99423994D01*
X157488415Y-99356499D01*
X157535359Y-99284135D01*
X157555166Y-99230286D01*
X157533017Y-99225117D01*
X157456035Y-99221847D01*
X157336911Y-99221910D01*
X157189247Y-99225482D01*
X157087807Y-99227498D01*
X156821279Y-99223413D01*
X156523417Y-99208714D01*
X156218210Y-99185112D01*
X155929649Y-99154315D01*
X155681723Y-99118033D01*
X155603023Y-99105034D01*
X155505600Y-99093500D01*
X155472699Y-99098279D01*
X152634353Y-99098279D01*
X152628332Y-98994705D01*
X152599943Y-98743650D01*
X152553853Y-98482995D01*
X152412854Y-97913573D01*
X152292641Y-97560893D01*
X155759057Y-97560893D01*
X155783738Y-97571023D01*
X155875397Y-97585931D01*
X156003760Y-97599370D01*
X156254534Y-97610344D01*
X156550760Y-97608941D01*
X156879890Y-97595739D01*
X157229373Y-97571315D01*
X157586663Y-97536244D01*
X157939209Y-97491103D01*
X158339925Y-97433214D01*
X158408684Y-97241991D01*
X158437934Y-97153415D01*
X158458742Y-97071572D01*
X158459947Y-97033271D01*
X158459903Y-97033228D01*
X158422497Y-97035705D01*
X158334230Y-97055153D01*
X158208240Y-97088347D01*
X158057667Y-97132058D01*
X157820384Y-97198389D01*
X157530236Y-97269595D01*
X157215846Y-97338701D01*
X156892007Y-97402933D01*
X156573516Y-97459519D01*
X156275168Y-97505684D01*
X156011758Y-97538654D01*
X155798081Y-97555656D01*
X155759057Y-97560893D01*
X152292641Y-97560893D01*
X152220229Y-97348451D01*
X151981837Y-96801803D01*
X151703543Y-96287806D01*
X151597755Y-96129576D01*
X155135924Y-96129576D01*
X155140114Y-96136134D01*
X155172549Y-96133630D01*
X155242502Y-96120409D01*
X155359247Y-96094814D01*
X155532058Y-96055189D01*
X156129348Y-95896496D01*
X156754960Y-95681211D01*
X157364868Y-95416947D01*
X157970778Y-95098587D01*
X158584397Y-94721015D01*
X158991942Y-94452837D01*
X159015343Y-94184569D01*
X159018308Y-94148672D01*
X159025645Y-94027257D01*
X159026845Y-93938339D01*
X159021537Y-93899093D01*
X159011860Y-93900261D01*
X158960691Y-93931548D01*
X158877562Y-93994281D01*
X158774697Y-94079523D01*
X158391169Y-94393855D01*
X157721139Y-94875234D01*
X157015879Y-95302055D01*
X156281261Y-95670889D01*
X155523158Y-95978306D01*
X155384033Y-96028913D01*
X155261002Y-96075055D01*
X155175156Y-96108848D01*
X155139582Y-96125277D01*
X155135924Y-96129576D01*
X151597755Y-96129576D01*
X151391206Y-95820634D01*
X151318352Y-95725832D01*
X151013336Y-95375010D01*
X150658898Y-95027384D01*
X150460608Y-94858010D01*
X154195923Y-94858010D01*
X154220216Y-94853304D01*
X154281591Y-94830293D01*
X154388222Y-94786129D01*
X154548281Y-94717968D01*
X154687190Y-94656279D01*
X155178231Y-94404753D01*
X155681123Y-94097707D01*
X156187288Y-93741069D01*
X156688147Y-93340767D01*
X157175120Y-92902729D01*
X157301849Y-92780273D01*
X157675608Y-92396448D01*
X158022819Y-92001393D01*
X158358551Y-91577333D01*
X158697872Y-91106493D01*
X158844607Y-90894468D01*
X158767993Y-90554746D01*
X158748824Y-90471479D01*
X158707716Y-90301669D01*
X158667800Y-90146536D01*
X158635534Y-90031591D01*
X158579688Y-89848157D01*
X158288089Y-90432147D01*
X158255890Y-90496182D01*
X157936238Y-91084518D01*
X157592804Y-91629838D01*
X157215136Y-92146551D01*
X156792783Y-92649064D01*
X156315294Y-93151785D01*
X156205233Y-93260628D01*
X155823862Y-93619895D01*
X155450338Y-93941056D01*
X155065222Y-94240232D01*
X154649075Y-94533543D01*
X154592333Y-94571915D01*
X154452161Y-94667341D01*
X154335119Y-94747916D01*
X154252096Y-94806110D01*
X154213982Y-94834393D01*
X154200541Y-94847256D01*
X154195923Y-94858010D01*
X150460608Y-94858010D01*
X150268342Y-94693782D01*
X149854975Y-94385030D01*
X149432102Y-94111957D01*
X149013030Y-93885389D01*
X148951988Y-93854066D01*
X148881070Y-93811270D01*
X148853440Y-93784794D01*
X148866312Y-93773024D01*
X148929399Y-93739287D01*
X149033154Y-93692075D01*
X149164220Y-93637711D01*
X149288915Y-93585418D01*
X153124633Y-93585418D01*
X153136163Y-93581180D01*
X153195238Y-93541911D01*
X153290347Y-93468082D01*
X153412164Y-93367726D01*
X153551362Y-93248877D01*
X153698614Y-93119569D01*
X153844593Y-92987836D01*
X153979974Y-92861711D01*
X154095428Y-92749228D01*
X154339925Y-92491909D01*
X154791511Y-91946715D01*
X155195308Y-91358164D01*
X155551888Y-90725070D01*
X155861824Y-90046248D01*
X156125686Y-89320510D01*
X156344047Y-88546671D01*
X156517478Y-87723545D01*
X156542931Y-87553156D01*
X156566247Y-87338119D01*
X156585305Y-87099728D01*
X156599791Y-86849257D01*
X156609391Y-86597984D01*
X156613792Y-86357183D01*
X156612679Y-86138133D01*
X156605739Y-85952108D01*
X156592658Y-85810385D01*
X156573121Y-85724239D01*
X156555394Y-85690995D01*
X156495392Y-85600929D01*
X156405325Y-85478694D01*
X156293954Y-85336019D01*
X156170040Y-85184633D01*
X156063507Y-85059835D01*
X155930604Y-84908445D01*
X155786471Y-84747678D01*
X155638084Y-84584991D01*
X155492417Y-84427842D01*
X155356448Y-84283689D01*
X155237150Y-84159989D01*
X155141501Y-84064200D01*
X155076474Y-84003778D01*
X155049047Y-83986182D01*
X155048741Y-83986862D01*
X155056698Y-84026132D01*
X155082528Y-84115262D01*
X155122447Y-84241791D01*
X155172671Y-84393259D01*
X155274275Y-84713070D01*
X155454320Y-85423559D01*
X155576989Y-86144414D01*
X155643116Y-86870439D01*
X155648847Y-87269973D01*
X155653529Y-87596438D01*
X155609062Y-88317216D01*
X155510544Y-89027576D01*
X155358808Y-89722324D01*
X155154684Y-90396264D01*
X154899003Y-91044200D01*
X154592598Y-91660936D01*
X154236298Y-92241276D01*
X153830936Y-92780026D01*
X153761120Y-92862173D01*
X153649282Y-92990515D01*
X153521715Y-93134458D01*
X153394623Y-93275595D01*
X153381348Y-93290212D01*
X153277446Y-93405677D01*
X153194614Y-93499578D01*
X153140970Y-93562597D01*
X153124633Y-93585418D01*
X149288915Y-93585418D01*
X149379029Y-93547627D01*
X149951432Y-93260015D01*
X150488484Y-92918807D01*
X150985811Y-92527679D01*
X151439038Y-92090304D01*
X151843790Y-91610357D01*
X152195693Y-91091513D01*
X152352918Y-90830910D01*
X152250565Y-90701678D01*
X152191992Y-90631829D01*
X151945870Y-90401341D01*
X151647337Y-90202758D01*
X151302795Y-90038328D01*
X150918646Y-89910305D01*
X150501295Y-89820939D01*
X150057143Y-89772481D01*
X149592593Y-89767182D01*
X149168238Y-89800841D01*
X148694943Y-89889693D01*
X148254360Y-90033927D01*
X147840173Y-90236188D01*
X147446071Y-90499120D01*
X147065739Y-90825366D01*
X146806742Y-91072800D01*
X146626884Y-90917523D01*
X146543252Y-90842003D01*
X146268253Y-90542494D01*
X146031059Y-90202189D01*
X145844644Y-89838975D01*
X145749714Y-89615615D01*
X145938639Y-89449898D01*
X146031383Y-89363262D01*
X146251184Y-89099532D01*
X146410545Y-88807015D01*
X146508550Y-88487685D01*
X146544284Y-88143518D01*
X146544388Y-88133392D01*
X146523704Y-87798016D01*
X146452585Y-87498126D01*
X146326534Y-87220423D01*
X146141049Y-86951607D01*
X146016721Y-86811210D01*
X145741168Y-86566751D01*
X145422455Y-86354684D01*
X145074446Y-86183628D01*
X144711000Y-86062204D01*
X144537689Y-86023818D01*
X144262713Y-85980044D01*
X143974999Y-85950576D01*
X143700010Y-85937823D01*
X143463210Y-85944192D01*
X143392207Y-85950664D01*
X143171265Y-85978625D01*
X142938806Y-86017573D01*
X142714471Y-86063612D01*
X142517897Y-86112843D01*
X142368722Y-86161371D01*
X142299238Y-86187268D01*
X142231052Y-86203833D01*
X142165007Y-86202338D01*
X142089463Y-86178987D01*
X141992778Y-86129984D01*
X141863311Y-86051531D01*
X141689422Y-85939832D01*
X141627000Y-85899098D01*
X141295031Y-85670189D01*
X141002327Y-85443486D01*
X140728207Y-85202097D01*
X140451993Y-84929132D01*
X140182706Y-84626667D01*
X139892167Y-84237513D01*
X139645135Y-83832200D01*
X139448602Y-83422414D01*
X139309561Y-83019841D01*
X139299776Y-82984197D01*
X139263620Y-82855150D01*
X139233483Y-82751461D01*
X139215078Y-82692898D01*
X139206730Y-82680221D01*
X139180013Y-82676699D01*
X139130182Y-82697269D01*
X139049720Y-82746175D01*
X138931110Y-82827662D01*
X138766833Y-82945975D01*
X138515010Y-83133562D01*
X138029967Y-83522797D01*
X137571094Y-83932684D01*
X137113932Y-84384512D01*
X136992016Y-84512819D01*
X136805897Y-84716003D01*
X136614329Y-84932473D01*
X136425974Y-85151934D01*
X136249493Y-85364089D01*
X136093547Y-85558643D01*
X135966798Y-85725300D01*
X135877908Y-85853764D01*
X135874894Y-85858535D01*
X135851299Y-85899034D01*
X135848311Y-85918988D01*
X135873375Y-85915664D01*
X135933938Y-85886328D01*
X136037443Y-85828247D01*
X136191337Y-85738688D01*
X136848421Y-85378683D01*
X137617630Y-85017937D01*
X137754947Y-84961012D01*
X137991394Y-84870077D01*
X138243545Y-84780318D01*
X138502664Y-84694222D01*
X138760012Y-84614278D01*
X139006853Y-84542972D01*
X139234449Y-84482790D01*
X139434065Y-84436221D01*
X139596961Y-84405752D01*
X139714403Y-84393868D01*
X139777651Y-84403059D01*
X139819449Y-84442547D01*
X139885250Y-84523041D01*
X139957675Y-84624633D01*
X139960413Y-84628717D01*
X140064500Y-84767266D01*
X140206414Y-84934019D01*
X140372699Y-85114801D01*
X140549897Y-85295436D01*
X140724551Y-85461748D01*
X140883204Y-85599562D01*
X141121513Y-85782463D01*
X141496131Y-86036304D01*
X141882343Y-86262475D01*
X142151590Y-86407389D01*
X142369512Y-86321187D01*
X142506657Y-86269708D01*
X142712223Y-86205725D01*
X142919366Y-86160394D01*
X143144356Y-86131169D01*
X143403465Y-86115502D01*
X143712963Y-86110846D01*
X143933952Y-86112320D01*
X144143849Y-86118865D01*
X144317004Y-86132406D01*
X144469785Y-86154828D01*
X144618560Y-86188021D01*
X144779696Y-86233872D01*
X144848219Y-86260485D01*
X144884631Y-86294383D01*
X144855819Y-86319586D01*
X144762897Y-86329729D01*
X144608531Y-86343699D01*
X144403406Y-86387233D01*
X144187352Y-86453971D01*
X143984710Y-86537418D01*
X143755577Y-86677301D01*
X143532457Y-86880665D01*
X143342114Y-87127911D01*
X143192915Y-87408039D01*
X143093223Y-87710043D01*
X143069387Y-87807487D01*
X143047293Y-87887825D01*
X143034789Y-87920780D01*
X143010941Y-87927758D01*
X142933392Y-87948261D01*
X142815621Y-87978546D01*
X142671429Y-88015031D01*
X142382032Y-88097924D01*
X141892575Y-88288941D01*
X141440805Y-88533537D01*
X141356019Y-88586034D01*
X141244807Y-88652383D01*
X141163386Y-88697827D01*
X141125143Y-88714682D01*
X141115422Y-88709835D01*
X141067611Y-88666848D01*
X140993347Y-88588969D01*
X140904035Y-88487896D01*
X140864335Y-88441953D01*
X140696509Y-88255280D01*
X140507541Y-88054594D01*
X140310359Y-87852941D01*
X140117891Y-87663367D01*
X139943065Y-87498917D01*
X139798810Y-87372638D01*
X139632726Y-87241118D01*
X139150951Y-86914446D01*
X138638236Y-86641062D01*
X138101570Y-86423133D01*
X137547938Y-86262828D01*
X136984328Y-86162312D01*
X136417727Y-86123754D01*
X135855121Y-86149321D01*
X135647740Y-86170996D01*
X135383354Y-86611292D01*
X135365037Y-86641878D01*
X135252266Y-86833186D01*
X135136986Y-87033070D01*
X135031748Y-87219580D01*
X134949101Y-87370767D01*
X134948283Y-87372303D01*
X134882768Y-87499474D01*
X134807812Y-87651223D01*
X134729017Y-87815434D01*
X134651987Y-87979990D01*
X134582322Y-88132774D01*
X134525625Y-88261670D01*
X134487499Y-88354560D01*
X134473546Y-88399328D01*
X134484675Y-88390677D01*
X134528332Y-88339301D01*
X134597367Y-88251975D01*
X134683532Y-88138932D01*
X134749681Y-88053905D01*
X134911938Y-87860786D01*
X135102764Y-87648699D01*
X135308267Y-87432103D01*
X135514558Y-87225456D01*
X135707745Y-87043218D01*
X135873937Y-86899846D01*
X135881086Y-86894106D01*
X136074115Y-86746944D01*
X136267780Y-86612849D01*
X136451728Y-86497924D01*
X136615602Y-86408277D01*
X136749049Y-86350011D01*
X136841714Y-86329232D01*
X136915068Y-86334435D01*
X137056197Y-86355206D01*
X137233564Y-86388585D01*
X137431125Y-86431077D01*
X137632835Y-86479184D01*
X137822649Y-86529411D01*
X137984524Y-86578261D01*
X138181573Y-86651632D01*
X138436824Y-86763171D01*
X138708866Y-86895766D01*
X138978048Y-87039340D01*
X139224721Y-87183815D01*
X139429233Y-87319115D01*
X139740428Y-87562129D01*
X140063304Y-87849551D01*
X140370750Y-88156939D01*
X140640832Y-88463576D01*
X140641340Y-88464199D01*
X140750059Y-88597210D01*
X140849143Y-88717855D01*
X140927675Y-88812877D01*
X140974736Y-88869017D01*
X141041932Y-88947363D01*
X141310715Y-88776850D01*
X141526517Y-88647950D01*
X141875738Y-88468227D01*
X142230822Y-88317175D01*
X142574719Y-88201785D01*
X142890381Y-88129048D01*
X143025339Y-88106661D01*
X143065170Y-88357004D01*
X143093295Y-88497274D01*
X143138369Y-88666920D01*
X143187134Y-88809477D01*
X143269266Y-89011606D01*
X142928350Y-89181599D01*
X142914611Y-89188484D01*
X142475996Y-89446294D01*
X142062843Y-89763974D01*
X141679661Y-90137622D01*
X141330962Y-90563339D01*
X141136481Y-90828842D01*
X140900451Y-90568710D01*
X140659829Y-90319060D01*
X140196146Y-89913016D01*
X139689484Y-89558350D01*
X139140387Y-89255348D01*
X138549400Y-89004293D01*
X137917066Y-88805469D01*
X137243928Y-88659160D01*
X137054756Y-88634302D01*
X136817586Y-88615443D01*
X136547605Y-88602758D01*
X136259057Y-88596261D01*
X135966188Y-88595965D01*
X135683241Y-88601884D01*
X135424463Y-88614032D01*
X135204098Y-88632422D01*
X135036391Y-88657067D01*
X134799300Y-88708639D01*
X134583302Y-88765576D01*
X134424482Y-88821883D01*
X134317566Y-88879894D01*
X134257283Y-88941942D01*
X134238360Y-89010362D01*
X134248815Y-89015736D01*
X134309926Y-89011812D01*
X134413499Y-88993130D01*
X134545488Y-88961906D01*
X134867105Y-88888394D01*
X135196340Y-88835332D01*
X135543563Y-88802646D01*
X135924538Y-88788861D01*
X136355027Y-88792502D01*
X136561878Y-88798632D01*
X136786151Y-88808487D01*
X136972098Y-88821841D01*
X137136096Y-88840264D01*
X137294522Y-88865320D01*
X137463757Y-88898578D01*
X137834742Y-88987327D01*
X138273130Y-89118597D01*
X138688101Y-89270912D01*
X139057915Y-89436928D01*
X139128639Y-89472906D01*
X139294759Y-89561138D01*
X139454255Y-89650422D01*
X139596509Y-89734385D01*
X139710903Y-89806653D01*
X139786821Y-89860852D01*
X139813643Y-89890608D01*
X139792389Y-89915184D01*
X139731406Y-89970043D01*
X139644829Y-90041798D01*
X139605870Y-90073923D01*
X139370338Y-90308842D01*
X139153372Y-90600131D01*
X138951199Y-90952749D01*
X138761045Y-91326133D01*
X138540774Y-91235602D01*
X138238388Y-91126058D01*
X137754749Y-91001109D01*
X137221380Y-90917349D01*
X136640609Y-90875222D01*
X136310979Y-90869864D01*
X135860570Y-90887178D01*
X135425203Y-90936570D01*
X134977514Y-91020430D01*
X134849080Y-91050531D01*
X134589594Y-91122214D01*
X134343421Y-91203869D01*
X134119318Y-91291598D01*
X133926039Y-91381504D01*
X133772339Y-91469689D01*
X133666972Y-91552257D01*
X133618695Y-91625309D01*
X133607185Y-91687349D01*
X131359065Y-91687349D01*
X131419635Y-91129492D01*
X131536592Y-90428174D01*
X131683735Y-89749846D01*
X131870880Y-89025291D01*
X132082565Y-88341981D01*
X132323146Y-87687159D01*
X132596981Y-87048067D01*
X132908429Y-86411949D01*
X132983947Y-86268098D01*
X133476479Y-85402476D01*
X134008636Y-84588463D01*
X134584225Y-83821584D01*
X135207053Y-83097362D01*
X135715787Y-82579446D01*
X139311938Y-82579446D01*
X139312228Y-82583490D01*
X139341443Y-82640616D01*
X139411240Y-82728289D01*
X139511238Y-82835854D01*
X139631057Y-82952658D01*
X139760316Y-83068045D01*
X139888634Y-83171361D01*
X140244554Y-83406969D01*
X140639678Y-83605103D01*
X141075669Y-83765284D01*
X141556003Y-83888403D01*
X142084157Y-83975350D01*
X142663607Y-84027015D01*
X143297830Y-84044289D01*
X143406187Y-84044949D01*
X143961457Y-84067951D01*
X144484642Y-84122860D01*
X144969736Y-84208424D01*
X145410735Y-84323389D01*
X145801633Y-84466502D01*
X146136425Y-84636511D01*
X146226137Y-84693216D01*
X146296181Y-84752062D01*
X146336976Y-84817467D01*
X146365547Y-84909733D01*
X146430080Y-85108996D01*
X146579599Y-85401226D01*
X146785986Y-85675427D01*
X147043259Y-85925188D01*
X147345440Y-86144099D01*
X147686548Y-86325749D01*
X147762938Y-86357474D01*
X147907665Y-86412178D01*
X148088836Y-86476780D01*
X148290717Y-86545699D01*
X148497576Y-86613358D01*
X148886847Y-86743480D01*
X149426406Y-86947626D01*
X149907110Y-87161974D01*
X150333866Y-87389494D01*
X150711580Y-87633155D01*
X151045157Y-87895926D01*
X151339506Y-88180778D01*
X151599531Y-88490679D01*
X151713759Y-88656304D01*
X151850017Y-88884455D01*
X151980577Y-89131547D01*
X152093073Y-89373998D01*
X152175138Y-89588227D01*
X152218058Y-89730663D01*
X152265753Y-89910970D01*
X152309744Y-90097583D01*
X152346130Y-90272835D01*
X152371012Y-90419058D01*
X152380490Y-90518585D01*
X152384862Y-90589185D01*
X152404156Y-90634559D01*
X152439233Y-90616018D01*
X152490562Y-90533213D01*
X152558609Y-90385796D01*
X152598111Y-90291417D01*
X152770365Y-89830495D01*
X152906367Y-89369012D01*
X153008399Y-88894594D01*
X153078746Y-88394866D01*
X153119690Y-87857450D01*
X153133515Y-87269973D01*
X153133161Y-87101779D01*
X153127319Y-86780617D01*
X153112904Y-86499989D01*
X153087929Y-86241858D01*
X153050403Y-85988189D01*
X152998339Y-85720945D01*
X152929747Y-85422089D01*
X152847805Y-85118617D01*
X152636301Y-84524878D01*
X152364002Y-83952780D01*
X152033909Y-83406160D01*
X151649020Y-82888853D01*
X151212333Y-82404697D01*
X150726848Y-81957529D01*
X150195563Y-81551185D01*
X149621477Y-81189501D01*
X149380263Y-81056175D01*
X149058839Y-80893471D01*
X148785483Y-80775199D01*
X148561024Y-80701739D01*
X148411698Y-80668733D01*
X148150662Y-80625703D01*
X147843473Y-80587965D01*
X147502419Y-80556315D01*
X147139786Y-80531552D01*
X146767859Y-80514473D01*
X146398927Y-80505874D01*
X146045274Y-80506554D01*
X145719188Y-80517310D01*
X145513072Y-80529366D01*
X144627403Y-80613320D01*
X143777614Y-80748849D01*
X142955421Y-80938097D01*
X142152538Y-81183208D01*
X141360680Y-81486327D01*
X140571561Y-81849598D01*
X140499158Y-81885989D01*
X140290588Y-81993816D01*
X140082178Y-82105469D01*
X139882443Y-82216014D01*
X139699899Y-82320519D01*
X139543062Y-82414048D01*
X139420445Y-82491668D01*
X139340566Y-82548446D01*
X139311938Y-82579446D01*
X135715787Y-82579446D01*
X135880928Y-82411324D01*
X136609658Y-81758994D01*
X137397048Y-81135896D01*
X137492298Y-81065473D01*
X138305520Y-80510689D01*
X139153130Y-80012516D01*
X140031713Y-79572147D01*
X140937854Y-79190777D01*
X141868139Y-78869599D01*
X142819154Y-78609808D01*
X143787484Y-78412597D01*
X144769716Y-78279160D01*
X145762434Y-78210691D01*
X145902263Y-78206666D01*
X146517450Y-78208995D01*
X147169671Y-78240699D01*
X147841921Y-78299732D01*
X148517198Y-78384046D01*
X149178497Y-78491592D01*
X149808817Y-78620322D01*
X150391154Y-78768189D01*
X150921542Y-78929970D01*
X151826321Y-79258937D01*
X152712131Y-79647759D01*
X153574110Y-80093227D01*
X154407398Y-80592129D01*
X155207132Y-81141255D01*
X155968453Y-81737395D01*
X156686499Y-82377338D01*
X157356408Y-83057875D01*
X157973321Y-83775793D01*
X158439454Y-84390056D01*
X158980535Y-85194071D01*
X159472892Y-86032574D01*
X159637872Y-86357183D01*
X159912839Y-86898200D01*
G37*
G36*
X148815242Y-99146825D02*
G01*
X148904687Y-99376799D01*
X149026837Y-99690692D01*
X149144861Y-99993800D01*
X149255390Y-100277480D01*
X149355056Y-100533092D01*
X149440491Y-100751995D01*
X149508325Y-100925546D01*
X149555191Y-101045105D01*
X149720306Y-101465079D01*
X150261212Y-101474311D01*
X150384198Y-101477050D01*
X150550158Y-101483039D01*
X150682514Y-101490643D01*
X150770068Y-101499165D01*
X150801625Y-101507909D01*
X150799333Y-101519618D01*
X150772997Y-101585583D01*
X150723816Y-101688374D01*
X150660079Y-101812480D01*
X150590077Y-101942392D01*
X150522099Y-102062599D01*
X150464437Y-102157590D01*
X150425379Y-102211856D01*
X150421245Y-102216226D01*
X150393169Y-102242170D01*
X150359112Y-102260994D01*
X150308873Y-102273839D01*
X150232249Y-102281844D01*
X150119037Y-102286150D01*
X149959035Y-102287898D01*
X149742041Y-102288227D01*
X149507440Y-102286857D01*
X149329463Y-102282386D01*
X149206018Y-102274400D01*
X149130750Y-102262486D01*
X149097304Y-102246230D01*
X149080493Y-102211401D01*
X149042285Y-102119816D01*
X148986142Y-101979483D01*
X148914961Y-101797803D01*
X148831642Y-101582178D01*
X148739082Y-101340011D01*
X148640179Y-101078703D01*
X148552517Y-100846009D01*
X148457896Y-100594896D01*
X148371926Y-100366794D01*
X148297612Y-100169676D01*
X148237962Y-100011518D01*
X148195981Y-99900295D01*
X148174677Y-99843981D01*
X148133152Y-99734788D01*
X147653580Y-99734788D01*
X147174009Y-99734788D01*
X147165378Y-102044642D01*
X147156747Y-104354497D01*
X147022355Y-104375581D01*
X146932955Y-104384873D01*
X146795793Y-104391486D01*
X146652778Y-104392380D01*
X146417593Y-104388095D01*
X146417593Y-99651253D01*
X146417593Y-99560002D01*
X146417615Y-98962037D01*
X147173546Y-98962037D01*
X147492725Y-98962037D01*
X147603694Y-98960921D01*
X147724586Y-98954354D01*
X147791380Y-98940992D01*
X147811905Y-98919801D01*
X147810269Y-98912043D01*
X147791027Y-98852028D01*
X147752966Y-98742493D01*
X147699649Y-98593146D01*
X147634639Y-98413696D01*
X147561499Y-98213853D01*
X147483792Y-98003325D01*
X147405082Y-97791821D01*
X147328931Y-97589050D01*
X147258903Y-97404722D01*
X147198561Y-97248545D01*
X147193282Y-97266449D01*
X147188299Y-97343369D01*
X147183880Y-97471316D01*
X147180245Y-97642167D01*
X147177611Y-97847800D01*
X147176198Y-98080092D01*
X147173546Y-98962037D01*
X146417615Y-98962037D01*
X146417617Y-98910588D01*
X146417710Y-98324662D01*
X146417917Y-97798948D01*
X146418283Y-97330174D01*
X146418853Y-96915065D01*
X146419669Y-96550347D01*
X146420777Y-96232747D01*
X146422220Y-95958990D01*
X146424044Y-95725803D01*
X146426292Y-95529913D01*
X146429009Y-95368044D01*
X146432239Y-95236924D01*
X146436026Y-95133278D01*
X146440415Y-95053832D01*
X146445450Y-94995314D01*
X146451175Y-94954448D01*
X146457634Y-94927960D01*
X146464873Y-94912579D01*
X146472935Y-94905028D01*
X146481864Y-94902034D01*
X146503008Y-94899183D01*
X146597969Y-94897475D01*
X146724735Y-94904378D01*
X146863513Y-94917743D01*
X146994509Y-94935417D01*
X147097930Y-94955249D01*
X147153983Y-94975088D01*
X147163468Y-94988362D01*
X147198236Y-95057844D01*
X147252754Y-95179787D01*
X147324222Y-95347477D01*
X147409841Y-95554199D01*
X147506811Y-95793237D01*
X147612332Y-96057876D01*
X147723604Y-96341402D01*
X147740866Y-96385730D01*
X147874334Y-96728539D01*
X148024960Y-97115505D01*
X148186450Y-97530462D01*
X148352515Y-97957241D01*
X148516863Y-98379673D01*
X148673202Y-98781590D01*
X148726952Y-98919801D01*
X148815242Y-99146825D01*
G37*
G36*
X146292034Y-100683208D02*
G01*
X146300865Y-104404894D01*
X146107245Y-104401950D01*
X146036894Y-104399853D01*
X145881794Y-104390414D01*
X145745635Y-104376752D01*
X145577646Y-104354497D01*
X145560847Y-102379197D01*
X145544048Y-100403897D01*
X145372041Y-100682504D01*
X145352617Y-100713963D01*
X145133151Y-101069004D01*
X144946331Y-101370355D01*
X144790001Y-101621420D01*
X144662005Y-101825605D01*
X144560187Y-101986316D01*
X144482390Y-102106956D01*
X144426459Y-102190933D01*
X144390236Y-102241650D01*
X144371566Y-102262514D01*
X144367218Y-102264090D01*
X144310273Y-102270289D01*
X144197025Y-102275873D01*
X144036238Y-102280624D01*
X143836671Y-102284327D01*
X143607089Y-102286762D01*
X143356251Y-102287713D01*
X142377978Y-102288227D01*
X142292803Y-102159520D01*
X142275063Y-102131855D01*
X142214120Y-102028451D01*
X142146212Y-101904261D01*
X142079385Y-101775120D01*
X142021688Y-101656860D01*
X141981168Y-101565314D01*
X141965874Y-101516314D01*
X141974644Y-101510264D01*
X142042174Y-101500038D01*
X142175753Y-101491955D01*
X142374643Y-101486040D01*
X142638108Y-101482320D01*
X142965411Y-101480822D01*
X143083142Y-101480690D01*
X143344303Y-101480156D01*
X143548662Y-101478915D01*
X143703717Y-101476428D01*
X143816966Y-101472159D01*
X143895905Y-101465568D01*
X143948033Y-101456117D01*
X143980845Y-101443269D01*
X144001840Y-101426485D01*
X144018514Y-101405227D01*
X144067295Y-101336046D01*
X144147911Y-101219559D01*
X144250917Y-101069344D01*
X144371295Y-100892838D01*
X144504027Y-100697481D01*
X144644093Y-100490711D01*
X144786475Y-100279967D01*
X144926155Y-100072686D01*
X145058114Y-99876309D01*
X145177335Y-99698273D01*
X145278797Y-99546017D01*
X145357484Y-99426979D01*
X145408376Y-99348598D01*
X145426456Y-99318314D01*
X145413018Y-99316535D01*
X145355059Y-99336631D01*
X145266866Y-99377697D01*
X145181237Y-99418791D01*
X144947109Y-99504731D01*
X144701510Y-99552210D01*
X144419480Y-99566798D01*
X144223922Y-99559950D01*
X143880418Y-99507514D01*
X143570504Y-99400841D01*
X143286449Y-99236866D01*
X143020522Y-99012528D01*
X142894084Y-98876798D01*
X142698478Y-98599568D01*
X142561419Y-98294761D01*
X142481138Y-97957904D01*
X142456910Y-97599942D01*
X143246207Y-97599942D01*
X143260889Y-97769779D01*
X143310927Y-97966674D01*
X143393561Y-98157458D01*
X143540250Y-98365457D01*
X143726854Y-98541331D01*
X143938673Y-98668641D01*
X144037654Y-98707994D01*
X144307878Y-98769924D01*
X144573726Y-98766839D01*
X144828373Y-98700201D01*
X145064993Y-98571470D01*
X145276763Y-98382109D01*
X145306062Y-98348335D01*
X145449186Y-98129782D01*
X145533326Y-97884507D01*
X145560847Y-97606047D01*
X145560248Y-97563822D01*
X145522498Y-97283659D01*
X145427247Y-97035586D01*
X145276200Y-96822933D01*
X145071062Y-96649032D01*
X144968923Y-96586978D01*
X144798595Y-96513203D01*
X144611805Y-96473643D01*
X144384921Y-96461854D01*
X144360807Y-96461943D01*
X144203524Y-96470331D01*
X144076190Y-96496843D01*
X143946616Y-96547790D01*
X143747660Y-96659907D01*
X143543746Y-96838289D01*
X143391788Y-97059026D01*
X143290472Y-97323670D01*
X143265944Y-97427671D01*
X143246207Y-97599942D01*
X142456910Y-97599942D01*
X142455866Y-97584523D01*
X142474538Y-97283537D01*
X142539681Y-96983598D01*
X142656466Y-96711967D01*
X142829982Y-96457144D01*
X143065319Y-96207631D01*
X143301637Y-96010066D01*
X143610230Y-95818834D01*
X143928418Y-95694083D01*
X144255949Y-95635851D01*
X144592569Y-95644179D01*
X144938025Y-95719105D01*
X145292064Y-95860669D01*
X145409123Y-95925382D01*
X145635165Y-96088815D01*
X145849259Y-96289577D01*
X146033608Y-96510003D01*
X146170412Y-96732428D01*
X146283202Y-96961522D01*
X146284732Y-97606047D01*
X146292034Y-100683208D01*
G37*
G36*
X147465967Y-90732670D02*
G01*
X147556759Y-90785314D01*
X147566218Y-90791676D01*
X147747901Y-90897341D01*
X147972935Y-91004495D01*
X148219822Y-91103689D01*
X148467064Y-91185471D01*
X148734691Y-91247842D01*
X149137431Y-91293276D01*
X149552486Y-91289331D01*
X149960948Y-91236512D01*
X150343909Y-91135325D01*
X150444236Y-91104074D01*
X150512272Y-91093755D01*
X150533334Y-91111085D01*
X150526407Y-91140749D01*
X150475014Y-91222920D01*
X150381533Y-91328862D01*
X150255522Y-91450138D01*
X150106540Y-91578307D01*
X149944144Y-91704931D01*
X149777894Y-91821573D01*
X149617346Y-91919792D01*
X149586963Y-91936568D01*
X149239983Y-92105201D01*
X148860851Y-92248150D01*
X148443026Y-92367036D01*
X147979968Y-92463481D01*
X147465135Y-92539107D01*
X146891986Y-92595537D01*
X146689732Y-92612238D01*
X146489393Y-92630467D01*
X146314912Y-92648039D01*
X146180012Y-92663570D01*
X146098413Y-92675673D01*
X146053220Y-92684573D01*
X145961705Y-92701951D01*
X145915398Y-92707989D01*
X145898903Y-92703826D01*
X145896826Y-92690605D01*
X145903329Y-92676466D01*
X145942199Y-92617351D01*
X146008320Y-92525414D01*
X146092671Y-92413422D01*
X146143296Y-92345452D01*
X146245756Y-92201135D01*
X146365769Y-92026157D01*
X146492302Y-91836687D01*
X146614324Y-91648893D01*
X146665114Y-91570456D01*
X146832640Y-91325670D01*
X146992553Y-91112617D01*
X147139075Y-90938304D01*
X147266430Y-90809737D01*
X147368837Y-90733924D01*
X147402499Y-90722137D01*
X147465967Y-90732670D01*
G37*
G36*
X145628182Y-89714353D02*
G01*
X145647113Y-89750402D01*
X145683203Y-89832805D01*
X145726968Y-89941005D01*
X145796332Y-90100518D01*
X145950592Y-90387127D01*
X146134719Y-90666494D01*
X146331708Y-90911336D01*
X146381241Y-90966118D01*
X146479621Y-91075248D01*
X146560567Y-91165452D01*
X146610222Y-91221308D01*
X146628009Y-91243000D01*
X146641256Y-91271595D01*
X146638910Y-91308773D01*
X146616884Y-91364163D01*
X146571093Y-91447392D01*
X146497451Y-91568089D01*
X146391874Y-91735882D01*
X146351270Y-91799563D01*
X146240158Y-91968636D01*
X146132297Y-92126150D01*
X146038281Y-92256845D01*
X145968704Y-92345460D01*
X145895598Y-92425600D01*
X145830528Y-92487534D01*
X145793415Y-92511243D01*
X145779904Y-92506771D01*
X145722055Y-92463134D01*
X145635833Y-92381182D01*
X145530681Y-92271019D01*
X145416045Y-92142747D01*
X145301371Y-92006470D01*
X145196102Y-91872292D01*
X145161412Y-91825166D01*
X144930087Y-91449965D01*
X144759853Y-91052002D01*
X144652648Y-90636776D01*
X144610409Y-90209788D01*
X144603307Y-89873809D01*
X144687302Y-89879130D01*
X144763370Y-89879071D01*
X144918054Y-89864668D01*
X145095358Y-89836598D01*
X145270159Y-89799086D01*
X145417339Y-89756354D01*
X145505561Y-89728819D01*
X145588459Y-89711321D01*
X145628182Y-89714353D01*
G37*
G36*
X145108535Y-87261576D02*
G01*
X145335322Y-87369671D01*
X145461266Y-87467127D01*
X145581101Y-87621604D01*
X145655198Y-87815218D01*
X145687902Y-88056429D01*
X145690400Y-88110077D01*
X145692056Y-88236189D01*
X145681372Y-88328722D01*
X145653794Y-88412687D01*
X145604770Y-88513095D01*
X145576781Y-88561620D01*
X145440628Y-88727097D01*
X145267195Y-88861486D01*
X145078223Y-88946875D01*
X145004533Y-88964358D01*
X144779501Y-88975007D01*
X144556900Y-88928153D01*
X144350358Y-88829647D01*
X144173504Y-88685341D01*
X144039966Y-88501085D01*
X144021587Y-88464061D01*
X143987900Y-88367448D01*
X143970622Y-88250685D01*
X143965529Y-88090486D01*
X143965549Y-88052944D01*
X143969507Y-87921200D01*
X143983924Y-87827002D01*
X144014381Y-87746258D01*
X144066461Y-87654874D01*
X144083443Y-87628299D01*
X144243718Y-87440791D01*
X144435434Y-87308325D01*
X144649522Y-87232942D01*
X144876912Y-87216680D01*
X145108535Y-87261576D01*
G37*
%TD*%
%LPC*%
D14*
%TO.C,J7*%
X125000000Y-90760000D03*
D15*
X125000000Y-93300000D03*
X125000000Y-95840000D03*
%TD*%
D14*
%TO.C,J4*%
X179200000Y-96120000D03*
D15*
X179200000Y-98660000D03*
X179200000Y-101200000D03*
X179200000Y-103740000D03*
%TD*%
D14*
%TO.C,J3*%
X131660000Y-76400000D03*
D15*
X134200000Y-76400000D03*
X136740000Y-76400000D03*
%TD*%
D14*
%TO.C,J6*%
X179200000Y-83420000D03*
D15*
X179200000Y-85960000D03*
X179200000Y-88500000D03*
X179200000Y-91040000D03*
%TD*%
D16*
%TO.C,C6*%
X163700000Y-110850000D03*
X163700000Y-108350000D03*
%TD*%
D17*
%TO.C,H1*%
X126000000Y-78500000D03*
%TD*%
%TO.C,H2*%
X178000000Y-122500000D03*
%TD*%
D14*
%TO.C,J2*%
X168390000Y-84400000D03*
D15*
X168390000Y-86940000D03*
X168390000Y-89480000D03*
%TD*%
D14*
%TO.C,M3*%
X158200000Y-117800000D03*
D15*
X158200000Y-120340000D03*
X158200000Y-122880000D03*
%TD*%
D17*
%TO.C,H3*%
X126000000Y-122500000D03*
%TD*%
D14*
%TO.C,M1*%
X171700000Y-111820000D03*
D15*
X171700000Y-114360000D03*
X171700000Y-116900000D03*
%TD*%
D14*
%TO.C,J8*%
X157160000Y-78400000D03*
D15*
X159700000Y-78400000D03*
%TD*%
D14*
%TO.C,M2*%
X158200000Y-107060000D03*
D15*
X158200000Y-109600000D03*
X158200000Y-112140000D03*
%TD*%
D16*
%TO.C,C3*%
X164000000Y-122050000D03*
X164000000Y-119550000D03*
%TD*%
D14*
%TO.C,J9*%
X125200000Y-112525000D03*
D15*
X125200000Y-115065000D03*
%TD*%
D14*
%TO.C,J5*%
X164390000Y-102800000D03*
D15*
X166930000Y-102800000D03*
X169470000Y-102800000D03*
X172010000Y-102800000D03*
%TD*%
D17*
%TO.C,H4*%
X178000000Y-78500000D03*
%TD*%
D16*
%TO.C,C2*%
X177500000Y-115700000D03*
X177500000Y-113200000D03*
%TD*%
D18*
%TO.C,J10*%
X128900000Y-100420000D03*
X128900000Y-106200000D03*
D19*
X129420000Y-98980000D03*
D20*
X125220000Y-98980000D03*
D21*
X126600000Y-101310000D03*
X124600000Y-101310000D03*
X126600000Y-105310000D03*
X124600000Y-105310000D03*
D19*
X129420000Y-107640000D03*
D20*
X125220000Y-107640000D03*
%TD*%
D14*
%TO.C,J1*%
X163800000Y-84400000D03*
D15*
X163800000Y-86940000D03*
X163800000Y-89480000D03*
%TD*%
%LPD*%
M02*
