%TF.GenerationSoftware,KiCad,Pcbnew,10.0.4*%
%TF.CreationDate,2026-07-07T22:36:50+12:00*%
%TF.ProjectId,FlightControllerF411,466c6967-6874-4436-9f6e-74726f6c6c65,rev?*%
%TF.SameCoordinates,Original*%
%TF.FileFunction,Soldermask,Top*%
%TF.FilePolarity,Negative*%
%FSLAX46Y46*%
G04 Gerber Fmt 4.6, Leading zero omitted, Abs format (unit mm)*
G04 Created by KiCad (PCBNEW 10.0.4) date 2026-07-07 22:36:50*
%MOMM*%
%LPD*%
G01*
G04 APERTURE LIST*
G04 Aperture macros list*
%AMRoundRect*
0 Rectangle with rounded corners*
0 $1 Rounding radius*
0 $2 $3 $4 $5 $6 $7 $8 $9 X,Y pos of 4 corners*
0 Add a 4 corners polygon primitive as box body*
4,1,4,$2,$3,$4,$5,$6,$7,$8,$9,$2,$3,0*
0 Add four circle primitives for the rounded corners*
1,1,$1+$1,$2,$3*
1,1,$1+$1,$4,$5*
1,1,$1+$1,$6,$7*
1,1,$1+$1,$8,$9*
0 Add four rect primitives between the rounded corners*
20,1,$1+$1,$2,$3,$4,$5,0*
20,1,$1+$1,$4,$5,$6,$7,0*
20,1,$1+$1,$6,$7,$8,$9,0*
20,1,$1+$1,$8,$9,$2,$3,0*%
G04 Aperture macros list end*
%ADD10C,0.200000*%
%ADD11RoundRect,0.263000X0.250000X-0.225000X0.250000X0.225000X-0.250000X0.225000X-0.250000X-0.225000X0*%
%ADD12RoundRect,0.075000X0.700000X0.075000X-0.700000X0.075000X-0.700000X-0.075000X0.700000X-0.075000X0*%
%ADD13RoundRect,0.075000X0.075000X0.700000X-0.075000X0.700000X-0.075000X-0.700000X0.075000X-0.700000X0*%
%ADD14R,0.350000X0.500000*%
%ADD15R,1.700000X1.700000*%
%ADD16C,1.700000*%
%ADD17RoundRect,0.237500X0.237500X-0.250000X0.237500X0.250000X-0.237500X0.250000X-0.237500X-0.250000X0*%
%ADD18RoundRect,0.263000X-0.250000X0.225000X-0.250000X-0.225000X0.250000X-0.225000X0.250000X0.225000X0*%
%ADD19RoundRect,0.238000X-0.275000X0.200000X-0.275000X-0.200000X0.275000X-0.200000X0.275000X0.200000X0*%
%ADD20R,1.157000X0.490000*%
%ADD21R,1.175000X0.490000*%
%ADD22RoundRect,0.150000X0.590000X0.150000X-0.590000X0.150000X-0.590000X-0.150000X0.590000X-0.150000X0*%
%ADD23RoundRect,0.263000X0.225000X0.250000X-0.225000X0.250000X-0.225000X-0.250000X0.225000X-0.250000X0*%
%ADD24C,1.600000*%
%ADD25RoundRect,0.238000X0.200000X0.275000X-0.200000X0.275000X-0.200000X-0.275000X0.200000X-0.275000X0*%
%ADD26RoundRect,0.263000X-0.225000X-0.250000X0.225000X-0.250000X0.225000X0.250000X-0.225000X0.250000X0*%
%ADD27C,4.700000*%
%ADD28RoundRect,0.287056X-0.925944X0.410944X-0.925944X-0.410944X0.925944X-0.410944X0.925944X0.410944X0*%
%ADD29RoundRect,0.238000X0.275000X-0.200000X0.275000X0.200000X-0.275000X0.200000X-0.275000X-0.200000X0*%
%ADD30RoundRect,0.250000X-1.000000X-0.300000X1.000000X-0.300000X1.000000X0.300000X-1.000000X0.300000X0*%
%ADD31C,0.500000*%
%ADD32RoundRect,0.250000X-0.920000X-1.550000X0.920000X-1.550000X0.920000X1.550000X-0.920000X1.550000X0*%
%ADD33RoundRect,0.258000X0.220000X0.255000X-0.220000X0.255000X-0.220000X-0.255000X0.220000X-0.255000X0*%
%ADD34RoundRect,0.237500X0.287500X0.237500X-0.287500X0.237500X-0.287500X-0.237500X0.287500X-0.237500X0*%
%ADD35R,0.280000X0.675000*%
%ADD36R,0.675000X0.280000*%
%ADD37RoundRect,0.220000X-0.220000X-0.255000X0.220000X-0.255000X0.220000X0.255000X-0.220000X0.255000X0*%
%ADD38RoundRect,0.238000X-0.200000X-0.275000X0.200000X-0.275000X0.200000X0.275000X-0.200000X0.275000X0*%
%ADD39RoundRect,0.263000X0.375000X-0.225000X0.375000X0.225000X-0.375000X0.225000X-0.375000X-0.225000X0*%
%ADD40R,1.400000X1.200000*%
%ADD41R,1.400000X0.300000*%
%ADD42R,1.400000X0.500000*%
%ADD43O,2.300000X1.300000*%
%ADD44O,2.100000X1.300000*%
%ADD45RoundRect,0.500000X-1.000000X2.000000X-1.000000X-2.000000X1.000000X-2.000000X1.000000X2.000000X0*%
%ADD46RoundRect,0.150000X-0.512500X-0.150000X0.512500X-0.150000X0.512500X0.150000X-0.512500X0.150000X0*%
%ADD47RoundRect,0.352000X0.425000X0.650000X-0.425000X0.650000X-0.425000X-0.650000X0.425000X-0.650000X0*%
G04 APERTURE END LIST*
D10*
%TO.C,U1*%
X146400000Y-102000000D03*
X146400000Y-102400000D03*
X146000000Y-102000000D03*
X146000000Y-102400000D03*
%TD*%
D11*
%TO.C,C30*%
X150100000Y-117880000D03*
X150100000Y-116320000D03*
%TD*%
D12*
%TO.C,U4*%
X144575000Y-91750000D03*
X144575000Y-91250000D03*
X144575000Y-90750000D03*
X144575000Y-90250000D03*
X144575000Y-89750000D03*
X144575000Y-89250000D03*
X144575000Y-88750000D03*
X144575000Y-88250000D03*
X144575000Y-87750000D03*
X144575000Y-87250000D03*
X144575000Y-86750000D03*
X144575000Y-86250000D03*
X144575000Y-85750000D03*
X144575000Y-85250000D03*
X144575000Y-84750000D03*
X144575000Y-84250000D03*
D13*
X142650000Y-82325000D03*
X142150000Y-82325000D03*
X141650000Y-82325000D03*
X141150000Y-82325000D03*
X140650000Y-82325000D03*
X140150000Y-82325000D03*
X139650000Y-82325000D03*
X139150000Y-82325000D03*
X138650000Y-82325000D03*
X138150000Y-82325000D03*
X137650000Y-82325000D03*
X137150000Y-82325000D03*
X136650000Y-82325000D03*
X136150000Y-82325000D03*
X135650000Y-82325000D03*
X135150000Y-82325000D03*
D12*
X133225000Y-84250000D03*
X133225000Y-84750000D03*
X133225000Y-85250000D03*
X133225000Y-85750000D03*
X133225000Y-86250000D03*
X133225000Y-86750000D03*
X133225000Y-87250000D03*
X133225000Y-87750000D03*
X133225000Y-88250000D03*
X133225000Y-88750000D03*
X133225000Y-89250000D03*
X133225000Y-89750000D03*
X133225000Y-90250000D03*
X133225000Y-90750000D03*
X133225000Y-91250000D03*
X133225000Y-91750000D03*
D13*
X135150000Y-93675000D03*
X135650000Y-93675000D03*
X136150000Y-93675000D03*
X136650000Y-93675000D03*
X137150000Y-93675000D03*
X137650000Y-93675000D03*
X138150000Y-93675000D03*
X138650000Y-93675000D03*
X139150000Y-93675000D03*
X139650000Y-93675000D03*
X140150000Y-93675000D03*
X140650000Y-93675000D03*
X141150000Y-93675000D03*
X141650000Y-93675000D03*
X142150000Y-93675000D03*
X142650000Y-93675000D03*
%TD*%
D14*
%TO.C,U2*%
X141925000Y-104300000D03*
X142575000Y-104300000D03*
X143225000Y-104300000D03*
X143875000Y-104300000D03*
X143875000Y-105900000D03*
X143225000Y-105900000D03*
X142575000Y-105900000D03*
X141925000Y-105900000D03*
%TD*%
D15*
%TO.C,J7*%
X125000000Y-90760000D03*
D16*
X125000000Y-93300000D03*
X125000000Y-95840000D03*
%TD*%
D17*
%TO.C,R1*%
X127800000Y-93412500D03*
X127800000Y-91587500D03*
%TD*%
D18*
%TO.C,C17*%
X132900000Y-93020000D03*
X132900000Y-94580000D03*
%TD*%
%TO.C,C27*%
X137100000Y-119420000D03*
X137100000Y-120980000D03*
%TD*%
D19*
%TO.C,R4*%
X162300000Y-77480000D03*
X162300000Y-79120000D03*
%TD*%
D20*
%TO.C,U7*%
X139645500Y-111122500D03*
X139645500Y-112072500D03*
X139645500Y-113022500D03*
D21*
X141945500Y-113022500D03*
X141945500Y-111122500D03*
%TD*%
D18*
%TO.C,C25*%
X146500000Y-93120000D03*
X146500000Y-94680000D03*
%TD*%
D22*
%TO.C,Q1*%
X134780000Y-115950000D03*
X134780000Y-114050000D03*
X132900000Y-115000000D03*
%TD*%
D18*
%TO.C,C32*%
X143300000Y-111320000D03*
X143300000Y-112880000D03*
%TD*%
D15*
%TO.C,J4*%
X179200000Y-96120000D03*
D16*
X179200000Y-98660000D03*
X179200000Y-101200000D03*
X179200000Y-103740000D03*
%TD*%
D11*
%TO.C,C23*%
X147000000Y-85100000D03*
X147000000Y-83540000D03*
%TD*%
D23*
%TO.C,C18*%
X151680000Y-92300000D03*
X150120000Y-92300000D03*
%TD*%
D15*
%TO.C,J3*%
X131660000Y-76400000D03*
D16*
X134200000Y-76400000D03*
X136740000Y-76400000D03*
%TD*%
D11*
%TO.C,C15*%
X142200000Y-79780000D03*
X142200000Y-78220000D03*
%TD*%
D15*
%TO.C,J6*%
X179200000Y-83420000D03*
D16*
X179200000Y-85960000D03*
X179200000Y-88500000D03*
X179200000Y-91040000D03*
%TD*%
D24*
%TO.C,C6*%
X163700000Y-110850000D03*
X163700000Y-108350000D03*
%TD*%
D25*
%TO.C,R3*%
X126320000Y-87300000D03*
X124680000Y-87300000D03*
%TD*%
D26*
%TO.C,C7*%
X150520000Y-102900000D03*
X152080000Y-102900000D03*
%TD*%
D27*
%TO.C,H1*%
X126000000Y-78500000D03*
%TD*%
D28*
%TO.C,C26*%
X129100000Y-114560000D03*
X129100000Y-117640000D03*
%TD*%
D27*
%TO.C,H2*%
X178000000Y-122500000D03*
%TD*%
D15*
%TO.C,J2*%
X168390000Y-84400000D03*
D16*
X168390000Y-86940000D03*
X168390000Y-89480000D03*
%TD*%
D11*
%TO.C,C24*%
X140900000Y-79780000D03*
X140900000Y-78220000D03*
%TD*%
%TO.C,C20*%
X136200000Y-80580000D03*
X136200000Y-79020000D03*
%TD*%
D15*
%TO.C,M3*%
X158200000Y-117800000D03*
D16*
X158200000Y-120340000D03*
X158200000Y-122880000D03*
%TD*%
D29*
%TO.C,R5*%
X163700000Y-79120000D03*
X163700000Y-77480000D03*
%TD*%
D27*
%TO.C,H3*%
X126000000Y-122500000D03*
%TD*%
D30*
%TO.C,U6*%
X147930000Y-122600000D03*
X147930000Y-120300000D03*
X147930000Y-118000000D03*
D31*
X141960000Y-119300000D03*
X141960000Y-120300000D03*
D32*
X141960000Y-120300000D03*
D31*
X141960000Y-121300000D03*
%TD*%
D26*
%TO.C,C16*%
X149420000Y-86800000D03*
X150980000Y-86800000D03*
%TD*%
D15*
%TO.C,M1*%
X171700000Y-111820000D03*
D16*
X171700000Y-114360000D03*
X171700000Y-116900000D03*
%TD*%
D26*
%TO.C,C9*%
X148820000Y-108100000D03*
X150380000Y-108100000D03*
%TD*%
D33*
%TO.C,D1*%
X129480000Y-84300000D03*
X127900000Y-84300000D03*
%TD*%
D25*
%TO.C,R2*%
X126310000Y-84250000D03*
X124670000Y-84250000D03*
%TD*%
D26*
%TO.C,C5*%
X142185000Y-107345000D03*
X143745000Y-107345000D03*
%TD*%
D15*
%TO.C,J8*%
X157160000Y-78400000D03*
D16*
X159700000Y-78400000D03*
%TD*%
D18*
%TO.C,C1*%
X146100000Y-99220000D03*
X146100000Y-100780000D03*
%TD*%
%TO.C,C28*%
X138200000Y-112120000D03*
X138200000Y-113680000D03*
%TD*%
D15*
%TO.C,M2*%
X158200000Y-107060000D03*
D16*
X158200000Y-109600000D03*
X158200000Y-112140000D03*
%TD*%
D24*
%TO.C,C3*%
X164000000Y-122050000D03*
X164000000Y-119550000D03*
%TD*%
D34*
%TO.C,D2*%
X129575000Y-87300000D03*
X127825000Y-87300000D03*
%TD*%
D11*
%TO.C,C22*%
X148300000Y-85100000D03*
X148300000Y-83540000D03*
%TD*%
D35*
%TO.C,U3*%
X148650000Y-106555000D03*
X149150000Y-106555000D03*
X149650000Y-106555000D03*
X150150000Y-106555000D03*
D36*
X150410000Y-105795000D03*
X150410000Y-105295000D03*
X150410000Y-104795000D03*
D35*
X150150000Y-104035000D03*
X149650000Y-104035000D03*
X149150000Y-104035000D03*
X148650000Y-104035000D03*
D36*
X148390000Y-104795000D03*
X148390000Y-105295000D03*
X148390000Y-105795000D03*
%TD*%
D37*
%TO.C,FB1*%
X149710000Y-85000000D03*
X151290000Y-85000000D03*
%TD*%
D23*
%TO.C,C4*%
X141880000Y-102900000D03*
X140320000Y-102900000D03*
%TD*%
D15*
%TO.C,J9*%
X125200000Y-112525000D03*
D16*
X125200000Y-115065000D03*
%TD*%
D15*
%TO.C,J5*%
X164390000Y-102800000D03*
D16*
X166930000Y-102800000D03*
X169470000Y-102800000D03*
X172010000Y-102800000D03*
%TD*%
D27*
%TO.C,H4*%
X178000000Y-78500000D03*
%TD*%
D38*
%TO.C,R7*%
X137880000Y-98100000D03*
X139520000Y-98100000D03*
%TD*%
%TO.C,R6*%
X137880000Y-96800000D03*
X139520000Y-96800000D03*
%TD*%
D26*
%TO.C,C8*%
X151520000Y-105765000D03*
X153080000Y-105765000D03*
%TD*%
D18*
%TO.C,C12*%
X143800000Y-94020000D03*
X143800000Y-95580000D03*
%TD*%
D24*
%TO.C,C2*%
X177500000Y-115700000D03*
X177500000Y-113200000D03*
%TD*%
D11*
%TO.C,C29*%
X151500000Y-117880000D03*
X151500000Y-116320000D03*
%TD*%
D26*
%TO.C,C10*%
X146920000Y-77300000D03*
X148480000Y-77300000D03*
%TD*%
D18*
%TO.C,C21*%
X131600000Y-93020000D03*
X131600000Y-94580000D03*
%TD*%
D23*
%TO.C,C14*%
X133980000Y-80500000D03*
X132420000Y-80500000D03*
%TD*%
%TO.C,C19*%
X133980000Y-81900000D03*
X132420000Y-81900000D03*
%TD*%
D18*
%TO.C,C31*%
X140760000Y-123120000D03*
X140760000Y-124680000D03*
%TD*%
D39*
%TO.C,D3*%
X133600000Y-110750000D03*
X133600000Y-107450000D03*
%TD*%
D18*
%TO.C,C13*%
X145100000Y-93520000D03*
X145100000Y-95080000D03*
%TD*%
D40*
%TO.C,X1*%
X149300000Y-90350000D03*
X151500000Y-90350000D03*
X151500000Y-88650000D03*
X149300000Y-88650000D03*
%TD*%
D18*
%TO.C,C11*%
X142500000Y-95520000D03*
X142500000Y-97080000D03*
%TD*%
D41*
%TO.C,J10*%
X130100000Y-102060000D03*
X130100000Y-103060000D03*
X130100000Y-103560000D03*
X130100000Y-104560000D03*
D42*
X130100000Y-105710000D03*
X130100000Y-106510000D03*
D41*
X130100000Y-105060000D03*
X130100000Y-104060000D03*
X130100000Y-102560000D03*
X130100000Y-101560000D03*
D42*
X130100000Y-100910000D03*
X130100000Y-100110000D03*
D43*
X129420000Y-98980000D03*
D44*
X125220000Y-98980000D03*
D31*
X126600000Y-101310000D03*
X124600000Y-101310000D03*
D45*
X125600000Y-103310000D03*
D31*
X126600000Y-105310000D03*
X124600000Y-105310000D03*
D43*
X129420000Y-107640000D03*
D44*
X125220000Y-107640000D03*
%TD*%
D46*
%TO.C,U5*%
X132600000Y-119100000D03*
X132600000Y-120050000D03*
X132600000Y-121000000D03*
X134875000Y-121000000D03*
X134875000Y-120050000D03*
X134875000Y-119100000D03*
%TD*%
D18*
%TO.C,C33*%
X142160000Y-123120000D03*
X142160000Y-124680000D03*
%TD*%
D47*
%TO.C,S1*%
X151175000Y-79900000D03*
X147025000Y-79900000D03*
%TD*%
D15*
%TO.C,J1*%
X163800000Y-84400000D03*
D16*
X163800000Y-86940000D03*
X163800000Y-89480000D03*
%TD*%
D29*
%TO.C,R8*%
X135000000Y-124320000D03*
X135000000Y-122680000D03*
%TD*%
M02*
