%TF.GenerationSoftware,KiCad,Pcbnew,10.0.4*%
%TF.CreationDate,2026-07-07T22:36:50+12:00*%
%TF.ProjectId,FlightControllerF411,466c6967-6874-4436-9f6e-74726f6c6c65,rev?*%
%TF.SameCoordinates,Original*%
%TF.FileFunction,Legend,Top*%
%TF.FilePolarity,Positive*%
%FSLAX46Y46*%
G04 Gerber Fmt 4.6, Leading zero omitted, Abs format (unit mm)*
G04 Created by KiCad (PCBNEW 10.0.4) date 2026-07-07 22:36:50*
%MOMM*%
%LPD*%
G01*
G04 APERTURE LIST*
G04 Aperture macros list*
%AMRoundRect*
0 Rectangle with rounded corners*
0 $1 Rounding radius*
0 $2 $3 $4 $5 $6 $7 $8 $9 X,Y pos of 4 corners*
0 Add a 4 corners polygon primitive as box body*
4,1,4,$2,$3,$4,$5,$6,$7,$8,$9,$2,$3,0*
0 Add four circle primitives for the rounded corners*
1,1,$1+$1,$2,$3*
1,1,$1+$1,$4,$5*
1,1,$1+$1,$6,$7*
1,1,$1+$1,$8,$9*
0 Add four rect primitives between the rounded corners*
20,1,$1+$1,$2,$3,$4,$5,0*
20,1,$1+$1,$4,$5,$6,$7,0*
20,1,$1+$1,$6,$7,$8,$9,0*
20,1,$1+$1,$8,$9,$2,$3,0*%
G04 Aperture macros list end*
%ADD10C,0.153000*%
%ADD11C,0.150000*%
%ADD12C,0.250000*%
%ADD13C,0.300000*%
%ADD14C,0.100000*%
%ADD15C,0.120000*%
%ADD16C,0.060000*%
%ADD17C,0.127000*%
%ADD18C,0.200000*%
%ADD19RoundRect,0.263000X0.250000X-0.225000X0.250000X0.225000X-0.250000X0.225000X-0.250000X-0.225000X0*%
%ADD20RoundRect,0.075000X0.700000X0.075000X-0.700000X0.075000X-0.700000X-0.075000X0.700000X-0.075000X0*%
%ADD21RoundRect,0.075000X0.075000X0.700000X-0.075000X0.700000X-0.075000X-0.700000X0.075000X-0.700000X0*%
%ADD22R,0.350000X0.500000*%
%ADD23R,1.700000X1.700000*%
%ADD24C,1.700000*%
%ADD25RoundRect,0.237500X0.237500X-0.250000X0.237500X0.250000X-0.237500X0.250000X-0.237500X-0.250000X0*%
%ADD26RoundRect,0.263000X-0.250000X0.225000X-0.250000X-0.225000X0.250000X-0.225000X0.250000X0.225000X0*%
%ADD27RoundRect,0.238000X-0.275000X0.200000X-0.275000X-0.200000X0.275000X-0.200000X0.275000X0.200000X0*%
%ADD28R,1.157000X0.490000*%
%ADD29R,1.175000X0.490000*%
%ADD30RoundRect,0.150000X0.590000X0.150000X-0.590000X0.150000X-0.590000X-0.150000X0.590000X-0.150000X0*%
%ADD31RoundRect,0.263000X0.225000X0.250000X-0.225000X0.250000X-0.225000X-0.250000X0.225000X-0.250000X0*%
%ADD32C,1.600000*%
%ADD33RoundRect,0.238000X0.200000X0.275000X-0.200000X0.275000X-0.200000X-0.275000X0.200000X-0.275000X0*%
%ADD34RoundRect,0.263000X-0.225000X-0.250000X0.225000X-0.250000X0.225000X0.250000X-0.225000X0.250000X0*%
%ADD35C,4.700000*%
%ADD36RoundRect,0.287056X-0.925944X0.410944X-0.925944X-0.410944X0.925944X-0.410944X0.925944X0.410944X0*%
%ADD37RoundRect,0.238000X0.275000X-0.200000X0.275000X0.200000X-0.275000X0.200000X-0.275000X-0.200000X0*%
%ADD38RoundRect,0.250000X-1.000000X-0.300000X1.000000X-0.300000X1.000000X0.300000X-1.000000X0.300000X0*%
%ADD39C,0.500000*%
%ADD40RoundRect,0.250000X-0.920000X-1.550000X0.920000X-1.550000X0.920000X1.550000X-0.920000X1.550000X0*%
%ADD41RoundRect,0.258000X0.220000X0.255000X-0.220000X0.255000X-0.220000X-0.255000X0.220000X-0.255000X0*%
%ADD42RoundRect,0.237500X0.287500X0.237500X-0.287500X0.237500X-0.287500X-0.237500X0.287500X-0.237500X0*%
%ADD43R,0.280000X0.675000*%
%ADD44R,0.675000X0.280000*%
%ADD45RoundRect,0.220000X-0.220000X-0.255000X0.220000X-0.255000X0.220000X0.255000X-0.220000X0.255000X0*%
%ADD46RoundRect,0.238000X-0.200000X-0.275000X0.200000X-0.275000X0.200000X0.275000X-0.200000X0.275000X0*%
%ADD47RoundRect,0.263000X0.375000X-0.225000X0.375000X0.225000X-0.375000X0.225000X-0.375000X-0.225000X0*%
%ADD48R,1.400000X1.200000*%
%ADD49C,0.600000*%
%ADD50R,1.400000X0.300000*%
%ADD51R,1.400000X0.500000*%
%ADD52O,2.300000X1.300000*%
%ADD53O,2.100000X1.300000*%
%ADD54RoundRect,0.500000X-1.000000X2.000000X-1.000000X-2.000000X1.000000X-2.000000X1.000000X2.000000X0*%
%ADD55RoundRect,0.150000X-0.512500X-0.150000X0.512500X-0.150000X0.512500X0.150000X-0.512500X0.150000X0*%
%ADD56RoundRect,0.352000X0.425000X0.650000X-0.425000X0.650000X-0.425000X-0.650000X0.425000X-0.650000X0*%
G04 APERTURE END LIST*
D10*
X157497717Y-81038095D02*
X157545336Y-80942857D01*
X157545336Y-80942857D02*
X157545336Y-80800000D01*
X157545336Y-80800000D02*
X157497717Y-80657143D01*
X157497717Y-80657143D02*
X157402479Y-80561905D01*
X157402479Y-80561905D02*
X157307241Y-80514286D01*
X157307241Y-80514286D02*
X157116765Y-80466667D01*
X157116765Y-80466667D02*
X156973908Y-80466667D01*
X156973908Y-80466667D02*
X156783432Y-80514286D01*
X156783432Y-80514286D02*
X156688194Y-80561905D01*
X156688194Y-80561905D02*
X156592956Y-80657143D01*
X156592956Y-80657143D02*
X156545336Y-80800000D01*
X156545336Y-80800000D02*
X156545336Y-80895238D01*
X156545336Y-80895238D02*
X156592956Y-81038095D01*
X156592956Y-81038095D02*
X156640575Y-81085714D01*
X156640575Y-81085714D02*
X156973908Y-81085714D01*
X156973908Y-81085714D02*
X156973908Y-80895238D01*
X156545336Y-81514286D02*
X157545336Y-81514286D01*
X157545336Y-81514286D02*
X156545336Y-82085714D01*
X156545336Y-82085714D02*
X157545336Y-82085714D01*
X156545336Y-82561905D02*
X157545336Y-82561905D01*
X157545336Y-82561905D02*
X157545336Y-82800000D01*
X157545336Y-82800000D02*
X157497717Y-82942857D01*
X157497717Y-82942857D02*
X157402479Y-83038095D01*
X157402479Y-83038095D02*
X157307241Y-83085714D01*
X157307241Y-83085714D02*
X157116765Y-83133333D01*
X157116765Y-83133333D02*
X156973908Y-83133333D01*
X156973908Y-83133333D02*
X156783432Y-83085714D01*
X156783432Y-83085714D02*
X156688194Y-83038095D01*
X156688194Y-83038095D02*
X156592956Y-82942857D01*
X156592956Y-82942857D02*
X156545336Y-82800000D01*
X156545336Y-82800000D02*
X156545336Y-82561905D01*
D11*
X158038095Y-81173866D02*
X158800000Y-81173866D01*
X158419047Y-81554819D02*
X158419047Y-80792914D01*
X159799999Y-81554819D02*
X159228571Y-81554819D01*
X159514285Y-81554819D02*
X159514285Y-80554819D01*
X159514285Y-80554819D02*
X159419047Y-80697676D01*
X159419047Y-80697676D02*
X159323809Y-80792914D01*
X159323809Y-80792914D02*
X159228571Y-80840533D01*
X160180952Y-80650057D02*
X160228571Y-80602438D01*
X160228571Y-80602438D02*
X160323809Y-80554819D01*
X160323809Y-80554819D02*
X160561904Y-80554819D01*
X160561904Y-80554819D02*
X160657142Y-80602438D01*
X160657142Y-80602438D02*
X160704761Y-80650057D01*
X160704761Y-80650057D02*
X160752380Y-80745295D01*
X160752380Y-80745295D02*
X160752380Y-80840533D01*
X160752380Y-80840533D02*
X160704761Y-80983390D01*
X160704761Y-80983390D02*
X160133333Y-81554819D01*
X160133333Y-81554819D02*
X160752380Y-81554819D01*
X161038095Y-80554819D02*
X161371428Y-81554819D01*
X161371428Y-81554819D02*
X161704761Y-80554819D01*
X127633333Y-97454819D02*
X127157143Y-97454819D01*
X127157143Y-97454819D02*
X127157143Y-96454819D01*
X128109524Y-97454819D02*
X128014286Y-97407200D01*
X128014286Y-97407200D02*
X127966667Y-97359580D01*
X127966667Y-97359580D02*
X127919048Y-97264342D01*
X127919048Y-97264342D02*
X127919048Y-96978628D01*
X127919048Y-96978628D02*
X127966667Y-96883390D01*
X127966667Y-96883390D02*
X128014286Y-96835771D01*
X128014286Y-96835771D02*
X128109524Y-96788152D01*
X128109524Y-96788152D02*
X128252381Y-96788152D01*
X128252381Y-96788152D02*
X128347619Y-96835771D01*
X128347619Y-96835771D02*
X128395238Y-96883390D01*
X128395238Y-96883390D02*
X128442857Y-96978628D01*
X128442857Y-96978628D02*
X128442857Y-97264342D01*
X128442857Y-97264342D02*
X128395238Y-97359580D01*
X128395238Y-97359580D02*
X128347619Y-97407200D01*
X128347619Y-97407200D02*
X128252381Y-97454819D01*
X128252381Y-97454819D02*
X128109524Y-97454819D01*
X128776191Y-96788152D02*
X128966667Y-97454819D01*
X128966667Y-97454819D02*
X129157143Y-96978628D01*
X129157143Y-96978628D02*
X129347619Y-97454819D01*
X129347619Y-97454819D02*
X129538095Y-96788152D01*
D12*
X162378758Y-99464619D02*
X161902568Y-99464619D01*
X161902568Y-99464619D02*
X161854949Y-99940809D01*
X161854949Y-99940809D02*
X161902568Y-99893190D01*
X161902568Y-99893190D02*
X161997806Y-99845571D01*
X161997806Y-99845571D02*
X162235901Y-99845571D01*
X162235901Y-99845571D02*
X162331139Y-99893190D01*
X162331139Y-99893190D02*
X162378758Y-99940809D01*
X162378758Y-99940809D02*
X162426377Y-100036047D01*
X162426377Y-100036047D02*
X162426377Y-100274142D01*
X162426377Y-100274142D02*
X162378758Y-100369380D01*
X162378758Y-100369380D02*
X162331139Y-100417000D01*
X162331139Y-100417000D02*
X162235901Y-100464619D01*
X162235901Y-100464619D02*
X161997806Y-100464619D01*
X161997806Y-100464619D02*
X161902568Y-100417000D01*
X161902568Y-100417000D02*
X161854949Y-100369380D01*
X162712092Y-99464619D02*
X163045425Y-100464619D01*
X163045425Y-100464619D02*
X163378758Y-99464619D01*
X164378759Y-99464619D02*
X164997806Y-99464619D01*
X164997806Y-99464619D02*
X164664473Y-99845571D01*
X164664473Y-99845571D02*
X164807330Y-99845571D01*
X164807330Y-99845571D02*
X164902568Y-99893190D01*
X164902568Y-99893190D02*
X164950187Y-99940809D01*
X164950187Y-99940809D02*
X164997806Y-100036047D01*
X164997806Y-100036047D02*
X164997806Y-100274142D01*
X164997806Y-100274142D02*
X164950187Y-100369380D01*
X164950187Y-100369380D02*
X164902568Y-100417000D01*
X164902568Y-100417000D02*
X164807330Y-100464619D01*
X164807330Y-100464619D02*
X164521616Y-100464619D01*
X164521616Y-100464619D02*
X164426378Y-100417000D01*
X164426378Y-100417000D02*
X164378759Y-100369380D01*
X165426378Y-100369380D02*
X165473997Y-100417000D01*
X165473997Y-100417000D02*
X165426378Y-100464619D01*
X165426378Y-100464619D02*
X165378759Y-100417000D01*
X165378759Y-100417000D02*
X165426378Y-100369380D01*
X165426378Y-100369380D02*
X165426378Y-100464619D01*
X165807330Y-99464619D02*
X166426377Y-99464619D01*
X166426377Y-99464619D02*
X166093044Y-99845571D01*
X166093044Y-99845571D02*
X166235901Y-99845571D01*
X166235901Y-99845571D02*
X166331139Y-99893190D01*
X166331139Y-99893190D02*
X166378758Y-99940809D01*
X166378758Y-99940809D02*
X166426377Y-100036047D01*
X166426377Y-100036047D02*
X166426377Y-100274142D01*
X166426377Y-100274142D02*
X166378758Y-100369380D01*
X166378758Y-100369380D02*
X166331139Y-100417000D01*
X166331139Y-100417000D02*
X166235901Y-100464619D01*
X166235901Y-100464619D02*
X165950187Y-100464619D01*
X165950187Y-100464619D02*
X165854949Y-100417000D01*
X165854949Y-100417000D02*
X165807330Y-100369380D01*
X166712092Y-99464619D02*
X167045425Y-100464619D01*
X167045425Y-100464619D02*
X167378758Y-99464619D01*
X168997806Y-99512238D02*
X168902568Y-99464619D01*
X168902568Y-99464619D02*
X168759711Y-99464619D01*
X168759711Y-99464619D02*
X168616854Y-99512238D01*
X168616854Y-99512238D02*
X168521616Y-99607476D01*
X168521616Y-99607476D02*
X168473997Y-99702714D01*
X168473997Y-99702714D02*
X168426378Y-99893190D01*
X168426378Y-99893190D02*
X168426378Y-100036047D01*
X168426378Y-100036047D02*
X168473997Y-100226523D01*
X168473997Y-100226523D02*
X168521616Y-100321761D01*
X168521616Y-100321761D02*
X168616854Y-100417000D01*
X168616854Y-100417000D02*
X168759711Y-100464619D01*
X168759711Y-100464619D02*
X168854949Y-100464619D01*
X168854949Y-100464619D02*
X168997806Y-100417000D01*
X168997806Y-100417000D02*
X169045425Y-100369380D01*
X169045425Y-100369380D02*
X169045425Y-100036047D01*
X169045425Y-100036047D02*
X168854949Y-100036047D01*
X169473997Y-100464619D02*
X169473997Y-99464619D01*
X169473997Y-99464619D02*
X170045425Y-100464619D01*
X170045425Y-100464619D02*
X170045425Y-99464619D01*
X170521616Y-100464619D02*
X170521616Y-99464619D01*
X170521616Y-99464619D02*
X170759711Y-99464619D01*
X170759711Y-99464619D02*
X170902568Y-99512238D01*
X170902568Y-99512238D02*
X170997806Y-99607476D01*
X170997806Y-99607476D02*
X171045425Y-99702714D01*
X171045425Y-99702714D02*
X171093044Y-99893190D01*
X171093044Y-99893190D02*
X171093044Y-100036047D01*
X171093044Y-100036047D02*
X171045425Y-100226523D01*
X171045425Y-100226523D02*
X170997806Y-100321761D01*
X170997806Y-100321761D02*
X170902568Y-100417000D01*
X170902568Y-100417000D02*
X170759711Y-100464619D01*
X170759711Y-100464619D02*
X170521616Y-100464619D01*
X172807330Y-99512238D02*
X172712092Y-99464619D01*
X172712092Y-99464619D02*
X172569235Y-99464619D01*
X172569235Y-99464619D02*
X172426378Y-99512238D01*
X172426378Y-99512238D02*
X172331140Y-99607476D01*
X172331140Y-99607476D02*
X172283521Y-99702714D01*
X172283521Y-99702714D02*
X172235902Y-99893190D01*
X172235902Y-99893190D02*
X172235902Y-100036047D01*
X172235902Y-100036047D02*
X172283521Y-100226523D01*
X172283521Y-100226523D02*
X172331140Y-100321761D01*
X172331140Y-100321761D02*
X172426378Y-100417000D01*
X172426378Y-100417000D02*
X172569235Y-100464619D01*
X172569235Y-100464619D02*
X172664473Y-100464619D01*
X172664473Y-100464619D02*
X172807330Y-100417000D01*
X172807330Y-100417000D02*
X172854949Y-100369380D01*
X172854949Y-100369380D02*
X172854949Y-100036047D01*
X172854949Y-100036047D02*
X172664473Y-100036047D01*
X173283521Y-100464619D02*
X173283521Y-99464619D01*
X173283521Y-99464619D02*
X173854949Y-100464619D01*
X173854949Y-100464619D02*
X173854949Y-99464619D01*
X174331140Y-100464619D02*
X174331140Y-99464619D01*
X174331140Y-99464619D02*
X174569235Y-99464619D01*
X174569235Y-99464619D02*
X174712092Y-99512238D01*
X174712092Y-99512238D02*
X174807330Y-99607476D01*
X174807330Y-99607476D02*
X174854949Y-99702714D01*
X174854949Y-99702714D02*
X174902568Y-99893190D01*
X174902568Y-99893190D02*
X174902568Y-100036047D01*
X174902568Y-100036047D02*
X174854949Y-100226523D01*
X174854949Y-100226523D02*
X174807330Y-100321761D01*
X174807330Y-100321761D02*
X174712092Y-100417000D01*
X174712092Y-100417000D02*
X174569235Y-100464619D01*
X174569235Y-100464619D02*
X174331140Y-100464619D01*
X155817000Y-113545050D02*
X155864619Y-113402193D01*
X155864619Y-113402193D02*
X155864619Y-113164098D01*
X155864619Y-113164098D02*
X155817000Y-113068860D01*
X155817000Y-113068860D02*
X155769380Y-113021241D01*
X155769380Y-113021241D02*
X155674142Y-112973622D01*
X155674142Y-112973622D02*
X155578904Y-112973622D01*
X155578904Y-112973622D02*
X155483666Y-113021241D01*
X155483666Y-113021241D02*
X155436047Y-113068860D01*
X155436047Y-113068860D02*
X155388428Y-113164098D01*
X155388428Y-113164098D02*
X155340809Y-113354574D01*
X155340809Y-113354574D02*
X155293190Y-113449812D01*
X155293190Y-113449812D02*
X155245571Y-113497431D01*
X155245571Y-113497431D02*
X155150333Y-113545050D01*
X155150333Y-113545050D02*
X155055095Y-113545050D01*
X155055095Y-113545050D02*
X154959857Y-113497431D01*
X154959857Y-113497431D02*
X154912238Y-113449812D01*
X154912238Y-113449812D02*
X154864619Y-113354574D01*
X154864619Y-113354574D02*
X154864619Y-113116479D01*
X154864619Y-113116479D02*
X154912238Y-112973622D01*
X155817000Y-112164098D02*
X155864619Y-112259336D01*
X155864619Y-112259336D02*
X155864619Y-112449812D01*
X155864619Y-112449812D02*
X155817000Y-112545050D01*
X155817000Y-112545050D02*
X155721761Y-112592669D01*
X155721761Y-112592669D02*
X155340809Y-112592669D01*
X155340809Y-112592669D02*
X155245571Y-112545050D01*
X155245571Y-112545050D02*
X155197952Y-112449812D01*
X155197952Y-112449812D02*
X155197952Y-112259336D01*
X155197952Y-112259336D02*
X155245571Y-112164098D01*
X155245571Y-112164098D02*
X155340809Y-112116479D01*
X155340809Y-112116479D02*
X155436047Y-112116479D01*
X155436047Y-112116479D02*
X155531285Y-112592669D01*
X155864619Y-111687907D02*
X155197952Y-111687907D01*
X155388428Y-111687907D02*
X155293190Y-111640288D01*
X155293190Y-111640288D02*
X155245571Y-111592669D01*
X155245571Y-111592669D02*
X155197952Y-111497431D01*
X155197952Y-111497431D02*
X155197952Y-111402193D01*
X155197952Y-111164097D02*
X155864619Y-110926002D01*
X155864619Y-110926002D02*
X155197952Y-110687907D01*
X155864619Y-110164097D02*
X155817000Y-110259335D01*
X155817000Y-110259335D02*
X155769380Y-110306954D01*
X155769380Y-110306954D02*
X155674142Y-110354573D01*
X155674142Y-110354573D02*
X155388428Y-110354573D01*
X155388428Y-110354573D02*
X155293190Y-110306954D01*
X155293190Y-110306954D02*
X155245571Y-110259335D01*
X155245571Y-110259335D02*
X155197952Y-110164097D01*
X155197952Y-110164097D02*
X155197952Y-110021240D01*
X155197952Y-110021240D02*
X155245571Y-109926002D01*
X155245571Y-109926002D02*
X155293190Y-109878383D01*
X155293190Y-109878383D02*
X155388428Y-109830764D01*
X155388428Y-109830764D02*
X155674142Y-109830764D01*
X155674142Y-109830764D02*
X155769380Y-109878383D01*
X155769380Y-109878383D02*
X155817000Y-109926002D01*
X155817000Y-109926002D02*
X155864619Y-110021240D01*
X155864619Y-110021240D02*
X155864619Y-110164097D01*
X154959857Y-109449811D02*
X154912238Y-109402192D01*
X154912238Y-109402192D02*
X154864619Y-109306954D01*
X154864619Y-109306954D02*
X154864619Y-109068859D01*
X154864619Y-109068859D02*
X154912238Y-108973621D01*
X154912238Y-108973621D02*
X154959857Y-108926002D01*
X154959857Y-108926002D02*
X155055095Y-108878383D01*
X155055095Y-108878383D02*
X155150333Y-108878383D01*
X155150333Y-108878383D02*
X155293190Y-108926002D01*
X155293190Y-108926002D02*
X155864619Y-109497430D01*
X155864619Y-109497430D02*
X155864619Y-108878383D01*
X155483666Y-107687906D02*
X155483666Y-106926002D01*
X155483666Y-106449811D02*
X155483666Y-105687907D01*
X155864619Y-106068859D02*
X155102714Y-106068859D01*
X155817000Y-105259335D02*
X155864619Y-105116478D01*
X155864619Y-105116478D02*
X155864619Y-104878383D01*
X155864619Y-104878383D02*
X155817000Y-104783145D01*
X155817000Y-104783145D02*
X155769380Y-104735526D01*
X155769380Y-104735526D02*
X155674142Y-104687907D01*
X155674142Y-104687907D02*
X155578904Y-104687907D01*
X155578904Y-104687907D02*
X155483666Y-104735526D01*
X155483666Y-104735526D02*
X155436047Y-104783145D01*
X155436047Y-104783145D02*
X155388428Y-104878383D01*
X155388428Y-104878383D02*
X155340809Y-105068859D01*
X155340809Y-105068859D02*
X155293190Y-105164097D01*
X155293190Y-105164097D02*
X155245571Y-105211716D01*
X155245571Y-105211716D02*
X155150333Y-105259335D01*
X155150333Y-105259335D02*
X155055095Y-105259335D01*
X155055095Y-105259335D02*
X154959857Y-105211716D01*
X154959857Y-105211716D02*
X154912238Y-105164097D01*
X154912238Y-105164097D02*
X154864619Y-105068859D01*
X154864619Y-105068859D02*
X154864619Y-104830764D01*
X154864619Y-104830764D02*
X154912238Y-104687907D01*
X169417000Y-118845050D02*
X169464619Y-118702193D01*
X169464619Y-118702193D02*
X169464619Y-118464098D01*
X169464619Y-118464098D02*
X169417000Y-118368860D01*
X169417000Y-118368860D02*
X169369380Y-118321241D01*
X169369380Y-118321241D02*
X169274142Y-118273622D01*
X169274142Y-118273622D02*
X169178904Y-118273622D01*
X169178904Y-118273622D02*
X169083666Y-118321241D01*
X169083666Y-118321241D02*
X169036047Y-118368860D01*
X169036047Y-118368860D02*
X168988428Y-118464098D01*
X168988428Y-118464098D02*
X168940809Y-118654574D01*
X168940809Y-118654574D02*
X168893190Y-118749812D01*
X168893190Y-118749812D02*
X168845571Y-118797431D01*
X168845571Y-118797431D02*
X168750333Y-118845050D01*
X168750333Y-118845050D02*
X168655095Y-118845050D01*
X168655095Y-118845050D02*
X168559857Y-118797431D01*
X168559857Y-118797431D02*
X168512238Y-118749812D01*
X168512238Y-118749812D02*
X168464619Y-118654574D01*
X168464619Y-118654574D02*
X168464619Y-118416479D01*
X168464619Y-118416479D02*
X168512238Y-118273622D01*
X169417000Y-117464098D02*
X169464619Y-117559336D01*
X169464619Y-117559336D02*
X169464619Y-117749812D01*
X169464619Y-117749812D02*
X169417000Y-117845050D01*
X169417000Y-117845050D02*
X169321761Y-117892669D01*
X169321761Y-117892669D02*
X168940809Y-117892669D01*
X168940809Y-117892669D02*
X168845571Y-117845050D01*
X168845571Y-117845050D02*
X168797952Y-117749812D01*
X168797952Y-117749812D02*
X168797952Y-117559336D01*
X168797952Y-117559336D02*
X168845571Y-117464098D01*
X168845571Y-117464098D02*
X168940809Y-117416479D01*
X168940809Y-117416479D02*
X169036047Y-117416479D01*
X169036047Y-117416479D02*
X169131285Y-117892669D01*
X169464619Y-116987907D02*
X168797952Y-116987907D01*
X168988428Y-116987907D02*
X168893190Y-116940288D01*
X168893190Y-116940288D02*
X168845571Y-116892669D01*
X168845571Y-116892669D02*
X168797952Y-116797431D01*
X168797952Y-116797431D02*
X168797952Y-116702193D01*
X168797952Y-116464097D02*
X169464619Y-116226002D01*
X169464619Y-116226002D02*
X168797952Y-115987907D01*
X169464619Y-115464097D02*
X169417000Y-115559335D01*
X169417000Y-115559335D02*
X169369380Y-115606954D01*
X169369380Y-115606954D02*
X169274142Y-115654573D01*
X169274142Y-115654573D02*
X168988428Y-115654573D01*
X168988428Y-115654573D02*
X168893190Y-115606954D01*
X168893190Y-115606954D02*
X168845571Y-115559335D01*
X168845571Y-115559335D02*
X168797952Y-115464097D01*
X168797952Y-115464097D02*
X168797952Y-115321240D01*
X168797952Y-115321240D02*
X168845571Y-115226002D01*
X168845571Y-115226002D02*
X168893190Y-115178383D01*
X168893190Y-115178383D02*
X168988428Y-115130764D01*
X168988428Y-115130764D02*
X169274142Y-115130764D01*
X169274142Y-115130764D02*
X169369380Y-115178383D01*
X169369380Y-115178383D02*
X169417000Y-115226002D01*
X169417000Y-115226002D02*
X169464619Y-115321240D01*
X169464619Y-115321240D02*
X169464619Y-115464097D01*
X169464619Y-114178383D02*
X169464619Y-114749811D01*
X169464619Y-114464097D02*
X168464619Y-114464097D01*
X168464619Y-114464097D02*
X168607476Y-114559335D01*
X168607476Y-114559335D02*
X168702714Y-114654573D01*
X168702714Y-114654573D02*
X168750333Y-114749811D01*
X169083666Y-112987906D02*
X169083666Y-112226002D01*
X169083666Y-111749811D02*
X169083666Y-110987907D01*
X169464619Y-111368859D02*
X168702714Y-111368859D01*
X169417000Y-110559335D02*
X169464619Y-110416478D01*
X169464619Y-110416478D02*
X169464619Y-110178383D01*
X169464619Y-110178383D02*
X169417000Y-110083145D01*
X169417000Y-110083145D02*
X169369380Y-110035526D01*
X169369380Y-110035526D02*
X169274142Y-109987907D01*
X169274142Y-109987907D02*
X169178904Y-109987907D01*
X169178904Y-109987907D02*
X169083666Y-110035526D01*
X169083666Y-110035526D02*
X169036047Y-110083145D01*
X169036047Y-110083145D02*
X168988428Y-110178383D01*
X168988428Y-110178383D02*
X168940809Y-110368859D01*
X168940809Y-110368859D02*
X168893190Y-110464097D01*
X168893190Y-110464097D02*
X168845571Y-110511716D01*
X168845571Y-110511716D02*
X168750333Y-110559335D01*
X168750333Y-110559335D02*
X168655095Y-110559335D01*
X168655095Y-110559335D02*
X168559857Y-110511716D01*
X168559857Y-110511716D02*
X168512238Y-110464097D01*
X168512238Y-110464097D02*
X168464619Y-110368859D01*
X168464619Y-110368859D02*
X168464619Y-110130764D01*
X168464619Y-110130764D02*
X168512238Y-109987907D01*
X155817000Y-125445050D02*
X155864619Y-125302193D01*
X155864619Y-125302193D02*
X155864619Y-125064098D01*
X155864619Y-125064098D02*
X155817000Y-124968860D01*
X155817000Y-124968860D02*
X155769380Y-124921241D01*
X155769380Y-124921241D02*
X155674142Y-124873622D01*
X155674142Y-124873622D02*
X155578904Y-124873622D01*
X155578904Y-124873622D02*
X155483666Y-124921241D01*
X155483666Y-124921241D02*
X155436047Y-124968860D01*
X155436047Y-124968860D02*
X155388428Y-125064098D01*
X155388428Y-125064098D02*
X155340809Y-125254574D01*
X155340809Y-125254574D02*
X155293190Y-125349812D01*
X155293190Y-125349812D02*
X155245571Y-125397431D01*
X155245571Y-125397431D02*
X155150333Y-125445050D01*
X155150333Y-125445050D02*
X155055095Y-125445050D01*
X155055095Y-125445050D02*
X154959857Y-125397431D01*
X154959857Y-125397431D02*
X154912238Y-125349812D01*
X154912238Y-125349812D02*
X154864619Y-125254574D01*
X154864619Y-125254574D02*
X154864619Y-125016479D01*
X154864619Y-125016479D02*
X154912238Y-124873622D01*
X155817000Y-124064098D02*
X155864619Y-124159336D01*
X155864619Y-124159336D02*
X155864619Y-124349812D01*
X155864619Y-124349812D02*
X155817000Y-124445050D01*
X155817000Y-124445050D02*
X155721761Y-124492669D01*
X155721761Y-124492669D02*
X155340809Y-124492669D01*
X155340809Y-124492669D02*
X155245571Y-124445050D01*
X155245571Y-124445050D02*
X155197952Y-124349812D01*
X155197952Y-124349812D02*
X155197952Y-124159336D01*
X155197952Y-124159336D02*
X155245571Y-124064098D01*
X155245571Y-124064098D02*
X155340809Y-124016479D01*
X155340809Y-124016479D02*
X155436047Y-124016479D01*
X155436047Y-124016479D02*
X155531285Y-124492669D01*
X155864619Y-123587907D02*
X155197952Y-123587907D01*
X155388428Y-123587907D02*
X155293190Y-123540288D01*
X155293190Y-123540288D02*
X155245571Y-123492669D01*
X155245571Y-123492669D02*
X155197952Y-123397431D01*
X155197952Y-123397431D02*
X155197952Y-123302193D01*
X155197952Y-123064097D02*
X155864619Y-122826002D01*
X155864619Y-122826002D02*
X155197952Y-122587907D01*
X155864619Y-122064097D02*
X155817000Y-122159335D01*
X155817000Y-122159335D02*
X155769380Y-122206954D01*
X155769380Y-122206954D02*
X155674142Y-122254573D01*
X155674142Y-122254573D02*
X155388428Y-122254573D01*
X155388428Y-122254573D02*
X155293190Y-122206954D01*
X155293190Y-122206954D02*
X155245571Y-122159335D01*
X155245571Y-122159335D02*
X155197952Y-122064097D01*
X155197952Y-122064097D02*
X155197952Y-121921240D01*
X155197952Y-121921240D02*
X155245571Y-121826002D01*
X155245571Y-121826002D02*
X155293190Y-121778383D01*
X155293190Y-121778383D02*
X155388428Y-121730764D01*
X155388428Y-121730764D02*
X155674142Y-121730764D01*
X155674142Y-121730764D02*
X155769380Y-121778383D01*
X155769380Y-121778383D02*
X155817000Y-121826002D01*
X155817000Y-121826002D02*
X155864619Y-121921240D01*
X155864619Y-121921240D02*
X155864619Y-122064097D01*
X154864619Y-121445049D02*
X154864619Y-120873621D01*
X155864619Y-121159335D02*
X154864619Y-121159335D01*
X155864619Y-120540287D02*
X155197952Y-120540287D01*
X154864619Y-120540287D02*
X154912238Y-120587906D01*
X154912238Y-120587906D02*
X154959857Y-120540287D01*
X154959857Y-120540287D02*
X154912238Y-120492668D01*
X154912238Y-120492668D02*
X154864619Y-120540287D01*
X154864619Y-120540287D02*
X154959857Y-120540287D01*
X155864619Y-119921240D02*
X155817000Y-120016478D01*
X155817000Y-120016478D02*
X155721761Y-120064097D01*
X155721761Y-120064097D02*
X154864619Y-120064097D01*
X155197952Y-119683144D02*
X155197952Y-119302192D01*
X154864619Y-119540287D02*
X155721761Y-119540287D01*
X155721761Y-119540287D02*
X155817000Y-119492668D01*
X155817000Y-119492668D02*
X155864619Y-119397430D01*
X155864619Y-119397430D02*
X155864619Y-119302192D01*
X155483666Y-118206953D02*
X155483666Y-117445049D01*
X155483666Y-116968858D02*
X155483666Y-116206954D01*
X155864619Y-116587906D02*
X155102714Y-116587906D01*
X155817000Y-115778382D02*
X155864619Y-115635525D01*
X155864619Y-115635525D02*
X155864619Y-115397430D01*
X155864619Y-115397430D02*
X155817000Y-115302192D01*
X155817000Y-115302192D02*
X155769380Y-115254573D01*
X155769380Y-115254573D02*
X155674142Y-115206954D01*
X155674142Y-115206954D02*
X155578904Y-115206954D01*
X155578904Y-115206954D02*
X155483666Y-115254573D01*
X155483666Y-115254573D02*
X155436047Y-115302192D01*
X155436047Y-115302192D02*
X155388428Y-115397430D01*
X155388428Y-115397430D02*
X155340809Y-115587906D01*
X155340809Y-115587906D02*
X155293190Y-115683144D01*
X155293190Y-115683144D02*
X155245571Y-115730763D01*
X155245571Y-115730763D02*
X155150333Y-115778382D01*
X155150333Y-115778382D02*
X155055095Y-115778382D01*
X155055095Y-115778382D02*
X154959857Y-115730763D01*
X154959857Y-115730763D02*
X154912238Y-115683144D01*
X154912238Y-115683144D02*
X154864619Y-115587906D01*
X154864619Y-115587906D02*
X154864619Y-115349811D01*
X154864619Y-115349811D02*
X154912238Y-115206954D01*
D13*
X175300828Y-91645489D02*
X176515114Y-91645489D01*
X176515114Y-91645489D02*
X176657971Y-91574060D01*
X176657971Y-91574060D02*
X176729400Y-91502632D01*
X176729400Y-91502632D02*
X176800828Y-91359774D01*
X176800828Y-91359774D02*
X176800828Y-91074060D01*
X176800828Y-91074060D02*
X176729400Y-90931203D01*
X176729400Y-90931203D02*
X176657971Y-90859774D01*
X176657971Y-90859774D02*
X176515114Y-90788346D01*
X176515114Y-90788346D02*
X175300828Y-90788346D01*
X176729400Y-90145488D02*
X176800828Y-90002631D01*
X176800828Y-90002631D02*
X176800828Y-89716917D01*
X176800828Y-89716917D02*
X176729400Y-89574060D01*
X176729400Y-89574060D02*
X176586542Y-89502631D01*
X176586542Y-89502631D02*
X176515114Y-89502631D01*
X176515114Y-89502631D02*
X176372257Y-89574060D01*
X176372257Y-89574060D02*
X176300828Y-89716917D01*
X176300828Y-89716917D02*
X176300828Y-89931203D01*
X176300828Y-89931203D02*
X176229400Y-90074060D01*
X176229400Y-90074060D02*
X176086542Y-90145488D01*
X176086542Y-90145488D02*
X176015114Y-90145488D01*
X176015114Y-90145488D02*
X175872257Y-90074060D01*
X175872257Y-90074060D02*
X175800828Y-89931203D01*
X175800828Y-89931203D02*
X175800828Y-89716917D01*
X175800828Y-89716917D02*
X175872257Y-89574060D01*
X176800828Y-88216917D02*
X176015114Y-88216917D01*
X176015114Y-88216917D02*
X175872257Y-88288345D01*
X175872257Y-88288345D02*
X175800828Y-88431202D01*
X175800828Y-88431202D02*
X175800828Y-88716917D01*
X175800828Y-88716917D02*
X175872257Y-88859774D01*
X176729400Y-88216917D02*
X176800828Y-88359774D01*
X176800828Y-88359774D02*
X176800828Y-88716917D01*
X176800828Y-88716917D02*
X176729400Y-88859774D01*
X176729400Y-88859774D02*
X176586542Y-88931202D01*
X176586542Y-88931202D02*
X176443685Y-88931202D01*
X176443685Y-88931202D02*
X176300828Y-88859774D01*
X176300828Y-88859774D02*
X176229400Y-88716917D01*
X176229400Y-88716917D02*
X176229400Y-88359774D01*
X176229400Y-88359774D02*
X176157971Y-88216917D01*
X176800828Y-87502631D02*
X175800828Y-87502631D01*
X176086542Y-87502631D02*
X175943685Y-87431202D01*
X175943685Y-87431202D02*
X175872257Y-87359774D01*
X175872257Y-87359774D02*
X175800828Y-87216916D01*
X175800828Y-87216916D02*
X175800828Y-87074059D01*
X175800828Y-86788345D02*
X175800828Y-86216917D01*
X175300828Y-86574060D02*
X176586542Y-86574060D01*
X176586542Y-86574060D02*
X176729400Y-86502631D01*
X176729400Y-86502631D02*
X176800828Y-86359774D01*
X176800828Y-86359774D02*
X176800828Y-86216917D01*
X175443685Y-84645488D02*
X175372257Y-84574060D01*
X175372257Y-84574060D02*
X175300828Y-84431203D01*
X175300828Y-84431203D02*
X175300828Y-84074060D01*
X175300828Y-84074060D02*
X175372257Y-83931203D01*
X175372257Y-83931203D02*
X175443685Y-83859774D01*
X175443685Y-83859774D02*
X175586542Y-83788345D01*
X175586542Y-83788345D02*
X175729400Y-83788345D01*
X175729400Y-83788345D02*
X175943685Y-83859774D01*
X175943685Y-83859774D02*
X176800828Y-84716917D01*
X176800828Y-84716917D02*
X176800828Y-83788345D01*
X175300828Y-103745489D02*
X176515114Y-103745489D01*
X176515114Y-103745489D02*
X176657971Y-103674060D01*
X176657971Y-103674060D02*
X176729400Y-103602632D01*
X176729400Y-103602632D02*
X176800828Y-103459774D01*
X176800828Y-103459774D02*
X176800828Y-103174060D01*
X176800828Y-103174060D02*
X176729400Y-103031203D01*
X176729400Y-103031203D02*
X176657971Y-102959774D01*
X176657971Y-102959774D02*
X176515114Y-102888346D01*
X176515114Y-102888346D02*
X175300828Y-102888346D01*
X176729400Y-102245488D02*
X176800828Y-102102631D01*
X176800828Y-102102631D02*
X176800828Y-101816917D01*
X176800828Y-101816917D02*
X176729400Y-101674060D01*
X176729400Y-101674060D02*
X176586542Y-101602631D01*
X176586542Y-101602631D02*
X176515114Y-101602631D01*
X176515114Y-101602631D02*
X176372257Y-101674060D01*
X176372257Y-101674060D02*
X176300828Y-101816917D01*
X176300828Y-101816917D02*
X176300828Y-102031203D01*
X176300828Y-102031203D02*
X176229400Y-102174060D01*
X176229400Y-102174060D02*
X176086542Y-102245488D01*
X176086542Y-102245488D02*
X176015114Y-102245488D01*
X176015114Y-102245488D02*
X175872257Y-102174060D01*
X175872257Y-102174060D02*
X175800828Y-102031203D01*
X175800828Y-102031203D02*
X175800828Y-101816917D01*
X175800828Y-101816917D02*
X175872257Y-101674060D01*
X176800828Y-100316917D02*
X176015114Y-100316917D01*
X176015114Y-100316917D02*
X175872257Y-100388345D01*
X175872257Y-100388345D02*
X175800828Y-100531202D01*
X175800828Y-100531202D02*
X175800828Y-100816917D01*
X175800828Y-100816917D02*
X175872257Y-100959774D01*
X176729400Y-100316917D02*
X176800828Y-100459774D01*
X176800828Y-100459774D02*
X176800828Y-100816917D01*
X176800828Y-100816917D02*
X176729400Y-100959774D01*
X176729400Y-100959774D02*
X176586542Y-101031202D01*
X176586542Y-101031202D02*
X176443685Y-101031202D01*
X176443685Y-101031202D02*
X176300828Y-100959774D01*
X176300828Y-100959774D02*
X176229400Y-100816917D01*
X176229400Y-100816917D02*
X176229400Y-100459774D01*
X176229400Y-100459774D02*
X176157971Y-100316917D01*
X176800828Y-99602631D02*
X175800828Y-99602631D01*
X176086542Y-99602631D02*
X175943685Y-99531202D01*
X175943685Y-99531202D02*
X175872257Y-99459774D01*
X175872257Y-99459774D02*
X175800828Y-99316916D01*
X175800828Y-99316916D02*
X175800828Y-99174059D01*
X175800828Y-98888345D02*
X175800828Y-98316917D01*
X175300828Y-98674060D02*
X176586542Y-98674060D01*
X176586542Y-98674060D02*
X176729400Y-98602631D01*
X176729400Y-98602631D02*
X176800828Y-98459774D01*
X176800828Y-98459774D02*
X176800828Y-98316917D01*
X176800828Y-95888345D02*
X176800828Y-96745488D01*
X176800828Y-96316917D02*
X175300828Y-96316917D01*
X175300828Y-96316917D02*
X175515114Y-96459774D01*
X175515114Y-96459774D02*
X175657971Y-96602631D01*
X175657971Y-96602631D02*
X175729400Y-96745488D01*
X172100828Y-91145489D02*
X170600828Y-91145489D01*
X170600828Y-91145489D02*
X171672257Y-90645489D01*
X171672257Y-90645489D02*
X170600828Y-90145489D01*
X170600828Y-90145489D02*
X172100828Y-90145489D01*
X172100828Y-89216917D02*
X172029400Y-89359774D01*
X172029400Y-89359774D02*
X171957971Y-89431203D01*
X171957971Y-89431203D02*
X171815114Y-89502631D01*
X171815114Y-89502631D02*
X171386542Y-89502631D01*
X171386542Y-89502631D02*
X171243685Y-89431203D01*
X171243685Y-89431203D02*
X171172257Y-89359774D01*
X171172257Y-89359774D02*
X171100828Y-89216917D01*
X171100828Y-89216917D02*
X171100828Y-89002631D01*
X171100828Y-89002631D02*
X171172257Y-88859774D01*
X171172257Y-88859774D02*
X171243685Y-88788346D01*
X171243685Y-88788346D02*
X171386542Y-88716917D01*
X171386542Y-88716917D02*
X171815114Y-88716917D01*
X171815114Y-88716917D02*
X171957971Y-88788346D01*
X171957971Y-88788346D02*
X172029400Y-88859774D01*
X172029400Y-88859774D02*
X172100828Y-89002631D01*
X172100828Y-89002631D02*
X172100828Y-89216917D01*
X171100828Y-88288345D02*
X171100828Y-87716917D01*
X170600828Y-88074060D02*
X171886542Y-88074060D01*
X171886542Y-88074060D02*
X172029400Y-88002631D01*
X172029400Y-88002631D02*
X172100828Y-87859774D01*
X172100828Y-87859774D02*
X172100828Y-87716917D01*
X172100828Y-87002631D02*
X172029400Y-87145488D01*
X172029400Y-87145488D02*
X171957971Y-87216917D01*
X171957971Y-87216917D02*
X171815114Y-87288345D01*
X171815114Y-87288345D02*
X171386542Y-87288345D01*
X171386542Y-87288345D02*
X171243685Y-87216917D01*
X171243685Y-87216917D02*
X171172257Y-87145488D01*
X171172257Y-87145488D02*
X171100828Y-87002631D01*
X171100828Y-87002631D02*
X171100828Y-86788345D01*
X171100828Y-86788345D02*
X171172257Y-86645488D01*
X171172257Y-86645488D02*
X171243685Y-86574060D01*
X171243685Y-86574060D02*
X171386542Y-86502631D01*
X171386542Y-86502631D02*
X171815114Y-86502631D01*
X171815114Y-86502631D02*
X171957971Y-86574060D01*
X171957971Y-86574060D02*
X172029400Y-86645488D01*
X172029400Y-86645488D02*
X172100828Y-86788345D01*
X172100828Y-86788345D02*
X172100828Y-87002631D01*
X172100828Y-85859774D02*
X171100828Y-85859774D01*
X171386542Y-85859774D02*
X171243685Y-85788345D01*
X171243685Y-85788345D02*
X171172257Y-85716917D01*
X171172257Y-85716917D02*
X171100828Y-85574059D01*
X171100828Y-85574059D02*
X171100828Y-85431202D01*
X170743685Y-83859774D02*
X170672257Y-83788346D01*
X170672257Y-83788346D02*
X170600828Y-83645489D01*
X170600828Y-83645489D02*
X170600828Y-83288346D01*
X170600828Y-83288346D02*
X170672257Y-83145489D01*
X170672257Y-83145489D02*
X170743685Y-83074060D01*
X170743685Y-83074060D02*
X170886542Y-83002631D01*
X170886542Y-83002631D02*
X171029400Y-83002631D01*
X171029400Y-83002631D02*
X171243685Y-83074060D01*
X171243685Y-83074060D02*
X172100828Y-83931203D01*
X172100828Y-83931203D02*
X172100828Y-83002631D01*
X161300828Y-90945489D02*
X159800828Y-90945489D01*
X159800828Y-90945489D02*
X160872257Y-90445489D01*
X160872257Y-90445489D02*
X159800828Y-89945489D01*
X159800828Y-89945489D02*
X161300828Y-89945489D01*
X161300828Y-89016917D02*
X161229400Y-89159774D01*
X161229400Y-89159774D02*
X161157971Y-89231203D01*
X161157971Y-89231203D02*
X161015114Y-89302631D01*
X161015114Y-89302631D02*
X160586542Y-89302631D01*
X160586542Y-89302631D02*
X160443685Y-89231203D01*
X160443685Y-89231203D02*
X160372257Y-89159774D01*
X160372257Y-89159774D02*
X160300828Y-89016917D01*
X160300828Y-89016917D02*
X160300828Y-88802631D01*
X160300828Y-88802631D02*
X160372257Y-88659774D01*
X160372257Y-88659774D02*
X160443685Y-88588346D01*
X160443685Y-88588346D02*
X160586542Y-88516917D01*
X160586542Y-88516917D02*
X161015114Y-88516917D01*
X161015114Y-88516917D02*
X161157971Y-88588346D01*
X161157971Y-88588346D02*
X161229400Y-88659774D01*
X161229400Y-88659774D02*
X161300828Y-88802631D01*
X161300828Y-88802631D02*
X161300828Y-89016917D01*
X160300828Y-88088345D02*
X160300828Y-87516917D01*
X159800828Y-87874060D02*
X161086542Y-87874060D01*
X161086542Y-87874060D02*
X161229400Y-87802631D01*
X161229400Y-87802631D02*
X161300828Y-87659774D01*
X161300828Y-87659774D02*
X161300828Y-87516917D01*
X161300828Y-86802631D02*
X161229400Y-86945488D01*
X161229400Y-86945488D02*
X161157971Y-87016917D01*
X161157971Y-87016917D02*
X161015114Y-87088345D01*
X161015114Y-87088345D02*
X160586542Y-87088345D01*
X160586542Y-87088345D02*
X160443685Y-87016917D01*
X160443685Y-87016917D02*
X160372257Y-86945488D01*
X160372257Y-86945488D02*
X160300828Y-86802631D01*
X160300828Y-86802631D02*
X160300828Y-86588345D01*
X160300828Y-86588345D02*
X160372257Y-86445488D01*
X160372257Y-86445488D02*
X160443685Y-86374060D01*
X160443685Y-86374060D02*
X160586542Y-86302631D01*
X160586542Y-86302631D02*
X161015114Y-86302631D01*
X161015114Y-86302631D02*
X161157971Y-86374060D01*
X161157971Y-86374060D02*
X161229400Y-86445488D01*
X161229400Y-86445488D02*
X161300828Y-86588345D01*
X161300828Y-86588345D02*
X161300828Y-86802631D01*
X161300828Y-85659774D02*
X160300828Y-85659774D01*
X160586542Y-85659774D02*
X160443685Y-85588345D01*
X160443685Y-85588345D02*
X160372257Y-85516917D01*
X160372257Y-85516917D02*
X160300828Y-85374059D01*
X160300828Y-85374059D02*
X160300828Y-85231202D01*
X161300828Y-82802631D02*
X161300828Y-83659774D01*
X161300828Y-83231203D02*
X159800828Y-83231203D01*
X159800828Y-83231203D02*
X160015114Y-83374060D01*
X160015114Y-83374060D02*
X160157971Y-83516917D01*
X160157971Y-83516917D02*
X160229400Y-83659774D01*
D11*
X147154819Y-102961904D02*
X147964342Y-102961904D01*
X147964342Y-102961904D02*
X148059580Y-102914285D01*
X148059580Y-102914285D02*
X148107200Y-102866666D01*
X148107200Y-102866666D02*
X148154819Y-102771428D01*
X148154819Y-102771428D02*
X148154819Y-102580952D01*
X148154819Y-102580952D02*
X148107200Y-102485714D01*
X148107200Y-102485714D02*
X148059580Y-102438095D01*
X148059580Y-102438095D02*
X147964342Y-102390476D01*
X147964342Y-102390476D02*
X147154819Y-102390476D01*
X148154819Y-101390476D02*
X148154819Y-101961904D01*
X148154819Y-101676190D02*
X147154819Y-101676190D01*
X147154819Y-101676190D02*
X147297676Y-101771428D01*
X147297676Y-101771428D02*
X147392914Y-101866666D01*
X147392914Y-101866666D02*
X147440533Y-101961904D01*
X138138095Y-94854819D02*
X138138095Y-95664342D01*
X138138095Y-95664342D02*
X138185714Y-95759580D01*
X138185714Y-95759580D02*
X138233333Y-95807200D01*
X138233333Y-95807200D02*
X138328571Y-95854819D01*
X138328571Y-95854819D02*
X138519047Y-95854819D01*
X138519047Y-95854819D02*
X138614285Y-95807200D01*
X138614285Y-95807200D02*
X138661904Y-95759580D01*
X138661904Y-95759580D02*
X138709523Y-95664342D01*
X138709523Y-95664342D02*
X138709523Y-94854819D01*
X139614285Y-95188152D02*
X139614285Y-95854819D01*
X139376190Y-94807200D02*
X139138095Y-95521485D01*
X139138095Y-95521485D02*
X139757142Y-95521485D01*
X140054819Y-105961904D02*
X140864342Y-105961904D01*
X140864342Y-105961904D02*
X140959580Y-105914285D01*
X140959580Y-105914285D02*
X141007200Y-105866666D01*
X141007200Y-105866666D02*
X141054819Y-105771428D01*
X141054819Y-105771428D02*
X141054819Y-105580952D01*
X141054819Y-105580952D02*
X141007200Y-105485714D01*
X141007200Y-105485714D02*
X140959580Y-105438095D01*
X140959580Y-105438095D02*
X140864342Y-105390476D01*
X140864342Y-105390476D02*
X140054819Y-105390476D01*
X140150057Y-104961904D02*
X140102438Y-104914285D01*
X140102438Y-104914285D02*
X140054819Y-104819047D01*
X140054819Y-104819047D02*
X140054819Y-104580952D01*
X140054819Y-104580952D02*
X140102438Y-104485714D01*
X140102438Y-104485714D02*
X140150057Y-104438095D01*
X140150057Y-104438095D02*
X140245295Y-104390476D01*
X140245295Y-104390476D02*
X140340533Y-104390476D01*
X140340533Y-104390476D02*
X140483390Y-104438095D01*
X140483390Y-104438095D02*
X141054819Y-105009523D01*
X141054819Y-105009523D02*
X141054819Y-104390476D01*
X127154819Y-95633333D02*
X127869104Y-95633333D01*
X127869104Y-95633333D02*
X128011961Y-95680952D01*
X128011961Y-95680952D02*
X128107200Y-95776190D01*
X128107200Y-95776190D02*
X128154819Y-95919047D01*
X128154819Y-95919047D02*
X128154819Y-96014285D01*
X127154819Y-95252380D02*
X127154819Y-94585714D01*
X127154819Y-94585714D02*
X128154819Y-95014285D01*
X140138095Y-108854819D02*
X140138095Y-109664342D01*
X140138095Y-109664342D02*
X140185714Y-109759580D01*
X140185714Y-109759580D02*
X140233333Y-109807200D01*
X140233333Y-109807200D02*
X140328571Y-109854819D01*
X140328571Y-109854819D02*
X140519047Y-109854819D01*
X140519047Y-109854819D02*
X140614285Y-109807200D01*
X140614285Y-109807200D02*
X140661904Y-109759580D01*
X140661904Y-109759580D02*
X140709523Y-109664342D01*
X140709523Y-109664342D02*
X140709523Y-108854819D01*
X141090476Y-108854819D02*
X141757142Y-108854819D01*
X141757142Y-108854819D02*
X141328571Y-109854819D01*
X133744761Y-113050057D02*
X133649523Y-113002438D01*
X133649523Y-113002438D02*
X133554285Y-112907200D01*
X133554285Y-112907200D02*
X133411428Y-112764342D01*
X133411428Y-112764342D02*
X133316190Y-112716723D01*
X133316190Y-112716723D02*
X133220952Y-112716723D01*
X133268571Y-112954819D02*
X133173333Y-112907200D01*
X133173333Y-112907200D02*
X133078095Y-112811961D01*
X133078095Y-112811961D02*
X133030476Y-112621485D01*
X133030476Y-112621485D02*
X133030476Y-112288152D01*
X133030476Y-112288152D02*
X133078095Y-112097676D01*
X133078095Y-112097676D02*
X133173333Y-112002438D01*
X133173333Y-112002438D02*
X133268571Y-111954819D01*
X133268571Y-111954819D02*
X133459047Y-111954819D01*
X133459047Y-111954819D02*
X133554285Y-112002438D01*
X133554285Y-112002438D02*
X133649523Y-112097676D01*
X133649523Y-112097676D02*
X133697142Y-112288152D01*
X133697142Y-112288152D02*
X133697142Y-112621485D01*
X133697142Y-112621485D02*
X133649523Y-112811961D01*
X133649523Y-112811961D02*
X133554285Y-112907200D01*
X133554285Y-112907200D02*
X133459047Y-112954819D01*
X133459047Y-112954819D02*
X133268571Y-112954819D01*
X134649523Y-112954819D02*
X134078095Y-112954819D01*
X134363809Y-112954819D02*
X134363809Y-111954819D01*
X134363809Y-111954819D02*
X134268571Y-112097676D01*
X134268571Y-112097676D02*
X134173333Y-112192914D01*
X134173333Y-112192914D02*
X134078095Y-112240533D01*
X178766666Y-105954819D02*
X178766666Y-106669104D01*
X178766666Y-106669104D02*
X178719047Y-106811961D01*
X178719047Y-106811961D02*
X178623809Y-106907200D01*
X178623809Y-106907200D02*
X178480952Y-106954819D01*
X178480952Y-106954819D02*
X178385714Y-106954819D01*
X179671428Y-106288152D02*
X179671428Y-106954819D01*
X179433333Y-105907200D02*
X179195238Y-106621485D01*
X179195238Y-106621485D02*
X179814285Y-106621485D01*
X128734819Y-76733333D02*
X129449104Y-76733333D01*
X129449104Y-76733333D02*
X129591961Y-76780952D01*
X129591961Y-76780952D02*
X129687200Y-76876190D01*
X129687200Y-76876190D02*
X129734819Y-77019047D01*
X129734819Y-77019047D02*
X129734819Y-77114285D01*
X128734819Y-76352380D02*
X128734819Y-75733333D01*
X128734819Y-75733333D02*
X129115771Y-76066666D01*
X129115771Y-76066666D02*
X129115771Y-75923809D01*
X129115771Y-75923809D02*
X129163390Y-75828571D01*
X129163390Y-75828571D02*
X129211009Y-75780952D01*
X129211009Y-75780952D02*
X129306247Y-75733333D01*
X129306247Y-75733333D02*
X129544342Y-75733333D01*
X129544342Y-75733333D02*
X129639580Y-75780952D01*
X129639580Y-75780952D02*
X129687200Y-75828571D01*
X129687200Y-75828571D02*
X129734819Y-75923809D01*
X129734819Y-75923809D02*
X129734819Y-76209523D01*
X129734819Y-76209523D02*
X129687200Y-76304761D01*
X129687200Y-76304761D02*
X129639580Y-76352380D01*
X178966666Y-92884819D02*
X178966666Y-93599104D01*
X178966666Y-93599104D02*
X178919047Y-93741961D01*
X178919047Y-93741961D02*
X178823809Y-93837200D01*
X178823809Y-93837200D02*
X178680952Y-93884819D01*
X178680952Y-93884819D02*
X178585714Y-93884819D01*
X179871428Y-92884819D02*
X179680952Y-92884819D01*
X179680952Y-92884819D02*
X179585714Y-92932438D01*
X179585714Y-92932438D02*
X179538095Y-92980057D01*
X179538095Y-92980057D02*
X179442857Y-93122914D01*
X179442857Y-93122914D02*
X179395238Y-93313390D01*
X179395238Y-93313390D02*
X179395238Y-93694342D01*
X179395238Y-93694342D02*
X179442857Y-93789580D01*
X179442857Y-93789580D02*
X179490476Y-93837200D01*
X179490476Y-93837200D02*
X179585714Y-93884819D01*
X179585714Y-93884819D02*
X179776190Y-93884819D01*
X179776190Y-93884819D02*
X179871428Y-93837200D01*
X179871428Y-93837200D02*
X179919047Y-93789580D01*
X179919047Y-93789580D02*
X179966666Y-93694342D01*
X179966666Y-93694342D02*
X179966666Y-93456247D01*
X179966666Y-93456247D02*
X179919047Y-93361009D01*
X179919047Y-93361009D02*
X179871428Y-93313390D01*
X179871428Y-93313390D02*
X179776190Y-93265771D01*
X179776190Y-93265771D02*
X179585714Y-93265771D01*
X179585714Y-93265771D02*
X179490476Y-93313390D01*
X179490476Y-93313390D02*
X179442857Y-93361009D01*
X179442857Y-93361009D02*
X179395238Y-93456247D01*
X168056666Y-81474819D02*
X168056666Y-82189104D01*
X168056666Y-82189104D02*
X168009047Y-82331961D01*
X168009047Y-82331961D02*
X167913809Y-82427200D01*
X167913809Y-82427200D02*
X167770952Y-82474819D01*
X167770952Y-82474819D02*
X167675714Y-82474819D01*
X168485238Y-81570057D02*
X168532857Y-81522438D01*
X168532857Y-81522438D02*
X168628095Y-81474819D01*
X168628095Y-81474819D02*
X168866190Y-81474819D01*
X168866190Y-81474819D02*
X168961428Y-81522438D01*
X168961428Y-81522438D02*
X169009047Y-81570057D01*
X169009047Y-81570057D02*
X169056666Y-81665295D01*
X169056666Y-81665295D02*
X169056666Y-81760533D01*
X169056666Y-81760533D02*
X169009047Y-81903390D01*
X169009047Y-81903390D02*
X168437619Y-82474819D01*
X168437619Y-82474819D02*
X169056666Y-82474819D01*
X157390476Y-115874819D02*
X157390476Y-114874819D01*
X157390476Y-114874819D02*
X157723809Y-115589104D01*
X157723809Y-115589104D02*
X158057142Y-114874819D01*
X158057142Y-114874819D02*
X158057142Y-115874819D01*
X158438095Y-114874819D02*
X159057142Y-114874819D01*
X159057142Y-114874819D02*
X158723809Y-115255771D01*
X158723809Y-115255771D02*
X158866666Y-115255771D01*
X158866666Y-115255771D02*
X158961904Y-115303390D01*
X158961904Y-115303390D02*
X159009523Y-115351009D01*
X159009523Y-115351009D02*
X159057142Y-115446247D01*
X159057142Y-115446247D02*
X159057142Y-115684342D01*
X159057142Y-115684342D02*
X159009523Y-115779580D01*
X159009523Y-115779580D02*
X158961904Y-115827200D01*
X158961904Y-115827200D02*
X158866666Y-115874819D01*
X158866666Y-115874819D02*
X158580952Y-115874819D01*
X158580952Y-115874819D02*
X158485714Y-115827200D01*
X158485714Y-115827200D02*
X158438095Y-115779580D01*
X143898095Y-115354819D02*
X143898095Y-116164342D01*
X143898095Y-116164342D02*
X143945714Y-116259580D01*
X143945714Y-116259580D02*
X143993333Y-116307200D01*
X143993333Y-116307200D02*
X144088571Y-116354819D01*
X144088571Y-116354819D02*
X144279047Y-116354819D01*
X144279047Y-116354819D02*
X144374285Y-116307200D01*
X144374285Y-116307200D02*
X144421904Y-116259580D01*
X144421904Y-116259580D02*
X144469523Y-116164342D01*
X144469523Y-116164342D02*
X144469523Y-115354819D01*
X145374285Y-115354819D02*
X145183809Y-115354819D01*
X145183809Y-115354819D02*
X145088571Y-115402438D01*
X145088571Y-115402438D02*
X145040952Y-115450057D01*
X145040952Y-115450057D02*
X144945714Y-115592914D01*
X144945714Y-115592914D02*
X144898095Y-115783390D01*
X144898095Y-115783390D02*
X144898095Y-116164342D01*
X144898095Y-116164342D02*
X144945714Y-116259580D01*
X144945714Y-116259580D02*
X144993333Y-116307200D01*
X144993333Y-116307200D02*
X145088571Y-116354819D01*
X145088571Y-116354819D02*
X145279047Y-116354819D01*
X145279047Y-116354819D02*
X145374285Y-116307200D01*
X145374285Y-116307200D02*
X145421904Y-116259580D01*
X145421904Y-116259580D02*
X145469523Y-116164342D01*
X145469523Y-116164342D02*
X145469523Y-115926247D01*
X145469523Y-115926247D02*
X145421904Y-115831009D01*
X145421904Y-115831009D02*
X145374285Y-115783390D01*
X145374285Y-115783390D02*
X145279047Y-115735771D01*
X145279047Y-115735771D02*
X145088571Y-115735771D01*
X145088571Y-115735771D02*
X144993333Y-115783390D01*
X144993333Y-115783390D02*
X144945714Y-115831009D01*
X144945714Y-115831009D02*
X144898095Y-115926247D01*
X170890476Y-109894819D02*
X170890476Y-108894819D01*
X170890476Y-108894819D02*
X171223809Y-109609104D01*
X171223809Y-109609104D02*
X171557142Y-108894819D01*
X171557142Y-108894819D02*
X171557142Y-109894819D01*
X172557142Y-109894819D02*
X171985714Y-109894819D01*
X172271428Y-109894819D02*
X172271428Y-108894819D01*
X172271428Y-108894819D02*
X172176190Y-109037676D01*
X172176190Y-109037676D02*
X172080952Y-109132914D01*
X172080952Y-109132914D02*
X171985714Y-109180533D01*
X128161905Y-83254819D02*
X128161905Y-82254819D01*
X128161905Y-82254819D02*
X128400000Y-82254819D01*
X128400000Y-82254819D02*
X128542857Y-82302438D01*
X128542857Y-82302438D02*
X128638095Y-82397676D01*
X128638095Y-82397676D02*
X128685714Y-82492914D01*
X128685714Y-82492914D02*
X128733333Y-82683390D01*
X128733333Y-82683390D02*
X128733333Y-82826247D01*
X128733333Y-82826247D02*
X128685714Y-83016723D01*
X128685714Y-83016723D02*
X128638095Y-83111961D01*
X128638095Y-83111961D02*
X128542857Y-83207200D01*
X128542857Y-83207200D02*
X128400000Y-83254819D01*
X128400000Y-83254819D02*
X128161905Y-83254819D01*
X129685714Y-83254819D02*
X129114286Y-83254819D01*
X129400000Y-83254819D02*
X129400000Y-82254819D01*
X129400000Y-82254819D02*
X129304762Y-82397676D01*
X129304762Y-82397676D02*
X129209524Y-82492914D01*
X129209524Y-82492914D02*
X129114286Y-82540533D01*
X154234819Y-78733333D02*
X154949104Y-78733333D01*
X154949104Y-78733333D02*
X155091961Y-78780952D01*
X155091961Y-78780952D02*
X155187200Y-78876190D01*
X155187200Y-78876190D02*
X155234819Y-79019047D01*
X155234819Y-79019047D02*
X155234819Y-79114285D01*
X154663390Y-78114285D02*
X154615771Y-78209523D01*
X154615771Y-78209523D02*
X154568152Y-78257142D01*
X154568152Y-78257142D02*
X154472914Y-78304761D01*
X154472914Y-78304761D02*
X154425295Y-78304761D01*
X154425295Y-78304761D02*
X154330057Y-78257142D01*
X154330057Y-78257142D02*
X154282438Y-78209523D01*
X154282438Y-78209523D02*
X154234819Y-78114285D01*
X154234819Y-78114285D02*
X154234819Y-77923809D01*
X154234819Y-77923809D02*
X154282438Y-77828571D01*
X154282438Y-77828571D02*
X154330057Y-77780952D01*
X154330057Y-77780952D02*
X154425295Y-77733333D01*
X154425295Y-77733333D02*
X154472914Y-77733333D01*
X154472914Y-77733333D02*
X154568152Y-77780952D01*
X154568152Y-77780952D02*
X154615771Y-77828571D01*
X154615771Y-77828571D02*
X154663390Y-77923809D01*
X154663390Y-77923809D02*
X154663390Y-78114285D01*
X154663390Y-78114285D02*
X154711009Y-78209523D01*
X154711009Y-78209523D02*
X154758628Y-78257142D01*
X154758628Y-78257142D02*
X154853866Y-78304761D01*
X154853866Y-78304761D02*
X155044342Y-78304761D01*
X155044342Y-78304761D02*
X155139580Y-78257142D01*
X155139580Y-78257142D02*
X155187200Y-78209523D01*
X155187200Y-78209523D02*
X155234819Y-78114285D01*
X155234819Y-78114285D02*
X155234819Y-77923809D01*
X155234819Y-77923809D02*
X155187200Y-77828571D01*
X155187200Y-77828571D02*
X155139580Y-77780952D01*
X155139580Y-77780952D02*
X155044342Y-77733333D01*
X155044342Y-77733333D02*
X154853866Y-77733333D01*
X154853866Y-77733333D02*
X154758628Y-77780952D01*
X154758628Y-77780952D02*
X154711009Y-77828571D01*
X154711009Y-77828571D02*
X154663390Y-77923809D01*
X157390476Y-105134819D02*
X157390476Y-104134819D01*
X157390476Y-104134819D02*
X157723809Y-104849104D01*
X157723809Y-104849104D02*
X158057142Y-104134819D01*
X158057142Y-104134819D02*
X158057142Y-105134819D01*
X158485714Y-104230057D02*
X158533333Y-104182438D01*
X158533333Y-104182438D02*
X158628571Y-104134819D01*
X158628571Y-104134819D02*
X158866666Y-104134819D01*
X158866666Y-104134819D02*
X158961904Y-104182438D01*
X158961904Y-104182438D02*
X159009523Y-104230057D01*
X159009523Y-104230057D02*
X159057142Y-104325295D01*
X159057142Y-104325295D02*
X159057142Y-104420533D01*
X159057142Y-104420533D02*
X159009523Y-104563390D01*
X159009523Y-104563390D02*
X158438095Y-105134819D01*
X158438095Y-105134819D02*
X159057142Y-105134819D01*
X127961905Y-89354819D02*
X127961905Y-88354819D01*
X127961905Y-88354819D02*
X128200000Y-88354819D01*
X128200000Y-88354819D02*
X128342857Y-88402438D01*
X128342857Y-88402438D02*
X128438095Y-88497676D01*
X128438095Y-88497676D02*
X128485714Y-88592914D01*
X128485714Y-88592914D02*
X128533333Y-88783390D01*
X128533333Y-88783390D02*
X128533333Y-88926247D01*
X128533333Y-88926247D02*
X128485714Y-89116723D01*
X128485714Y-89116723D02*
X128438095Y-89211961D01*
X128438095Y-89211961D02*
X128342857Y-89307200D01*
X128342857Y-89307200D02*
X128200000Y-89354819D01*
X128200000Y-89354819D02*
X127961905Y-89354819D01*
X128914286Y-88450057D02*
X128961905Y-88402438D01*
X128961905Y-88402438D02*
X129057143Y-88354819D01*
X129057143Y-88354819D02*
X129295238Y-88354819D01*
X129295238Y-88354819D02*
X129390476Y-88402438D01*
X129390476Y-88402438D02*
X129438095Y-88450057D01*
X129438095Y-88450057D02*
X129485714Y-88545295D01*
X129485714Y-88545295D02*
X129485714Y-88640533D01*
X129485714Y-88640533D02*
X129438095Y-88783390D01*
X129438095Y-88783390D02*
X128866667Y-89354819D01*
X128866667Y-89354819D02*
X129485714Y-89354819D01*
X146554819Y-106056904D02*
X147364342Y-106056904D01*
X147364342Y-106056904D02*
X147459580Y-106009285D01*
X147459580Y-106009285D02*
X147507200Y-105961666D01*
X147507200Y-105961666D02*
X147554819Y-105866428D01*
X147554819Y-105866428D02*
X147554819Y-105675952D01*
X147554819Y-105675952D02*
X147507200Y-105580714D01*
X147507200Y-105580714D02*
X147459580Y-105533095D01*
X147459580Y-105533095D02*
X147364342Y-105485476D01*
X147364342Y-105485476D02*
X146554819Y-105485476D01*
X146554819Y-105104523D02*
X146554819Y-104485476D01*
X146554819Y-104485476D02*
X146935771Y-104818809D01*
X146935771Y-104818809D02*
X146935771Y-104675952D01*
X146935771Y-104675952D02*
X146983390Y-104580714D01*
X146983390Y-104580714D02*
X147031009Y-104533095D01*
X147031009Y-104533095D02*
X147126247Y-104485476D01*
X147126247Y-104485476D02*
X147364342Y-104485476D01*
X147364342Y-104485476D02*
X147459580Y-104533095D01*
X147459580Y-104533095D02*
X147507200Y-104580714D01*
X147507200Y-104580714D02*
X147554819Y-104675952D01*
X147554819Y-104675952D02*
X147554819Y-104961666D01*
X147554819Y-104961666D02*
X147507200Y-105056904D01*
X147507200Y-105056904D02*
X147459580Y-105104523D01*
X149666666Y-83501009D02*
X149333333Y-83501009D01*
X149333333Y-84024819D02*
X149333333Y-83024819D01*
X149333333Y-83024819D02*
X149809523Y-83024819D01*
X150523809Y-83501009D02*
X150666666Y-83548628D01*
X150666666Y-83548628D02*
X150714285Y-83596247D01*
X150714285Y-83596247D02*
X150761904Y-83691485D01*
X150761904Y-83691485D02*
X150761904Y-83834342D01*
X150761904Y-83834342D02*
X150714285Y-83929580D01*
X150714285Y-83929580D02*
X150666666Y-83977200D01*
X150666666Y-83977200D02*
X150571428Y-84024819D01*
X150571428Y-84024819D02*
X150190476Y-84024819D01*
X150190476Y-84024819D02*
X150190476Y-83024819D01*
X150190476Y-83024819D02*
X150523809Y-83024819D01*
X150523809Y-83024819D02*
X150619047Y-83072438D01*
X150619047Y-83072438D02*
X150666666Y-83120057D01*
X150666666Y-83120057D02*
X150714285Y-83215295D01*
X150714285Y-83215295D02*
X150714285Y-83310533D01*
X150714285Y-83310533D02*
X150666666Y-83405771D01*
X150666666Y-83405771D02*
X150619047Y-83453390D01*
X150619047Y-83453390D02*
X150523809Y-83501009D01*
X150523809Y-83501009D02*
X150190476Y-83501009D01*
X151714285Y-84024819D02*
X151142857Y-84024819D01*
X151428571Y-84024819D02*
X151428571Y-83024819D01*
X151428571Y-83024819D02*
X151333333Y-83167676D01*
X151333333Y-83167676D02*
X151238095Y-83262914D01*
X151238095Y-83262914D02*
X151142857Y-83310533D01*
X124866666Y-109599819D02*
X124866666Y-110314104D01*
X124866666Y-110314104D02*
X124819047Y-110456961D01*
X124819047Y-110456961D02*
X124723809Y-110552200D01*
X124723809Y-110552200D02*
X124580952Y-110599819D01*
X124580952Y-110599819D02*
X124485714Y-110599819D01*
X125390476Y-110599819D02*
X125580952Y-110599819D01*
X125580952Y-110599819D02*
X125676190Y-110552200D01*
X125676190Y-110552200D02*
X125723809Y-110504580D01*
X125723809Y-110504580D02*
X125819047Y-110361723D01*
X125819047Y-110361723D02*
X125866666Y-110171247D01*
X125866666Y-110171247D02*
X125866666Y-109790295D01*
X125866666Y-109790295D02*
X125819047Y-109695057D01*
X125819047Y-109695057D02*
X125771428Y-109647438D01*
X125771428Y-109647438D02*
X125676190Y-109599819D01*
X125676190Y-109599819D02*
X125485714Y-109599819D01*
X125485714Y-109599819D02*
X125390476Y-109647438D01*
X125390476Y-109647438D02*
X125342857Y-109695057D01*
X125342857Y-109695057D02*
X125295238Y-109790295D01*
X125295238Y-109790295D02*
X125295238Y-110028390D01*
X125295238Y-110028390D02*
X125342857Y-110123628D01*
X125342857Y-110123628D02*
X125390476Y-110171247D01*
X125390476Y-110171247D02*
X125485714Y-110218866D01*
X125485714Y-110218866D02*
X125676190Y-110218866D01*
X125676190Y-110218866D02*
X125771428Y-110171247D01*
X125771428Y-110171247D02*
X125819047Y-110123628D01*
X125819047Y-110123628D02*
X125866666Y-110028390D01*
X161054819Y-103233333D02*
X161769104Y-103233333D01*
X161769104Y-103233333D02*
X161911961Y-103280952D01*
X161911961Y-103280952D02*
X162007200Y-103376190D01*
X162007200Y-103376190D02*
X162054819Y-103519047D01*
X162054819Y-103519047D02*
X162054819Y-103614285D01*
X161054819Y-102280952D02*
X161054819Y-102757142D01*
X161054819Y-102757142D02*
X161531009Y-102804761D01*
X161531009Y-102804761D02*
X161483390Y-102757142D01*
X161483390Y-102757142D02*
X161435771Y-102661904D01*
X161435771Y-102661904D02*
X161435771Y-102423809D01*
X161435771Y-102423809D02*
X161483390Y-102328571D01*
X161483390Y-102328571D02*
X161531009Y-102280952D01*
X161531009Y-102280952D02*
X161626247Y-102233333D01*
X161626247Y-102233333D02*
X161864342Y-102233333D01*
X161864342Y-102233333D02*
X161959580Y-102280952D01*
X161959580Y-102280952D02*
X162007200Y-102328571D01*
X162007200Y-102328571D02*
X162054819Y-102423809D01*
X162054819Y-102423809D02*
X162054819Y-102661904D01*
X162054819Y-102661904D02*
X162007200Y-102757142D01*
X162007200Y-102757142D02*
X161959580Y-102804761D01*
X132054819Y-109838094D02*
X131054819Y-109838094D01*
X131054819Y-109838094D02*
X131054819Y-109599999D01*
X131054819Y-109599999D02*
X131102438Y-109457142D01*
X131102438Y-109457142D02*
X131197676Y-109361904D01*
X131197676Y-109361904D02*
X131292914Y-109314285D01*
X131292914Y-109314285D02*
X131483390Y-109266666D01*
X131483390Y-109266666D02*
X131626247Y-109266666D01*
X131626247Y-109266666D02*
X131816723Y-109314285D01*
X131816723Y-109314285D02*
X131911961Y-109361904D01*
X131911961Y-109361904D02*
X132007200Y-109457142D01*
X132007200Y-109457142D02*
X132054819Y-109599999D01*
X132054819Y-109599999D02*
X132054819Y-109838094D01*
X131054819Y-108933332D02*
X131054819Y-108314285D01*
X131054819Y-108314285D02*
X131435771Y-108647618D01*
X131435771Y-108647618D02*
X131435771Y-108504761D01*
X131435771Y-108504761D02*
X131483390Y-108409523D01*
X131483390Y-108409523D02*
X131531009Y-108361904D01*
X131531009Y-108361904D02*
X131626247Y-108314285D01*
X131626247Y-108314285D02*
X131864342Y-108314285D01*
X131864342Y-108314285D02*
X131959580Y-108361904D01*
X131959580Y-108361904D02*
X132007200Y-108409523D01*
X132007200Y-108409523D02*
X132054819Y-108504761D01*
X132054819Y-108504761D02*
X132054819Y-108790475D01*
X132054819Y-108790475D02*
X132007200Y-108885713D01*
X132007200Y-108885713D02*
X131959580Y-108933332D01*
X146754819Y-90309523D02*
X147754819Y-89642857D01*
X146754819Y-89642857D02*
X147754819Y-90309523D01*
X147754819Y-88738095D02*
X147754819Y-89309523D01*
X147754819Y-89023809D02*
X146754819Y-89023809D01*
X146754819Y-89023809D02*
X146897676Y-89119047D01*
X146897676Y-89119047D02*
X146992914Y-89214285D01*
X146992914Y-89214285D02*
X147040533Y-89309523D01*
X131154819Y-104109523D02*
X131869104Y-104109523D01*
X131869104Y-104109523D02*
X132011961Y-104157142D01*
X132011961Y-104157142D02*
X132107200Y-104252380D01*
X132107200Y-104252380D02*
X132154819Y-104395237D01*
X132154819Y-104395237D02*
X132154819Y-104490475D01*
X132154819Y-103109523D02*
X132154819Y-103680951D01*
X132154819Y-103395237D02*
X131154819Y-103395237D01*
X131154819Y-103395237D02*
X131297676Y-103490475D01*
X131297676Y-103490475D02*
X131392914Y-103585713D01*
X131392914Y-103585713D02*
X131440533Y-103680951D01*
X131154819Y-102490475D02*
X131154819Y-102395237D01*
X131154819Y-102395237D02*
X131202438Y-102299999D01*
X131202438Y-102299999D02*
X131250057Y-102252380D01*
X131250057Y-102252380D02*
X131345295Y-102204761D01*
X131345295Y-102204761D02*
X131535771Y-102157142D01*
X131535771Y-102157142D02*
X131773866Y-102157142D01*
X131773866Y-102157142D02*
X131964342Y-102204761D01*
X131964342Y-102204761D02*
X132059580Y-102252380D01*
X132059580Y-102252380D02*
X132107200Y-102299999D01*
X132107200Y-102299999D02*
X132154819Y-102395237D01*
X132154819Y-102395237D02*
X132154819Y-102490475D01*
X132154819Y-102490475D02*
X132107200Y-102585713D01*
X132107200Y-102585713D02*
X132059580Y-102633332D01*
X132059580Y-102633332D02*
X131964342Y-102680951D01*
X131964342Y-102680951D02*
X131773866Y-102728570D01*
X131773866Y-102728570D02*
X131535771Y-102728570D01*
X131535771Y-102728570D02*
X131345295Y-102680951D01*
X131345295Y-102680951D02*
X131250057Y-102633332D01*
X131250057Y-102633332D02*
X131202438Y-102585713D01*
X131202438Y-102585713D02*
X131154819Y-102490475D01*
X132975595Y-117104819D02*
X132975595Y-117914342D01*
X132975595Y-117914342D02*
X133023214Y-118009580D01*
X133023214Y-118009580D02*
X133070833Y-118057200D01*
X133070833Y-118057200D02*
X133166071Y-118104819D01*
X133166071Y-118104819D02*
X133356547Y-118104819D01*
X133356547Y-118104819D02*
X133451785Y-118057200D01*
X133451785Y-118057200D02*
X133499404Y-118009580D01*
X133499404Y-118009580D02*
X133547023Y-117914342D01*
X133547023Y-117914342D02*
X133547023Y-117104819D01*
X134499404Y-117104819D02*
X134023214Y-117104819D01*
X134023214Y-117104819D02*
X133975595Y-117581009D01*
X133975595Y-117581009D02*
X134023214Y-117533390D01*
X134023214Y-117533390D02*
X134118452Y-117485771D01*
X134118452Y-117485771D02*
X134356547Y-117485771D01*
X134356547Y-117485771D02*
X134451785Y-117533390D01*
X134451785Y-117533390D02*
X134499404Y-117581009D01*
X134499404Y-117581009D02*
X134547023Y-117676247D01*
X134547023Y-117676247D02*
X134547023Y-117914342D01*
X134547023Y-117914342D02*
X134499404Y-118009580D01*
X134499404Y-118009580D02*
X134451785Y-118057200D01*
X134451785Y-118057200D02*
X134356547Y-118104819D01*
X134356547Y-118104819D02*
X134118452Y-118104819D01*
X134118452Y-118104819D02*
X134023214Y-118057200D01*
X134023214Y-118057200D02*
X133975595Y-118009580D01*
X145707200Y-80661904D02*
X145754819Y-80519047D01*
X145754819Y-80519047D02*
X145754819Y-80280952D01*
X145754819Y-80280952D02*
X145707200Y-80185714D01*
X145707200Y-80185714D02*
X145659580Y-80138095D01*
X145659580Y-80138095D02*
X145564342Y-80090476D01*
X145564342Y-80090476D02*
X145469104Y-80090476D01*
X145469104Y-80090476D02*
X145373866Y-80138095D01*
X145373866Y-80138095D02*
X145326247Y-80185714D01*
X145326247Y-80185714D02*
X145278628Y-80280952D01*
X145278628Y-80280952D02*
X145231009Y-80471428D01*
X145231009Y-80471428D02*
X145183390Y-80566666D01*
X145183390Y-80566666D02*
X145135771Y-80614285D01*
X145135771Y-80614285D02*
X145040533Y-80661904D01*
X145040533Y-80661904D02*
X144945295Y-80661904D01*
X144945295Y-80661904D02*
X144850057Y-80614285D01*
X144850057Y-80614285D02*
X144802438Y-80566666D01*
X144802438Y-80566666D02*
X144754819Y-80471428D01*
X144754819Y-80471428D02*
X144754819Y-80233333D01*
X144754819Y-80233333D02*
X144802438Y-80090476D01*
X145754819Y-79138095D02*
X145754819Y-79709523D01*
X145754819Y-79423809D02*
X144754819Y-79423809D01*
X144754819Y-79423809D02*
X144897676Y-79519047D01*
X144897676Y-79519047D02*
X144992914Y-79614285D01*
X144992914Y-79614285D02*
X145040533Y-79709523D01*
X163466666Y-81474819D02*
X163466666Y-82189104D01*
X163466666Y-82189104D02*
X163419047Y-82331961D01*
X163419047Y-82331961D02*
X163323809Y-82427200D01*
X163323809Y-82427200D02*
X163180952Y-82474819D01*
X163180952Y-82474819D02*
X163085714Y-82474819D01*
X164466666Y-82474819D02*
X163895238Y-82474819D01*
X164180952Y-82474819D02*
X164180952Y-81474819D01*
X164180952Y-81474819D02*
X164085714Y-81617676D01*
X164085714Y-81617676D02*
X163990476Y-81712914D01*
X163990476Y-81712914D02*
X163895238Y-81760533D01*
%TO.C,U1*%
X145720000Y-101720000D02*
X146680000Y-101720000D01*
X145720000Y-102680000D02*
X145720000Y-101720000D01*
X146680000Y-101720000D02*
X146680000Y-102680000D01*
X146680000Y-102680000D02*
X145720000Y-102680000D01*
D14*
X146500000Y-101440000D02*
G75*
G02*
X146400000Y-101440000I-50000J0D01*
G01*
X146400000Y-101440000D02*
G75*
G02*
X146500000Y-101440000I50000J0D01*
G01*
%TO.C,U4*%
D15*
X133790000Y-82890000D02*
X134740000Y-82890000D01*
X133790000Y-83840000D02*
X133790000Y-82890000D01*
X133790000Y-93110000D02*
X133790000Y-92160000D01*
X134740000Y-93110000D02*
X133790000Y-93110000D01*
X143060000Y-82890000D02*
X144010000Y-82890000D01*
X144010000Y-82890000D02*
X144010000Y-83840000D01*
X144010000Y-92160000D02*
X144010000Y-93110000D01*
X144010000Y-93110000D02*
X143060000Y-93110000D01*
X144650000Y-92160000D02*
X144990000Y-92630000D01*
X144310000Y-92630000D01*
X144650000Y-92160000D01*
G36*
X144990000Y-92630000D02*
G01*
X144310000Y-92630000D01*
X144650000Y-92160000D01*
X144990000Y-92630000D01*
G37*
%TO.C,U2*%
D14*
X141550000Y-104640000D02*
X141550000Y-104200000D01*
X141550000Y-106200000D02*
X141550000Y-105560000D01*
X141550000Y-106200000D02*
X141700000Y-106200000D01*
X143975000Y-106175000D02*
X144125000Y-106175000D01*
X144100000Y-104000000D02*
X144250000Y-104000000D01*
X144250000Y-104640000D02*
X144250000Y-104000000D01*
X144250000Y-106200000D02*
X144250000Y-105560000D01*
X141550000Y-104000000D02*
X141190000Y-104000000D01*
X141550000Y-103640000D01*
X141550000Y-104000000D01*
G36*
X141550000Y-104000000D02*
G01*
X141190000Y-104000000D01*
X141550000Y-103640000D01*
X141550000Y-104000000D01*
G37*
%TO.C,J7*%
D15*
X123620000Y-89380000D02*
X125000000Y-89380000D01*
X123620000Y-90760000D02*
X123620000Y-89380000D01*
X123620000Y-92030000D02*
X123620000Y-97220000D01*
X123620000Y-92030000D02*
X126380000Y-92030000D01*
X123620000Y-97220000D02*
X126380000Y-97220000D01*
X126380000Y-92030000D02*
X126380000Y-97220000D01*
%TO.C,R1*%
X127277500Y-92754724D02*
X127277500Y-92245276D01*
X128322500Y-92754724D02*
X128322500Y-92245276D01*
%TO.C,U7*%
D11*
X139945500Y-110542500D02*
X141645500Y-110542500D01*
X139945500Y-113602500D02*
X141645500Y-113602500D01*
X141645500Y-112552500D02*
X141645500Y-111592500D01*
D16*
X139455500Y-110652500D02*
G75*
G02*
X139395500Y-110652500I-30000J0D01*
G01*
X139395500Y-110652500D02*
G75*
G02*
X139455500Y-110652500I30000J0D01*
G01*
D13*
X139805500Y-110422500D02*
G75*
G02*
X139505500Y-110422500I-150000J0D01*
G01*
X139505500Y-110422500D02*
G75*
G02*
X139805500Y-110422500I150000J0D01*
G01*
%TO.C,Q1*%
D11*
X133840000Y-113440000D02*
X133190000Y-113440000D01*
X133840000Y-113440000D02*
X134490000Y-113440000D01*
X133840000Y-116560000D02*
X133190000Y-116560000D01*
X133840000Y-116560000D02*
X134490000Y-116560000D01*
D15*
X135002500Y-116510000D02*
X135242500Y-116840000D01*
X134762500Y-116840000D01*
X135002500Y-116510000D01*
G36*
X135242500Y-116840000D02*
G01*
X134762500Y-116840000D01*
X135002500Y-116510000D01*
X135242500Y-116840000D01*
G37*
%TO.C,J4*%
X177820000Y-94740000D02*
X179200000Y-94740000D01*
X177820000Y-96120000D02*
X177820000Y-94740000D01*
X177820000Y-97390000D02*
X177820000Y-105120000D01*
X177820000Y-97390000D02*
X180580000Y-97390000D01*
X177820000Y-105120000D02*
X180580000Y-105120000D01*
X180580000Y-97390000D02*
X180580000Y-105120000D01*
%TO.C,J3*%
X130280000Y-77780000D02*
X130280000Y-76400000D01*
X131660000Y-77780000D02*
X130280000Y-77780000D01*
X132930000Y-75020000D02*
X138120000Y-75020000D01*
X132930000Y-77780000D02*
X132930000Y-75020000D01*
X132930000Y-77780000D02*
X138120000Y-77780000D01*
X138120000Y-77780000D02*
X138120000Y-75020000D01*
%TO.C,J6*%
X180580000Y-84690000D02*
X180580000Y-92420000D01*
X177820000Y-92420000D02*
X180580000Y-92420000D01*
X177820000Y-84690000D02*
X180580000Y-84690000D01*
X177820000Y-84690000D02*
X177820000Y-92420000D01*
X177820000Y-83420000D02*
X177820000Y-82040000D01*
X177820000Y-82040000D02*
X179200000Y-82040000D01*
%TO.C,C6*%
X166970000Y-109600000D02*
G75*
G02*
X160430000Y-109600000I-3270000J0D01*
G01*
X160430000Y-109600000D02*
G75*
G02*
X166970000Y-109600000I3270000J0D01*
G01*
%TO.C,C26*%
D11*
X127590000Y-113640000D02*
X127590000Y-117850000D01*
X130610000Y-113640000D02*
X127590000Y-113640000D01*
X130610000Y-117850000D02*
X130610000Y-113640000D01*
%TO.C,J2*%
D15*
X167010000Y-83020000D02*
X168390000Y-83020000D01*
X167010000Y-84400000D02*
X167010000Y-83020000D01*
X167010000Y-85670000D02*
X167010000Y-90860000D01*
X167010000Y-85670000D02*
X169770000Y-85670000D01*
X167010000Y-90860000D02*
X169770000Y-90860000D01*
X169770000Y-85670000D02*
X169770000Y-90860000D01*
%TO.C,M3*%
X156820000Y-116420000D02*
X158200000Y-116420000D01*
X156820000Y-117800000D02*
X156820000Y-116420000D01*
X156820000Y-119070000D02*
X156820000Y-124260000D01*
X156820000Y-119070000D02*
X159580000Y-119070000D01*
X156820000Y-124260000D02*
X159580000Y-124260000D01*
X159580000Y-119070000D02*
X159580000Y-124260000D01*
%TO.C,U6*%
D11*
X143390000Y-116970000D02*
X146330000Y-116970000D01*
X143390000Y-123630000D02*
X143390000Y-116970000D01*
X146330000Y-116970000D02*
X146330000Y-123630000D01*
X146330000Y-123630000D02*
X143390000Y-123630000D01*
X146740000Y-123300000D02*
G75*
G02*
X146680000Y-123300000I-30000J0D01*
G01*
X146680000Y-123300000D02*
G75*
G02*
X146740000Y-123300000I30000J0D01*
G01*
%TO.C,M1*%
D15*
X170320000Y-110440000D02*
X171700000Y-110440000D01*
X170320000Y-111820000D02*
X170320000Y-110440000D01*
X170320000Y-113090000D02*
X170320000Y-118280000D01*
X170320000Y-113090000D02*
X173080000Y-113090000D01*
X170320000Y-118280000D02*
X173080000Y-118280000D01*
X173080000Y-113090000D02*
X173080000Y-118280000D01*
%TO.C,D1*%
D11*
X127890000Y-85030000D02*
X130180000Y-85030000D01*
X130180000Y-83570000D02*
X127890000Y-83570000D01*
X130180000Y-85030000D02*
X130180000Y-83570000D01*
%TO.C,J8*%
D15*
X155780000Y-79780000D02*
X155780000Y-78400000D01*
X157160000Y-79780000D02*
X155780000Y-79780000D01*
X158430000Y-77020000D02*
X161080000Y-77020000D01*
X158430000Y-79780000D02*
X158430000Y-77020000D01*
X158430000Y-79780000D02*
X161080000Y-79780000D01*
X161080000Y-79780000D02*
X161080000Y-77020000D01*
%TO.C,M2*%
X156820000Y-105680000D02*
X158200000Y-105680000D01*
X156820000Y-107060000D02*
X156820000Y-105680000D01*
X156820000Y-108330000D02*
X156820000Y-113520000D01*
X156820000Y-108330000D02*
X159580000Y-108330000D01*
X156820000Y-113520000D02*
X159580000Y-113520000D01*
X159580000Y-108330000D02*
X159580000Y-113520000D01*
%TO.C,C3*%
X167270000Y-120800000D02*
G75*
G02*
X160730000Y-120800000I-3270000J0D01*
G01*
X160730000Y-120800000D02*
G75*
G02*
X167270000Y-120800000I3270000J0D01*
G01*
%TO.C,D2*%
X127900000Y-88035000D02*
X130360000Y-88035000D01*
X130360000Y-86565000D02*
X127900000Y-86565000D01*
X130360000Y-88035000D02*
X130360000Y-86565000D01*
%TO.C,U3*%
D11*
X148070000Y-103715000D02*
X148320000Y-103715000D01*
X148070000Y-104465000D02*
X148070000Y-103715000D01*
X148070000Y-106125000D02*
X148070000Y-106875000D01*
X148070000Y-106875000D02*
X148320000Y-106875000D01*
X150730000Y-103715000D02*
X150480000Y-103715000D01*
X150730000Y-104465000D02*
X150730000Y-103715000D01*
X150730000Y-106125000D02*
X150730000Y-106875000D01*
X150730000Y-106875000D02*
X150480000Y-106875000D01*
D16*
X148180000Y-106795000D02*
G75*
G02*
X148120000Y-106795000I-30000J0D01*
G01*
X148120000Y-106795000D02*
G75*
G02*
X148180000Y-106795000I30000J0D01*
G01*
D11*
X148720000Y-107205000D02*
G75*
G02*
X148560000Y-107205000I-80000J0D01*
G01*
X148560000Y-107205000D02*
G75*
G02*
X148720000Y-107205000I80000J0D01*
G01*
%TO.C,FB1*%
X150340000Y-84490000D02*
X150660000Y-84490000D01*
X150340000Y-85510000D02*
X150660000Y-85510000D01*
%TO.C,J9*%
D15*
X123820000Y-111145000D02*
X125200000Y-111145000D01*
X123820000Y-112525000D02*
X123820000Y-111145000D01*
X123820000Y-113795000D02*
X123820000Y-116445000D01*
X123820000Y-113795000D02*
X126580000Y-113795000D01*
X123820000Y-116445000D02*
X126580000Y-116445000D01*
X126580000Y-113795000D02*
X126580000Y-116445000D01*
%TO.C,J5*%
X163010000Y-104180000D02*
X163010000Y-102800000D01*
X164390000Y-104180000D02*
X163010000Y-104180000D01*
X165660000Y-101420000D02*
X173390000Y-101420000D01*
X165660000Y-104180000D02*
X165660000Y-101420000D01*
X165660000Y-104180000D02*
X173390000Y-104180000D01*
X173390000Y-104180000D02*
X173390000Y-101420000D01*
%TO.C,C2*%
X180770000Y-114450000D02*
G75*
G02*
X174230000Y-114450000I-3270000J0D01*
G01*
X174230000Y-114450000D02*
G75*
G02*
X180770000Y-114450000I3270000J0D01*
G01*
%TO.C,D3*%
D11*
X132600000Y-111460000D02*
X132600000Y-107450000D01*
X132600000Y-111460000D02*
X134600000Y-111460000D01*
X134600000Y-111460000D02*
X134600000Y-107450000D01*
%TO.C,X1*%
X148140000Y-89750000D02*
X148140000Y-91410000D01*
X148140000Y-91410000D02*
X150000000Y-91410000D01*
X148370000Y-87820000D02*
X152430000Y-87820000D01*
X148370000Y-91180000D02*
X148370000Y-87820000D01*
X152430000Y-87820000D02*
X152430000Y-91180000D01*
X152430000Y-91180000D02*
X148370000Y-91180000D01*
D16*
X148830000Y-90750000D02*
G75*
G02*
X148770000Y-90750000I-30000J0D01*
G01*
X148770000Y-90750000D02*
G75*
G02*
X148830000Y-90750000I30000J0D01*
G01*
%TO.C,U5*%
D15*
X132827500Y-118490000D02*
X134647500Y-118490000D01*
X132827500Y-118540000D02*
X132827500Y-118490000D01*
X132827500Y-121610000D02*
X132827500Y-121560000D01*
X134647500Y-118490000D02*
X134647500Y-118540000D01*
X134647500Y-121560000D02*
X134647500Y-121610000D01*
X134647500Y-121610000D02*
X132827500Y-121610000D01*
X132287500Y-118540000D02*
X132047500Y-118210000D01*
X132527500Y-118210000D01*
X132287500Y-118540000D01*
G36*
X132287500Y-118540000D02*
G01*
X132047500Y-118210000D01*
X132527500Y-118210000D01*
X132287500Y-118540000D01*
G37*
%TO.C,S1*%
D17*
X147100000Y-78450000D02*
X147100000Y-78680000D01*
X147100000Y-78450000D02*
X151100000Y-78450000D01*
X147100000Y-81350000D02*
X147100000Y-81120000D01*
X151100000Y-78450000D02*
X151100000Y-78680000D01*
X151100000Y-81120000D02*
X151100000Y-81350000D01*
X151100000Y-81350000D02*
X147100000Y-81350000D01*
%TO.C,J1*%
D15*
X162420000Y-83020000D02*
X163800000Y-83020000D01*
X162420000Y-84400000D02*
X162420000Y-83020000D01*
X162420000Y-85670000D02*
X162420000Y-90860000D01*
X162420000Y-85670000D02*
X165180000Y-85670000D01*
X162420000Y-90860000D02*
X165180000Y-90860000D01*
X165180000Y-85670000D02*
X165180000Y-90860000D01*
%TD*%
%LPC*%
D18*
%TO.C,U1*%
X146400000Y-102000000D03*
X146400000Y-102400000D03*
X146000000Y-102000000D03*
X146000000Y-102400000D03*
%TD*%
D19*
%TO.C,C30*%
X150100000Y-117880000D03*
X150100000Y-116320000D03*
%TD*%
D20*
%TO.C,U4*%
X144575000Y-91750000D03*
X144575000Y-91250000D03*
X144575000Y-90750000D03*
X144575000Y-90250000D03*
X144575000Y-89750000D03*
X144575000Y-89250000D03*
X144575000Y-88750000D03*
X144575000Y-88250000D03*
X144575000Y-87750000D03*
X144575000Y-87250000D03*
X144575000Y-86750000D03*
X144575000Y-86250000D03*
X144575000Y-85750000D03*
X144575000Y-85250000D03*
X144575000Y-84750000D03*
X144575000Y-84250000D03*
D21*
X142650000Y-82325000D03*
X142150000Y-82325000D03*
X141650000Y-82325000D03*
X141150000Y-82325000D03*
X140650000Y-82325000D03*
X140150000Y-82325000D03*
X139650000Y-82325000D03*
X139150000Y-82325000D03*
X138650000Y-82325000D03*
X138150000Y-82325000D03*
X137650000Y-82325000D03*
X137150000Y-82325000D03*
X136650000Y-82325000D03*
X136150000Y-82325000D03*
X135650000Y-82325000D03*
X135150000Y-82325000D03*
D20*
X133225000Y-84250000D03*
X133225000Y-84750000D03*
X133225000Y-85250000D03*
X133225000Y-85750000D03*
X133225000Y-86250000D03*
X133225000Y-86750000D03*
X133225000Y-87250000D03*
X133225000Y-87750000D03*
X133225000Y-88250000D03*
X133225000Y-88750000D03*
X133225000Y-89250000D03*
X133225000Y-89750000D03*
X133225000Y-90250000D03*
X133225000Y-90750000D03*
X133225000Y-91250000D03*
X133225000Y-91750000D03*
D21*
X135150000Y-93675000D03*
X135650000Y-93675000D03*
X136150000Y-93675000D03*
X136650000Y-93675000D03*
X137150000Y-93675000D03*
X137650000Y-93675000D03*
X138150000Y-93675000D03*
X138650000Y-93675000D03*
X139150000Y-93675000D03*
X139650000Y-93675000D03*
X140150000Y-93675000D03*
X140650000Y-93675000D03*
X141150000Y-93675000D03*
X141650000Y-93675000D03*
X142150000Y-93675000D03*
X142650000Y-93675000D03*
%TD*%
D22*
%TO.C,U2*%
X141925000Y-104300000D03*
X142575000Y-104300000D03*
X143225000Y-104300000D03*
X143875000Y-104300000D03*
X143875000Y-105900000D03*
X143225000Y-105900000D03*
X142575000Y-105900000D03*
X141925000Y-105900000D03*
%TD*%
D23*
%TO.C,J7*%
X125000000Y-90760000D03*
D24*
X125000000Y-93300000D03*
X125000000Y-95840000D03*
%TD*%
D25*
%TO.C,R1*%
X127800000Y-93412500D03*
X127800000Y-91587500D03*
%TD*%
D26*
%TO.C,C17*%
X132900000Y-93020000D03*
X132900000Y-94580000D03*
%TD*%
%TO.C,C27*%
X137100000Y-119420000D03*
X137100000Y-120980000D03*
%TD*%
D27*
%TO.C,R4*%
X162300000Y-77480000D03*
X162300000Y-79120000D03*
%TD*%
D28*
%TO.C,U7*%
X139645500Y-111122500D03*
X139645500Y-112072500D03*
X139645500Y-113022500D03*
D29*
X141945500Y-113022500D03*
X141945500Y-111122500D03*
%TD*%
D26*
%TO.C,C25*%
X146500000Y-93120000D03*
X146500000Y-94680000D03*
%TD*%
D30*
%TO.C,Q1*%
X134780000Y-115950000D03*
X134780000Y-114050000D03*
X132900000Y-115000000D03*
%TD*%
D26*
%TO.C,C32*%
X143300000Y-111320000D03*
X143300000Y-112880000D03*
%TD*%
D23*
%TO.C,J4*%
X179200000Y-96120000D03*
D24*
X179200000Y-98660000D03*
X179200000Y-101200000D03*
X179200000Y-103740000D03*
%TD*%
D19*
%TO.C,C23*%
X147000000Y-85100000D03*
X147000000Y-83540000D03*
%TD*%
D31*
%TO.C,C18*%
X151680000Y-92300000D03*
X150120000Y-92300000D03*
%TD*%
D23*
%TO.C,J3*%
X131660000Y-76400000D03*
D24*
X134200000Y-76400000D03*
X136740000Y-76400000D03*
%TD*%
D19*
%TO.C,C15*%
X142200000Y-79780000D03*
X142200000Y-78220000D03*
%TD*%
D23*
%TO.C,J6*%
X179200000Y-83420000D03*
D24*
X179200000Y-85960000D03*
X179200000Y-88500000D03*
X179200000Y-91040000D03*
%TD*%
D32*
%TO.C,C6*%
X163700000Y-110850000D03*
X163700000Y-108350000D03*
%TD*%
D33*
%TO.C,R3*%
X126320000Y-87300000D03*
X124680000Y-87300000D03*
%TD*%
D34*
%TO.C,C7*%
X150520000Y-102900000D03*
X152080000Y-102900000D03*
%TD*%
D35*
%TO.C,H1*%
X126000000Y-78500000D03*
%TD*%
D36*
%TO.C,C26*%
X129100000Y-114560000D03*
X129100000Y-117640000D03*
%TD*%
D35*
%TO.C,H2*%
X178000000Y-122500000D03*
%TD*%
D23*
%TO.C,J2*%
X168390000Y-84400000D03*
D24*
X168390000Y-86940000D03*
X168390000Y-89480000D03*
%TD*%
D19*
%TO.C,C24*%
X140900000Y-79780000D03*
X140900000Y-78220000D03*
%TD*%
%TO.C,C20*%
X136200000Y-80580000D03*
X136200000Y-79020000D03*
%TD*%
D23*
%TO.C,M3*%
X158200000Y-117800000D03*
D24*
X158200000Y-120340000D03*
X158200000Y-122880000D03*
%TD*%
D37*
%TO.C,R5*%
X163700000Y-79120000D03*
X163700000Y-77480000D03*
%TD*%
D35*
%TO.C,H3*%
X126000000Y-122500000D03*
%TD*%
D38*
%TO.C,U6*%
X147930000Y-122600000D03*
X147930000Y-120300000D03*
X147930000Y-118000000D03*
D39*
X141960000Y-119300000D03*
X141960000Y-120300000D03*
D40*
X141960000Y-120300000D03*
D39*
X141960000Y-121300000D03*
%TD*%
D34*
%TO.C,C16*%
X149420000Y-86800000D03*
X150980000Y-86800000D03*
%TD*%
D23*
%TO.C,M1*%
X171700000Y-111820000D03*
D24*
X171700000Y-114360000D03*
X171700000Y-116900000D03*
%TD*%
D34*
%TO.C,C9*%
X148820000Y-108100000D03*
X150380000Y-108100000D03*
%TD*%
D41*
%TO.C,D1*%
X129480000Y-84300000D03*
X127900000Y-84300000D03*
%TD*%
D33*
%TO.C,R2*%
X126310000Y-84250000D03*
X124670000Y-84250000D03*
%TD*%
D34*
%TO.C,C5*%
X142185000Y-107345000D03*
X143745000Y-107345000D03*
%TD*%
D23*
%TO.C,J8*%
X157160000Y-78400000D03*
D24*
X159700000Y-78400000D03*
%TD*%
D26*
%TO.C,C1*%
X146100000Y-99220000D03*
X146100000Y-100780000D03*
%TD*%
%TO.C,C28*%
X138200000Y-112120000D03*
X138200000Y-113680000D03*
%TD*%
D23*
%TO.C,M2*%
X158200000Y-107060000D03*
D24*
X158200000Y-109600000D03*
X158200000Y-112140000D03*
%TD*%
D32*
%TO.C,C3*%
X164000000Y-122050000D03*
X164000000Y-119550000D03*
%TD*%
D42*
%TO.C,D2*%
X129575000Y-87300000D03*
X127825000Y-87300000D03*
%TD*%
D19*
%TO.C,C22*%
X148300000Y-85100000D03*
X148300000Y-83540000D03*
%TD*%
D43*
%TO.C,U3*%
X148650000Y-106555000D03*
X149150000Y-106555000D03*
X149650000Y-106555000D03*
X150150000Y-106555000D03*
D44*
X150410000Y-105795000D03*
X150410000Y-105295000D03*
X150410000Y-104795000D03*
D43*
X150150000Y-104035000D03*
X149650000Y-104035000D03*
X149150000Y-104035000D03*
X148650000Y-104035000D03*
D44*
X148390000Y-104795000D03*
X148390000Y-105295000D03*
X148390000Y-105795000D03*
%TD*%
D45*
%TO.C,FB1*%
X149710000Y-85000000D03*
X151290000Y-85000000D03*
%TD*%
D31*
%TO.C,C4*%
X141880000Y-102900000D03*
X140320000Y-102900000D03*
%TD*%
D23*
%TO.C,J9*%
X125200000Y-112525000D03*
D24*
X125200000Y-115065000D03*
%TD*%
D23*
%TO.C,J5*%
X164390000Y-102800000D03*
D24*
X166930000Y-102800000D03*
X169470000Y-102800000D03*
X172010000Y-102800000D03*
%TD*%
D35*
%TO.C,H4*%
X178000000Y-78500000D03*
%TD*%
D46*
%TO.C,R7*%
X137880000Y-98100000D03*
X139520000Y-98100000D03*
%TD*%
%TO.C,R6*%
X137880000Y-96800000D03*
X139520000Y-96800000D03*
%TD*%
D34*
%TO.C,C8*%
X151520000Y-105765000D03*
X153080000Y-105765000D03*
%TD*%
D26*
%TO.C,C12*%
X143800000Y-94020000D03*
X143800000Y-95580000D03*
%TD*%
D32*
%TO.C,C2*%
X177500000Y-115700000D03*
X177500000Y-113200000D03*
%TD*%
D19*
%TO.C,C29*%
X151500000Y-117880000D03*
X151500000Y-116320000D03*
%TD*%
D34*
%TO.C,C10*%
X146920000Y-77300000D03*
X148480000Y-77300000D03*
%TD*%
D26*
%TO.C,C21*%
X131600000Y-93020000D03*
X131600000Y-94580000D03*
%TD*%
D31*
%TO.C,C14*%
X133980000Y-80500000D03*
X132420000Y-80500000D03*
%TD*%
%TO.C,C19*%
X133980000Y-81900000D03*
X132420000Y-81900000D03*
%TD*%
D26*
%TO.C,C31*%
X140760000Y-123120000D03*
X140760000Y-124680000D03*
%TD*%
D47*
%TO.C,D3*%
X133600000Y-110750000D03*
X133600000Y-107450000D03*
%TD*%
D26*
%TO.C,C13*%
X145100000Y-93520000D03*
X145100000Y-95080000D03*
%TD*%
D48*
%TO.C,X1*%
X149300000Y-90350000D03*
X151500000Y-90350000D03*
X151500000Y-88650000D03*
X149300000Y-88650000D03*
%TD*%
D26*
%TO.C,C11*%
X142500000Y-95520000D03*
X142500000Y-97080000D03*
%TD*%
D49*
%TO.C,J10*%
X128900000Y-100420000D03*
X128900000Y-106200000D03*
D50*
X130100000Y-102060000D03*
X130100000Y-103060000D03*
X130100000Y-103560000D03*
X130100000Y-104560000D03*
D51*
X130100000Y-105710000D03*
X130100000Y-106510000D03*
D50*
X130100000Y-105060000D03*
X130100000Y-104060000D03*
X130100000Y-102560000D03*
X130100000Y-101560000D03*
D51*
X130100000Y-100910000D03*
X130100000Y-100110000D03*
D52*
X129420000Y-98980000D03*
D53*
X125220000Y-98980000D03*
D39*
X126600000Y-101310000D03*
X124600000Y-101310000D03*
D54*
X125600000Y-103310000D03*
D39*
X126600000Y-105310000D03*
X124600000Y-105310000D03*
D52*
X129420000Y-107640000D03*
D53*
X125220000Y-107640000D03*
%TD*%
D55*
%TO.C,U5*%
X132600000Y-119100000D03*
X132600000Y-120050000D03*
X132600000Y-121000000D03*
X134875000Y-121000000D03*
X134875000Y-120050000D03*
X134875000Y-119100000D03*
%TD*%
D26*
%TO.C,C33*%
X142160000Y-123120000D03*
X142160000Y-124680000D03*
%TD*%
D56*
%TO.C,S1*%
X151175000Y-79900000D03*
X147025000Y-79900000D03*
%TD*%
D23*
%TO.C,J1*%
X163800000Y-84400000D03*
D24*
X163800000Y-86940000D03*
X163800000Y-89480000D03*
%TD*%
D37*
%TO.C,R8*%
X135000000Y-124320000D03*
X135000000Y-122680000D03*
%TD*%
%LPD*%
M02*
