%TF.GenerationSoftware,KiCad,Pcbnew,10.0.4*%
%TF.CreationDate,2026-07-07T22:36:50+12:00*%
%TF.ProjectId,FlightControllerF411,466c6967-6874-4436-9f6e-74726f6c6c65,rev?*%
%TF.SameCoordinates,Original*%
%TF.FileFunction,Copper,L2,Inr*%
%TF.FilePolarity,Positive*%
%FSLAX46Y46*%
G04 Gerber Fmt 4.6, Leading zero omitted, Abs format (unit mm)*
G04 Created by KiCad (PCBNEW 10.0.4) date 2026-07-07 22:36:50*
%MOMM*%
%LPD*%
G01*
G04 APERTURE LIST*
%TA.AperFunction,ComponentPad*%
%ADD10R,1.700000X1.700000*%
%TD*%
%TA.AperFunction,ComponentPad*%
%ADD11C,1.700000*%
%TD*%
%TA.AperFunction,ComponentPad*%
%ADD12C,1.600000*%
%TD*%
%TA.AperFunction,ComponentPad*%
%ADD13C,4.700000*%
%TD*%
%TA.AperFunction,ComponentPad*%
%ADD14C,0.500000*%
%TD*%
%TA.AperFunction,ComponentPad*%
%ADD15O,2.300000X1.300000*%
%TD*%
%TA.AperFunction,ComponentPad*%
%ADD16O,2.100000X1.300000*%
%TD*%
%TA.AperFunction,ViaPad*%
%ADD17C,0.600000*%
%TD*%
%TA.AperFunction,ViaPad*%
%ADD18C,1.600000*%
%TD*%
G04 APERTURE END LIST*
D10*
%TO.N,+3.3V*%
%TO.C,J7*%
X125000000Y-90760000D03*
D11*
%TO.N,Net-(J7-Pin_2)*%
X125000000Y-93300000D03*
%TO.N,GND*%
X125000000Y-95840000D03*
%TD*%
D10*
%TO.N,+5V*%
%TO.C,J4*%
X179200000Y-96120000D03*
D11*
%TO.N,USART1_TX*%
X179200000Y-98660000D03*
%TO.N,USART1_RX*%
X179200000Y-101200000D03*
%TO.N,GND*%
X179200000Y-103740000D03*
%TD*%
D10*
%TO.N,SWDIO*%
%TO.C,J3*%
X131660000Y-76400000D03*
D11*
%TO.N,SWCLK*%
X134200000Y-76400000D03*
%TO.N,GND*%
X136740000Y-76400000D03*
%TD*%
D10*
%TO.N,+5V*%
%TO.C,J6*%
X179200000Y-83420000D03*
D11*
%TO.N,USART2_TX*%
X179200000Y-85960000D03*
%TO.N,USART2_RX*%
X179200000Y-88500000D03*
%TO.N,GND*%
X179200000Y-91040000D03*
%TD*%
D12*
%TO.N,+5V*%
%TO.C,C6*%
X163700000Y-110850000D03*
%TO.N,GND*%
X163700000Y-108350000D03*
%TD*%
D13*
%TO.N,GND*%
%TO.C,H1*%
X126000000Y-78500000D03*
%TD*%
%TO.N,GND*%
%TO.C,H2*%
X178000000Y-122500000D03*
%TD*%
D10*
%TO.N,MOTOR2*%
%TO.C,J2*%
X168390000Y-84400000D03*
D11*
%TO.N,unconnected-(J2-Pin_2-Pad2)*%
X168390000Y-86940000D03*
%TO.N,GND*%
X168390000Y-89480000D03*
%TD*%
D10*
%TO.N,SERVO_TILT_SIGNAL*%
%TO.C,M3*%
X158200000Y-117800000D03*
D11*
%TO.N,+5V*%
X158200000Y-120340000D03*
%TO.N,GND*%
X158200000Y-122880000D03*
%TD*%
D13*
%TO.N,GND*%
%TO.C,H3*%
X126000000Y-122500000D03*
%TD*%
D14*
%TO.N,+3.3V*%
%TO.C,U6*%
X141960000Y-119300000D03*
X141960000Y-120300000D03*
X141960000Y-121300000D03*
%TD*%
D10*
%TO.N,SERVO_1_SIGNAL*%
%TO.C,M1*%
X171700000Y-111820000D03*
D11*
%TO.N,+5V*%
X171700000Y-114360000D03*
%TO.N,GND*%
X171700000Y-116900000D03*
%TD*%
D10*
%TO.N,GND*%
%TO.C,J8*%
X157160000Y-78400000D03*
D11*
%TO.N,+12V*%
X159700000Y-78400000D03*
%TD*%
D10*
%TO.N,SERVO_2_SIGNAL*%
%TO.C,M2*%
X158200000Y-107060000D03*
D11*
%TO.N,+5V*%
X158200000Y-109600000D03*
%TO.N,GND*%
X158200000Y-112140000D03*
%TD*%
D12*
%TO.N,+5V*%
%TO.C,C3*%
X164000000Y-122050000D03*
%TO.N,GND*%
X164000000Y-119550000D03*
%TD*%
D10*
%TO.N,+5V Batt*%
%TO.C,J9*%
X125200000Y-112525000D03*
D11*
%TO.N,GND*%
X125200000Y-115065000D03*
%TD*%
D10*
%TO.N,+5V*%
%TO.C,J5*%
X164390000Y-102800000D03*
D11*
%TO.N,+3.3V*%
X166930000Y-102800000D03*
%TO.N,GND*%
X169470000Y-102800000D03*
X172010000Y-102800000D03*
%TD*%
D13*
%TO.N,GND*%
%TO.C,H4*%
X178000000Y-78500000D03*
%TD*%
D12*
%TO.N,+5V*%
%TO.C,C2*%
X177500000Y-115700000D03*
%TO.N,GND*%
X177500000Y-113200000D03*
%TD*%
D15*
%TO.N,GND*%
%TO.C,J10*%
X129420000Y-98980000D03*
D16*
X125220000Y-98980000D03*
D14*
X126600000Y-101310000D03*
X124600000Y-101310000D03*
X126600000Y-105310000D03*
X124600000Y-105310000D03*
D15*
X129420000Y-107640000D03*
D16*
X125220000Y-107640000D03*
%TD*%
D10*
%TO.N,MOTOR1*%
%TO.C,J1*%
X163800000Y-84400000D03*
D11*
%TO.N,unconnected-(J1-Pin_2-Pad2)*%
X163800000Y-86940000D03*
%TO.N,GND*%
X163800000Y-89480000D03*
%TD*%
D17*
%TO.N,GND*%
X143900000Y-105200000D03*
X152100000Y-87300000D03*
X149100000Y-92300000D03*
X165000000Y-77500000D03*
X152500000Y-79800000D03*
X149400000Y-83500000D03*
X142900000Y-86300000D03*
X142800000Y-83800000D03*
X142200000Y-77200000D03*
X140900000Y-77200000D03*
X135015642Y-80500000D03*
X131300000Y-81700000D03*
X131200000Y-80500000D03*
X137400000Y-79000000D03*
X131600000Y-90825000D03*
X132500000Y-95900000D03*
%TO.N,+5V*%
X140800000Y-114100000D03*
X137900000Y-110800000D03*
D18*
%TO.N,+3.3V*%
X135000000Y-98500000D03*
X141900000Y-117200000D03*
D17*
%TO.N,GND*%
X150100000Y-115100000D03*
X151500000Y-115200000D03*
%TO.N,USART2_RX*%
X175100000Y-81750000D03*
%TO.N,+5V*%
X134600000Y-115150000D03*
D18*
X147900000Y-115900000D03*
D17*
X135200000Y-117800000D03*
%TO.N,GND*%
X139400000Y-114200000D03*
X131000000Y-120000000D03*
X143400000Y-114000000D03*
X131000000Y-121000000D03*
X141600000Y-105000000D03*
X141529240Y-97010000D03*
X140800000Y-112200000D03*
D18*
X143800000Y-125200000D03*
D17*
X151400000Y-104790000D03*
D18*
X139200000Y-124800000D03*
D17*
X151600000Y-101800000D03*
X140400000Y-101800000D03*
X152401853Y-105199049D03*
X145000000Y-96150000D03*
X147000000Y-102000000D03*
X138500000Y-121000000D03*
X144800000Y-107400000D03*
D18*
X129500000Y-119500000D03*
D17*
X147200000Y-99200000D03*
D18*
X148000000Y-124400000D03*
D17*
X150600000Y-107400000D03*
X147800000Y-94800000D03*
X142600000Y-105200000D03*
X146000000Y-96000000D03*
%TO.N,+3.3V*%
X151400000Y-83800000D03*
D18*
X153800000Y-100800000D03*
D17*
X123600000Y-87400000D03*
X142000000Y-92000000D03*
X123600000Y-84200000D03*
X141600000Y-83800000D03*
X152200000Y-85000000D03*
X134400000Y-92400000D03*
X143300001Y-91240762D03*
X135000000Y-83600000D03*
D18*
X150400000Y-94600000D03*
D17*
%TO.N,NRST*%
X143600000Y-82000000D03*
X143200000Y-88800000D03*
%TO.N,ADC1_IN0*%
X139600000Y-76600000D03*
X142800000Y-85200000D03*
%TO.N,MOTOR2*%
X154000000Y-88200000D03*
X146000000Y-84800000D03*
%TO.N,MOTOR1*%
X140600000Y-80800000D03*
%TO.N,SERVO_1_SIGNAL*%
X131800000Y-88000000D03*
%TO.N,SERVO_2_SIGNAL*%
X130800000Y-88400000D03*
%TO.N,SERVO_TILT_SIGNAL*%
X131000000Y-89175000D03*
%TO.N,SWCLK*%
X135665642Y-84043761D03*
X134200000Y-78600000D03*
%TO.N,USART1_TX*%
X135800000Y-96200000D03*
X141000000Y-98400000D03*
%TO.N,USART1_RX*%
X142200000Y-99050000D03*
X138600000Y-95600000D03*
%TO.N,I2C1_SDA*%
X145200000Y-103600000D03*
X144600000Y-102400000D03*
X143225000Y-102950592D03*
%TO.N,BOOT0*%
X127800000Y-90400000D03*
X137200000Y-91600000D03*
%TO.N,+3.3V LN*%
X141200000Y-107400000D03*
X147600000Y-104400000D03*
X152200000Y-106600000D03*
X145200000Y-101400000D03*
X147800000Y-106600000D03*
D18*
X142000000Y-109200000D03*
D17*
X149600000Y-103000000D03*
X138600000Y-100800000D03*
X141100000Y-106600000D03*
X141343132Y-103759380D03*
%TO.N,+12V*%
X162200000Y-76200000D03*
%TO.N,Net-(Q1-G)*%
X134400000Y-117200000D03*
X133800000Y-120000000D03*
%TO.N,Net-(C16-Pad1)*%
X148000000Y-88600000D03*
X148400000Y-87000000D03*
%TD*%
%TA.AperFunction,Conductor*%
%TO.N,GND*%
G36*
X130415468Y-75020185D02*
G01*
X130461223Y-75072989D01*
X130471167Y-75142147D01*
X130447695Y-75198811D01*
X130366206Y-75307664D01*
X130366202Y-75307671D01*
X130315908Y-75442517D01*
X130309501Y-75502116D01*
X130309500Y-75502135D01*
X130309500Y-77297870D01*
X130309501Y-77297876D01*
X130315908Y-77357483D01*
X130366202Y-77492328D01*
X130366206Y-77492335D01*
X130452452Y-77607544D01*
X130452455Y-77607547D01*
X130567664Y-77693793D01*
X130567671Y-77693797D01*
X130702517Y-77744091D01*
X130702516Y-77744091D01*
X130709444Y-77744835D01*
X130762127Y-77750500D01*
X132557872Y-77750499D01*
X132617483Y-77744091D01*
X132752331Y-77693796D01*
X132867546Y-77607546D01*
X132953796Y-77492331D01*
X133002810Y-77360916D01*
X133044681Y-77304984D01*
X133110145Y-77280566D01*
X133178418Y-77295417D01*
X133206673Y-77316569D01*
X133320213Y-77430109D01*
X133492179Y-77555048D01*
X133492181Y-77555049D01*
X133492184Y-77555051D01*
X133681588Y-77651557D01*
X133772839Y-77681206D01*
X133830512Y-77720642D01*
X133857711Y-77785001D01*
X133845797Y-77853847D01*
X133803411Y-77902238D01*
X133689707Y-77978213D01*
X133578213Y-78089707D01*
X133578210Y-78089711D01*
X133490609Y-78220814D01*
X133490602Y-78220827D01*
X133430264Y-78366498D01*
X133430261Y-78366510D01*
X133399500Y-78521153D01*
X133399500Y-78678846D01*
X133430261Y-78833489D01*
X133430264Y-78833501D01*
X133490602Y-78979172D01*
X133490609Y-78979185D01*
X133578210Y-79110288D01*
X133578213Y-79110292D01*
X133689707Y-79221786D01*
X133689711Y-79221789D01*
X133820814Y-79309390D01*
X133820827Y-79309397D01*
X133966498Y-79369735D01*
X133966503Y-79369737D01*
X134121153Y-79400499D01*
X134121156Y-79400500D01*
X134121158Y-79400500D01*
X134278844Y-79400500D01*
X134278845Y-79400499D01*
X134433497Y-79369737D01*
X134579179Y-79309394D01*
X134710289Y-79221789D01*
X134821789Y-79110289D01*
X134909394Y-78979179D01*
X134969737Y-78833497D01*
X135000500Y-78678842D01*
X135000500Y-78521158D01*
X135000500Y-78521155D01*
X135000499Y-78521153D01*
X134969738Y-78366510D01*
X134969737Y-78366503D01*
X134939587Y-78293713D01*
X134909397Y-78220827D01*
X134909390Y-78220814D01*
X134821789Y-78089711D01*
X134821786Y-78089707D01*
X134710292Y-77978213D01*
X134710288Y-77978210D01*
X134596589Y-77902238D01*
X134551784Y-77848625D01*
X134543077Y-77779300D01*
X134573232Y-77716273D01*
X134627160Y-77681206D01*
X134718412Y-77651557D01*
X134907816Y-77555051D01*
X134994138Y-77492335D01*
X135079786Y-77430109D01*
X135079788Y-77430106D01*
X135079792Y-77430104D01*
X135230104Y-77279792D01*
X135230106Y-77279788D01*
X135230109Y-77279786D01*
X135315890Y-77161717D01*
X135355051Y-77107816D01*
X135359793Y-77098508D01*
X135407763Y-77047711D01*
X135475583Y-77030911D01*
X135541719Y-77053445D01*
X135580763Y-77098500D01*
X135585373Y-77107547D01*
X135624728Y-77161716D01*
X136257036Y-76529407D01*
X136274075Y-76592993D01*
X136339901Y-76707007D01*
X136432993Y-76800099D01*
X136547007Y-76865925D01*
X136610590Y-76882962D01*
X135978282Y-77515269D01*
X135978282Y-77515270D01*
X136032449Y-77554624D01*
X136221782Y-77651095D01*
X136423870Y-77716757D01*
X136633754Y-77750000D01*
X136846246Y-77750000D01*
X137056127Y-77716757D01*
X137056130Y-77716757D01*
X137258217Y-77651095D01*
X137447554Y-77554622D01*
X137501716Y-77515270D01*
X137501717Y-77515270D01*
X137488602Y-77502155D01*
X155810000Y-77502155D01*
X155810000Y-78150000D01*
X156726988Y-78150000D01*
X156694075Y-78207007D01*
X156660000Y-78334174D01*
X156660000Y-78465826D01*
X156694075Y-78592993D01*
X156726988Y-78650000D01*
X155810000Y-78650000D01*
X155810000Y-79297844D01*
X155816401Y-79357372D01*
X155816403Y-79357379D01*
X155866645Y-79492086D01*
X155866649Y-79492093D01*
X155952809Y-79607187D01*
X155952812Y-79607190D01*
X156067906Y-79693350D01*
X156067913Y-79693354D01*
X156202620Y-79743596D01*
X156202627Y-79743598D01*
X156262155Y-79749999D01*
X156262172Y-79750000D01*
X156910000Y-79750000D01*
X156910000Y-78833012D01*
X156967007Y-78865925D01*
X157094174Y-78900000D01*
X157225826Y-78900000D01*
X157352993Y-78865925D01*
X157410000Y-78833012D01*
X157410000Y-79750000D01*
X158057828Y-79750000D01*
X158057844Y-79749999D01*
X158117372Y-79743598D01*
X158117379Y-79743596D01*
X158252086Y-79693354D01*
X158252093Y-79693350D01*
X158367187Y-79607190D01*
X158367190Y-79607187D01*
X158453350Y-79492093D01*
X158453354Y-79492086D01*
X158502422Y-79360529D01*
X158544293Y-79304595D01*
X158609757Y-79280178D01*
X158678030Y-79295030D01*
X158706285Y-79316181D01*
X158820213Y-79430109D01*
X158992179Y-79555048D01*
X158992181Y-79555049D01*
X158992184Y-79555051D01*
X159181588Y-79651557D01*
X159383757Y-79717246D01*
X159593713Y-79750500D01*
X159593714Y-79750500D01*
X159806286Y-79750500D01*
X159806287Y-79750500D01*
X160016243Y-79717246D01*
X160218412Y-79651557D01*
X160407816Y-79555051D01*
X160494471Y-79492093D01*
X160579786Y-79430109D01*
X160579788Y-79430106D01*
X160579792Y-79430104D01*
X160730104Y-79279792D01*
X160730106Y-79279788D01*
X160730109Y-79279786D01*
X160855048Y-79107820D01*
X160855047Y-79107820D01*
X160855051Y-79107816D01*
X160951557Y-78918412D01*
X161017246Y-78716243D01*
X161050500Y-78506287D01*
X161050500Y-78293713D01*
X161017246Y-78083757D01*
X160951557Y-77881588D01*
X160855051Y-77692184D01*
X160855049Y-77692181D01*
X160855048Y-77692179D01*
X160730109Y-77520213D01*
X160579786Y-77369890D01*
X160407820Y-77244951D01*
X160218414Y-77148444D01*
X160218413Y-77148443D01*
X160218412Y-77148443D01*
X160016243Y-77082754D01*
X160016241Y-77082753D01*
X160016240Y-77082753D01*
X159854957Y-77057208D01*
X159806287Y-77049500D01*
X159593713Y-77049500D01*
X159545042Y-77057208D01*
X159383760Y-77082753D01*
X159181585Y-77148444D01*
X158992179Y-77244951D01*
X158820215Y-77369889D01*
X158706285Y-77483819D01*
X158644962Y-77517303D01*
X158575270Y-77512319D01*
X158519337Y-77470447D01*
X158502422Y-77439470D01*
X158453354Y-77307913D01*
X158453350Y-77307906D01*
X158367190Y-77192812D01*
X158367187Y-77192809D01*
X158252093Y-77106649D01*
X158252086Y-77106645D01*
X158117379Y-77056403D01*
X158117372Y-77056401D01*
X158057844Y-77050000D01*
X157410000Y-77050000D01*
X157410000Y-77966988D01*
X157352993Y-77934075D01*
X157225826Y-77900000D01*
X157094174Y-77900000D01*
X156967007Y-77934075D01*
X156910000Y-77966988D01*
X156910000Y-77050000D01*
X156262155Y-77050000D01*
X156202627Y-77056401D01*
X156202620Y-77056403D01*
X156067913Y-77106645D01*
X156067906Y-77106649D01*
X155952812Y-77192809D01*
X155952809Y-77192812D01*
X155866649Y-77307906D01*
X155866645Y-77307913D01*
X155816403Y-77442620D01*
X155816401Y-77442627D01*
X155810000Y-77502155D01*
X137488602Y-77502155D01*
X136869408Y-76882962D01*
X136932993Y-76865925D01*
X137047007Y-76800099D01*
X137140099Y-76707007D01*
X137205925Y-76592993D01*
X137222962Y-76529408D01*
X137855270Y-77161717D01*
X137855270Y-77161716D01*
X137894622Y-77107554D01*
X137991095Y-76918217D01*
X138056757Y-76716130D01*
X138056757Y-76716127D01*
X138087638Y-76521153D01*
X138799500Y-76521153D01*
X138799500Y-76678846D01*
X138830261Y-76833489D01*
X138830264Y-76833501D01*
X138890602Y-76979172D01*
X138890609Y-76979185D01*
X138978210Y-77110288D01*
X138978213Y-77110292D01*
X139089707Y-77221786D01*
X139089711Y-77221789D01*
X139220814Y-77309390D01*
X139220827Y-77309397D01*
X139336919Y-77357483D01*
X139366503Y-77369737D01*
X139521153Y-77400499D01*
X139521156Y-77400500D01*
X139521158Y-77400500D01*
X139678844Y-77400500D01*
X139795809Y-77377234D01*
X139795809Y-77377233D01*
X139833497Y-77369737D01*
X139979179Y-77309394D01*
X140110289Y-77221789D01*
X140221789Y-77110289D01*
X140309394Y-76979179D01*
X140369737Y-76833497D01*
X140400500Y-76678842D01*
X140400500Y-76521158D01*
X140400500Y-76521155D01*
X140400499Y-76521153D01*
X140369738Y-76366510D01*
X140369737Y-76366503D01*
X140333427Y-76278842D01*
X140309397Y-76220827D01*
X140309390Y-76220814D01*
X140284763Y-76183957D01*
X140242798Y-76121153D01*
X161399500Y-76121153D01*
X161399500Y-76278846D01*
X161430261Y-76433489D01*
X161430264Y-76433501D01*
X161490602Y-76579172D01*
X161490609Y-76579185D01*
X161578210Y-76710288D01*
X161578213Y-76710292D01*
X161689707Y-76821786D01*
X161689711Y-76821789D01*
X161820814Y-76909390D01*
X161820827Y-76909397D01*
X161966498Y-76969735D01*
X161966503Y-76969737D01*
X162121153Y-77000499D01*
X162121156Y-77000500D01*
X162121158Y-77000500D01*
X162278844Y-77000500D01*
X162278845Y-77000499D01*
X162433497Y-76969737D01*
X162546166Y-76923067D01*
X162579172Y-76909397D01*
X162579172Y-76909396D01*
X162579179Y-76909394D01*
X162710289Y-76821789D01*
X162821789Y-76710289D01*
X162909394Y-76579179D01*
X162969737Y-76433497D01*
X163000500Y-76278842D01*
X163000500Y-76121158D01*
X163000500Y-76121155D01*
X163000499Y-76121153D01*
X162972066Y-75978211D01*
X162969737Y-75966503D01*
X162934645Y-75881782D01*
X162909397Y-75820827D01*
X162909390Y-75820814D01*
X162821789Y-75689711D01*
X162821786Y-75689707D01*
X162710292Y-75578213D01*
X162710288Y-75578210D01*
X162579185Y-75490609D01*
X162579172Y-75490602D01*
X162433501Y-75430264D01*
X162433489Y-75430261D01*
X162278845Y-75399500D01*
X162278842Y-75399500D01*
X162121158Y-75399500D01*
X162121155Y-75399500D01*
X161966510Y-75430261D01*
X161966498Y-75430264D01*
X161820827Y-75490602D01*
X161820814Y-75490609D01*
X161689711Y-75578210D01*
X161689707Y-75578213D01*
X161578213Y-75689707D01*
X161578210Y-75689711D01*
X161490609Y-75820814D01*
X161490602Y-75820827D01*
X161430264Y-75966498D01*
X161430261Y-75966510D01*
X161399500Y-76121153D01*
X140242798Y-76121153D01*
X140221789Y-76089711D01*
X140221786Y-76089707D01*
X140110292Y-75978213D01*
X140110288Y-75978210D01*
X139979185Y-75890609D01*
X139979172Y-75890602D01*
X139833501Y-75830264D01*
X139833489Y-75830261D01*
X139678845Y-75799500D01*
X139678842Y-75799500D01*
X139521158Y-75799500D01*
X139521155Y-75799500D01*
X139366510Y-75830261D01*
X139366498Y-75830264D01*
X139220827Y-75890602D01*
X139220814Y-75890609D01*
X139089711Y-75978210D01*
X139089707Y-75978213D01*
X138978213Y-76089707D01*
X138978210Y-76089711D01*
X138890609Y-76220814D01*
X138890602Y-76220827D01*
X138830264Y-76366498D01*
X138830261Y-76366510D01*
X138799500Y-76521153D01*
X138087638Y-76521153D01*
X138089998Y-76506256D01*
X138090000Y-76506235D01*
X138090000Y-76293753D01*
X138056757Y-76083872D01*
X138056757Y-76083869D01*
X137991095Y-75881782D01*
X137894624Y-75692449D01*
X137855270Y-75638282D01*
X137855269Y-75638282D01*
X137222962Y-76270590D01*
X137205925Y-76207007D01*
X137140099Y-76092993D01*
X137047007Y-75999901D01*
X136932993Y-75934075D01*
X136869409Y-75917037D01*
X137501716Y-75284728D01*
X137447547Y-75245373D01*
X137447548Y-75245373D01*
X137427159Y-75234985D01*
X137376362Y-75187011D01*
X137359567Y-75119190D01*
X137382104Y-75053055D01*
X137436819Y-75009603D01*
X137483453Y-75000500D01*
X181375500Y-75000500D01*
X181442539Y-75020185D01*
X181488294Y-75072989D01*
X181499500Y-75124500D01*
X181499500Y-125875500D01*
X181479815Y-125942539D01*
X181427011Y-125988294D01*
X181375500Y-125999500D01*
X122624500Y-125999500D01*
X122557461Y-125979815D01*
X122511706Y-125927011D01*
X122500500Y-125875500D01*
X122500500Y-119921153D01*
X132999500Y-119921153D01*
X132999500Y-120078846D01*
X133030261Y-120233489D01*
X133030264Y-120233501D01*
X133090602Y-120379172D01*
X133090609Y-120379185D01*
X133178210Y-120510288D01*
X133178213Y-120510292D01*
X133289707Y-120621786D01*
X133289711Y-120621789D01*
X133420814Y-120709390D01*
X133420827Y-120709397D01*
X133487970Y-120737208D01*
X133566503Y-120769737D01*
X133690527Y-120794407D01*
X133721153Y-120800499D01*
X133721156Y-120800500D01*
X133721158Y-120800500D01*
X133878844Y-120800500D01*
X133878845Y-120800499D01*
X134033497Y-120769737D01*
X134179179Y-120709394D01*
X134310289Y-120621789D01*
X134421789Y-120510289D01*
X134509394Y-120379179D01*
X134569737Y-120233497D01*
X134600500Y-120078842D01*
X134600500Y-119921158D01*
X134600500Y-119921155D01*
X134600499Y-119921153D01*
X134590340Y-119870080D01*
X134569737Y-119766503D01*
X134569735Y-119766498D01*
X134509397Y-119620827D01*
X134509390Y-119620814D01*
X134421789Y-119489711D01*
X134421786Y-119489707D01*
X134310292Y-119378213D01*
X134310288Y-119378210D01*
X134179185Y-119290609D01*
X134179172Y-119290602D01*
X134033501Y-119230264D01*
X134033489Y-119230261D01*
X133878845Y-119199500D01*
X133878842Y-119199500D01*
X133721158Y-119199500D01*
X133721155Y-119199500D01*
X133566510Y-119230261D01*
X133566498Y-119230264D01*
X133420827Y-119290602D01*
X133420814Y-119290609D01*
X133289711Y-119378210D01*
X133289707Y-119378213D01*
X133178213Y-119489707D01*
X133178210Y-119489711D01*
X133090609Y-119620814D01*
X133090602Y-119620827D01*
X133030264Y-119766498D01*
X133030261Y-119766510D01*
X132999500Y-119921153D01*
X122500500Y-119921153D01*
X122500500Y-117121153D01*
X133599500Y-117121153D01*
X133599500Y-117278846D01*
X133630261Y-117433489D01*
X133630264Y-117433501D01*
X133690602Y-117579172D01*
X133690609Y-117579185D01*
X133778210Y-117710288D01*
X133778213Y-117710292D01*
X133889707Y-117821786D01*
X133889711Y-117821789D01*
X134020814Y-117909390D01*
X134020827Y-117909397D01*
X134162336Y-117968011D01*
X134166503Y-117969737D01*
X134321153Y-118000499D01*
X134321156Y-118000500D01*
X134321158Y-118000500D01*
X134333741Y-118000500D01*
X134400780Y-118020185D01*
X134446535Y-118072989D01*
X134448302Y-118077048D01*
X134490602Y-118179172D01*
X134490609Y-118179185D01*
X134578210Y-118310288D01*
X134578213Y-118310292D01*
X134689707Y-118421786D01*
X134689711Y-118421789D01*
X134820814Y-118509390D01*
X134820827Y-118509397D01*
X134917646Y-118549500D01*
X134966503Y-118569737D01*
X135121153Y-118600499D01*
X135121156Y-118600500D01*
X135121158Y-118600500D01*
X135278844Y-118600500D01*
X135278845Y-118600499D01*
X135433497Y-118569737D01*
X135579179Y-118509394D01*
X135710289Y-118421789D01*
X135821789Y-118310289D01*
X135909394Y-118179179D01*
X135969737Y-118033497D01*
X136000500Y-117878842D01*
X136000500Y-117721158D01*
X136000500Y-117721155D01*
X136000499Y-117721153D01*
X135988676Y-117661716D01*
X135969737Y-117566503D01*
X135944069Y-117504534D01*
X135909397Y-117420827D01*
X135909390Y-117420814D01*
X135821789Y-117289711D01*
X135821786Y-117289707D01*
X135710292Y-117178213D01*
X135710288Y-117178210D01*
X135589720Y-117097648D01*
X140599500Y-117097648D01*
X140599500Y-117302351D01*
X140631522Y-117504534D01*
X140694781Y-117699223D01*
X140787715Y-117881613D01*
X140908028Y-118047213D01*
X141052786Y-118191971D01*
X141207749Y-118304556D01*
X141218390Y-118312287D01*
X141400781Y-118405220D01*
X141526003Y-118445907D01*
X141583679Y-118485345D01*
X141610877Y-118549703D01*
X141598962Y-118618550D01*
X141556576Y-118666940D01*
X141481584Y-118717048D01*
X141481580Y-118717051D01*
X141377051Y-118821580D01*
X141377048Y-118821584D01*
X141294919Y-118944498D01*
X141294912Y-118944511D01*
X141238343Y-119081082D01*
X141238340Y-119081092D01*
X141209500Y-119226079D01*
X141209500Y-119226082D01*
X141209500Y-119373918D01*
X141209500Y-119373920D01*
X141209499Y-119373920D01*
X141238340Y-119518907D01*
X141238343Y-119518917D01*
X141294912Y-119655488D01*
X141294919Y-119655501D01*
X141345439Y-119731109D01*
X141366317Y-119797787D01*
X141347832Y-119865167D01*
X141345439Y-119868891D01*
X141294919Y-119944498D01*
X141294912Y-119944511D01*
X141238343Y-120081082D01*
X141238340Y-120081092D01*
X141209500Y-120226079D01*
X141209500Y-120226082D01*
X141209500Y-120373918D01*
X141209500Y-120373920D01*
X141209499Y-120373920D01*
X141238340Y-120518907D01*
X141238343Y-120518917D01*
X141294912Y-120655488D01*
X141294919Y-120655501D01*
X141345439Y-120731109D01*
X141366317Y-120797787D01*
X141347832Y-120865167D01*
X141345439Y-120868891D01*
X141294919Y-120944498D01*
X141294912Y-120944511D01*
X141238343Y-121081082D01*
X141238340Y-121081092D01*
X141209500Y-121226079D01*
X141209500Y-121226082D01*
X141209500Y-121373918D01*
X141209500Y-121373920D01*
X141209499Y-121373920D01*
X141238340Y-121518907D01*
X141238343Y-121518917D01*
X141294912Y-121655488D01*
X141294919Y-121655501D01*
X141377048Y-121778415D01*
X141377051Y-121778419D01*
X141481580Y-121882948D01*
X141481584Y-121882951D01*
X141604498Y-121965080D01*
X141604511Y-121965087D01*
X141741082Y-122021656D01*
X141741087Y-122021658D01*
X141741091Y-122021658D01*
X141741092Y-122021659D01*
X141886079Y-122050500D01*
X141886082Y-122050500D01*
X142033920Y-122050500D01*
X142131462Y-122031096D01*
X142178913Y-122021658D01*
X142315495Y-121965084D01*
X142438416Y-121882951D01*
X142542951Y-121778416D01*
X142625084Y-121655495D01*
X142681658Y-121518913D01*
X142710500Y-121373918D01*
X142710500Y-121226082D01*
X142710500Y-121226079D01*
X142681659Y-121081092D01*
X142681658Y-121081091D01*
X142681658Y-121081087D01*
X142672107Y-121058028D01*
X142625087Y-120944511D01*
X142625083Y-120944504D01*
X142620546Y-120937714D01*
X142574559Y-120868888D01*
X142553682Y-120802214D01*
X142572166Y-120734834D01*
X142574531Y-120731151D01*
X142625084Y-120655495D01*
X142681658Y-120518913D01*
X142696105Y-120446286D01*
X142710500Y-120373920D01*
X142710500Y-120226079D01*
X142681659Y-120081092D01*
X142681658Y-120081091D01*
X142681658Y-120081087D01*
X142668380Y-120049031D01*
X142625087Y-119944511D01*
X142625083Y-119944504D01*
X142625079Y-119944498D01*
X142574559Y-119868888D01*
X142553682Y-119802214D01*
X142572166Y-119734834D01*
X142574531Y-119731151D01*
X142625084Y-119655495D01*
X142681658Y-119518913D01*
X142709646Y-119378211D01*
X142710500Y-119373920D01*
X142710500Y-119226079D01*
X142681659Y-119081092D01*
X142681658Y-119081091D01*
X142681658Y-119081087D01*
X142651197Y-119007547D01*
X142625087Y-118944511D01*
X142625080Y-118944498D01*
X142542951Y-118821584D01*
X142542948Y-118821580D01*
X142438419Y-118717051D01*
X142438415Y-118717048D01*
X142324162Y-118640706D01*
X142279357Y-118587094D01*
X142270650Y-118517769D01*
X142300805Y-118454741D01*
X142354734Y-118419673D01*
X142399219Y-118405220D01*
X142581610Y-118312287D01*
X142713097Y-118216757D01*
X142747213Y-118191971D01*
X142747215Y-118191968D01*
X142747219Y-118191966D01*
X142891966Y-118047219D01*
X142891968Y-118047215D01*
X142891971Y-118047213D01*
X142948259Y-117969738D01*
X143012287Y-117881610D01*
X143105220Y-117699219D01*
X143168477Y-117504534D01*
X143200500Y-117302352D01*
X143200500Y-117097648D01*
X143186980Y-117012287D01*
X143168477Y-116895465D01*
X143135428Y-116793753D01*
X143105220Y-116700781D01*
X143105218Y-116700778D01*
X143105218Y-116700776D01*
X143050025Y-116592455D01*
X143012287Y-116518390D01*
X142992098Y-116490602D01*
X142891971Y-116352786D01*
X142747213Y-116208028D01*
X142581613Y-116087715D01*
X142581612Y-116087714D01*
X142581610Y-116087713D01*
X142524653Y-116058691D01*
X142399223Y-115994781D01*
X142204534Y-115931522D01*
X142101786Y-115915249D01*
X142076945Y-115911314D01*
X142002352Y-115899500D01*
X141797648Y-115899500D01*
X141773329Y-115903351D01*
X141595465Y-115931522D01*
X141400776Y-115994781D01*
X141218386Y-116087715D01*
X141052786Y-116208028D01*
X140908028Y-116352786D01*
X140787715Y-116518386D01*
X140694781Y-116700776D01*
X140631522Y-116895465D01*
X140599500Y-117097648D01*
X135589720Y-117097648D01*
X135579185Y-117090609D01*
X135579172Y-117090602D01*
X135433501Y-117030264D01*
X135433489Y-117030261D01*
X135278845Y-116999500D01*
X135278842Y-116999500D01*
X135266259Y-116999500D01*
X135199220Y-116979815D01*
X135153465Y-116927011D01*
X135151698Y-116922952D01*
X135109397Y-116820827D01*
X135109390Y-116820814D01*
X135021789Y-116689711D01*
X135021786Y-116689707D01*
X134910292Y-116578213D01*
X134910288Y-116578210D01*
X134779185Y-116490609D01*
X134779172Y-116490602D01*
X134633501Y-116430264D01*
X134633489Y-116430261D01*
X134478845Y-116399500D01*
X134478842Y-116399500D01*
X134321158Y-116399500D01*
X134321155Y-116399500D01*
X134166510Y-116430261D01*
X134166498Y-116430264D01*
X134020827Y-116490602D01*
X134020814Y-116490609D01*
X133889711Y-116578210D01*
X133889707Y-116578213D01*
X133778213Y-116689707D01*
X133778210Y-116689711D01*
X133690609Y-116820814D01*
X133690602Y-116820827D01*
X133630264Y-116966498D01*
X133630261Y-116966510D01*
X133599500Y-117121153D01*
X122500500Y-117121153D01*
X122500500Y-111627135D01*
X123849500Y-111627135D01*
X123849500Y-113422870D01*
X123849501Y-113422876D01*
X123855908Y-113482483D01*
X123906202Y-113617328D01*
X123906206Y-113617335D01*
X123992452Y-113732544D01*
X123992455Y-113732547D01*
X124107664Y-113818793D01*
X124107671Y-113818797D01*
X124152618Y-113835561D01*
X124242517Y-113869091D01*
X124302127Y-113875500D01*
X124312685Y-113875499D01*
X124379723Y-113895179D01*
X124400372Y-113911818D01*
X125070591Y-114582037D01*
X125007007Y-114599075D01*
X124892993Y-114664901D01*
X124799901Y-114757993D01*
X124734075Y-114872007D01*
X124717037Y-114935591D01*
X124084728Y-114303282D01*
X124084727Y-114303282D01*
X124045380Y-114357439D01*
X123948904Y-114546782D01*
X123883242Y-114748869D01*
X123883242Y-114748872D01*
X123850000Y-114958753D01*
X123850000Y-115171246D01*
X123883242Y-115381127D01*
X123883242Y-115381130D01*
X123948904Y-115583217D01*
X124045375Y-115772550D01*
X124084728Y-115826716D01*
X124717036Y-115194407D01*
X124734075Y-115257993D01*
X124799901Y-115372007D01*
X124892993Y-115465099D01*
X125007007Y-115530925D01*
X125070590Y-115547962D01*
X124438282Y-116180269D01*
X124438282Y-116180270D01*
X124492449Y-116219624D01*
X124681782Y-116316095D01*
X124883870Y-116381757D01*
X125093754Y-116415000D01*
X125306246Y-116415000D01*
X125516127Y-116381757D01*
X125516130Y-116381757D01*
X125718217Y-116316095D01*
X125907554Y-116219622D01*
X125961716Y-116180270D01*
X125961717Y-116180270D01*
X125329408Y-115547962D01*
X125392993Y-115530925D01*
X125507007Y-115465099D01*
X125600099Y-115372007D01*
X125665925Y-115257993D01*
X125682962Y-115194408D01*
X126315270Y-115826717D01*
X126315270Y-115826716D01*
X126354622Y-115772554D01*
X126451095Y-115583217D01*
X126516757Y-115381130D01*
X126516757Y-115381127D01*
X126550000Y-115171246D01*
X126550000Y-115071153D01*
X133799500Y-115071153D01*
X133799500Y-115228846D01*
X133830261Y-115383489D01*
X133830264Y-115383501D01*
X133890602Y-115529172D01*
X133890609Y-115529185D01*
X133978210Y-115660288D01*
X133978213Y-115660292D01*
X134089707Y-115771786D01*
X134089711Y-115771789D01*
X134220814Y-115859390D01*
X134220827Y-115859397D01*
X134317646Y-115899500D01*
X134366503Y-115919737D01*
X134521153Y-115950499D01*
X134521156Y-115950500D01*
X134521158Y-115950500D01*
X134678844Y-115950500D01*
X134678845Y-115950499D01*
X134833497Y-115919737D01*
X134979179Y-115859394D01*
X135071588Y-115797648D01*
X146599500Y-115797648D01*
X146599500Y-116002351D01*
X146631522Y-116204534D01*
X146694781Y-116399223D01*
X146749292Y-116506204D01*
X146785982Y-116578213D01*
X146787715Y-116581613D01*
X146908028Y-116747213D01*
X147052786Y-116891971D01*
X147200790Y-116999500D01*
X147218390Y-117012287D01*
X147334607Y-117071503D01*
X147400776Y-117105218D01*
X147400778Y-117105218D01*
X147400781Y-117105220D01*
X147505137Y-117139127D01*
X147595465Y-117168477D01*
X147696557Y-117184488D01*
X147797648Y-117200500D01*
X147797649Y-117200500D01*
X148002351Y-117200500D01*
X148002352Y-117200500D01*
X148204534Y-117168477D01*
X148399219Y-117105220D01*
X148581610Y-117012287D01*
X148674590Y-116944732D01*
X148733223Y-116902135D01*
X156849500Y-116902135D01*
X156849500Y-118697870D01*
X156849501Y-118697876D01*
X156855908Y-118757483D01*
X156906202Y-118892328D01*
X156906206Y-118892335D01*
X156992452Y-119007544D01*
X156992455Y-119007547D01*
X157107664Y-119093793D01*
X157107671Y-119093797D01*
X157239082Y-119142810D01*
X157295016Y-119184681D01*
X157319433Y-119250145D01*
X157304582Y-119318418D01*
X157283431Y-119346673D01*
X157169889Y-119460215D01*
X157044951Y-119632179D01*
X156948444Y-119821585D01*
X156882753Y-120023760D01*
X156849500Y-120233713D01*
X156849500Y-120446286D01*
X156882635Y-120655495D01*
X156882754Y-120656243D01*
X156931097Y-120805028D01*
X156948444Y-120858414D01*
X157044951Y-121047820D01*
X157169890Y-121219786D01*
X157320213Y-121370109D01*
X157492179Y-121495048D01*
X157492181Y-121495049D01*
X157492184Y-121495051D01*
X157501493Y-121499794D01*
X157552290Y-121547766D01*
X157569087Y-121615587D01*
X157546552Y-121681722D01*
X157501505Y-121720760D01*
X157492446Y-121725376D01*
X157492440Y-121725380D01*
X157438282Y-121764727D01*
X157438282Y-121764728D01*
X158070591Y-122397037D01*
X158007007Y-122414075D01*
X157892993Y-122479901D01*
X157799901Y-122572993D01*
X157734075Y-122687007D01*
X157717037Y-122750591D01*
X157084728Y-122118282D01*
X157084727Y-122118282D01*
X157045380Y-122172439D01*
X156948904Y-122361782D01*
X156883242Y-122563869D01*
X156883242Y-122563872D01*
X156850000Y-122773753D01*
X156850000Y-122986246D01*
X156883242Y-123196127D01*
X156883242Y-123196130D01*
X156948904Y-123398217D01*
X157045375Y-123587550D01*
X157084728Y-123641716D01*
X157717036Y-123009407D01*
X157734075Y-123072993D01*
X157799901Y-123187007D01*
X157892993Y-123280099D01*
X158007007Y-123345925D01*
X158070590Y-123362962D01*
X157438282Y-123995269D01*
X157438282Y-123995270D01*
X157492449Y-124034624D01*
X157681782Y-124131095D01*
X157883870Y-124196757D01*
X158093754Y-124230000D01*
X158306246Y-124230000D01*
X158516127Y-124196757D01*
X158516130Y-124196757D01*
X158718217Y-124131095D01*
X158907554Y-124034622D01*
X158961716Y-123995270D01*
X158961717Y-123995270D01*
X158329408Y-123362962D01*
X158392993Y-123345925D01*
X158507007Y-123280099D01*
X158600099Y-123187007D01*
X158665925Y-123072993D01*
X158682962Y-123009408D01*
X159315270Y-123641717D01*
X159315270Y-123641716D01*
X159354622Y-123587554D01*
X159451095Y-123398217D01*
X159516757Y-123196130D01*
X159516757Y-123196127D01*
X159550000Y-122986246D01*
X159550000Y-122773753D01*
X159516757Y-122563872D01*
X159516757Y-122563869D01*
X159451095Y-122361782D01*
X159354624Y-122172449D01*
X159315270Y-122118282D01*
X159315269Y-122118282D01*
X158682962Y-122750590D01*
X158665925Y-122687007D01*
X158600099Y-122572993D01*
X158507007Y-122479901D01*
X158392993Y-122414075D01*
X158329409Y-122397037D01*
X158778797Y-121947648D01*
X162699500Y-121947648D01*
X162699500Y-122152351D01*
X162731522Y-122354534D01*
X162794781Y-122549223D01*
X162887715Y-122731613D01*
X163008028Y-122897213D01*
X163152786Y-123041971D01*
X163307749Y-123154556D01*
X163318390Y-123162287D01*
X163384805Y-123196127D01*
X163500776Y-123255218D01*
X163500778Y-123255218D01*
X163500781Y-123255220D01*
X163577351Y-123280099D01*
X163695465Y-123318477D01*
X163796557Y-123334488D01*
X163897648Y-123350500D01*
X163897649Y-123350500D01*
X164102351Y-123350500D01*
X164102352Y-123350500D01*
X164304534Y-123318477D01*
X164499219Y-123255220D01*
X164681610Y-123162287D01*
X164804514Y-123072993D01*
X164847213Y-123041971D01*
X164847215Y-123041968D01*
X164847219Y-123041966D01*
X164991966Y-122897219D01*
X164991968Y-122897215D01*
X164991971Y-122897213D01*
X165052301Y-122814174D01*
X165112287Y-122731610D01*
X165205220Y-122549219D01*
X165268477Y-122354534D01*
X165300500Y-122152352D01*
X165300500Y-121947648D01*
X165268477Y-121745466D01*
X165261949Y-121725376D01*
X165205218Y-121550776D01*
X165171503Y-121484607D01*
X165112287Y-121368390D01*
X165104556Y-121357749D01*
X164991971Y-121202786D01*
X164847213Y-121058028D01*
X164681611Y-120937713D01*
X164627621Y-120910203D01*
X164576825Y-120862228D01*
X164560031Y-120794407D01*
X164582569Y-120728272D01*
X164627624Y-120689233D01*
X164681349Y-120661859D01*
X164725921Y-120629474D01*
X164046447Y-119950000D01*
X164052661Y-119950000D01*
X164154394Y-119922741D01*
X164245606Y-119870080D01*
X164320080Y-119795606D01*
X164372741Y-119704394D01*
X164400000Y-119602661D01*
X164400000Y-119596448D01*
X165079474Y-120275922D01*
X165079474Y-120275921D01*
X165111859Y-120231349D01*
X165204755Y-120049031D01*
X165267990Y-119854417D01*
X165300000Y-119652317D01*
X165300000Y-119447682D01*
X165267990Y-119245582D01*
X165204755Y-119050968D01*
X165111859Y-118868650D01*
X165079474Y-118824077D01*
X165079474Y-118824076D01*
X164400000Y-119503551D01*
X164400000Y-119497339D01*
X164372741Y-119395606D01*
X164320080Y-119304394D01*
X164245606Y-119229920D01*
X164154394Y-119177259D01*
X164052661Y-119150000D01*
X164046446Y-119150000D01*
X164725922Y-118470524D01*
X164725921Y-118470523D01*
X164681359Y-118438147D01*
X164681350Y-118438141D01*
X164499031Y-118345244D01*
X164304417Y-118282009D01*
X164102317Y-118250000D01*
X163897683Y-118250000D01*
X163695582Y-118282009D01*
X163500968Y-118345244D01*
X163318644Y-118438143D01*
X163274077Y-118470523D01*
X163274077Y-118470524D01*
X163953554Y-119150000D01*
X163947339Y-119150000D01*
X163845606Y-119177259D01*
X163754394Y-119229920D01*
X163679920Y-119304394D01*
X163627259Y-119395606D01*
X163600000Y-119497339D01*
X163600000Y-119503553D01*
X162920524Y-118824077D01*
X162920523Y-118824077D01*
X162888143Y-118868644D01*
X162795244Y-119050968D01*
X162732009Y-119245582D01*
X162700000Y-119447682D01*
X162700000Y-119652317D01*
X162732009Y-119854417D01*
X162795244Y-120049031D01*
X162888141Y-120231350D01*
X162888147Y-120231359D01*
X162920523Y-120275921D01*
X162920524Y-120275922D01*
X163600000Y-119596446D01*
X163600000Y-119602661D01*
X163627259Y-119704394D01*
X163679920Y-119795606D01*
X163754394Y-119870080D01*
X163845606Y-119922741D01*
X163947339Y-119950000D01*
X163953553Y-119950000D01*
X163274076Y-120629474D01*
X163318652Y-120661861D01*
X163372376Y-120689234D01*
X163423172Y-120737208D01*
X163439968Y-120805028D01*
X163417431Y-120871164D01*
X163372379Y-120910203D01*
X163318386Y-120937714D01*
X163152786Y-121058028D01*
X163008028Y-121202786D01*
X162887715Y-121368386D01*
X162794781Y-121550776D01*
X162731522Y-121745465D01*
X162699500Y-121947648D01*
X158778797Y-121947648D01*
X158871350Y-121855095D01*
X158961716Y-121764728D01*
X158907547Y-121725373D01*
X158907547Y-121725372D01*
X158898500Y-121720763D01*
X158847706Y-121672788D01*
X158830912Y-121604966D01*
X158853451Y-121538832D01*
X158898508Y-121499793D01*
X158907816Y-121495051D01*
X158987007Y-121437515D01*
X159079786Y-121370109D01*
X159079788Y-121370106D01*
X159079792Y-121370104D01*
X159230104Y-121219792D01*
X159230106Y-121219788D01*
X159230109Y-121219786D01*
X159355048Y-121047820D01*
X159355047Y-121047820D01*
X159355051Y-121047816D01*
X159451557Y-120858412D01*
X159517246Y-120656243D01*
X159550500Y-120446287D01*
X159550500Y-120233713D01*
X159517246Y-120023757D01*
X159451557Y-119821588D01*
X159355051Y-119632184D01*
X159346790Y-119620814D01*
X159274345Y-119521100D01*
X159274341Y-119521096D01*
X159230104Y-119460208D01*
X159114398Y-119344502D01*
X159112343Y-119342233D01*
X159098414Y-119313424D01*
X159083084Y-119285350D01*
X159083310Y-119282186D01*
X159081929Y-119279330D01*
X159085785Y-119247571D01*
X159088068Y-119215658D01*
X159089969Y-119213117D01*
X159090352Y-119209970D01*
X159110764Y-119185340D01*
X159129940Y-119159725D01*
X159133690Y-119157677D01*
X159134936Y-119156174D01*
X159138538Y-119155029D01*
X159160915Y-119142810D01*
X159292331Y-119093796D01*
X159407546Y-119007546D01*
X159493796Y-118892331D01*
X159544091Y-118757483D01*
X159550500Y-118697873D01*
X159550499Y-117721158D01*
X159550499Y-116902129D01*
X159550498Y-116902123D01*
X159550497Y-116902116D01*
X159544091Y-116842517D01*
X159508547Y-116747219D01*
X159493797Y-116707671D01*
X159493793Y-116707664D01*
X159407547Y-116592455D01*
X159407544Y-116592452D01*
X159292335Y-116506206D01*
X159292328Y-116506202D01*
X159157482Y-116455908D01*
X159157483Y-116455908D01*
X159097883Y-116449501D01*
X159097881Y-116449500D01*
X159097873Y-116449500D01*
X159097864Y-116449500D01*
X157302129Y-116449500D01*
X157302123Y-116449501D01*
X157242516Y-116455908D01*
X157107671Y-116506202D01*
X157107664Y-116506206D01*
X156992455Y-116592452D01*
X156992452Y-116592455D01*
X156906206Y-116707664D01*
X156906202Y-116707671D01*
X156855908Y-116842517D01*
X156849501Y-116902116D01*
X156849501Y-116902123D01*
X156849500Y-116902135D01*
X148733223Y-116902135D01*
X148747213Y-116891971D01*
X148747215Y-116891968D01*
X148747219Y-116891966D01*
X148891966Y-116747219D01*
X148891968Y-116747215D01*
X148891971Y-116747213D01*
X148944732Y-116674590D01*
X149012287Y-116581610D01*
X149105220Y-116399219D01*
X149168477Y-116204534D01*
X149200500Y-116002352D01*
X149200500Y-115797648D01*
X149190871Y-115736854D01*
X149168477Y-115595465D01*
X149126118Y-115465099D01*
X149105220Y-115400781D01*
X149105218Y-115400778D01*
X149105218Y-115400776D01*
X149071503Y-115334607D01*
X149012287Y-115218390D01*
X148948669Y-115130826D01*
X148891971Y-115052786D01*
X148747213Y-114908028D01*
X148581613Y-114787715D01*
X148581612Y-114787714D01*
X148581610Y-114787713D01*
X148523281Y-114757993D01*
X148399223Y-114694781D01*
X148204534Y-114631522D01*
X148029995Y-114603878D01*
X148002352Y-114599500D01*
X147797648Y-114599500D01*
X147773329Y-114603351D01*
X147595465Y-114631522D01*
X147400776Y-114694781D01*
X147218386Y-114787715D01*
X147052786Y-114908028D01*
X146908028Y-115052786D01*
X146787715Y-115218386D01*
X146694781Y-115400776D01*
X146631522Y-115595465D01*
X146599500Y-115797648D01*
X135071588Y-115797648D01*
X135110289Y-115771789D01*
X135221789Y-115660289D01*
X135309394Y-115529179D01*
X135369737Y-115383497D01*
X135400500Y-115228842D01*
X135400500Y-115071158D01*
X135400500Y-115071155D01*
X135400499Y-115071153D01*
X135369738Y-114916510D01*
X135369737Y-114916503D01*
X135366227Y-114908028D01*
X135309397Y-114770827D01*
X135309390Y-114770814D01*
X135221789Y-114639711D01*
X135221786Y-114639707D01*
X135110292Y-114528213D01*
X135110288Y-114528210D01*
X134979185Y-114440609D01*
X134979172Y-114440602D01*
X134833501Y-114380264D01*
X134833489Y-114380261D01*
X134678845Y-114349500D01*
X134678842Y-114349500D01*
X134521158Y-114349500D01*
X134521155Y-114349500D01*
X134366510Y-114380261D01*
X134366498Y-114380264D01*
X134220827Y-114440602D01*
X134220814Y-114440609D01*
X134089711Y-114528210D01*
X134089707Y-114528213D01*
X133978213Y-114639707D01*
X133978210Y-114639711D01*
X133890609Y-114770814D01*
X133890602Y-114770827D01*
X133830264Y-114916498D01*
X133830261Y-114916510D01*
X133799500Y-115071153D01*
X126550000Y-115071153D01*
X126550000Y-114958753D01*
X126516757Y-114748872D01*
X126516757Y-114748869D01*
X126451095Y-114546782D01*
X126354624Y-114357449D01*
X126315270Y-114303282D01*
X126315269Y-114303282D01*
X125682962Y-114935590D01*
X125665925Y-114872007D01*
X125600099Y-114757993D01*
X125507007Y-114664901D01*
X125392993Y-114599075D01*
X125329409Y-114582037D01*
X125890292Y-114021153D01*
X139999500Y-114021153D01*
X139999500Y-114178846D01*
X140030261Y-114333489D01*
X140030264Y-114333501D01*
X140090602Y-114479172D01*
X140090609Y-114479185D01*
X140178210Y-114610288D01*
X140178213Y-114610292D01*
X140289707Y-114721786D01*
X140289711Y-114721789D01*
X140420814Y-114809390D01*
X140420827Y-114809397D01*
X140525567Y-114852781D01*
X140566503Y-114869737D01*
X140721153Y-114900499D01*
X140721156Y-114900500D01*
X140721158Y-114900500D01*
X140878844Y-114900500D01*
X140878845Y-114900499D01*
X141033497Y-114869737D01*
X141179179Y-114809394D01*
X141310289Y-114721789D01*
X141421789Y-114610289D01*
X141509394Y-114479179D01*
X141569737Y-114333497D01*
X141600500Y-114178842D01*
X141600500Y-114021158D01*
X141600500Y-114021155D01*
X141600499Y-114021153D01*
X141581556Y-113925921D01*
X141569737Y-113866503D01*
X141549975Y-113818793D01*
X141509397Y-113720827D01*
X141509390Y-113720814D01*
X141421789Y-113589711D01*
X141421786Y-113589707D01*
X141310292Y-113478213D01*
X141310288Y-113478210D01*
X141179185Y-113390609D01*
X141179172Y-113390602D01*
X141033501Y-113330264D01*
X141033489Y-113330261D01*
X141030307Y-113329628D01*
X141030306Y-113329628D01*
X140878844Y-113299500D01*
X140878842Y-113299500D01*
X140721158Y-113299500D01*
X140721155Y-113299500D01*
X140566510Y-113330261D01*
X140566498Y-113330264D01*
X140420827Y-113390602D01*
X140420814Y-113390609D01*
X140289711Y-113478210D01*
X140289707Y-113478213D01*
X140178213Y-113589707D01*
X140178210Y-113589711D01*
X140090609Y-113720814D01*
X140090602Y-113720827D01*
X140030264Y-113866498D01*
X140030261Y-113866510D01*
X139999500Y-114021153D01*
X125890292Y-114021153D01*
X125984060Y-113927385D01*
X125999627Y-113911818D01*
X126060950Y-113878333D01*
X126087307Y-113875499D01*
X126097872Y-113875499D01*
X126157483Y-113869091D01*
X126292331Y-113818796D01*
X126407546Y-113732546D01*
X126493796Y-113617331D01*
X126544091Y-113482483D01*
X126550500Y-113422873D01*
X126550499Y-111627128D01*
X126544330Y-111569737D01*
X126544091Y-111567516D01*
X126493797Y-111432671D01*
X126493793Y-111432664D01*
X126407547Y-111317455D01*
X126407544Y-111317452D01*
X126292335Y-111231206D01*
X126292328Y-111231202D01*
X126157482Y-111180908D01*
X126157483Y-111180908D01*
X126097883Y-111174501D01*
X126097881Y-111174500D01*
X126097873Y-111174500D01*
X126097864Y-111174500D01*
X124302129Y-111174500D01*
X124302123Y-111174501D01*
X124242516Y-111180908D01*
X124107671Y-111231202D01*
X124107664Y-111231206D01*
X123992455Y-111317452D01*
X123992452Y-111317455D01*
X123906206Y-111432664D01*
X123906202Y-111432671D01*
X123855908Y-111567517D01*
X123849501Y-111627116D01*
X123849501Y-111627123D01*
X123849500Y-111627135D01*
X122500500Y-111627135D01*
X122500500Y-110721153D01*
X137099500Y-110721153D01*
X137099500Y-110878846D01*
X137130261Y-111033489D01*
X137130264Y-111033501D01*
X137190602Y-111179172D01*
X137190609Y-111179185D01*
X137278210Y-111310288D01*
X137278213Y-111310292D01*
X137389707Y-111421786D01*
X137389711Y-111421789D01*
X137520814Y-111509390D01*
X137520827Y-111509397D01*
X137661141Y-111567516D01*
X137666503Y-111569737D01*
X137821153Y-111600499D01*
X137821156Y-111600500D01*
X137821158Y-111600500D01*
X137978844Y-111600500D01*
X137978845Y-111600499D01*
X138133497Y-111569737D01*
X138279179Y-111509394D01*
X138410289Y-111421789D01*
X138521789Y-111310289D01*
X138609394Y-111179179D01*
X138669737Y-111033497D01*
X138700500Y-110878842D01*
X138700500Y-110721158D01*
X138700500Y-110721155D01*
X138700499Y-110721153D01*
X138669737Y-110566503D01*
X138642398Y-110500500D01*
X138609397Y-110420827D01*
X138609390Y-110420814D01*
X138521789Y-110289711D01*
X138521786Y-110289707D01*
X138410292Y-110178213D01*
X138410288Y-110178210D01*
X138279185Y-110090609D01*
X138279172Y-110090602D01*
X138133501Y-110030264D01*
X138133489Y-110030261D01*
X137978845Y-109999500D01*
X137978842Y-109999500D01*
X137821158Y-109999500D01*
X137821155Y-109999500D01*
X137666510Y-110030261D01*
X137666498Y-110030264D01*
X137520827Y-110090602D01*
X137520814Y-110090609D01*
X137389711Y-110178210D01*
X137389707Y-110178213D01*
X137278213Y-110289707D01*
X137278210Y-110289711D01*
X137190609Y-110420814D01*
X137190602Y-110420827D01*
X137130264Y-110566498D01*
X137130261Y-110566510D01*
X137099500Y-110721153D01*
X122500500Y-110721153D01*
X122500500Y-107390000D01*
X123695261Y-107390000D01*
X124770272Y-107390000D01*
X124678386Y-107428060D01*
X124608060Y-107498386D01*
X124570000Y-107590272D01*
X124570000Y-107689728D01*
X124608060Y-107781614D01*
X124678386Y-107851940D01*
X124770272Y-107890000D01*
X123695261Y-107890000D01*
X123698315Y-107909285D01*
X123698318Y-107909295D01*
X123754250Y-108081441D01*
X123754252Y-108081447D01*
X123836434Y-108242734D01*
X123942823Y-108389169D01*
X124070830Y-108517176D01*
X124217265Y-108623565D01*
X124378552Y-108705747D01*
X124378555Y-108705748D01*
X124550706Y-108761682D01*
X124729494Y-108790000D01*
X124970000Y-108790000D01*
X124970000Y-107890000D01*
X125470000Y-107890000D01*
X125470000Y-108790000D01*
X125710506Y-108790000D01*
X125889293Y-108761682D01*
X126061444Y-108705748D01*
X126061447Y-108705747D01*
X126222734Y-108623565D01*
X126369169Y-108517176D01*
X126497176Y-108389169D01*
X126603565Y-108242734D01*
X126685747Y-108081447D01*
X126685749Y-108081441D01*
X126741681Y-107909295D01*
X126741684Y-107909285D01*
X126744739Y-107890000D01*
X125669728Y-107890000D01*
X125761614Y-107851940D01*
X125831940Y-107781614D01*
X125870000Y-107689728D01*
X125870000Y-107590272D01*
X125831940Y-107498386D01*
X125761614Y-107428060D01*
X125669728Y-107390000D01*
X126744739Y-107390000D01*
X127795261Y-107390000D01*
X128820272Y-107390000D01*
X128728386Y-107428060D01*
X128658060Y-107498386D01*
X128620000Y-107590272D01*
X128620000Y-107689728D01*
X128658060Y-107781614D01*
X128728386Y-107851940D01*
X128820272Y-107890000D01*
X127795261Y-107890000D01*
X127798315Y-107909285D01*
X127798318Y-107909295D01*
X127854250Y-108081441D01*
X127854252Y-108081447D01*
X127936434Y-108242734D01*
X128042823Y-108389169D01*
X128170830Y-108517176D01*
X128317265Y-108623565D01*
X128478552Y-108705747D01*
X128478555Y-108705748D01*
X128650706Y-108761682D01*
X128829494Y-108790000D01*
X129170000Y-108790000D01*
X129170000Y-107890000D01*
X129670000Y-107890000D01*
X129670000Y-108790000D01*
X130010506Y-108790000D01*
X130189293Y-108761682D01*
X130361444Y-108705748D01*
X130361447Y-108705747D01*
X130522734Y-108623565D01*
X130669169Y-108517176D01*
X130797176Y-108389169D01*
X130903565Y-108242734D01*
X130985747Y-108081447D01*
X130985749Y-108081441D01*
X131041681Y-107909295D01*
X131041684Y-107909285D01*
X131044739Y-107890000D01*
X130019728Y-107890000D01*
X130111614Y-107851940D01*
X130181940Y-107781614D01*
X130220000Y-107689728D01*
X130220000Y-107590272D01*
X130181940Y-107498386D01*
X130111614Y-107428060D01*
X130019728Y-107390000D01*
X131044739Y-107390000D01*
X131041684Y-107370714D01*
X131041681Y-107370704D01*
X130985749Y-107198558D01*
X130985747Y-107198552D01*
X130903565Y-107037265D01*
X130797176Y-106890830D01*
X130669169Y-106762823D01*
X130522734Y-106656434D01*
X130462124Y-106625551D01*
X130361447Y-106574252D01*
X130361444Y-106574251D01*
X130198022Y-106521153D01*
X140299500Y-106521153D01*
X140299500Y-106678846D01*
X140330261Y-106833489D01*
X140330264Y-106833501D01*
X140390604Y-106979176D01*
X140426162Y-107032392D01*
X140447040Y-107099069D01*
X140437623Y-107148732D01*
X140430262Y-107166502D01*
X140430261Y-107166505D01*
X140399500Y-107321153D01*
X140399500Y-107478846D01*
X140430261Y-107633489D01*
X140430264Y-107633501D01*
X140490602Y-107779172D01*
X140490609Y-107779185D01*
X140578210Y-107910288D01*
X140578213Y-107910292D01*
X140689707Y-108021786D01*
X140689711Y-108021789D01*
X140820814Y-108109390D01*
X140820827Y-108109397D01*
X140955330Y-108165109D01*
X141009734Y-108208949D01*
X141031799Y-108275243D01*
X141014520Y-108342943D01*
X141008197Y-108352554D01*
X140887714Y-108518387D01*
X140794781Y-108700776D01*
X140731522Y-108895465D01*
X140699500Y-109097648D01*
X140699500Y-109302351D01*
X140731522Y-109504534D01*
X140794781Y-109699223D01*
X140858691Y-109824653D01*
X140875700Y-109858034D01*
X140887715Y-109881613D01*
X141008028Y-110047213D01*
X141152786Y-110191971D01*
X141307749Y-110304556D01*
X141318390Y-110312287D01*
X141393929Y-110350776D01*
X141500776Y-110405218D01*
X141500778Y-110405218D01*
X141500781Y-110405220D01*
X141605137Y-110439127D01*
X141695465Y-110468477D01*
X141742389Y-110475909D01*
X141897648Y-110500500D01*
X141897649Y-110500500D01*
X142102351Y-110500500D01*
X142102352Y-110500500D01*
X142304534Y-110468477D01*
X142499219Y-110405220D01*
X142681610Y-110312287D01*
X142774590Y-110244732D01*
X142847213Y-110191971D01*
X142847215Y-110191968D01*
X142847219Y-110191966D01*
X142991966Y-110047219D01*
X142991968Y-110047215D01*
X142991971Y-110047213D01*
X143044732Y-109974590D01*
X143112287Y-109881610D01*
X143205220Y-109699219D01*
X143268477Y-109504534D01*
X143300500Y-109302352D01*
X143300500Y-109097648D01*
X143268477Y-108895466D01*
X143253389Y-108849031D01*
X143206834Y-108705748D01*
X143205220Y-108700781D01*
X143205218Y-108700778D01*
X143205218Y-108700776D01*
X143165876Y-108623565D01*
X143112287Y-108518390D01*
X143064283Y-108452317D01*
X142991971Y-108352786D01*
X142847213Y-108208028D01*
X142681613Y-108087715D01*
X142681612Y-108087714D01*
X142681610Y-108087713D01*
X142624653Y-108058691D01*
X142499223Y-107994781D01*
X142304534Y-107931522D01*
X142129995Y-107903878D01*
X142102352Y-107899500D01*
X142045134Y-107899500D01*
X141978095Y-107879815D01*
X141932340Y-107827011D01*
X141922396Y-107757853D01*
X141930573Y-107728047D01*
X141969737Y-107633497D01*
X142000500Y-107478842D01*
X142000500Y-107321158D01*
X142000500Y-107321155D01*
X142000499Y-107321153D01*
X141980734Y-107221789D01*
X141969737Y-107166503D01*
X141934739Y-107082009D01*
X141909397Y-107020827D01*
X141909395Y-107020823D01*
X141909394Y-107020821D01*
X141873837Y-106967606D01*
X141852959Y-106900929D01*
X141862377Y-106851264D01*
X141869737Y-106833497D01*
X141900500Y-106678842D01*
X141900500Y-106521158D01*
X141900500Y-106521155D01*
X141900499Y-106521153D01*
X146999500Y-106521153D01*
X146999500Y-106678846D01*
X147030261Y-106833489D01*
X147030264Y-106833501D01*
X147090602Y-106979172D01*
X147090609Y-106979185D01*
X147178210Y-107110288D01*
X147178213Y-107110292D01*
X147289707Y-107221786D01*
X147289711Y-107221789D01*
X147420814Y-107309390D01*
X147420827Y-107309397D01*
X147566498Y-107369735D01*
X147566503Y-107369737D01*
X147721153Y-107400499D01*
X147721156Y-107400500D01*
X147721158Y-107400500D01*
X147878844Y-107400500D01*
X147878845Y-107400499D01*
X148033497Y-107369737D01*
X148179179Y-107309394D01*
X148310289Y-107221789D01*
X148421789Y-107110289D01*
X148509394Y-106979179D01*
X148569737Y-106833497D01*
X148600500Y-106678842D01*
X148600500Y-106521158D01*
X148600500Y-106521155D01*
X148600499Y-106521153D01*
X151399500Y-106521153D01*
X151399500Y-106678846D01*
X151430261Y-106833489D01*
X151430264Y-106833501D01*
X151490602Y-106979172D01*
X151490609Y-106979185D01*
X151578210Y-107110288D01*
X151578213Y-107110292D01*
X151689707Y-107221786D01*
X151689711Y-107221789D01*
X151820814Y-107309390D01*
X151820827Y-107309397D01*
X151966498Y-107369735D01*
X151966503Y-107369737D01*
X152121153Y-107400499D01*
X152121156Y-107400500D01*
X152121158Y-107400500D01*
X152278844Y-107400500D01*
X152278845Y-107400499D01*
X152433497Y-107369737D01*
X152579179Y-107309394D01*
X152710289Y-107221789D01*
X152821789Y-107110289D01*
X152909394Y-106979179D01*
X152969737Y-106833497D01*
X153000500Y-106678842D01*
X153000500Y-106521158D01*
X153000500Y-106521155D01*
X153000499Y-106521153D01*
X152994302Y-106490000D01*
X152969737Y-106366503D01*
X152962219Y-106348353D01*
X152909395Y-106220822D01*
X152909393Y-106220819D01*
X152870181Y-106162135D01*
X156849500Y-106162135D01*
X156849500Y-107957870D01*
X156849501Y-107957876D01*
X156855908Y-108017483D01*
X156906202Y-108152328D01*
X156906206Y-108152335D01*
X156992452Y-108267544D01*
X156992455Y-108267547D01*
X157107664Y-108353793D01*
X157107671Y-108353797D01*
X157239082Y-108402810D01*
X157295016Y-108444681D01*
X157319433Y-108510145D01*
X157304582Y-108578418D01*
X157283431Y-108606673D01*
X157169889Y-108720215D01*
X157044951Y-108892179D01*
X156948444Y-109081585D01*
X156882753Y-109283760D01*
X156854545Y-109461859D01*
X156849500Y-109493713D01*
X156849500Y-109706287D01*
X156854478Y-109737714D01*
X156877268Y-109881610D01*
X156882754Y-109916243D01*
X156939409Y-110090609D01*
X156948444Y-110118414D01*
X157044951Y-110307820D01*
X157169890Y-110479786D01*
X157320213Y-110630109D01*
X157492179Y-110755048D01*
X157492181Y-110755049D01*
X157492184Y-110755051D01*
X157501493Y-110759794D01*
X157552290Y-110807766D01*
X157569087Y-110875587D01*
X157546552Y-110941722D01*
X157501505Y-110980760D01*
X157492446Y-110985376D01*
X157492440Y-110985380D01*
X157438282Y-111024727D01*
X157438282Y-111024728D01*
X158070591Y-111657037D01*
X158007007Y-111674075D01*
X157892993Y-111739901D01*
X157799901Y-111832993D01*
X157734075Y-111947007D01*
X157717037Y-112010591D01*
X157084728Y-111378282D01*
X157084727Y-111378282D01*
X157045380Y-111432439D01*
X156948904Y-111621782D01*
X156883242Y-111823869D01*
X156883242Y-111823872D01*
X156850000Y-112033753D01*
X156850000Y-112246246D01*
X156883242Y-112456127D01*
X156883242Y-112456130D01*
X156948904Y-112658217D01*
X157045375Y-112847550D01*
X157084728Y-112901716D01*
X157717036Y-112269407D01*
X157734075Y-112332993D01*
X157799901Y-112447007D01*
X157892993Y-112540099D01*
X158007007Y-112605925D01*
X158070590Y-112622962D01*
X157438282Y-113255269D01*
X157438282Y-113255270D01*
X157492449Y-113294624D01*
X157681782Y-113391095D01*
X157883870Y-113456757D01*
X158093754Y-113490000D01*
X158306246Y-113490000D01*
X158516127Y-113456757D01*
X158516130Y-113456757D01*
X158718217Y-113391095D01*
X158907554Y-113294622D01*
X158961716Y-113255270D01*
X158961717Y-113255270D01*
X158329408Y-112622962D01*
X158392993Y-112605925D01*
X158507007Y-112540099D01*
X158600099Y-112447007D01*
X158665925Y-112332993D01*
X158682962Y-112269408D01*
X159315270Y-112901717D01*
X159315270Y-112901716D01*
X159354622Y-112847554D01*
X159451095Y-112658217D01*
X159516757Y-112456130D01*
X159516757Y-112456127D01*
X159550000Y-112246246D01*
X159550000Y-112033753D01*
X159516757Y-111823872D01*
X159516757Y-111823869D01*
X159451095Y-111621782D01*
X159354624Y-111432449D01*
X159315270Y-111378282D01*
X159315269Y-111378282D01*
X158682962Y-112010590D01*
X158665925Y-111947007D01*
X158600099Y-111832993D01*
X158507007Y-111739901D01*
X158392993Y-111674075D01*
X158329409Y-111657037D01*
X158961716Y-111024728D01*
X158907547Y-110985373D01*
X158907547Y-110985372D01*
X158898500Y-110980763D01*
X158847706Y-110932788D01*
X158830912Y-110864966D01*
X158853451Y-110798832D01*
X158883354Y-110768930D01*
X158890595Y-110763825D01*
X158907816Y-110755051D01*
X158918005Y-110747648D01*
X162399500Y-110747648D01*
X162399500Y-110952351D01*
X162431522Y-111154534D01*
X162494781Y-111349223D01*
X162537188Y-111432449D01*
X162576393Y-111509394D01*
X162587715Y-111531613D01*
X162708028Y-111697213D01*
X162852786Y-111841971D01*
X162997359Y-111947007D01*
X163018390Y-111962287D01*
X163083072Y-111995244D01*
X163200776Y-112055218D01*
X163200778Y-112055218D01*
X163200781Y-112055220D01*
X163302101Y-112088141D01*
X163395465Y-112118477D01*
X163496557Y-112134488D01*
X163597648Y-112150500D01*
X163597649Y-112150500D01*
X163802351Y-112150500D01*
X163802352Y-112150500D01*
X164004534Y-112118477D01*
X164199219Y-112055220D01*
X164381610Y-111962287D01*
X164474590Y-111894732D01*
X164547213Y-111841971D01*
X164547215Y-111841968D01*
X164547219Y-111841966D01*
X164691966Y-111697219D01*
X164691968Y-111697215D01*
X164691971Y-111697213D01*
X164762236Y-111600500D01*
X164812287Y-111531610D01*
X164905220Y-111349219D01*
X164968477Y-111154534D01*
X165000500Y-110952352D01*
X165000500Y-110922135D01*
X170349500Y-110922135D01*
X170349500Y-112717870D01*
X170349501Y-112717876D01*
X170355908Y-112777483D01*
X170406202Y-112912328D01*
X170406206Y-112912335D01*
X170492452Y-113027544D01*
X170492455Y-113027547D01*
X170607664Y-113113793D01*
X170607671Y-113113797D01*
X170739082Y-113162810D01*
X170795016Y-113204681D01*
X170819433Y-113270145D01*
X170804582Y-113338418D01*
X170783431Y-113366673D01*
X170669889Y-113480215D01*
X170544951Y-113652179D01*
X170448444Y-113841585D01*
X170382753Y-114043760D01*
X170349500Y-114253713D01*
X170349500Y-114466286D01*
X170380957Y-114664901D01*
X170382754Y-114676243D01*
X170445624Y-114869737D01*
X170448444Y-114878414D01*
X170544951Y-115067820D01*
X170669890Y-115239786D01*
X170820213Y-115390109D01*
X170992179Y-115515048D01*
X170992181Y-115515049D01*
X170992184Y-115515051D01*
X171001493Y-115519794D01*
X171052290Y-115567766D01*
X171069087Y-115635587D01*
X171046552Y-115701722D01*
X171001505Y-115740760D01*
X170992446Y-115745376D01*
X170992440Y-115745380D01*
X170938282Y-115784727D01*
X170938282Y-115784728D01*
X171570591Y-116417037D01*
X171507007Y-116434075D01*
X171392993Y-116499901D01*
X171299901Y-116592993D01*
X171234075Y-116707007D01*
X171217037Y-116770591D01*
X170584728Y-116138282D01*
X170584727Y-116138282D01*
X170545380Y-116192439D01*
X170448904Y-116381782D01*
X170383242Y-116583869D01*
X170383242Y-116583872D01*
X170350000Y-116793753D01*
X170350000Y-117006246D01*
X170383242Y-117216127D01*
X170383242Y-117216130D01*
X170448904Y-117418217D01*
X170545375Y-117607550D01*
X170584728Y-117661716D01*
X171217037Y-117029408D01*
X171234075Y-117092993D01*
X171299901Y-117207007D01*
X171392993Y-117300099D01*
X171507007Y-117365925D01*
X171570590Y-117382962D01*
X170938282Y-118015269D01*
X170938282Y-118015270D01*
X170992449Y-118054624D01*
X171181782Y-118151095D01*
X171383870Y-118216757D01*
X171593754Y-118250000D01*
X171806246Y-118250000D01*
X172016127Y-118216757D01*
X172016130Y-118216757D01*
X172218217Y-118151095D01*
X172407554Y-118054622D01*
X172461716Y-118015270D01*
X172461717Y-118015270D01*
X171829408Y-117382962D01*
X171892993Y-117365925D01*
X172007007Y-117300099D01*
X172100099Y-117207007D01*
X172165925Y-117092993D01*
X172182962Y-117029408D01*
X172815270Y-117661717D01*
X172815270Y-117661716D01*
X172854622Y-117607554D01*
X172951095Y-117418217D01*
X173016757Y-117216130D01*
X173016757Y-117216127D01*
X173050000Y-117006246D01*
X173050000Y-116793753D01*
X173016757Y-116583872D01*
X173016757Y-116583869D01*
X172951095Y-116381782D01*
X172854624Y-116192449D01*
X172815270Y-116138282D01*
X172815269Y-116138282D01*
X172182962Y-116770590D01*
X172165925Y-116707007D01*
X172100099Y-116592993D01*
X172007007Y-116499901D01*
X171892993Y-116434075D01*
X171829409Y-116417037D01*
X172461716Y-115784728D01*
X172407547Y-115745373D01*
X172407547Y-115745372D01*
X172398500Y-115740763D01*
X172394362Y-115736854D01*
X172388884Y-115735310D01*
X172369244Y-115713130D01*
X172347706Y-115692788D01*
X172346337Y-115687262D01*
X172342564Y-115683001D01*
X172338033Y-115653724D01*
X172330912Y-115624966D01*
X172332748Y-115619577D01*
X172331878Y-115613953D01*
X172339113Y-115597648D01*
X176199500Y-115597648D01*
X176199500Y-115802351D01*
X176231522Y-116004534D01*
X176294781Y-116199223D01*
X176354331Y-116316095D01*
X176373026Y-116352786D01*
X176387715Y-116381613D01*
X176508028Y-116547213D01*
X176652786Y-116691971D01*
X176792880Y-116793753D01*
X176818390Y-116812287D01*
X176934607Y-116871503D01*
X177000776Y-116905218D01*
X177000778Y-116905218D01*
X177000781Y-116905220D01*
X177067847Y-116927011D01*
X177195465Y-116968477D01*
X177267050Y-116979815D01*
X177397648Y-117000500D01*
X177397649Y-117000500D01*
X177602351Y-117000500D01*
X177602352Y-117000500D01*
X177804534Y-116968477D01*
X177999219Y-116905220D01*
X178181610Y-116812287D01*
X178325603Y-116707671D01*
X178347213Y-116691971D01*
X178347215Y-116691968D01*
X178347219Y-116691966D01*
X178491966Y-116547219D01*
X178491968Y-116547215D01*
X178491971Y-116547213D01*
X178558307Y-116455908D01*
X178612287Y-116381610D01*
X178705220Y-116199219D01*
X178768477Y-116004534D01*
X178800500Y-115802352D01*
X178800500Y-115597648D01*
X178794352Y-115558832D01*
X178768477Y-115395465D01*
X178714338Y-115228844D01*
X178705220Y-115200781D01*
X178705218Y-115200778D01*
X178705218Y-115200776D01*
X178669576Y-115130826D01*
X178612287Y-115018390D01*
X178568959Y-114958753D01*
X178491971Y-114852786D01*
X178347213Y-114708028D01*
X178181611Y-114587713D01*
X178127621Y-114560203D01*
X178076825Y-114512228D01*
X178060031Y-114444407D01*
X178082569Y-114378272D01*
X178127624Y-114339233D01*
X178181349Y-114311859D01*
X178225921Y-114279474D01*
X177546447Y-113600000D01*
X177552661Y-113600000D01*
X177654394Y-113572741D01*
X177745606Y-113520080D01*
X177820080Y-113445606D01*
X177872741Y-113354394D01*
X177900000Y-113252661D01*
X177900000Y-113246448D01*
X178579474Y-113925922D01*
X178579474Y-113925921D01*
X178611859Y-113881349D01*
X178704755Y-113699031D01*
X178767990Y-113504417D01*
X178800000Y-113302317D01*
X178800000Y-113097682D01*
X178767990Y-112895582D01*
X178704755Y-112700968D01*
X178611859Y-112518650D01*
X178579474Y-112474077D01*
X178579474Y-112474076D01*
X177900000Y-113153551D01*
X177900000Y-113147339D01*
X177872741Y-113045606D01*
X177820080Y-112954394D01*
X177745606Y-112879920D01*
X177654394Y-112827259D01*
X177552661Y-112800000D01*
X177546446Y-112800000D01*
X178225922Y-112120524D01*
X178225921Y-112120523D01*
X178181359Y-112088147D01*
X178181350Y-112088141D01*
X177999031Y-111995244D01*
X177804417Y-111932009D01*
X177602317Y-111900000D01*
X177397683Y-111900000D01*
X177195582Y-111932009D01*
X177000968Y-111995244D01*
X176818644Y-112088143D01*
X176774077Y-112120523D01*
X176774077Y-112120524D01*
X177453554Y-112800000D01*
X177447339Y-112800000D01*
X177345606Y-112827259D01*
X177254394Y-112879920D01*
X177179920Y-112954394D01*
X177127259Y-113045606D01*
X177100000Y-113147339D01*
X177100000Y-113153553D01*
X176420524Y-112474077D01*
X176420523Y-112474077D01*
X176388143Y-112518644D01*
X176295244Y-112700968D01*
X176232009Y-112895582D01*
X176200000Y-113097682D01*
X176200000Y-113302317D01*
X176232009Y-113504417D01*
X176295244Y-113699031D01*
X176388141Y-113881350D01*
X176388147Y-113881359D01*
X176420523Y-113925921D01*
X176420524Y-113925922D01*
X177100000Y-113246446D01*
X177100000Y-113252661D01*
X177127259Y-113354394D01*
X177179920Y-113445606D01*
X177254394Y-113520080D01*
X177345606Y-113572741D01*
X177447339Y-113600000D01*
X177453553Y-113600000D01*
X176774076Y-114279474D01*
X176818652Y-114311861D01*
X176872376Y-114339234D01*
X176923172Y-114387208D01*
X176939968Y-114455028D01*
X176917431Y-114521164D01*
X176872379Y-114560203D01*
X176818386Y-114587714D01*
X176652786Y-114708028D01*
X176508028Y-114852786D01*
X176387715Y-115018386D01*
X176294781Y-115200776D01*
X176231522Y-115395465D01*
X176199500Y-115597648D01*
X172339113Y-115597648D01*
X172343892Y-115586877D01*
X172353451Y-115558832D01*
X172358513Y-115553929D01*
X172360218Y-115550089D01*
X172372577Y-115540310D01*
X172386641Y-115526691D01*
X172392372Y-115522920D01*
X172407816Y-115515051D01*
X172579792Y-115390104D01*
X172730104Y-115239792D01*
X172730106Y-115239788D01*
X172730109Y-115239786D01*
X172852625Y-115071155D01*
X172855051Y-115067816D01*
X172951557Y-114878412D01*
X173017246Y-114676243D01*
X173050500Y-114466287D01*
X173050500Y-114253713D01*
X173017246Y-114043757D01*
X172951557Y-113841588D01*
X172855051Y-113652184D01*
X172855049Y-113652181D01*
X172855048Y-113652179D01*
X172730109Y-113480213D01*
X172616569Y-113366673D01*
X172583084Y-113305350D01*
X172588068Y-113235658D01*
X172629940Y-113179725D01*
X172660915Y-113162810D01*
X172792331Y-113113796D01*
X172907546Y-113027546D01*
X172993796Y-112912331D01*
X173044091Y-112777483D01*
X173050500Y-112717873D01*
X173050499Y-111786446D01*
X173050499Y-110922129D01*
X173050498Y-110922123D01*
X173050497Y-110922116D01*
X173044091Y-110862517D01*
X173040003Y-110851557D01*
X172993797Y-110727671D01*
X172993793Y-110727664D01*
X172907547Y-110612455D01*
X172907544Y-110612452D01*
X172792335Y-110526206D01*
X172792328Y-110526202D01*
X172657482Y-110475908D01*
X172657483Y-110475908D01*
X172597883Y-110469501D01*
X172597881Y-110469500D01*
X172597873Y-110469500D01*
X172597864Y-110469500D01*
X170802129Y-110469500D01*
X170802123Y-110469501D01*
X170742516Y-110475908D01*
X170607671Y-110526202D01*
X170607664Y-110526206D01*
X170492455Y-110612452D01*
X170492452Y-110612455D01*
X170406206Y-110727664D01*
X170406202Y-110727671D01*
X170355908Y-110862517D01*
X170354153Y-110878846D01*
X170349501Y-110922123D01*
X170349500Y-110922135D01*
X165000500Y-110922135D01*
X165000500Y-110747648D01*
X164968477Y-110545466D01*
X164962218Y-110526204D01*
X164922908Y-110405220D01*
X164905220Y-110350781D01*
X164905218Y-110350778D01*
X164905218Y-110350776D01*
X164871503Y-110284607D01*
X164812287Y-110168390D01*
X164775978Y-110118414D01*
X164691971Y-110002786D01*
X164547213Y-109858028D01*
X164381611Y-109737713D01*
X164327621Y-109710203D01*
X164276825Y-109662228D01*
X164260031Y-109594407D01*
X164282569Y-109528272D01*
X164327624Y-109489233D01*
X164381349Y-109461859D01*
X164425921Y-109429474D01*
X163746447Y-108750000D01*
X163752661Y-108750000D01*
X163854394Y-108722741D01*
X163945606Y-108670080D01*
X164020080Y-108595606D01*
X164072741Y-108504394D01*
X164100000Y-108402661D01*
X164100000Y-108396448D01*
X164779474Y-109075922D01*
X164779474Y-109075921D01*
X164811859Y-109031349D01*
X164904755Y-108849031D01*
X164967990Y-108654417D01*
X165000000Y-108452317D01*
X165000000Y-108247682D01*
X164967990Y-108045582D01*
X164904755Y-107850968D01*
X164811859Y-107668650D01*
X164779474Y-107624077D01*
X164779474Y-107624076D01*
X164100000Y-108303551D01*
X164100000Y-108297339D01*
X164072741Y-108195606D01*
X164020080Y-108104394D01*
X163945606Y-108029920D01*
X163854394Y-107977259D01*
X163752661Y-107950000D01*
X163746446Y-107950000D01*
X164425922Y-107270524D01*
X164425921Y-107270523D01*
X164381359Y-107238147D01*
X164381350Y-107238141D01*
X164199031Y-107145244D01*
X164004417Y-107082009D01*
X163802317Y-107050000D01*
X163597683Y-107050000D01*
X163395582Y-107082009D01*
X163200968Y-107145244D01*
X163018644Y-107238143D01*
X162974077Y-107270523D01*
X162974077Y-107270524D01*
X163653554Y-107950000D01*
X163647339Y-107950000D01*
X163545606Y-107977259D01*
X163454394Y-108029920D01*
X163379920Y-108104394D01*
X163327259Y-108195606D01*
X163300000Y-108297339D01*
X163300000Y-108303553D01*
X162620524Y-107624077D01*
X162620523Y-107624077D01*
X162588143Y-107668644D01*
X162495244Y-107850968D01*
X162432009Y-108045582D01*
X162400000Y-108247682D01*
X162400000Y-108452317D01*
X162432009Y-108654417D01*
X162495244Y-108849031D01*
X162588141Y-109031350D01*
X162588147Y-109031359D01*
X162620523Y-109075921D01*
X162620524Y-109075922D01*
X163300000Y-108396446D01*
X163300000Y-108402661D01*
X163327259Y-108504394D01*
X163379920Y-108595606D01*
X163454394Y-108670080D01*
X163545606Y-108722741D01*
X163647339Y-108750000D01*
X163653553Y-108750000D01*
X162974076Y-109429474D01*
X163018652Y-109461861D01*
X163072376Y-109489234D01*
X163123172Y-109537208D01*
X163139968Y-109605028D01*
X163117431Y-109671164D01*
X163072379Y-109710203D01*
X163018386Y-109737714D01*
X162852786Y-109858028D01*
X162708028Y-110002786D01*
X162587715Y-110168386D01*
X162494781Y-110350776D01*
X162431522Y-110545465D01*
X162399500Y-110747648D01*
X158918005Y-110747648D01*
X159079792Y-110630104D01*
X159230104Y-110479792D01*
X159230106Y-110479788D01*
X159230109Y-110479786D01*
X159355048Y-110307820D01*
X159355047Y-110307820D01*
X159355051Y-110307816D01*
X159451557Y-110118412D01*
X159517246Y-109916243D01*
X159550500Y-109706287D01*
X159550500Y-109493713D01*
X159517246Y-109283757D01*
X159451557Y-109081588D01*
X159355051Y-108892184D01*
X159355049Y-108892181D01*
X159355048Y-108892179D01*
X159230109Y-108720213D01*
X159116569Y-108606673D01*
X159083084Y-108545350D01*
X159088068Y-108475658D01*
X159129940Y-108419725D01*
X159160915Y-108402810D01*
X159292331Y-108353796D01*
X159407546Y-108267546D01*
X159452097Y-108208034D01*
X159481689Y-108168505D01*
X159493793Y-108152335D01*
X159493792Y-108152335D01*
X159493796Y-108152331D01*
X159544091Y-108017483D01*
X159550500Y-107957873D01*
X159550499Y-107050000D01*
X159550499Y-106162129D01*
X159550498Y-106162123D01*
X159550497Y-106162116D01*
X159544091Y-106102517D01*
X159539313Y-106089707D01*
X159493797Y-105967671D01*
X159493793Y-105967664D01*
X159407547Y-105852455D01*
X159407544Y-105852452D01*
X159292335Y-105766206D01*
X159292328Y-105766202D01*
X159157482Y-105715908D01*
X159157483Y-105715908D01*
X159097883Y-105709501D01*
X159097881Y-105709500D01*
X159097873Y-105709500D01*
X159097864Y-105709500D01*
X157302129Y-105709500D01*
X157302123Y-105709501D01*
X157242516Y-105715908D01*
X157107671Y-105766202D01*
X157107664Y-105766206D01*
X156992455Y-105852452D01*
X156992452Y-105852455D01*
X156906206Y-105967664D01*
X156906202Y-105967671D01*
X156855908Y-106102517D01*
X156849501Y-106162116D01*
X156849501Y-106162123D01*
X156849500Y-106162135D01*
X152870181Y-106162135D01*
X152821789Y-106089711D01*
X152821786Y-106089707D01*
X152710292Y-105978213D01*
X152710288Y-105978210D01*
X152579185Y-105890609D01*
X152579172Y-105890602D01*
X152433501Y-105830264D01*
X152433489Y-105830261D01*
X152278845Y-105799500D01*
X152278842Y-105799500D01*
X152121158Y-105799500D01*
X152121155Y-105799500D01*
X151966510Y-105830261D01*
X151966498Y-105830264D01*
X151820827Y-105890602D01*
X151820814Y-105890609D01*
X151689711Y-105978210D01*
X151689707Y-105978213D01*
X151578213Y-106089707D01*
X151578210Y-106089711D01*
X151490609Y-106220814D01*
X151490602Y-106220827D01*
X151430264Y-106366498D01*
X151430261Y-106366510D01*
X151399500Y-106521153D01*
X148600499Y-106521153D01*
X148594302Y-106490000D01*
X148569737Y-106366503D01*
X148562219Y-106348353D01*
X148509397Y-106220827D01*
X148509390Y-106220814D01*
X148421789Y-106089711D01*
X148421786Y-106089707D01*
X148310292Y-105978213D01*
X148310288Y-105978210D01*
X148179185Y-105890609D01*
X148179172Y-105890602D01*
X148033501Y-105830264D01*
X148033489Y-105830261D01*
X147878845Y-105799500D01*
X147878842Y-105799500D01*
X147721158Y-105799500D01*
X147721155Y-105799500D01*
X147566510Y-105830261D01*
X147566498Y-105830264D01*
X147420827Y-105890602D01*
X147420814Y-105890609D01*
X147289711Y-105978210D01*
X147289707Y-105978213D01*
X147178213Y-106089707D01*
X147178210Y-106089711D01*
X147090609Y-106220814D01*
X147090602Y-106220827D01*
X147030264Y-106366498D01*
X147030261Y-106366510D01*
X146999500Y-106521153D01*
X141900499Y-106521153D01*
X141894302Y-106490000D01*
X141869737Y-106366503D01*
X141862219Y-106348353D01*
X141809397Y-106220827D01*
X141809390Y-106220814D01*
X141721789Y-106089711D01*
X141721786Y-106089707D01*
X141610292Y-105978213D01*
X141610288Y-105978210D01*
X141479185Y-105890609D01*
X141479172Y-105890602D01*
X141333501Y-105830264D01*
X141333489Y-105830261D01*
X141178845Y-105799500D01*
X141178842Y-105799500D01*
X141021158Y-105799500D01*
X141021155Y-105799500D01*
X140866510Y-105830261D01*
X140866498Y-105830264D01*
X140720827Y-105890602D01*
X140720814Y-105890609D01*
X140589711Y-105978210D01*
X140589707Y-105978213D01*
X140478213Y-106089707D01*
X140478210Y-106089711D01*
X140390609Y-106220814D01*
X140390602Y-106220827D01*
X140330264Y-106366498D01*
X140330261Y-106366510D01*
X140299500Y-106521153D01*
X130198022Y-106521153D01*
X130189293Y-106518317D01*
X130010506Y-106490000D01*
X129553814Y-106490000D01*
X129486775Y-106470315D01*
X129441020Y-106417511D01*
X129431076Y-106348353D01*
X129434039Y-106333907D01*
X129450500Y-106272475D01*
X129450500Y-106127525D01*
X129412984Y-105987515D01*
X129407613Y-105978213D01*
X129340511Y-105861988D01*
X129340506Y-105861982D01*
X129238017Y-105759493D01*
X129238011Y-105759488D01*
X129112488Y-105687017D01*
X129112489Y-105687017D01*
X129101006Y-105683940D01*
X128972475Y-105649500D01*
X128827525Y-105649500D01*
X128698993Y-105683940D01*
X128687511Y-105687017D01*
X128561988Y-105759488D01*
X128561982Y-105759493D01*
X128459493Y-105861982D01*
X128459488Y-105861988D01*
X128387017Y-105987511D01*
X128387016Y-105987515D01*
X128349500Y-106127525D01*
X128349500Y-106272475D01*
X128365961Y-106333907D01*
X128387017Y-106412488D01*
X128414655Y-106460358D01*
X128431128Y-106528258D01*
X128408276Y-106594285D01*
X128363565Y-106632842D01*
X128317265Y-106656433D01*
X128170830Y-106762823D01*
X128042823Y-106890830D01*
X127936434Y-107037265D01*
X127854252Y-107198552D01*
X127854250Y-107198558D01*
X127798318Y-107370704D01*
X127798315Y-107370714D01*
X127795261Y-107390000D01*
X126744739Y-107390000D01*
X126741684Y-107370714D01*
X126741681Y-107370704D01*
X126685749Y-107198558D01*
X126685747Y-107198552D01*
X126603565Y-107037265D01*
X126497176Y-106890830D01*
X126369169Y-106762823D01*
X126222734Y-106656434D01*
X126061447Y-106574252D01*
X126061444Y-106574251D01*
X125889293Y-106518317D01*
X125710506Y-106490000D01*
X125470000Y-106490000D01*
X125470000Y-107390000D01*
X124970000Y-107390000D01*
X124970000Y-106490000D01*
X124729494Y-106490000D01*
X124550706Y-106518317D01*
X124378555Y-106574251D01*
X124378552Y-106574252D01*
X124217265Y-106656434D01*
X124070830Y-106762823D01*
X123942823Y-106890830D01*
X123836434Y-107037265D01*
X123754252Y-107198552D01*
X123754250Y-107198558D01*
X123698318Y-107370704D01*
X123698315Y-107370714D01*
X123695261Y-107390000D01*
X122500500Y-107390000D01*
X122500500Y-105560000D01*
X123891759Y-105560000D01*
X123935357Y-105665254D01*
X123935362Y-105665264D01*
X124017436Y-105788096D01*
X124017439Y-105788100D01*
X124121899Y-105892560D01*
X124121907Y-105892566D01*
X124244739Y-105974640D01*
X124244743Y-105974642D01*
X124349999Y-106018240D01*
X124350000Y-106018240D01*
X124850000Y-106018240D01*
X124955256Y-105974642D01*
X124955260Y-105974640D01*
X125078092Y-105892566D01*
X125078100Y-105892560D01*
X125182560Y-105788100D01*
X125182563Y-105788096D01*
X125264637Y-105665264D01*
X125264642Y-105665254D01*
X125308241Y-105560000D01*
X125891759Y-105560000D01*
X125935357Y-105665254D01*
X125935362Y-105665264D01*
X126017436Y-105788096D01*
X126017439Y-105788100D01*
X126121899Y-105892560D01*
X126121907Y-105892566D01*
X126244739Y-105974640D01*
X126244743Y-105974642D01*
X126349999Y-106018240D01*
X126350000Y-106018240D01*
X126850000Y-106018240D01*
X126955256Y-105974642D01*
X126955260Y-105974640D01*
X127078092Y-105892566D01*
X127078100Y-105892560D01*
X127182560Y-105788100D01*
X127182563Y-105788096D01*
X127264637Y-105665264D01*
X127264642Y-105665254D01*
X127308241Y-105560000D01*
X126850000Y-105560000D01*
X126850000Y-106018240D01*
X126350000Y-106018240D01*
X126350000Y-105560000D01*
X125891759Y-105560000D01*
X125308241Y-105560000D01*
X124850000Y-105560000D01*
X124850000Y-106018240D01*
X124350000Y-106018240D01*
X124350000Y-105560000D01*
X123891759Y-105560000D01*
X122500500Y-105560000D01*
X122500500Y-105280163D01*
X124450000Y-105280163D01*
X124450000Y-105339837D01*
X124472836Y-105394968D01*
X124515032Y-105437164D01*
X124570163Y-105460000D01*
X124629837Y-105460000D01*
X124684968Y-105437164D01*
X124727164Y-105394968D01*
X124750000Y-105339837D01*
X124750000Y-105280163D01*
X126450000Y-105280163D01*
X126450000Y-105339837D01*
X126472836Y-105394968D01*
X126515032Y-105437164D01*
X126570163Y-105460000D01*
X126629837Y-105460000D01*
X126684968Y-105437164D01*
X126727164Y-105394968D01*
X126750000Y-105339837D01*
X126750000Y-105280163D01*
X126727164Y-105225032D01*
X126684968Y-105182836D01*
X126629837Y-105160000D01*
X126570163Y-105160000D01*
X126515032Y-105182836D01*
X126472836Y-105225032D01*
X126450000Y-105280163D01*
X124750000Y-105280163D01*
X124727164Y-105225032D01*
X124684968Y-105182836D01*
X124629837Y-105160000D01*
X124570163Y-105160000D01*
X124515032Y-105182836D01*
X124472836Y-105225032D01*
X124450000Y-105280163D01*
X122500500Y-105280163D01*
X122500500Y-105059999D01*
X123891759Y-105059999D01*
X123891759Y-105060000D01*
X124350000Y-105060000D01*
X124850000Y-105060000D01*
X125308241Y-105060000D01*
X125308240Y-105059999D01*
X125891759Y-105059999D01*
X125891759Y-105060000D01*
X126350000Y-105060000D01*
X126850000Y-105060000D01*
X127308241Y-105060000D01*
X127308240Y-105059999D01*
X127264642Y-104954745D01*
X127264637Y-104954735D01*
X127182563Y-104831903D01*
X127182560Y-104831899D01*
X127078100Y-104727439D01*
X127078096Y-104727436D01*
X126955264Y-104645362D01*
X126955254Y-104645357D01*
X126850000Y-104601759D01*
X126850000Y-105060000D01*
X126350000Y-105060000D01*
X126350000Y-104601759D01*
X126244745Y-104645357D01*
X126244735Y-104645362D01*
X126121903Y-104727436D01*
X126121899Y-104727439D01*
X126017439Y-104831899D01*
X126017436Y-104831903D01*
X125935362Y-104954735D01*
X125935357Y-104954745D01*
X125891759Y-105059999D01*
X125308240Y-105059999D01*
X125264642Y-104954745D01*
X125264637Y-104954735D01*
X125182563Y-104831903D01*
X125182560Y-104831899D01*
X125078100Y-104727439D01*
X125078096Y-104727436D01*
X124955264Y-104645362D01*
X124955254Y-104645357D01*
X124850000Y-104601759D01*
X124850000Y-105060000D01*
X124350000Y-105060000D01*
X124350000Y-104601759D01*
X124349999Y-104601759D01*
X124244745Y-104645357D01*
X124244735Y-104645362D01*
X124121903Y-104727436D01*
X124121899Y-104727439D01*
X124017439Y-104831899D01*
X124017436Y-104831903D01*
X123935362Y-104954735D01*
X123935357Y-104954745D01*
X123891759Y-105059999D01*
X122500500Y-105059999D01*
X122500500Y-103680533D01*
X140542632Y-103680533D01*
X140542632Y-103838226D01*
X140573393Y-103992869D01*
X140573396Y-103992881D01*
X140633734Y-104138552D01*
X140633741Y-104138565D01*
X140721342Y-104269668D01*
X140721345Y-104269672D01*
X140832839Y-104381166D01*
X140832843Y-104381169D01*
X140963946Y-104468770D01*
X140963959Y-104468777D01*
X141109630Y-104529115D01*
X141109635Y-104529117D01*
X141264285Y-104559879D01*
X141264288Y-104559880D01*
X141264290Y-104559880D01*
X141421976Y-104559880D01*
X141421977Y-104559879D01*
X141576629Y-104529117D01*
X141722311Y-104468774D01*
X141853421Y-104381169D01*
X141964921Y-104269669D01*
X142052526Y-104138559D01*
X142112869Y-103992877D01*
X142143632Y-103838222D01*
X142143632Y-103680538D01*
X142143632Y-103680535D01*
X142143631Y-103680533D01*
X142142366Y-103674174D01*
X142112869Y-103525883D01*
X142106410Y-103510289D01*
X142052529Y-103380207D01*
X142052522Y-103380194D01*
X141964921Y-103249091D01*
X141964918Y-103249087D01*
X141853424Y-103137593D01*
X141853420Y-103137590D01*
X141722317Y-103049989D01*
X141722304Y-103049982D01*
X141576633Y-102989644D01*
X141576621Y-102989641D01*
X141564727Y-102987275D01*
X141421977Y-102958880D01*
X141421974Y-102958880D01*
X141264290Y-102958880D01*
X141264287Y-102958880D01*
X141109642Y-102989641D01*
X141109630Y-102989644D01*
X140963959Y-103049982D01*
X140963946Y-103049989D01*
X140832843Y-103137590D01*
X140832839Y-103137593D01*
X140721345Y-103249087D01*
X140721342Y-103249091D01*
X140633741Y-103380194D01*
X140633734Y-103380207D01*
X140573396Y-103525878D01*
X140573393Y-103525890D01*
X140542632Y-103680533D01*
X122500500Y-103680533D01*
X122500500Y-102871745D01*
X142424500Y-102871745D01*
X142424500Y-103029438D01*
X142455261Y-103184081D01*
X142455264Y-103184093D01*
X142515602Y-103329764D01*
X142515609Y-103329777D01*
X142603210Y-103460880D01*
X142603213Y-103460884D01*
X142714707Y-103572378D01*
X142714711Y-103572381D01*
X142845814Y-103659982D01*
X142845827Y-103659989D01*
X142982425Y-103716569D01*
X142991503Y-103720329D01*
X143146153Y-103751091D01*
X143146156Y-103751092D01*
X143146158Y-103751092D01*
X143303844Y-103751092D01*
X143303845Y-103751091D01*
X143458497Y-103720329D01*
X143604179Y-103659986D01*
X143735289Y-103572381D01*
X143846789Y-103460881D01*
X143934394Y-103329771D01*
X143994737Y-103184089D01*
X143998170Y-103166829D01*
X144030551Y-103104920D01*
X144091266Y-103070344D01*
X144161035Y-103074081D01*
X144171936Y-103078518D01*
X144180673Y-103082567D01*
X144220821Y-103109394D01*
X144366503Y-103169737D01*
X144370392Y-103170510D01*
X144380783Y-103175327D01*
X144400795Y-103192866D01*
X144423054Y-103207449D01*
X144426663Y-103215539D01*
X144433327Y-103221380D01*
X144440678Y-103246952D01*
X144451522Y-103271256D01*
X144450320Y-103280491D01*
X144452632Y-103288530D01*
X144446704Y-103308303D01*
X144443196Y-103335279D01*
X144430263Y-103366502D01*
X144430261Y-103366510D01*
X144399500Y-103521153D01*
X144399500Y-103678846D01*
X144430261Y-103833489D01*
X144430264Y-103833501D01*
X144490602Y-103979172D01*
X144490609Y-103979185D01*
X144578210Y-104110288D01*
X144578213Y-104110292D01*
X144689707Y-104221786D01*
X144689711Y-104221789D01*
X144820814Y-104309390D01*
X144820827Y-104309397D01*
X144966498Y-104369735D01*
X144966503Y-104369737D01*
X145121153Y-104400499D01*
X145121156Y-104400500D01*
X145121158Y-104400500D01*
X145278844Y-104400500D01*
X145278845Y-104400499D01*
X145433497Y-104369737D01*
X145550790Y-104321153D01*
X146799500Y-104321153D01*
X146799500Y-104478846D01*
X146830261Y-104633489D01*
X146830264Y-104633501D01*
X146890602Y-104779172D01*
X146890609Y-104779185D01*
X146978210Y-104910288D01*
X146978213Y-104910292D01*
X147089707Y-105021786D01*
X147089711Y-105021789D01*
X147220814Y-105109390D01*
X147220827Y-105109397D01*
X147366498Y-105169735D01*
X147366503Y-105169737D01*
X147521153Y-105200499D01*
X147521156Y-105200500D01*
X147521158Y-105200500D01*
X147678844Y-105200500D01*
X147678845Y-105200499D01*
X147833497Y-105169737D01*
X147979179Y-105109394D01*
X148110289Y-105021789D01*
X148221789Y-104910289D01*
X148309394Y-104779179D01*
X148330827Y-104727436D01*
X148369735Y-104633501D01*
X148369737Y-104633497D01*
X148400500Y-104478842D01*
X148400500Y-104321158D01*
X148400500Y-104321155D01*
X148400499Y-104321153D01*
X148387980Y-104258217D01*
X148369737Y-104166503D01*
X148369735Y-104166498D01*
X148309397Y-104020827D01*
X148309390Y-104020814D01*
X148221789Y-103889711D01*
X148221786Y-103889707D01*
X148110292Y-103778213D01*
X148110288Y-103778210D01*
X147979185Y-103690609D01*
X147979172Y-103690602D01*
X147833501Y-103630264D01*
X147833489Y-103630261D01*
X147678845Y-103599500D01*
X147678842Y-103599500D01*
X147521158Y-103599500D01*
X147521155Y-103599500D01*
X147366510Y-103630261D01*
X147366498Y-103630264D01*
X147220827Y-103690602D01*
X147220814Y-103690609D01*
X147089711Y-103778210D01*
X147089707Y-103778213D01*
X146978213Y-103889707D01*
X146978210Y-103889711D01*
X146890609Y-104020814D01*
X146890602Y-104020827D01*
X146830264Y-104166498D01*
X146830261Y-104166510D01*
X146799500Y-104321153D01*
X145550790Y-104321153D01*
X145579179Y-104309394D01*
X145710289Y-104221789D01*
X145821789Y-104110289D01*
X145909394Y-103979179D01*
X145969737Y-103833497D01*
X146000500Y-103678842D01*
X146000500Y-103521158D01*
X146000500Y-103521155D01*
X146000499Y-103521153D01*
X145982963Y-103432993D01*
X145969737Y-103366503D01*
X145954522Y-103329771D01*
X145909397Y-103220827D01*
X145909390Y-103220814D01*
X145821789Y-103089711D01*
X145821786Y-103089707D01*
X145710292Y-102978213D01*
X145710288Y-102978210D01*
X145624897Y-102921153D01*
X148799500Y-102921153D01*
X148799500Y-103078846D01*
X148830261Y-103233489D01*
X148830264Y-103233501D01*
X148890602Y-103379172D01*
X148890609Y-103379185D01*
X148978210Y-103510288D01*
X148978213Y-103510292D01*
X149089707Y-103621786D01*
X149089711Y-103621789D01*
X149220814Y-103709390D01*
X149220827Y-103709397D01*
X149336919Y-103757483D01*
X149366503Y-103769737D01*
X149521153Y-103800499D01*
X149521156Y-103800500D01*
X149521158Y-103800500D01*
X149678844Y-103800500D01*
X149678845Y-103800499D01*
X149833497Y-103769737D01*
X149979179Y-103709394D01*
X150110289Y-103621789D01*
X150221789Y-103510289D01*
X150309394Y-103379179D01*
X150369737Y-103233497D01*
X150400500Y-103078842D01*
X150400500Y-102921158D01*
X150400500Y-102921155D01*
X150400499Y-102921153D01*
X150369738Y-102766510D01*
X150369737Y-102766503D01*
X150356346Y-102734174D01*
X150309397Y-102620827D01*
X150309390Y-102620814D01*
X150221789Y-102489711D01*
X150221786Y-102489707D01*
X150110292Y-102378213D01*
X150110288Y-102378210D01*
X149979185Y-102290609D01*
X149979172Y-102290602D01*
X149833501Y-102230264D01*
X149833489Y-102230261D01*
X149678845Y-102199500D01*
X149678842Y-102199500D01*
X149521158Y-102199500D01*
X149521155Y-102199500D01*
X149366510Y-102230261D01*
X149366498Y-102230264D01*
X149220827Y-102290602D01*
X149220814Y-102290609D01*
X149089711Y-102378210D01*
X149089707Y-102378213D01*
X148978213Y-102489707D01*
X148978210Y-102489711D01*
X148890609Y-102620814D01*
X148890602Y-102620827D01*
X148830264Y-102766498D01*
X148830261Y-102766510D01*
X148799500Y-102921153D01*
X145624897Y-102921153D01*
X145579185Y-102890609D01*
X145579172Y-102890602D01*
X145427870Y-102827932D01*
X145428525Y-102826349D01*
X145376919Y-102792519D01*
X145348472Y-102728702D01*
X145356804Y-102664719D01*
X145369737Y-102633497D01*
X145400500Y-102478842D01*
X145400500Y-102321158D01*
X145395038Y-102293700D01*
X145401264Y-102224110D01*
X145444126Y-102168932D01*
X145469203Y-102154947D01*
X145480925Y-102150092D01*
X145500342Y-102142048D01*
X145579173Y-102109397D01*
X145579176Y-102109395D01*
X145579179Y-102109394D01*
X145710289Y-102021789D01*
X145821789Y-101910289D01*
X145909394Y-101779179D01*
X145969737Y-101633497D01*
X146000500Y-101478842D01*
X146000500Y-101321158D01*
X146000500Y-101321155D01*
X146000499Y-101321153D01*
X145996136Y-101299219D01*
X145969737Y-101166503D01*
X145939587Y-101093713D01*
X145909397Y-101020827D01*
X145909390Y-101020814D01*
X145821789Y-100889711D01*
X145821786Y-100889707D01*
X145710292Y-100778213D01*
X145710288Y-100778210D01*
X145589720Y-100697648D01*
X152499500Y-100697648D01*
X152499500Y-100902351D01*
X152531522Y-101104534D01*
X152594781Y-101299223D01*
X152687715Y-101481613D01*
X152808028Y-101647213D01*
X152952786Y-101791971D01*
X153091238Y-101892560D01*
X153118390Y-101912287D01*
X153234607Y-101971503D01*
X153300776Y-102005218D01*
X153300778Y-102005218D01*
X153300781Y-102005220D01*
X153402535Y-102038282D01*
X153495465Y-102068477D01*
X153566867Y-102079786D01*
X153697648Y-102100500D01*
X153697649Y-102100500D01*
X153902351Y-102100500D01*
X153902352Y-102100500D01*
X154104534Y-102068477D01*
X154299219Y-102005220D01*
X154481610Y-101912287D01*
X154495583Y-101902135D01*
X163039500Y-101902135D01*
X163039500Y-103697870D01*
X163039501Y-103697876D01*
X163045908Y-103757483D01*
X163096202Y-103892328D01*
X163096206Y-103892335D01*
X163182452Y-104007544D01*
X163182455Y-104007547D01*
X163297664Y-104093793D01*
X163297671Y-104093797D01*
X163432517Y-104144091D01*
X163432516Y-104144091D01*
X163439444Y-104144835D01*
X163492127Y-104150500D01*
X165287872Y-104150499D01*
X165347483Y-104144091D01*
X165482331Y-104093796D01*
X165597546Y-104007546D01*
X165683796Y-103892331D01*
X165732810Y-103760916D01*
X165774681Y-103704984D01*
X165840145Y-103680566D01*
X165908418Y-103695417D01*
X165936673Y-103716569D01*
X166050213Y-103830109D01*
X166222179Y-103955048D01*
X166222181Y-103955049D01*
X166222184Y-103955051D01*
X166411588Y-104051557D01*
X166613757Y-104117246D01*
X166823713Y-104150500D01*
X166823714Y-104150500D01*
X167036286Y-104150500D01*
X167036287Y-104150500D01*
X167246243Y-104117246D01*
X167448412Y-104051557D01*
X167637816Y-103955051D01*
X167724138Y-103892335D01*
X167809786Y-103830109D01*
X167809788Y-103830106D01*
X167809792Y-103830104D01*
X167960104Y-103679792D01*
X167960106Y-103679788D01*
X167960109Y-103679786D01*
X168045890Y-103561717D01*
X168085051Y-103507816D01*
X168089793Y-103498508D01*
X168137763Y-103447711D01*
X168205583Y-103430911D01*
X168271719Y-103453445D01*
X168310763Y-103498500D01*
X168315373Y-103507547D01*
X168354728Y-103561716D01*
X168987037Y-102929408D01*
X169004075Y-102992993D01*
X169069901Y-103107007D01*
X169162993Y-103200099D01*
X169277007Y-103265925D01*
X169340590Y-103282962D01*
X168708282Y-103915269D01*
X168708282Y-103915270D01*
X168762449Y-103954624D01*
X168951782Y-104051095D01*
X169153870Y-104116757D01*
X169363754Y-104150000D01*
X169576246Y-104150000D01*
X169786127Y-104116757D01*
X169786130Y-104116757D01*
X169988217Y-104051095D01*
X170177554Y-103954622D01*
X170231716Y-103915270D01*
X170231717Y-103915270D01*
X169599408Y-103282962D01*
X169662993Y-103265925D01*
X169777007Y-103200099D01*
X169870099Y-103107007D01*
X169935925Y-102992993D01*
X169952962Y-102929408D01*
X170585270Y-103561717D01*
X170585270Y-103561716D01*
X170624622Y-103507554D01*
X170629514Y-103497954D01*
X170677488Y-103447157D01*
X170745308Y-103430361D01*
X170811444Y-103452897D01*
X170850486Y-103497954D01*
X170855375Y-103507550D01*
X170894728Y-103561716D01*
X171527037Y-102929408D01*
X171544075Y-102992993D01*
X171609901Y-103107007D01*
X171702993Y-103200099D01*
X171817007Y-103265925D01*
X171880590Y-103282962D01*
X171248282Y-103915269D01*
X171248282Y-103915270D01*
X171302449Y-103954624D01*
X171491782Y-104051095D01*
X171693870Y-104116757D01*
X171903754Y-104150000D01*
X172116246Y-104150000D01*
X172326127Y-104116757D01*
X172326130Y-104116757D01*
X172528217Y-104051095D01*
X172717554Y-103954622D01*
X172771716Y-103915270D01*
X172771717Y-103915270D01*
X172139408Y-103282962D01*
X172202993Y-103265925D01*
X172317007Y-103200099D01*
X172410099Y-103107007D01*
X172475925Y-102992993D01*
X172492962Y-102929408D01*
X173125270Y-103561717D01*
X173125270Y-103561716D01*
X173129428Y-103555995D01*
X173164622Y-103507554D01*
X173261095Y-103318217D01*
X173326757Y-103116130D01*
X173326757Y-103116127D01*
X173360000Y-102906246D01*
X173360000Y-102693753D01*
X173326757Y-102483872D01*
X173326757Y-102483869D01*
X173261095Y-102281782D01*
X173164624Y-102092449D01*
X173125270Y-102038282D01*
X173125269Y-102038282D01*
X172492962Y-102670590D01*
X172475925Y-102607007D01*
X172410099Y-102492993D01*
X172317007Y-102399901D01*
X172202993Y-102334075D01*
X172139409Y-102317037D01*
X172771716Y-101684728D01*
X172717550Y-101645375D01*
X172528217Y-101548904D01*
X172326129Y-101483242D01*
X172116246Y-101450000D01*
X171903754Y-101450000D01*
X171693872Y-101483242D01*
X171693869Y-101483242D01*
X171491782Y-101548904D01*
X171302439Y-101645380D01*
X171248282Y-101684727D01*
X171248282Y-101684728D01*
X171880591Y-102317037D01*
X171817007Y-102334075D01*
X171702993Y-102399901D01*
X171609901Y-102492993D01*
X171544075Y-102607007D01*
X171527037Y-102670591D01*
X170894728Y-102038282D01*
X170894727Y-102038282D01*
X170855380Y-102092440D01*
X170850483Y-102102051D01*
X170802506Y-102152845D01*
X170734684Y-102169638D01*
X170668550Y-102147098D01*
X170629516Y-102102048D01*
X170624626Y-102092452D01*
X170585270Y-102038282D01*
X170585269Y-102038282D01*
X169952962Y-102670590D01*
X169935925Y-102607007D01*
X169870099Y-102492993D01*
X169777007Y-102399901D01*
X169662993Y-102334075D01*
X169599409Y-102317037D01*
X170231716Y-101684728D01*
X170177550Y-101645375D01*
X169988217Y-101548904D01*
X169786129Y-101483242D01*
X169576246Y-101450000D01*
X169363754Y-101450000D01*
X169153872Y-101483242D01*
X169153869Y-101483242D01*
X168951782Y-101548904D01*
X168762439Y-101645380D01*
X168708282Y-101684727D01*
X168708282Y-101684728D01*
X169340591Y-102317037D01*
X169277007Y-102334075D01*
X169162993Y-102399901D01*
X169069901Y-102492993D01*
X169004075Y-102607007D01*
X168987037Y-102670591D01*
X168354728Y-102038282D01*
X168354727Y-102038282D01*
X168315380Y-102092440D01*
X168315376Y-102092446D01*
X168310760Y-102101505D01*
X168262781Y-102152297D01*
X168194959Y-102169087D01*
X168128826Y-102146543D01*
X168089794Y-102101493D01*
X168085051Y-102092184D01*
X168085049Y-102092181D01*
X168085048Y-102092179D01*
X167960109Y-101920213D01*
X167809786Y-101769890D01*
X167637820Y-101644951D01*
X167448414Y-101548444D01*
X167448413Y-101548443D01*
X167448412Y-101548443D01*
X167246243Y-101482754D01*
X167246241Y-101482753D01*
X167246240Y-101482753D01*
X167084957Y-101457208D01*
X167036287Y-101449500D01*
X166823713Y-101449500D01*
X166775042Y-101457208D01*
X166613760Y-101482753D01*
X166411585Y-101548444D01*
X166222179Y-101644951D01*
X166050215Y-101769889D01*
X165936673Y-101883431D01*
X165875350Y-101916915D01*
X165805658Y-101911931D01*
X165749725Y-101870059D01*
X165732810Y-101839082D01*
X165683797Y-101707671D01*
X165683793Y-101707664D01*
X165597547Y-101592455D01*
X165597544Y-101592452D01*
X165482335Y-101506206D01*
X165482328Y-101506202D01*
X165347482Y-101455908D01*
X165347483Y-101455908D01*
X165287883Y-101449501D01*
X165287881Y-101449500D01*
X165287873Y-101449500D01*
X165287864Y-101449500D01*
X163492129Y-101449500D01*
X163492123Y-101449501D01*
X163432516Y-101455908D01*
X163297671Y-101506202D01*
X163297664Y-101506206D01*
X163182455Y-101592452D01*
X163182452Y-101592455D01*
X163096206Y-101707664D01*
X163096202Y-101707671D01*
X163045908Y-101842517D01*
X163039501Y-101902116D01*
X163039500Y-101902135D01*
X154495583Y-101902135D01*
X154647219Y-101791966D01*
X154791966Y-101647219D01*
X154791968Y-101647215D01*
X154791971Y-101647213D01*
X154848259Y-101569738D01*
X154912287Y-101481610D01*
X155005220Y-101299219D01*
X155068477Y-101104534D01*
X155100500Y-100902352D01*
X155100500Y-100697648D01*
X155089827Y-100630261D01*
X155068477Y-100495465D01*
X155039127Y-100405137D01*
X155005220Y-100300781D01*
X155005218Y-100300778D01*
X155005218Y-100300776D01*
X154962146Y-100216244D01*
X154912287Y-100118390D01*
X154892098Y-100090602D01*
X154791971Y-99952786D01*
X154647213Y-99808028D01*
X154481613Y-99687715D01*
X154481612Y-99687714D01*
X154481610Y-99687713D01*
X154424653Y-99658691D01*
X154299223Y-99594781D01*
X154104534Y-99531522D01*
X153929995Y-99503878D01*
X153902352Y-99499500D01*
X153697648Y-99499500D01*
X153673329Y-99503351D01*
X153495465Y-99531522D01*
X153300776Y-99594781D01*
X153118386Y-99687715D01*
X152952786Y-99808028D01*
X152808028Y-99952786D01*
X152687715Y-100118386D01*
X152594781Y-100300776D01*
X152531522Y-100495465D01*
X152499500Y-100697648D01*
X145589720Y-100697648D01*
X145579185Y-100690609D01*
X145579172Y-100690602D01*
X145433501Y-100630264D01*
X145433489Y-100630261D01*
X145278845Y-100599500D01*
X145278842Y-100599500D01*
X145121158Y-100599500D01*
X145121155Y-100599500D01*
X144966510Y-100630261D01*
X144966498Y-100630264D01*
X144820827Y-100690602D01*
X144820814Y-100690609D01*
X144689711Y-100778210D01*
X144689707Y-100778213D01*
X144578213Y-100889707D01*
X144578210Y-100889711D01*
X144490609Y-101020814D01*
X144490602Y-101020827D01*
X144430264Y-101166498D01*
X144430261Y-101166510D01*
X144399500Y-101321153D01*
X144399500Y-101321158D01*
X144399500Y-101478842D01*
X144404942Y-101506202D01*
X144404962Y-101506301D01*
X144398733Y-101575892D01*
X144355870Y-101631069D01*
X144330797Y-101645052D01*
X144220824Y-101690604D01*
X144220814Y-101690609D01*
X144089711Y-101778210D01*
X144089707Y-101778213D01*
X143978213Y-101889707D01*
X143978210Y-101889711D01*
X143890609Y-102020814D01*
X143890602Y-102020827D01*
X143830264Y-102166498D01*
X143830262Y-102166507D01*
X143826829Y-102183765D01*
X143794443Y-102245675D01*
X143733727Y-102280249D01*
X143663958Y-102276508D01*
X143636321Y-102262674D01*
X143604185Y-102241201D01*
X143604172Y-102241194D01*
X143458501Y-102180856D01*
X143458489Y-102180853D01*
X143303845Y-102150092D01*
X143303842Y-102150092D01*
X143146158Y-102150092D01*
X143146155Y-102150092D01*
X142991510Y-102180853D01*
X142991498Y-102180856D01*
X142845827Y-102241194D01*
X142845814Y-102241201D01*
X142714711Y-102328802D01*
X142714707Y-102328805D01*
X142603213Y-102440299D01*
X142603210Y-102440303D01*
X142515609Y-102571406D01*
X142515602Y-102571419D01*
X142455264Y-102717090D01*
X142455261Y-102717102D01*
X142424500Y-102871745D01*
X122500500Y-102871745D01*
X122500500Y-101560000D01*
X123891759Y-101560000D01*
X123935357Y-101665254D01*
X123935362Y-101665264D01*
X124017436Y-101788096D01*
X124017439Y-101788100D01*
X124121899Y-101892560D01*
X124121907Y-101892566D01*
X124244739Y-101974640D01*
X124244743Y-101974642D01*
X124349999Y-102018240D01*
X124350000Y-102018240D01*
X124850000Y-102018240D01*
X124955256Y-101974642D01*
X124955260Y-101974640D01*
X125078092Y-101892566D01*
X125078100Y-101892560D01*
X125182560Y-101788100D01*
X125182563Y-101788096D01*
X125264637Y-101665264D01*
X125264642Y-101665254D01*
X125308241Y-101560000D01*
X125891759Y-101560000D01*
X125935357Y-101665254D01*
X125935362Y-101665264D01*
X126017436Y-101788096D01*
X126017439Y-101788100D01*
X126121899Y-101892560D01*
X126121907Y-101892566D01*
X126244739Y-101974640D01*
X126244743Y-101974642D01*
X126349999Y-102018240D01*
X126350000Y-102018240D01*
X126850000Y-102018240D01*
X126955256Y-101974642D01*
X126955260Y-101974640D01*
X127078092Y-101892566D01*
X127078100Y-101892560D01*
X127182560Y-101788100D01*
X127182563Y-101788096D01*
X127264637Y-101665264D01*
X127264642Y-101665254D01*
X127308241Y-101560000D01*
X126850000Y-101560000D01*
X126850000Y-102018240D01*
X126350000Y-102018240D01*
X126350000Y-101560000D01*
X125891759Y-101560000D01*
X125308241Y-101560000D01*
X124850000Y-101560000D01*
X124850000Y-102018240D01*
X124350000Y-102018240D01*
X124350000Y-101560000D01*
X123891759Y-101560000D01*
X122500500Y-101560000D01*
X122500500Y-101280163D01*
X124450000Y-101280163D01*
X124450000Y-101339837D01*
X124472836Y-101394968D01*
X124515032Y-101437164D01*
X124570163Y-101460000D01*
X124629837Y-101460000D01*
X124684968Y-101437164D01*
X124727164Y-101394968D01*
X124750000Y-101339837D01*
X124750000Y-101280163D01*
X126450000Y-101280163D01*
X126450000Y-101339837D01*
X126472836Y-101394968D01*
X126515032Y-101437164D01*
X126570163Y-101460000D01*
X126629837Y-101460000D01*
X126684968Y-101437164D01*
X126727164Y-101394968D01*
X126750000Y-101339837D01*
X126750000Y-101280163D01*
X126727164Y-101225032D01*
X126684968Y-101182836D01*
X126629837Y-101160000D01*
X126570163Y-101160000D01*
X126515032Y-101182836D01*
X126472836Y-101225032D01*
X126450000Y-101280163D01*
X124750000Y-101280163D01*
X124727164Y-101225032D01*
X124684968Y-101182836D01*
X124629837Y-101160000D01*
X124570163Y-101160000D01*
X124515032Y-101182836D01*
X124472836Y-101225032D01*
X124450000Y-101280163D01*
X122500500Y-101280163D01*
X122500500Y-101059999D01*
X123891759Y-101059999D01*
X123891759Y-101060000D01*
X124350000Y-101060000D01*
X124850000Y-101060000D01*
X125308241Y-101060000D01*
X125308240Y-101059999D01*
X125891759Y-101059999D01*
X125891759Y-101060000D01*
X126350000Y-101060000D01*
X126850000Y-101060000D01*
X127308241Y-101060000D01*
X127308240Y-101059999D01*
X127264642Y-100954745D01*
X127264637Y-100954735D01*
X127182563Y-100831903D01*
X127182560Y-100831899D01*
X127078100Y-100727439D01*
X127078096Y-100727436D01*
X126955264Y-100645362D01*
X126955254Y-100645357D01*
X126850000Y-100601759D01*
X126850000Y-101060000D01*
X126350000Y-101060000D01*
X126350000Y-100601759D01*
X126349999Y-100601759D01*
X126244745Y-100645357D01*
X126244735Y-100645362D01*
X126121903Y-100727436D01*
X126121899Y-100727439D01*
X126017439Y-100831899D01*
X126017436Y-100831903D01*
X125935362Y-100954735D01*
X125935357Y-100954745D01*
X125891759Y-101059999D01*
X125308240Y-101059999D01*
X125264642Y-100954745D01*
X125264637Y-100954735D01*
X125182563Y-100831903D01*
X125182560Y-100831899D01*
X125078100Y-100727439D01*
X125078096Y-100727436D01*
X124955264Y-100645362D01*
X124955254Y-100645357D01*
X124850000Y-100601759D01*
X124850000Y-101060000D01*
X124350000Y-101060000D01*
X124350000Y-100601759D01*
X124349999Y-100601759D01*
X124244745Y-100645357D01*
X124244735Y-100645362D01*
X124121903Y-100727436D01*
X124121899Y-100727439D01*
X124017439Y-100831899D01*
X124017436Y-100831903D01*
X123935362Y-100954735D01*
X123935357Y-100954745D01*
X123891759Y-101059999D01*
X122500500Y-101059999D01*
X122500500Y-98730000D01*
X123695261Y-98730000D01*
X124770272Y-98730000D01*
X124678386Y-98768060D01*
X124608060Y-98838386D01*
X124570000Y-98930272D01*
X124570000Y-99029728D01*
X124608060Y-99121614D01*
X124678386Y-99191940D01*
X124770272Y-99230000D01*
X123695261Y-99230000D01*
X123698315Y-99249285D01*
X123698318Y-99249295D01*
X123754250Y-99421441D01*
X123754252Y-99421447D01*
X123836434Y-99582734D01*
X123942823Y-99729169D01*
X124070830Y-99857176D01*
X124217265Y-99963565D01*
X124378552Y-100045747D01*
X124378555Y-100045748D01*
X124550706Y-100101682D01*
X124729494Y-100130000D01*
X124970000Y-100130000D01*
X124970000Y-99230000D01*
X125470000Y-99230000D01*
X125470000Y-100130000D01*
X125710506Y-100130000D01*
X125889293Y-100101682D01*
X126061444Y-100045748D01*
X126061447Y-100045747D01*
X126222734Y-99963565D01*
X126369169Y-99857176D01*
X126497176Y-99729169D01*
X126603565Y-99582734D01*
X126685747Y-99421447D01*
X126685749Y-99421441D01*
X126741681Y-99249295D01*
X126741684Y-99249285D01*
X126744739Y-99230000D01*
X125669728Y-99230000D01*
X125761614Y-99191940D01*
X125831940Y-99121614D01*
X125870000Y-99029728D01*
X125870000Y-98930272D01*
X125831940Y-98838386D01*
X125761614Y-98768060D01*
X125669728Y-98730000D01*
X126744739Y-98730000D01*
X127795261Y-98730000D01*
X128820272Y-98730000D01*
X128728386Y-98768060D01*
X128658060Y-98838386D01*
X128620000Y-98930272D01*
X128620000Y-99029728D01*
X128658060Y-99121614D01*
X128728386Y-99191940D01*
X128820272Y-99230000D01*
X127795261Y-99230000D01*
X127798315Y-99249285D01*
X127798318Y-99249295D01*
X127854250Y-99421441D01*
X127854252Y-99421447D01*
X127936434Y-99582734D01*
X128042823Y-99729169D01*
X128170830Y-99857176D01*
X128317265Y-99963565D01*
X128363563Y-99987156D01*
X128414359Y-100035131D01*
X128431154Y-100102952D01*
X128414656Y-100159640D01*
X128387017Y-100207512D01*
X128387016Y-100207514D01*
X128387016Y-100207515D01*
X128349500Y-100347525D01*
X128349500Y-100492475D01*
X128369335Y-100566498D01*
X128387017Y-100632488D01*
X128459488Y-100758011D01*
X128459490Y-100758013D01*
X128459491Y-100758015D01*
X128561985Y-100860509D01*
X128561986Y-100860510D01*
X128561988Y-100860511D01*
X128687511Y-100932982D01*
X128687512Y-100932982D01*
X128687515Y-100932984D01*
X128827525Y-100970500D01*
X128827528Y-100970500D01*
X128972472Y-100970500D01*
X128972475Y-100970500D01*
X129112485Y-100932984D01*
X129238015Y-100860509D01*
X129340509Y-100758015D01*
X129361791Y-100721153D01*
X137799500Y-100721153D01*
X137799500Y-100878846D01*
X137830261Y-101033489D01*
X137830264Y-101033501D01*
X137890602Y-101179172D01*
X137890609Y-101179185D01*
X137978210Y-101310288D01*
X137978213Y-101310292D01*
X138089707Y-101421786D01*
X138089711Y-101421789D01*
X138220814Y-101509390D01*
X138220827Y-101509397D01*
X138366498Y-101569735D01*
X138366503Y-101569737D01*
X138521153Y-101600499D01*
X138521156Y-101600500D01*
X138521158Y-101600500D01*
X138678844Y-101600500D01*
X138678845Y-101600499D01*
X138833497Y-101569737D01*
X138979179Y-101509394D01*
X139110289Y-101421789D01*
X139221789Y-101310289D01*
X139309394Y-101179179D01*
X139369737Y-101033497D01*
X139400500Y-100878842D01*
X139400500Y-100721158D01*
X139400500Y-100721155D01*
X139400499Y-100721153D01*
X139369737Y-100566503D01*
X139340313Y-100495466D01*
X139309397Y-100420827D01*
X139309390Y-100420814D01*
X139221789Y-100289711D01*
X139221786Y-100289707D01*
X139110292Y-100178213D01*
X139110288Y-100178210D01*
X138979185Y-100090609D01*
X138979172Y-100090602D01*
X138833501Y-100030264D01*
X138833489Y-100030261D01*
X138678845Y-99999500D01*
X138678842Y-99999500D01*
X138521158Y-99999500D01*
X138521155Y-99999500D01*
X138366510Y-100030261D01*
X138366498Y-100030264D01*
X138220827Y-100090602D01*
X138220814Y-100090609D01*
X138089711Y-100178210D01*
X138089707Y-100178213D01*
X137978213Y-100289707D01*
X137978210Y-100289711D01*
X137890609Y-100420814D01*
X137890602Y-100420827D01*
X137830264Y-100566498D01*
X137830261Y-100566510D01*
X137799500Y-100721153D01*
X129361791Y-100721153D01*
X129412984Y-100632485D01*
X129450500Y-100492475D01*
X129450500Y-100347525D01*
X129434039Y-100286092D01*
X129435702Y-100216244D01*
X129474864Y-100158381D01*
X129539093Y-100130877D01*
X129553814Y-100130000D01*
X130010506Y-100130000D01*
X130189293Y-100101682D01*
X130361444Y-100045748D01*
X130361447Y-100045747D01*
X130522734Y-99963565D01*
X130669169Y-99857176D01*
X130797176Y-99729169D01*
X130903565Y-99582734D01*
X130985747Y-99421447D01*
X130985749Y-99421441D01*
X131041681Y-99249295D01*
X131041684Y-99249285D01*
X131044739Y-99230000D01*
X130019728Y-99230000D01*
X130111614Y-99191940D01*
X130181940Y-99121614D01*
X130220000Y-99029728D01*
X130220000Y-98930272D01*
X130181940Y-98838386D01*
X130111614Y-98768060D01*
X130019728Y-98730000D01*
X131044739Y-98730000D01*
X131041684Y-98710714D01*
X131041681Y-98710704D01*
X130985749Y-98538558D01*
X130985745Y-98538547D01*
X130940154Y-98449072D01*
X130940153Y-98449071D01*
X130913951Y-98397648D01*
X133699500Y-98397648D01*
X133699500Y-98602351D01*
X133731522Y-98804534D01*
X133794781Y-98999223D01*
X133857143Y-99121614D01*
X133881663Y-99169737D01*
X133887715Y-99181613D01*
X134008028Y-99347213D01*
X134152786Y-99491971D01*
X134246820Y-99560289D01*
X134318390Y-99612287D01*
X134434607Y-99671503D01*
X134500776Y-99705218D01*
X134500778Y-99705218D01*
X134500781Y-99705220D01*
X134605137Y-99739127D01*
X134695465Y-99768477D01*
X134796557Y-99784488D01*
X134897648Y-99800500D01*
X134897649Y-99800500D01*
X135102351Y-99800500D01*
X135102352Y-99800500D01*
X135304534Y-99768477D01*
X135499219Y-99705220D01*
X135681610Y-99612287D01*
X135792773Y-99531523D01*
X135847213Y-99491971D01*
X135847215Y-99491968D01*
X135847219Y-99491966D01*
X135991966Y-99347219D01*
X135991968Y-99347215D01*
X135991971Y-99347213D01*
X136063111Y-99249295D01*
X136112287Y-99181610D01*
X136205220Y-98999219D01*
X136268477Y-98804534D01*
X136300500Y-98602352D01*
X136300500Y-98397648D01*
X136288384Y-98321153D01*
X140199500Y-98321153D01*
X140199500Y-98478846D01*
X140230261Y-98633489D01*
X140230264Y-98633501D01*
X140290602Y-98779172D01*
X140290609Y-98779185D01*
X140378210Y-98910288D01*
X140378213Y-98910292D01*
X140489707Y-99021786D01*
X140489711Y-99021789D01*
X140620814Y-99109390D01*
X140620827Y-99109397D01*
X140745214Y-99160919D01*
X140766503Y-99169737D01*
X140921153Y-99200499D01*
X140921156Y-99200500D01*
X140921158Y-99200500D01*
X141078844Y-99200500D01*
X141078845Y-99200499D01*
X141233497Y-99169737D01*
X141254786Y-99160918D01*
X141324251Y-99153448D01*
X141386731Y-99184721D01*
X141422385Y-99244809D01*
X141423855Y-99251286D01*
X141430261Y-99283492D01*
X141430264Y-99283501D01*
X141490602Y-99429172D01*
X141490609Y-99429185D01*
X141578210Y-99560288D01*
X141578213Y-99560292D01*
X141689707Y-99671786D01*
X141689711Y-99671789D01*
X141820814Y-99759390D01*
X141820827Y-99759397D01*
X141965969Y-99819516D01*
X141966503Y-99819737D01*
X142121153Y-99850499D01*
X142121156Y-99850500D01*
X142121158Y-99850500D01*
X142278844Y-99850500D01*
X142278845Y-99850499D01*
X142433497Y-99819737D01*
X142579179Y-99759394D01*
X142710289Y-99671789D01*
X142821789Y-99560289D01*
X142909394Y-99429179D01*
X142969737Y-99283497D01*
X143000500Y-99128842D01*
X143000500Y-98971158D01*
X143000500Y-98971155D01*
X143000499Y-98971153D01*
X142988392Y-98910288D01*
X142969737Y-98816503D01*
X142964779Y-98804534D01*
X142909397Y-98670827D01*
X142909390Y-98670814D01*
X142821789Y-98539711D01*
X142821786Y-98539707D01*
X142710292Y-98428213D01*
X142710288Y-98428210D01*
X142579185Y-98340609D01*
X142579172Y-98340602D01*
X142433501Y-98280264D01*
X142433489Y-98280261D01*
X142278845Y-98249500D01*
X142278842Y-98249500D01*
X142121158Y-98249500D01*
X142121155Y-98249500D01*
X141966510Y-98280261D01*
X141966503Y-98280263D01*
X141945212Y-98289082D01*
X141875743Y-98296550D01*
X141813264Y-98265274D01*
X141777612Y-98205185D01*
X141776144Y-98198711D01*
X141769738Y-98166510D01*
X141769737Y-98166503D01*
X141743360Y-98102823D01*
X141709397Y-98020827D01*
X141709390Y-98020814D01*
X141621789Y-97889711D01*
X141621786Y-97889707D01*
X141510292Y-97778213D01*
X141510288Y-97778210D01*
X141379185Y-97690609D01*
X141379172Y-97690602D01*
X141233501Y-97630264D01*
X141233489Y-97630261D01*
X141078845Y-97599500D01*
X141078842Y-97599500D01*
X140921158Y-97599500D01*
X140921155Y-97599500D01*
X140766510Y-97630261D01*
X140766498Y-97630264D01*
X140620827Y-97690602D01*
X140620814Y-97690609D01*
X140489711Y-97778210D01*
X140489707Y-97778213D01*
X140378213Y-97889707D01*
X140378210Y-97889711D01*
X140290609Y-98020814D01*
X140290602Y-98020827D01*
X140230264Y-98166498D01*
X140230261Y-98166510D01*
X140199500Y-98321153D01*
X136288384Y-98321153D01*
X136268477Y-98195466D01*
X136205220Y-98000781D01*
X136205218Y-98000778D01*
X136205218Y-98000776D01*
X136148625Y-97889707D01*
X136112287Y-97818390D01*
X136104556Y-97807749D01*
X135991971Y-97652786D01*
X135847213Y-97508028D01*
X135681613Y-97387715D01*
X135681612Y-97387714D01*
X135681610Y-97387713D01*
X135624653Y-97358691D01*
X135499223Y-97294781D01*
X135304534Y-97231522D01*
X135129995Y-97203878D01*
X135102352Y-97199500D01*
X134897648Y-97199500D01*
X134873329Y-97203351D01*
X134695465Y-97231522D01*
X134500776Y-97294781D01*
X134318386Y-97387715D01*
X134152786Y-97508028D01*
X134008028Y-97652786D01*
X133887715Y-97818386D01*
X133794781Y-98000776D01*
X133731522Y-98195465D01*
X133699500Y-98397648D01*
X130913951Y-98397648D01*
X130903565Y-98377265D01*
X130797176Y-98230830D01*
X130669169Y-98102823D01*
X130522734Y-97996434D01*
X130361447Y-97914252D01*
X130361444Y-97914251D01*
X130189293Y-97858317D01*
X130010506Y-97830000D01*
X129670000Y-97830000D01*
X129670000Y-98730000D01*
X129170000Y-98730000D01*
X129170000Y-97830000D01*
X128829494Y-97830000D01*
X128650706Y-97858317D01*
X128478555Y-97914251D01*
X128478552Y-97914252D01*
X128317265Y-97996434D01*
X128170830Y-98102823D01*
X128042823Y-98230830D01*
X127936434Y-98377265D01*
X127854252Y-98538552D01*
X127854250Y-98538558D01*
X127798318Y-98710704D01*
X127798315Y-98710714D01*
X127795261Y-98730000D01*
X126744739Y-98730000D01*
X126741684Y-98710714D01*
X126741681Y-98710704D01*
X126685749Y-98538558D01*
X126685747Y-98538552D01*
X126603565Y-98377265D01*
X126497176Y-98230830D01*
X126369169Y-98102823D01*
X126222734Y-97996434D01*
X126061447Y-97914252D01*
X126061444Y-97914251D01*
X125889293Y-97858317D01*
X125710506Y-97830000D01*
X125470000Y-97830000D01*
X125470000Y-98730000D01*
X124970000Y-98730000D01*
X124970000Y-97830000D01*
X124729494Y-97830000D01*
X124550706Y-97858317D01*
X124378555Y-97914251D01*
X124378552Y-97914252D01*
X124217265Y-97996434D01*
X124070830Y-98102823D01*
X123942823Y-98230830D01*
X123836434Y-98377265D01*
X123754252Y-98538552D01*
X123754250Y-98538558D01*
X123698318Y-98710704D01*
X123698315Y-98710714D01*
X123695261Y-98730000D01*
X122500500Y-98730000D01*
X122500500Y-89862135D01*
X123649500Y-89862135D01*
X123649500Y-91657870D01*
X123649501Y-91657876D01*
X123655908Y-91717483D01*
X123706202Y-91852328D01*
X123706206Y-91852335D01*
X123792452Y-91967544D01*
X123792455Y-91967547D01*
X123907664Y-92053793D01*
X123907671Y-92053797D01*
X124039082Y-92102810D01*
X124095016Y-92144681D01*
X124119433Y-92210145D01*
X124104582Y-92278418D01*
X124083431Y-92306673D01*
X123969889Y-92420215D01*
X123844951Y-92592179D01*
X123748444Y-92781585D01*
X123682753Y-92983760D01*
X123649500Y-93193713D01*
X123649500Y-93406286D01*
X123682753Y-93616239D01*
X123748444Y-93818414D01*
X123844951Y-94007820D01*
X123969890Y-94179786D01*
X124120213Y-94330109D01*
X124292179Y-94455048D01*
X124292181Y-94455049D01*
X124292184Y-94455051D01*
X124301493Y-94459794D01*
X124352290Y-94507766D01*
X124369087Y-94575587D01*
X124346552Y-94641722D01*
X124301505Y-94680760D01*
X124292446Y-94685376D01*
X124292440Y-94685380D01*
X124238282Y-94724727D01*
X124238282Y-94724728D01*
X124870591Y-95357037D01*
X124807007Y-95374075D01*
X124692993Y-95439901D01*
X124599901Y-95532993D01*
X124534075Y-95647007D01*
X124517037Y-95710591D01*
X123884728Y-95078282D01*
X123884727Y-95078282D01*
X123845380Y-95132439D01*
X123748904Y-95321782D01*
X123683242Y-95523869D01*
X123683242Y-95523872D01*
X123650000Y-95733753D01*
X123650000Y-95946246D01*
X123683242Y-96156127D01*
X123683242Y-96156130D01*
X123748904Y-96358217D01*
X123845375Y-96547550D01*
X123884728Y-96601716D01*
X124517037Y-95969408D01*
X124534075Y-96032993D01*
X124599901Y-96147007D01*
X124692993Y-96240099D01*
X124807007Y-96305925D01*
X124870590Y-96322962D01*
X124238282Y-96955269D01*
X124238282Y-96955270D01*
X124292449Y-96994624D01*
X124481782Y-97091095D01*
X124683870Y-97156757D01*
X124893754Y-97190000D01*
X125106246Y-97190000D01*
X125316127Y-97156757D01*
X125316130Y-97156757D01*
X125518217Y-97091095D01*
X125707554Y-96994622D01*
X125761716Y-96955270D01*
X125761717Y-96955270D01*
X125129408Y-96322962D01*
X125192993Y-96305925D01*
X125307007Y-96240099D01*
X125400099Y-96147007D01*
X125465925Y-96032993D01*
X125482962Y-95969408D01*
X126115270Y-96601717D01*
X126115270Y-96601716D01*
X126154622Y-96547554D01*
X126251095Y-96358217D01*
X126316757Y-96156130D01*
X126316757Y-96156127D01*
X126322297Y-96121153D01*
X134999500Y-96121153D01*
X134999500Y-96278846D01*
X135030261Y-96433489D01*
X135030264Y-96433501D01*
X135090602Y-96579172D01*
X135090609Y-96579185D01*
X135178210Y-96710288D01*
X135178213Y-96710292D01*
X135289707Y-96821786D01*
X135289711Y-96821789D01*
X135420814Y-96909390D01*
X135420827Y-96909397D01*
X135531576Y-96955270D01*
X135566503Y-96969737D01*
X135691618Y-96994624D01*
X135721153Y-97000499D01*
X135721156Y-97000500D01*
X135721158Y-97000500D01*
X135878844Y-97000500D01*
X135878845Y-97000499D01*
X136033497Y-96969737D01*
X136179179Y-96909394D01*
X136310289Y-96821789D01*
X136421789Y-96710289D01*
X136509394Y-96579179D01*
X136569737Y-96433497D01*
X136600500Y-96278842D01*
X136600500Y-96121158D01*
X136600500Y-96121155D01*
X136600499Y-96121153D01*
X136582963Y-96032993D01*
X136569737Y-95966503D01*
X136529134Y-95868477D01*
X136509397Y-95820827D01*
X136509390Y-95820814D01*
X136421789Y-95689711D01*
X136421786Y-95689707D01*
X136310292Y-95578213D01*
X136310288Y-95578210D01*
X136224897Y-95521153D01*
X137799500Y-95521153D01*
X137799500Y-95678846D01*
X137830261Y-95833489D01*
X137830264Y-95833501D01*
X137890602Y-95979172D01*
X137890609Y-95979185D01*
X137978210Y-96110288D01*
X137978213Y-96110292D01*
X138089707Y-96221786D01*
X138089711Y-96221789D01*
X138220814Y-96309390D01*
X138220827Y-96309397D01*
X138338691Y-96358217D01*
X138366503Y-96369737D01*
X138521153Y-96400499D01*
X138521156Y-96400500D01*
X138521158Y-96400500D01*
X138678844Y-96400500D01*
X138678845Y-96400499D01*
X138833497Y-96369737D01*
X138979179Y-96309394D01*
X139110289Y-96221789D01*
X139221789Y-96110289D01*
X139309394Y-95979179D01*
X139369737Y-95833497D01*
X139400500Y-95678842D01*
X139400500Y-95521158D01*
X139400500Y-95521155D01*
X139400499Y-95521153D01*
X139393595Y-95486446D01*
X139369737Y-95366503D01*
X139334575Y-95281613D01*
X139309397Y-95220827D01*
X139309390Y-95220814D01*
X139221789Y-95089711D01*
X139221786Y-95089707D01*
X139110292Y-94978213D01*
X139110288Y-94978210D01*
X138979185Y-94890609D01*
X138979172Y-94890602D01*
X138833501Y-94830264D01*
X138833489Y-94830261D01*
X138678845Y-94799500D01*
X138678842Y-94799500D01*
X138521158Y-94799500D01*
X138521155Y-94799500D01*
X138366510Y-94830261D01*
X138366498Y-94830264D01*
X138220827Y-94890602D01*
X138220814Y-94890609D01*
X138089711Y-94978210D01*
X138089707Y-94978213D01*
X137978213Y-95089707D01*
X137978210Y-95089711D01*
X137890609Y-95220814D01*
X137890602Y-95220827D01*
X137830264Y-95366498D01*
X137830261Y-95366510D01*
X137799500Y-95521153D01*
X136224897Y-95521153D01*
X136179185Y-95490609D01*
X136179172Y-95490602D01*
X136033501Y-95430264D01*
X136033489Y-95430261D01*
X135878845Y-95399500D01*
X135878842Y-95399500D01*
X135721158Y-95399500D01*
X135721155Y-95399500D01*
X135566510Y-95430261D01*
X135566498Y-95430264D01*
X135420827Y-95490602D01*
X135420814Y-95490609D01*
X135289711Y-95578210D01*
X135289707Y-95578213D01*
X135178213Y-95689707D01*
X135178210Y-95689711D01*
X135090609Y-95820814D01*
X135090602Y-95820827D01*
X135030264Y-95966498D01*
X135030261Y-95966510D01*
X134999500Y-96121153D01*
X126322297Y-96121153D01*
X126326334Y-96095668D01*
X126350000Y-95946246D01*
X126350000Y-95733753D01*
X126316757Y-95523872D01*
X126316757Y-95523869D01*
X126251095Y-95321782D01*
X126154624Y-95132449D01*
X126115270Y-95078282D01*
X126115269Y-95078282D01*
X125482962Y-95710590D01*
X125465925Y-95647007D01*
X125400099Y-95532993D01*
X125307007Y-95439901D01*
X125192993Y-95374075D01*
X125129409Y-95357037D01*
X125761716Y-94724728D01*
X125707547Y-94685373D01*
X125707547Y-94685372D01*
X125698500Y-94680763D01*
X125695427Y-94677860D01*
X125691333Y-94676808D01*
X125670244Y-94654075D01*
X125647706Y-94632788D01*
X125646690Y-94628685D01*
X125643814Y-94625585D01*
X125638363Y-94595059D01*
X125630912Y-94564966D01*
X125632275Y-94560963D01*
X125631533Y-94556803D01*
X125643447Y-94528185D01*
X125653451Y-94498832D01*
X125654645Y-94497648D01*
X149099500Y-94497648D01*
X149099500Y-94702351D01*
X149131522Y-94904534D01*
X149194781Y-95099223D01*
X149287715Y-95281613D01*
X149408028Y-95447213D01*
X149552786Y-95591971D01*
X149707749Y-95704556D01*
X149718390Y-95712287D01*
X149834607Y-95771503D01*
X149900776Y-95805218D01*
X149900778Y-95805218D01*
X149900781Y-95805220D01*
X149987784Y-95833489D01*
X150095465Y-95868477D01*
X150196557Y-95884488D01*
X150297648Y-95900500D01*
X150297649Y-95900500D01*
X150502351Y-95900500D01*
X150502352Y-95900500D01*
X150704534Y-95868477D01*
X150899219Y-95805220D01*
X151081610Y-95712287D01*
X151174590Y-95644732D01*
X151247213Y-95591971D01*
X151247215Y-95591968D01*
X151247219Y-95591966D01*
X151391966Y-95447219D01*
X151391968Y-95447215D01*
X151391971Y-95447213D01*
X151512284Y-95281614D01*
X151512285Y-95281613D01*
X151512287Y-95281610D01*
X151542591Y-95222135D01*
X177849500Y-95222135D01*
X177849500Y-97017870D01*
X177849501Y-97017876D01*
X177855908Y-97077483D01*
X177906202Y-97212328D01*
X177906206Y-97212335D01*
X177992452Y-97327544D01*
X177992455Y-97327547D01*
X178107664Y-97413793D01*
X178107671Y-97413797D01*
X178239082Y-97462810D01*
X178295016Y-97504681D01*
X178319433Y-97570145D01*
X178304582Y-97638418D01*
X178283431Y-97666673D01*
X178169889Y-97780215D01*
X178044951Y-97952179D01*
X177948444Y-98141585D01*
X177882753Y-98343760D01*
X177861358Y-98478842D01*
X177849500Y-98553713D01*
X177849500Y-98766287D01*
X177857455Y-98816510D01*
X177881948Y-98971158D01*
X177882754Y-98976243D01*
X177945624Y-99169737D01*
X177948444Y-99178414D01*
X178044951Y-99367820D01*
X178169890Y-99539786D01*
X178320213Y-99690109D01*
X178492182Y-99815050D01*
X178500946Y-99819516D01*
X178551742Y-99867491D01*
X178568536Y-99935312D01*
X178545998Y-100001447D01*
X178500946Y-100040484D01*
X178492182Y-100044949D01*
X178320213Y-100169890D01*
X178169890Y-100320213D01*
X178044951Y-100492179D01*
X177948444Y-100681585D01*
X177948443Y-100681587D01*
X177948443Y-100681588D01*
X177935587Y-100721155D01*
X177882753Y-100883760D01*
X177849500Y-101093713D01*
X177849500Y-101306286D01*
X177881669Y-101509397D01*
X177882754Y-101516243D01*
X177944952Y-101707669D01*
X177948444Y-101718414D01*
X178044951Y-101907820D01*
X178169890Y-102079786D01*
X178320213Y-102230109D01*
X178492179Y-102355048D01*
X178492181Y-102355049D01*
X178492184Y-102355051D01*
X178501493Y-102359794D01*
X178552290Y-102407766D01*
X178569087Y-102475587D01*
X178546552Y-102541722D01*
X178501505Y-102580760D01*
X178492446Y-102585376D01*
X178492440Y-102585380D01*
X178438282Y-102624727D01*
X178438282Y-102624728D01*
X179070591Y-103257037D01*
X179007007Y-103274075D01*
X178892993Y-103339901D01*
X178799901Y-103432993D01*
X178734075Y-103547007D01*
X178717037Y-103610591D01*
X178084728Y-102978282D01*
X178084727Y-102978282D01*
X178045380Y-103032439D01*
X177948904Y-103221782D01*
X177883242Y-103423869D01*
X177883242Y-103423872D01*
X177850000Y-103633753D01*
X177850000Y-103846246D01*
X177883242Y-104056127D01*
X177883242Y-104056130D01*
X177948904Y-104258217D01*
X178045375Y-104447550D01*
X178084728Y-104501716D01*
X178717037Y-103869408D01*
X178734075Y-103932993D01*
X178799901Y-104047007D01*
X178892993Y-104140099D01*
X179007007Y-104205925D01*
X179070590Y-104222962D01*
X178438282Y-104855269D01*
X178438282Y-104855270D01*
X178492449Y-104894624D01*
X178681782Y-104991095D01*
X178883870Y-105056757D01*
X179093754Y-105090000D01*
X179306246Y-105090000D01*
X179516127Y-105056757D01*
X179516130Y-105056757D01*
X179718217Y-104991095D01*
X179907554Y-104894622D01*
X179961716Y-104855270D01*
X179961717Y-104855270D01*
X179329408Y-104222962D01*
X179392993Y-104205925D01*
X179507007Y-104140099D01*
X179600099Y-104047007D01*
X179665925Y-103932993D01*
X179682962Y-103869408D01*
X180315270Y-104501717D01*
X180315270Y-104501716D01*
X180354622Y-104447554D01*
X180451095Y-104258217D01*
X180516757Y-104056130D01*
X180516757Y-104056127D01*
X180550000Y-103846246D01*
X180550000Y-103633753D01*
X180516757Y-103423872D01*
X180516757Y-103423869D01*
X180451095Y-103221782D01*
X180354624Y-103032449D01*
X180315270Y-102978282D01*
X180315269Y-102978282D01*
X179682962Y-103610590D01*
X179665925Y-103547007D01*
X179600099Y-103432993D01*
X179507007Y-103339901D01*
X179392993Y-103274075D01*
X179329409Y-103257037D01*
X179961716Y-102624728D01*
X179907547Y-102585373D01*
X179907547Y-102585372D01*
X179898500Y-102580763D01*
X179847706Y-102532788D01*
X179830912Y-102464966D01*
X179853451Y-102398832D01*
X179898508Y-102359793D01*
X179907816Y-102355051D01*
X179992256Y-102293702D01*
X180079786Y-102230109D01*
X180079788Y-102230106D01*
X180079792Y-102230104D01*
X180230104Y-102079792D01*
X180230106Y-102079788D01*
X180230109Y-102079786D01*
X180355048Y-101907820D01*
X180355047Y-101907820D01*
X180355051Y-101907816D01*
X180451557Y-101718412D01*
X180517246Y-101516243D01*
X180550500Y-101306287D01*
X180550500Y-101093713D01*
X180517246Y-100883757D01*
X180451557Y-100681588D01*
X180355051Y-100492184D01*
X180355049Y-100492181D01*
X180355048Y-100492179D01*
X180230109Y-100320213D01*
X180079786Y-100169890D01*
X179907820Y-100044951D01*
X179907115Y-100044591D01*
X179899054Y-100040485D01*
X179848259Y-99992512D01*
X179831463Y-99924692D01*
X179853999Y-99858556D01*
X179899054Y-99819515D01*
X179907816Y-99815051D01*
X179984422Y-99759394D01*
X180079786Y-99690109D01*
X180079788Y-99690106D01*
X180079792Y-99690104D01*
X180230104Y-99539792D01*
X180230106Y-99539788D01*
X180230109Y-99539786D01*
X180355048Y-99367820D01*
X180355047Y-99367820D01*
X180355051Y-99367816D01*
X180451557Y-99178412D01*
X180517246Y-98976243D01*
X180550500Y-98766287D01*
X180550500Y-98553713D01*
X180517246Y-98343757D01*
X180451557Y-98141588D01*
X180355051Y-97952184D01*
X180355049Y-97952181D01*
X180355048Y-97952179D01*
X180230109Y-97780213D01*
X180116569Y-97666673D01*
X180083084Y-97605350D01*
X180088068Y-97535658D01*
X180129940Y-97479725D01*
X180160915Y-97462810D01*
X180292331Y-97413796D01*
X180407546Y-97327546D01*
X180493796Y-97212331D01*
X180544091Y-97077483D01*
X180550500Y-97017873D01*
X180550499Y-95222128D01*
X180544091Y-95162517D01*
X180532876Y-95132449D01*
X180493797Y-95027671D01*
X180493793Y-95027664D01*
X180407547Y-94912455D01*
X180407544Y-94912452D01*
X180292335Y-94826206D01*
X180292328Y-94826202D01*
X180157482Y-94775908D01*
X180157483Y-94775908D01*
X180097883Y-94769501D01*
X180097881Y-94769500D01*
X180097873Y-94769500D01*
X180097864Y-94769500D01*
X178302129Y-94769500D01*
X178302123Y-94769501D01*
X178242516Y-94775908D01*
X178107671Y-94826202D01*
X178107664Y-94826206D01*
X177992455Y-94912452D01*
X177992452Y-94912455D01*
X177906206Y-95027664D01*
X177906202Y-95027671D01*
X177855908Y-95162517D01*
X177849641Y-95220814D01*
X177849501Y-95222123D01*
X177849500Y-95222135D01*
X151542591Y-95222135D01*
X151605220Y-95099219D01*
X151668477Y-94904534D01*
X151700500Y-94702352D01*
X151700500Y-94497648D01*
X151668477Y-94295466D01*
X151605220Y-94100781D01*
X151605218Y-94100778D01*
X151605218Y-94100776D01*
X151557852Y-94007816D01*
X151512287Y-93918390D01*
X151504556Y-93907749D01*
X151391971Y-93752786D01*
X151247213Y-93608028D01*
X151081613Y-93487715D01*
X151081612Y-93487714D01*
X151081610Y-93487713D01*
X151024653Y-93458691D01*
X150899223Y-93394781D01*
X150704534Y-93331522D01*
X150529995Y-93303878D01*
X150502352Y-93299500D01*
X150297648Y-93299500D01*
X150273329Y-93303351D01*
X150095465Y-93331522D01*
X149900776Y-93394781D01*
X149718386Y-93487715D01*
X149552786Y-93608028D01*
X149408028Y-93752786D01*
X149287715Y-93918386D01*
X149194781Y-94100776D01*
X149131522Y-94295465D01*
X149099500Y-94497648D01*
X125654645Y-94497648D01*
X125657224Y-94495092D01*
X125658387Y-94492300D01*
X125667454Y-94484953D01*
X125684261Y-94468297D01*
X125691092Y-94463572D01*
X125707816Y-94455051D01*
X125795122Y-94391619D01*
X125795145Y-94391604D01*
X125879785Y-94330109D01*
X125879783Y-94330109D01*
X125879792Y-94330104D01*
X126030104Y-94179792D01*
X126030106Y-94179788D01*
X126030109Y-94179786D01*
X126155048Y-94007820D01*
X126155047Y-94007820D01*
X126155051Y-94007816D01*
X126251557Y-93818412D01*
X126317246Y-93616243D01*
X126350500Y-93406287D01*
X126350500Y-93193713D01*
X126317246Y-92983757D01*
X126251557Y-92781588D01*
X126155051Y-92592184D01*
X126155049Y-92592181D01*
X126155048Y-92592179D01*
X126030109Y-92420213D01*
X125931049Y-92321153D01*
X133599500Y-92321153D01*
X133599500Y-92478846D01*
X133630261Y-92633489D01*
X133630264Y-92633501D01*
X133690602Y-92779172D01*
X133690609Y-92779185D01*
X133778210Y-92910288D01*
X133778213Y-92910292D01*
X133889707Y-93021786D01*
X133889711Y-93021789D01*
X134020814Y-93109390D01*
X134020827Y-93109397D01*
X134166498Y-93169735D01*
X134166503Y-93169737D01*
X134287038Y-93193713D01*
X134321153Y-93200499D01*
X134321156Y-93200500D01*
X134321158Y-93200500D01*
X134478844Y-93200500D01*
X134478845Y-93200499D01*
X134633497Y-93169737D01*
X134779179Y-93109394D01*
X134910289Y-93021789D01*
X135021789Y-92910289D01*
X135109394Y-92779179D01*
X135169737Y-92633497D01*
X135200500Y-92478842D01*
X135200500Y-92321158D01*
X135200500Y-92321155D01*
X135200499Y-92321153D01*
X135180734Y-92221789D01*
X135169737Y-92166503D01*
X135146452Y-92110288D01*
X135109397Y-92020827D01*
X135109390Y-92020814D01*
X135021789Y-91889711D01*
X135021786Y-91889707D01*
X134910292Y-91778213D01*
X134910288Y-91778210D01*
X134779185Y-91690609D01*
X134779172Y-91690602D01*
X134633501Y-91630264D01*
X134633489Y-91630261D01*
X134478845Y-91599500D01*
X134478842Y-91599500D01*
X134321158Y-91599500D01*
X134321155Y-91599500D01*
X134166510Y-91630261D01*
X134166498Y-91630264D01*
X134020827Y-91690602D01*
X134020814Y-91690609D01*
X133889711Y-91778210D01*
X133889707Y-91778213D01*
X133778213Y-91889707D01*
X133778210Y-91889711D01*
X133690609Y-92020814D01*
X133690602Y-92020827D01*
X133630264Y-92166498D01*
X133630261Y-92166510D01*
X133599500Y-92321153D01*
X125931049Y-92321153D01*
X125916569Y-92306673D01*
X125883084Y-92245350D01*
X125888068Y-92175658D01*
X125929940Y-92119725D01*
X125960915Y-92102810D01*
X126092331Y-92053796D01*
X126207546Y-91967546D01*
X126293796Y-91852331D01*
X126344091Y-91717483D01*
X126350500Y-91657873D01*
X126350500Y-91521153D01*
X136399500Y-91521153D01*
X136399500Y-91678846D01*
X136430261Y-91833489D01*
X136430264Y-91833501D01*
X136490602Y-91979172D01*
X136490609Y-91979185D01*
X136578210Y-92110288D01*
X136578213Y-92110292D01*
X136689707Y-92221786D01*
X136689711Y-92221789D01*
X136820814Y-92309390D01*
X136820827Y-92309397D01*
X136935166Y-92356757D01*
X136966503Y-92369737D01*
X137121153Y-92400499D01*
X137121156Y-92400500D01*
X137121158Y-92400500D01*
X137278844Y-92400500D01*
X137278845Y-92400499D01*
X137433497Y-92369737D01*
X137579179Y-92309394D01*
X137710289Y-92221789D01*
X137821789Y-92110289D01*
X137909394Y-91979179D01*
X137915086Y-91965438D01*
X137933429Y-91921153D01*
X141199500Y-91921153D01*
X141199500Y-92078846D01*
X141230261Y-92233489D01*
X141230264Y-92233501D01*
X141290602Y-92379172D01*
X141290609Y-92379185D01*
X141378210Y-92510288D01*
X141378213Y-92510292D01*
X141489707Y-92621786D01*
X141489711Y-92621789D01*
X141620814Y-92709390D01*
X141620827Y-92709397D01*
X141766498Y-92769735D01*
X141766503Y-92769737D01*
X141921153Y-92800499D01*
X141921156Y-92800500D01*
X141921158Y-92800500D01*
X142078844Y-92800500D01*
X142078845Y-92800499D01*
X142233497Y-92769737D01*
X142379179Y-92709394D01*
X142510289Y-92621789D01*
X142621789Y-92510289D01*
X142709394Y-92379179D01*
X142769737Y-92233497D01*
X142800500Y-92078842D01*
X142800500Y-92078829D01*
X142801004Y-92073717D01*
X142827158Y-92008927D01*
X142884188Y-91968562D01*
X142953988Y-91965438D01*
X142971860Y-91971297D01*
X143062709Y-92008927D01*
X143066504Y-92010499D01*
X143221154Y-92041261D01*
X143221157Y-92041262D01*
X143221159Y-92041262D01*
X143378845Y-92041262D01*
X143378846Y-92041261D01*
X143533498Y-92010499D01*
X143554979Y-92001600D01*
X143574659Y-91993450D01*
X143679173Y-91950159D01*
X143679173Y-91950158D01*
X143679180Y-91950156D01*
X143810290Y-91862551D01*
X143921790Y-91751051D01*
X144009395Y-91619941D01*
X144069738Y-91474259D01*
X144100501Y-91319604D01*
X144100501Y-91161920D01*
X144100501Y-91161917D01*
X144100500Y-91161915D01*
X144089343Y-91105826D01*
X144069738Y-91007265D01*
X144069736Y-91007260D01*
X144009398Y-90861589D01*
X144009391Y-90861576D01*
X143921790Y-90730473D01*
X143921787Y-90730469D01*
X143810293Y-90618975D01*
X143810289Y-90618972D01*
X143679186Y-90531371D01*
X143679173Y-90531364D01*
X143533502Y-90471026D01*
X143533490Y-90471023D01*
X143378846Y-90440262D01*
X143378843Y-90440262D01*
X143221159Y-90440262D01*
X143221156Y-90440262D01*
X143066511Y-90471023D01*
X143066499Y-90471026D01*
X142920828Y-90531364D01*
X142920815Y-90531371D01*
X142789712Y-90618972D01*
X142789708Y-90618975D01*
X142678214Y-90730469D01*
X142678211Y-90730473D01*
X142590610Y-90861576D01*
X142590603Y-90861589D01*
X142530265Y-91007260D01*
X142530262Y-91007272D01*
X142499501Y-91161915D01*
X142498995Y-91167056D01*
X142472835Y-91231843D01*
X142415801Y-91272203D01*
X142346001Y-91275320D01*
X142328140Y-91269465D01*
X142318947Y-91265657D01*
X142233497Y-91230263D01*
X142233492Y-91230262D01*
X142233489Y-91230261D01*
X142078845Y-91199500D01*
X142078842Y-91199500D01*
X141921158Y-91199500D01*
X141921155Y-91199500D01*
X141766510Y-91230261D01*
X141766498Y-91230264D01*
X141620827Y-91290602D01*
X141620814Y-91290609D01*
X141489711Y-91378210D01*
X141489707Y-91378213D01*
X141378213Y-91489707D01*
X141378210Y-91489711D01*
X141290609Y-91620814D01*
X141290602Y-91620827D01*
X141230264Y-91766498D01*
X141230261Y-91766510D01*
X141199500Y-91921153D01*
X137933429Y-91921153D01*
X137955603Y-91867621D01*
X137955605Y-91867614D01*
X137969737Y-91833497D01*
X138000500Y-91678842D01*
X138000500Y-91521158D01*
X138000500Y-91521155D01*
X138000499Y-91521153D01*
X137991171Y-91474259D01*
X137969737Y-91366503D01*
X137914436Y-91232993D01*
X137909397Y-91220827D01*
X137909390Y-91220814D01*
X137821789Y-91089711D01*
X137821786Y-91089707D01*
X137710292Y-90978213D01*
X137710288Y-90978210D01*
X137579185Y-90890609D01*
X137579172Y-90890602D01*
X137433501Y-90830264D01*
X137433489Y-90830261D01*
X137278845Y-90799500D01*
X137278842Y-90799500D01*
X137121158Y-90799500D01*
X137121155Y-90799500D01*
X136966510Y-90830261D01*
X136966498Y-90830264D01*
X136820827Y-90890602D01*
X136820814Y-90890609D01*
X136689711Y-90978210D01*
X136689707Y-90978213D01*
X136578213Y-91089707D01*
X136578210Y-91089711D01*
X136490609Y-91220814D01*
X136490602Y-91220827D01*
X136430264Y-91366498D01*
X136430261Y-91366510D01*
X136399500Y-91521153D01*
X126350500Y-91521153D01*
X126350499Y-90321153D01*
X126999500Y-90321153D01*
X126999500Y-90478846D01*
X127030261Y-90633489D01*
X127030264Y-90633501D01*
X127090602Y-90779172D01*
X127090609Y-90779185D01*
X127178210Y-90910288D01*
X127178213Y-90910292D01*
X127289707Y-91021786D01*
X127289711Y-91021789D01*
X127420814Y-91109390D01*
X127420827Y-91109397D01*
X127547631Y-91161920D01*
X127566503Y-91169737D01*
X127716131Y-91199500D01*
X127721153Y-91200499D01*
X127721156Y-91200500D01*
X127721158Y-91200500D01*
X127878844Y-91200500D01*
X127878845Y-91200499D01*
X128033497Y-91169737D01*
X128179179Y-91109394D01*
X128310289Y-91021789D01*
X128421789Y-90910289D01*
X128509394Y-90779179D01*
X128569737Y-90633497D01*
X128600500Y-90478842D01*
X128600500Y-90321158D01*
X128600500Y-90321155D01*
X128600499Y-90321153D01*
X128573924Y-90187554D01*
X128569737Y-90166503D01*
X128569735Y-90166498D01*
X128509397Y-90020827D01*
X128509390Y-90020814D01*
X128421789Y-89889711D01*
X128421786Y-89889707D01*
X128310292Y-89778213D01*
X128310288Y-89778210D01*
X128179185Y-89690609D01*
X128179172Y-89690602D01*
X128033501Y-89630264D01*
X128033489Y-89630261D01*
X127878845Y-89599500D01*
X127878842Y-89599500D01*
X127721158Y-89599500D01*
X127721155Y-89599500D01*
X127566510Y-89630261D01*
X127566498Y-89630264D01*
X127420827Y-89690602D01*
X127420814Y-89690609D01*
X127289711Y-89778210D01*
X127289707Y-89778213D01*
X127178213Y-89889707D01*
X127178210Y-89889711D01*
X127090609Y-90020814D01*
X127090602Y-90020827D01*
X127030264Y-90166498D01*
X127030261Y-90166510D01*
X126999500Y-90321153D01*
X126350499Y-90321153D01*
X126350499Y-89862128D01*
X126344091Y-89802517D01*
X126341953Y-89796786D01*
X126293797Y-89667671D01*
X126293793Y-89667664D01*
X126207547Y-89552455D01*
X126207544Y-89552452D01*
X126092335Y-89466206D01*
X126092328Y-89466202D01*
X125957482Y-89415908D01*
X125957483Y-89415908D01*
X125897883Y-89409501D01*
X125897881Y-89409500D01*
X125897873Y-89409500D01*
X125897864Y-89409500D01*
X124102129Y-89409500D01*
X124102123Y-89409501D01*
X124042516Y-89415908D01*
X123907671Y-89466202D01*
X123907664Y-89466206D01*
X123792455Y-89552452D01*
X123792452Y-89552455D01*
X123706206Y-89667664D01*
X123706202Y-89667671D01*
X123655908Y-89802517D01*
X123650750Y-89850500D01*
X123649501Y-89862123D01*
X123649500Y-89862135D01*
X122500500Y-89862135D01*
X122500500Y-88321153D01*
X129999500Y-88321153D01*
X129999500Y-88478846D01*
X130030261Y-88633489D01*
X130030264Y-88633501D01*
X130090602Y-88779172D01*
X130090609Y-88779185D01*
X130178210Y-88910288D01*
X130178213Y-88910292D01*
X130179938Y-88912017D01*
X130180552Y-88913142D01*
X130182076Y-88914999D01*
X130181724Y-88915287D01*
X130213423Y-88973340D01*
X130213875Y-89023888D01*
X130199500Y-89096159D01*
X130199500Y-89253846D01*
X130230261Y-89408489D01*
X130230264Y-89408501D01*
X130290602Y-89554172D01*
X130290609Y-89554185D01*
X130378210Y-89685288D01*
X130378213Y-89685292D01*
X130489707Y-89796786D01*
X130489711Y-89796789D01*
X130620814Y-89884390D01*
X130620827Y-89884397D01*
X130766498Y-89944735D01*
X130766503Y-89944737D01*
X130921153Y-89975499D01*
X130921156Y-89975500D01*
X130921158Y-89975500D01*
X131078844Y-89975500D01*
X131078845Y-89975499D01*
X131233497Y-89944737D01*
X131376808Y-89885376D01*
X131379172Y-89884397D01*
X131379172Y-89884396D01*
X131379179Y-89884394D01*
X131510289Y-89796789D01*
X131621789Y-89685289D01*
X131709394Y-89554179D01*
X131769737Y-89408497D01*
X131800500Y-89253842D01*
X131800500Y-89096158D01*
X131800500Y-89096155D01*
X131771016Y-88947933D01*
X131777243Y-88878341D01*
X131820106Y-88823164D01*
X131873151Y-88803114D01*
X131872868Y-88801689D01*
X131959334Y-88784488D01*
X132033497Y-88769737D01*
X132150790Y-88721153D01*
X142399500Y-88721153D01*
X142399500Y-88878846D01*
X142430261Y-89033489D01*
X142430264Y-89033501D01*
X142490602Y-89179172D01*
X142490609Y-89179185D01*
X142578210Y-89310288D01*
X142578213Y-89310292D01*
X142689707Y-89421786D01*
X142689711Y-89421789D01*
X142820814Y-89509390D01*
X142820827Y-89509397D01*
X142966498Y-89569735D01*
X142966503Y-89569737D01*
X143116131Y-89599500D01*
X143121153Y-89600499D01*
X143121156Y-89600500D01*
X143121158Y-89600500D01*
X143278844Y-89600500D01*
X143278845Y-89600499D01*
X143433497Y-89569737D01*
X143579179Y-89509394D01*
X143710289Y-89421789D01*
X143821789Y-89310289D01*
X143909394Y-89179179D01*
X143969737Y-89033497D01*
X144000500Y-88878842D01*
X144000500Y-88721158D01*
X144000500Y-88721155D01*
X144000499Y-88721153D01*
X143998159Y-88709390D01*
X143969737Y-88566503D01*
X143950955Y-88521158D01*
X143950953Y-88521153D01*
X147199500Y-88521153D01*
X147199500Y-88678846D01*
X147230261Y-88833489D01*
X147230264Y-88833501D01*
X147290602Y-88979172D01*
X147290609Y-88979185D01*
X147378210Y-89110288D01*
X147378213Y-89110292D01*
X147489707Y-89221786D01*
X147489711Y-89221789D01*
X147620814Y-89309390D01*
X147620827Y-89309397D01*
X147766498Y-89369735D01*
X147766503Y-89369737D01*
X147921153Y-89400499D01*
X147921156Y-89400500D01*
X147921158Y-89400500D01*
X148078844Y-89400500D01*
X148078845Y-89400499D01*
X148233497Y-89369737D01*
X148379179Y-89309394D01*
X148379185Y-89309390D01*
X148444454Y-89265779D01*
X148469480Y-89249056D01*
X148510289Y-89221789D01*
X148621789Y-89110289D01*
X148709394Y-88979179D01*
X148769737Y-88833497D01*
X148800500Y-88678842D01*
X148800500Y-88521158D01*
X148800500Y-88521155D01*
X148800499Y-88521153D01*
X148798338Y-88510288D01*
X148769737Y-88366503D01*
X148769001Y-88364727D01*
X148709397Y-88220827D01*
X148709390Y-88220814D01*
X148684763Y-88183957D01*
X148642798Y-88121153D01*
X153199500Y-88121153D01*
X153199500Y-88278846D01*
X153230261Y-88433489D01*
X153230264Y-88433501D01*
X153290602Y-88579172D01*
X153290609Y-88579185D01*
X153378210Y-88710288D01*
X153378213Y-88710292D01*
X153489707Y-88821786D01*
X153489711Y-88821789D01*
X153620814Y-88909390D01*
X153620827Y-88909397D01*
X153766498Y-88969735D01*
X153766503Y-88969737D01*
X153921153Y-89000499D01*
X153921156Y-89000500D01*
X153921158Y-89000500D01*
X154078844Y-89000500D01*
X154078845Y-89000499D01*
X154233497Y-88969737D01*
X154365647Y-88914999D01*
X154379172Y-88909397D01*
X154379172Y-88909396D01*
X154379179Y-88909394D01*
X154510289Y-88821789D01*
X154621789Y-88710289D01*
X154709394Y-88579179D01*
X154769737Y-88433497D01*
X154800500Y-88278842D01*
X154800500Y-88121158D01*
X154800500Y-88121155D01*
X154800499Y-88121153D01*
X154795307Y-88095051D01*
X154769737Y-87966503D01*
X154750955Y-87921158D01*
X154709397Y-87820827D01*
X154709390Y-87820814D01*
X154621789Y-87689711D01*
X154621786Y-87689707D01*
X154510292Y-87578213D01*
X154510288Y-87578210D01*
X154379185Y-87490609D01*
X154379172Y-87490602D01*
X154233501Y-87430264D01*
X154233489Y-87430261D01*
X154078845Y-87399500D01*
X154078842Y-87399500D01*
X153921158Y-87399500D01*
X153921155Y-87399500D01*
X153766510Y-87430261D01*
X153766498Y-87430264D01*
X153620827Y-87490602D01*
X153620814Y-87490609D01*
X153489711Y-87578210D01*
X153489707Y-87578213D01*
X153378213Y-87689707D01*
X153378210Y-87689711D01*
X153290609Y-87820814D01*
X153290602Y-87820827D01*
X153230264Y-87966498D01*
X153230261Y-87966510D01*
X153199500Y-88121153D01*
X148642798Y-88121153D01*
X148621789Y-88089711D01*
X148621786Y-88089707D01*
X148520885Y-87988806D01*
X148487400Y-87927483D01*
X148492384Y-87857791D01*
X148534256Y-87801858D01*
X148584372Y-87779508D01*
X148633497Y-87769737D01*
X148779179Y-87709394D01*
X148910289Y-87621789D01*
X149021789Y-87510289D01*
X149109394Y-87379179D01*
X149169737Y-87233497D01*
X149200500Y-87078842D01*
X149200500Y-86921158D01*
X149200500Y-86921155D01*
X149200499Y-86921153D01*
X149172066Y-86778211D01*
X149169737Y-86766503D01*
X149138298Y-86690602D01*
X149109397Y-86620827D01*
X149109390Y-86620814D01*
X149021789Y-86489711D01*
X149021786Y-86489707D01*
X148910292Y-86378213D01*
X148910288Y-86378210D01*
X148779185Y-86290609D01*
X148779172Y-86290602D01*
X148633501Y-86230264D01*
X148633489Y-86230261D01*
X148478845Y-86199500D01*
X148478842Y-86199500D01*
X148321158Y-86199500D01*
X148321155Y-86199500D01*
X148166510Y-86230261D01*
X148166498Y-86230264D01*
X148020827Y-86290602D01*
X148020814Y-86290609D01*
X147889711Y-86378210D01*
X147889707Y-86378213D01*
X147778213Y-86489707D01*
X147778210Y-86489711D01*
X147690609Y-86620814D01*
X147690602Y-86620827D01*
X147630264Y-86766498D01*
X147630261Y-86766510D01*
X147599500Y-86921153D01*
X147599500Y-87078846D01*
X147630261Y-87233489D01*
X147630264Y-87233501D01*
X147690602Y-87379172D01*
X147690609Y-87379185D01*
X147778210Y-87510288D01*
X147778213Y-87510292D01*
X147879114Y-87611193D01*
X147912599Y-87672516D01*
X147907615Y-87742208D01*
X147865743Y-87798141D01*
X147815626Y-87820491D01*
X147766507Y-87830261D01*
X147766498Y-87830264D01*
X147620827Y-87890602D01*
X147620814Y-87890609D01*
X147489711Y-87978210D01*
X147489707Y-87978213D01*
X147378213Y-88089707D01*
X147378210Y-88089711D01*
X147290609Y-88220814D01*
X147290602Y-88220827D01*
X147230264Y-88366498D01*
X147230261Y-88366510D01*
X147199500Y-88521153D01*
X143950953Y-88521153D01*
X143909397Y-88420827D01*
X143909390Y-88420814D01*
X143821789Y-88289711D01*
X143821786Y-88289707D01*
X143710292Y-88178213D01*
X143710288Y-88178210D01*
X143579185Y-88090609D01*
X143579172Y-88090602D01*
X143433501Y-88030264D01*
X143433489Y-88030261D01*
X143278845Y-87999500D01*
X143278842Y-87999500D01*
X143121158Y-87999500D01*
X143121155Y-87999500D01*
X142966510Y-88030261D01*
X142966498Y-88030264D01*
X142820827Y-88090602D01*
X142820814Y-88090609D01*
X142689711Y-88178210D01*
X142689707Y-88178213D01*
X142578213Y-88289707D01*
X142578210Y-88289711D01*
X142490609Y-88420814D01*
X142490602Y-88420827D01*
X142430264Y-88566498D01*
X142430261Y-88566510D01*
X142399500Y-88721153D01*
X132150790Y-88721153D01*
X132179179Y-88709394D01*
X132310289Y-88621789D01*
X132421789Y-88510289D01*
X132509394Y-88379179D01*
X132569737Y-88233497D01*
X132600500Y-88078842D01*
X132600500Y-87921158D01*
X132600500Y-87921155D01*
X132600499Y-87921153D01*
X132580543Y-87820827D01*
X132569737Y-87766503D01*
X132537929Y-87689711D01*
X132509397Y-87620827D01*
X132509390Y-87620814D01*
X132421789Y-87489711D01*
X132421786Y-87489707D01*
X132310292Y-87378213D01*
X132310288Y-87378210D01*
X132179185Y-87290609D01*
X132179172Y-87290602D01*
X132033501Y-87230264D01*
X132033489Y-87230261D01*
X131878845Y-87199500D01*
X131878842Y-87199500D01*
X131721158Y-87199500D01*
X131721155Y-87199500D01*
X131566510Y-87230261D01*
X131566498Y-87230264D01*
X131420827Y-87290602D01*
X131420814Y-87290609D01*
X131289711Y-87378210D01*
X131289707Y-87378213D01*
X131178213Y-87489707D01*
X131178210Y-87489711D01*
X131124368Y-87570291D01*
X131070755Y-87615096D01*
X131001430Y-87623803D01*
X130997075Y-87623017D01*
X130878846Y-87599500D01*
X130878842Y-87599500D01*
X130721158Y-87599500D01*
X130721155Y-87599500D01*
X130566510Y-87630261D01*
X130566498Y-87630264D01*
X130420827Y-87690602D01*
X130420814Y-87690609D01*
X130289711Y-87778210D01*
X130289707Y-87778213D01*
X130178213Y-87889707D01*
X130178210Y-87889711D01*
X130090609Y-88020814D01*
X130090602Y-88020827D01*
X130030264Y-88166498D01*
X130030261Y-88166510D01*
X129999500Y-88321153D01*
X122500500Y-88321153D01*
X122500500Y-87321153D01*
X122799500Y-87321153D01*
X122799500Y-87478846D01*
X122830261Y-87633489D01*
X122830264Y-87633501D01*
X122890602Y-87779172D01*
X122890609Y-87779185D01*
X122978210Y-87910288D01*
X122978213Y-87910292D01*
X123089707Y-88021786D01*
X123089711Y-88021789D01*
X123220814Y-88109390D01*
X123220827Y-88109397D01*
X123358683Y-88166498D01*
X123366503Y-88169737D01*
X123521153Y-88200499D01*
X123521156Y-88200500D01*
X123521158Y-88200500D01*
X123678844Y-88200500D01*
X123678845Y-88200499D01*
X123689179Y-88198443D01*
X123714287Y-88193450D01*
X123714292Y-88193449D01*
X123799800Y-88176439D01*
X123833497Y-88169737D01*
X123979179Y-88109394D01*
X124110289Y-88021789D01*
X124221789Y-87910289D01*
X124309394Y-87779179D01*
X124369737Y-87633497D01*
X124400500Y-87478842D01*
X124400500Y-87321158D01*
X124400500Y-87321155D01*
X124400499Y-87321153D01*
X124394422Y-87290602D01*
X124369737Y-87166503D01*
X124366445Y-87158556D01*
X124309397Y-87020827D01*
X124309390Y-87020814D01*
X124221789Y-86889711D01*
X124221786Y-86889707D01*
X124110292Y-86778213D01*
X124110288Y-86778210D01*
X123979185Y-86690609D01*
X123979172Y-86690602D01*
X123833501Y-86630264D01*
X123833489Y-86630261D01*
X123678845Y-86599500D01*
X123678842Y-86599500D01*
X123521158Y-86599500D01*
X123521155Y-86599500D01*
X123366510Y-86630261D01*
X123366498Y-86630264D01*
X123220827Y-86690602D01*
X123220814Y-86690609D01*
X123089711Y-86778210D01*
X123089707Y-86778213D01*
X122978213Y-86889707D01*
X122978210Y-86889711D01*
X122890609Y-87020814D01*
X122890602Y-87020827D01*
X122830264Y-87166498D01*
X122830261Y-87166510D01*
X122799500Y-87321153D01*
X122500500Y-87321153D01*
X122500500Y-85121153D01*
X141999500Y-85121153D01*
X141999500Y-85278846D01*
X142030261Y-85433489D01*
X142030264Y-85433501D01*
X142090602Y-85579172D01*
X142090609Y-85579185D01*
X142178210Y-85710288D01*
X142178213Y-85710292D01*
X142289707Y-85821786D01*
X142289711Y-85821789D01*
X142420814Y-85909390D01*
X142420827Y-85909397D01*
X142510821Y-85946673D01*
X142566503Y-85969737D01*
X142721153Y-86000499D01*
X142721156Y-86000500D01*
X142721158Y-86000500D01*
X142878844Y-86000500D01*
X142878845Y-86000499D01*
X143033497Y-85969737D01*
X143179179Y-85909394D01*
X143310289Y-85821789D01*
X143421789Y-85710289D01*
X143509394Y-85579179D01*
X143569737Y-85433497D01*
X143600500Y-85278842D01*
X143600500Y-85121158D01*
X143600500Y-85121155D01*
X143600499Y-85121153D01*
X143592354Y-85080208D01*
X143569737Y-84966503D01*
X143550955Y-84921158D01*
X143509397Y-84820827D01*
X143509390Y-84820814D01*
X143484763Y-84783957D01*
X143442798Y-84721153D01*
X145199500Y-84721153D01*
X145199500Y-84878846D01*
X145230261Y-85033489D01*
X145230264Y-85033501D01*
X145290602Y-85179172D01*
X145290609Y-85179185D01*
X145378210Y-85310288D01*
X145378213Y-85310292D01*
X145489707Y-85421786D01*
X145489711Y-85421789D01*
X145620814Y-85509390D01*
X145620827Y-85509397D01*
X145766498Y-85569735D01*
X145766503Y-85569737D01*
X145921153Y-85600499D01*
X145921156Y-85600500D01*
X145921158Y-85600500D01*
X146078844Y-85600500D01*
X146078845Y-85600499D01*
X146233497Y-85569737D01*
X146379179Y-85509394D01*
X146510289Y-85421789D01*
X146621789Y-85310289D01*
X146709394Y-85179179D01*
X146769737Y-85033497D01*
X146800500Y-84878842D01*
X146800500Y-84721158D01*
X146800500Y-84721155D01*
X146800499Y-84721153D01*
X146780543Y-84620827D01*
X146769737Y-84566503D01*
X146764579Y-84554050D01*
X146709397Y-84420827D01*
X146709390Y-84420814D01*
X146621789Y-84289711D01*
X146621786Y-84289707D01*
X146510292Y-84178213D01*
X146510288Y-84178210D01*
X146379185Y-84090609D01*
X146379172Y-84090602D01*
X146233501Y-84030264D01*
X146233489Y-84030261D01*
X146078845Y-83999500D01*
X146078842Y-83999500D01*
X145921158Y-83999500D01*
X145921155Y-83999500D01*
X145766510Y-84030261D01*
X145766498Y-84030264D01*
X145620827Y-84090602D01*
X145620814Y-84090609D01*
X145489711Y-84178210D01*
X145489707Y-84178213D01*
X145378213Y-84289707D01*
X145378210Y-84289711D01*
X145290609Y-84420814D01*
X145290602Y-84420827D01*
X145230264Y-84566498D01*
X145230261Y-84566510D01*
X145199500Y-84721153D01*
X143442798Y-84721153D01*
X143421789Y-84689711D01*
X143421786Y-84689707D01*
X143310292Y-84578213D01*
X143310288Y-84578210D01*
X143179185Y-84490609D01*
X143179172Y-84490602D01*
X143033501Y-84430264D01*
X143033489Y-84430261D01*
X142878845Y-84399500D01*
X142878842Y-84399500D01*
X142721158Y-84399500D01*
X142721155Y-84399500D01*
X142566510Y-84430261D01*
X142566498Y-84430264D01*
X142420827Y-84490602D01*
X142420809Y-84490612D01*
X142330842Y-84550725D01*
X142330826Y-84550738D01*
X142289711Y-84578211D01*
X142229038Y-84638883D01*
X142229016Y-84638903D01*
X142178214Y-84689706D01*
X142178210Y-84689711D01*
X142090609Y-84820814D01*
X142090602Y-84820827D01*
X142030264Y-84966498D01*
X142030261Y-84966510D01*
X141999500Y-85121153D01*
X122500500Y-85121153D01*
X122500500Y-84121153D01*
X122799500Y-84121153D01*
X122799500Y-84278846D01*
X122830261Y-84433489D01*
X122830264Y-84433501D01*
X122890602Y-84579172D01*
X122890609Y-84579185D01*
X122978210Y-84710288D01*
X122978213Y-84710292D01*
X123089707Y-84821786D01*
X123089711Y-84821789D01*
X123220814Y-84909390D01*
X123220827Y-84909397D01*
X123358683Y-84966498D01*
X123366503Y-84969737D01*
X123521153Y-85000499D01*
X123521156Y-85000500D01*
X123521158Y-85000500D01*
X123678844Y-85000500D01*
X123678845Y-85000499D01*
X123833497Y-84969737D01*
X123979179Y-84909394D01*
X124110289Y-84821789D01*
X124221789Y-84710289D01*
X124309394Y-84579179D01*
X124369737Y-84433497D01*
X124400500Y-84278842D01*
X124400500Y-84121158D01*
X124400500Y-84121155D01*
X124400499Y-84121153D01*
X124385562Y-84046059D01*
X124369737Y-83966503D01*
X124333427Y-83878842D01*
X124309397Y-83820827D01*
X124309390Y-83820814D01*
X124221789Y-83689711D01*
X124221786Y-83689707D01*
X124110292Y-83578213D01*
X124110288Y-83578210D01*
X124024897Y-83521153D01*
X134199500Y-83521153D01*
X134199500Y-83678846D01*
X134230261Y-83833489D01*
X134230264Y-83833501D01*
X134290602Y-83979172D01*
X134290609Y-83979185D01*
X134378210Y-84110288D01*
X134378213Y-84110292D01*
X134489707Y-84221786D01*
X134489711Y-84221789D01*
X134620814Y-84309390D01*
X134620827Y-84309397D01*
X134766498Y-84369735D01*
X134766503Y-84369737D01*
X134825669Y-84381506D01*
X134893958Y-84395090D01*
X134955869Y-84427475D01*
X134972869Y-84447816D01*
X135043852Y-84554049D01*
X135043855Y-84554053D01*
X135155349Y-84665547D01*
X135155353Y-84665550D01*
X135286456Y-84753151D01*
X135286469Y-84753158D01*
X135432140Y-84813496D01*
X135432145Y-84813498D01*
X135586795Y-84844260D01*
X135586798Y-84844261D01*
X135586800Y-84844261D01*
X135744486Y-84844261D01*
X135744487Y-84844260D01*
X135899139Y-84813498D01*
X136044821Y-84753155D01*
X136175931Y-84665550D01*
X136287431Y-84554050D01*
X136375036Y-84422940D01*
X136435379Y-84277258D01*
X136466142Y-84122603D01*
X136466142Y-83964919D01*
X136466142Y-83964916D01*
X136466141Y-83964914D01*
X136449021Y-83878846D01*
X136435379Y-83810264D01*
X136398469Y-83721153D01*
X140799500Y-83721153D01*
X140799500Y-83878846D01*
X140830261Y-84033489D01*
X140830264Y-84033501D01*
X140890602Y-84179172D01*
X140890609Y-84179185D01*
X140978210Y-84310288D01*
X140978213Y-84310292D01*
X141089707Y-84421786D01*
X141089711Y-84421789D01*
X141220814Y-84509390D01*
X141220827Y-84509397D01*
X141328638Y-84554053D01*
X141366503Y-84569737D01*
X141521148Y-84600498D01*
X141521153Y-84600499D01*
X141521156Y-84600500D01*
X141521158Y-84600500D01*
X141678844Y-84600500D01*
X141678845Y-84600499D01*
X141833497Y-84569737D01*
X141972079Y-84512335D01*
X141979172Y-84509397D01*
X141979172Y-84509396D01*
X141979179Y-84509394D01*
X142110289Y-84421789D01*
X142221789Y-84310289D01*
X142309394Y-84179179D01*
X142369737Y-84033497D01*
X142400500Y-83878842D01*
X142400500Y-83721158D01*
X142400500Y-83721155D01*
X142400499Y-83721153D01*
X150599500Y-83721153D01*
X150599500Y-83878846D01*
X150630261Y-84033489D01*
X150630264Y-84033501D01*
X150690602Y-84179172D01*
X150690609Y-84179185D01*
X150778210Y-84310288D01*
X150778213Y-84310292D01*
X150889707Y-84421786D01*
X150889711Y-84421789D01*
X151020814Y-84509390D01*
X151020827Y-84509397D01*
X151128638Y-84554053D01*
X151166503Y-84569737D01*
X151271048Y-84590532D01*
X151321147Y-84600498D01*
X151321148Y-84600498D01*
X151321158Y-84600500D01*
X151321167Y-84600500D01*
X151325653Y-84600942D01*
X151390442Y-84627098D01*
X151430805Y-84684130D01*
X151433927Y-84753930D01*
X151431748Y-84760590D01*
X151432031Y-84760676D01*
X151430261Y-84766510D01*
X151399500Y-84921153D01*
X151399500Y-85078846D01*
X151430261Y-85233489D01*
X151430264Y-85233501D01*
X151490602Y-85379172D01*
X151490609Y-85379185D01*
X151578210Y-85510288D01*
X151578213Y-85510292D01*
X151689707Y-85621786D01*
X151689711Y-85621789D01*
X151820814Y-85709390D01*
X151820827Y-85709397D01*
X151966498Y-85769735D01*
X151966503Y-85769737D01*
X152121153Y-85800499D01*
X152121156Y-85800500D01*
X152121158Y-85800500D01*
X152278844Y-85800500D01*
X152278845Y-85800499D01*
X152433497Y-85769737D01*
X152579179Y-85709394D01*
X152710289Y-85621789D01*
X152821789Y-85510289D01*
X152909394Y-85379179D01*
X152969737Y-85233497D01*
X153000500Y-85078842D01*
X153000500Y-84921158D01*
X153000500Y-84921155D01*
X153000499Y-84921153D01*
X152997356Y-84905350D01*
X152969737Y-84766503D01*
X152964208Y-84753155D01*
X152909397Y-84620827D01*
X152909390Y-84620814D01*
X152821789Y-84489711D01*
X152821786Y-84489707D01*
X152710292Y-84378213D01*
X152710288Y-84378210D01*
X152579185Y-84290609D01*
X152579172Y-84290602D01*
X152433501Y-84230264D01*
X152433489Y-84230261D01*
X152278848Y-84199500D01*
X152274335Y-84199056D01*
X152209548Y-84172894D01*
X152169190Y-84115859D01*
X152166074Y-84046059D01*
X152168261Y-84039412D01*
X152167969Y-84039324D01*
X152169731Y-84033509D01*
X152169737Y-84033497D01*
X152200500Y-83878842D01*
X152200500Y-83721158D01*
X152200500Y-83721155D01*
X152200499Y-83721153D01*
X152194244Y-83689707D01*
X152169737Y-83566503D01*
X152143075Y-83502135D01*
X162449500Y-83502135D01*
X162449500Y-85297870D01*
X162449501Y-85297876D01*
X162455908Y-85357483D01*
X162506202Y-85492328D01*
X162506206Y-85492335D01*
X162592452Y-85607544D01*
X162592455Y-85607547D01*
X162707664Y-85693793D01*
X162707671Y-85693797D01*
X162839082Y-85742810D01*
X162895016Y-85784681D01*
X162919433Y-85850145D01*
X162904582Y-85918418D01*
X162883431Y-85946673D01*
X162769889Y-86060215D01*
X162644951Y-86232179D01*
X162548444Y-86421585D01*
X162482753Y-86623760D01*
X162449500Y-86833713D01*
X162449500Y-87046286D01*
X162481518Y-87248443D01*
X162482754Y-87256243D01*
X162529301Y-87399500D01*
X162548444Y-87458414D01*
X162644951Y-87647820D01*
X162769890Y-87819786D01*
X162920213Y-87970109D01*
X163092179Y-88095048D01*
X163092181Y-88095049D01*
X163092184Y-88095051D01*
X163101493Y-88099794D01*
X163152290Y-88147766D01*
X163169087Y-88215587D01*
X163146552Y-88281722D01*
X163101505Y-88320760D01*
X163092446Y-88325376D01*
X163092440Y-88325380D01*
X163038282Y-88364727D01*
X163038282Y-88364728D01*
X163670591Y-88997037D01*
X163607007Y-89014075D01*
X163492993Y-89079901D01*
X163399901Y-89172993D01*
X163334075Y-89287007D01*
X163317037Y-89350591D01*
X162684728Y-88718282D01*
X162684727Y-88718282D01*
X162645380Y-88772439D01*
X162548904Y-88961782D01*
X162483242Y-89163869D01*
X162483242Y-89163872D01*
X162450000Y-89373753D01*
X162450000Y-89586246D01*
X162483242Y-89796127D01*
X162483242Y-89796130D01*
X162548904Y-89998217D01*
X162645375Y-90187550D01*
X162684728Y-90241716D01*
X163317037Y-89609408D01*
X163334075Y-89672993D01*
X163399901Y-89787007D01*
X163492993Y-89880099D01*
X163607007Y-89945925D01*
X163670590Y-89962962D01*
X163038282Y-90595269D01*
X163038282Y-90595270D01*
X163092449Y-90634624D01*
X163281782Y-90731095D01*
X163483870Y-90796757D01*
X163693754Y-90830000D01*
X163906246Y-90830000D01*
X164116127Y-90796757D01*
X164116130Y-90796757D01*
X164318217Y-90731095D01*
X164507554Y-90634622D01*
X164561716Y-90595270D01*
X164561717Y-90595270D01*
X163929408Y-89962962D01*
X163992993Y-89945925D01*
X164107007Y-89880099D01*
X164200099Y-89787007D01*
X164265925Y-89672993D01*
X164282962Y-89609408D01*
X164915270Y-90241717D01*
X164915270Y-90241716D01*
X164954622Y-90187554D01*
X165051095Y-89998217D01*
X165116757Y-89796130D01*
X165116757Y-89796127D01*
X165150000Y-89586246D01*
X165150000Y-89373753D01*
X165116757Y-89163872D01*
X165116757Y-89163869D01*
X165051095Y-88961782D01*
X164954624Y-88772449D01*
X164915270Y-88718282D01*
X164282962Y-89350590D01*
X164265925Y-89287007D01*
X164200099Y-89172993D01*
X164107007Y-89079901D01*
X163992993Y-89014075D01*
X163929409Y-88997037D01*
X164561716Y-88364728D01*
X164507547Y-88325373D01*
X164507547Y-88325372D01*
X164498500Y-88320763D01*
X164447706Y-88272788D01*
X164430912Y-88204966D01*
X164453451Y-88138832D01*
X164498508Y-88099793D01*
X164507816Y-88095051D01*
X164596990Y-88030263D01*
X164679786Y-87970109D01*
X164679788Y-87970106D01*
X164679792Y-87970104D01*
X164830104Y-87819792D01*
X164830106Y-87819788D01*
X164830109Y-87819786D01*
X164955048Y-87647820D01*
X164955047Y-87647820D01*
X164955051Y-87647816D01*
X165051557Y-87458412D01*
X165117246Y-87256243D01*
X165150500Y-87046287D01*
X165150500Y-86833713D01*
X165117246Y-86623757D01*
X165051557Y-86421588D01*
X164955051Y-86232184D01*
X164955049Y-86232181D01*
X164955048Y-86232179D01*
X164830109Y-86060213D01*
X164716569Y-85946673D01*
X164683084Y-85885350D01*
X164688068Y-85815658D01*
X164729940Y-85759725D01*
X164760915Y-85742810D01*
X164892331Y-85693796D01*
X165007546Y-85607546D01*
X165093796Y-85492331D01*
X165144091Y-85357483D01*
X165150500Y-85297873D01*
X165150499Y-83502135D01*
X167039500Y-83502135D01*
X167039500Y-85297870D01*
X167039501Y-85297876D01*
X167045908Y-85357483D01*
X167096202Y-85492328D01*
X167096206Y-85492335D01*
X167182452Y-85607544D01*
X167182455Y-85607547D01*
X167297664Y-85693793D01*
X167297671Y-85693797D01*
X167429082Y-85742810D01*
X167485016Y-85784681D01*
X167509433Y-85850145D01*
X167494582Y-85918418D01*
X167473431Y-85946673D01*
X167359889Y-86060215D01*
X167234951Y-86232179D01*
X167138444Y-86421585D01*
X167072753Y-86623760D01*
X167039500Y-86833713D01*
X167039500Y-87046286D01*
X167071518Y-87248443D01*
X167072754Y-87256243D01*
X167119301Y-87399500D01*
X167138444Y-87458414D01*
X167234951Y-87647820D01*
X167359890Y-87819786D01*
X167510213Y-87970109D01*
X167682179Y-88095048D01*
X167682181Y-88095049D01*
X167682184Y-88095051D01*
X167691493Y-88099794D01*
X167742290Y-88147766D01*
X167759087Y-88215587D01*
X167736552Y-88281722D01*
X167691505Y-88320760D01*
X167682446Y-88325376D01*
X167682440Y-88325380D01*
X167628282Y-88364727D01*
X167628282Y-88364728D01*
X168260591Y-88997037D01*
X168197007Y-89014075D01*
X168082993Y-89079901D01*
X167989901Y-89172993D01*
X167924075Y-89287007D01*
X167907037Y-89350591D01*
X167274728Y-88718282D01*
X167274727Y-88718282D01*
X167235380Y-88772439D01*
X167138904Y-88961782D01*
X167073242Y-89163869D01*
X167073242Y-89163872D01*
X167040000Y-89373753D01*
X167040000Y-89586246D01*
X167073242Y-89796127D01*
X167073242Y-89796130D01*
X167138904Y-89998217D01*
X167235375Y-90187550D01*
X167274728Y-90241716D01*
X167907037Y-89609408D01*
X167924075Y-89672993D01*
X167989901Y-89787007D01*
X168082993Y-89880099D01*
X168197007Y-89945925D01*
X168260590Y-89962962D01*
X167628282Y-90595269D01*
X167628282Y-90595270D01*
X167682449Y-90634624D01*
X167871782Y-90731095D01*
X168073870Y-90796757D01*
X168283754Y-90830000D01*
X168496246Y-90830000D01*
X168645199Y-90806408D01*
X168706127Y-90796757D01*
X168706130Y-90796757D01*
X168908217Y-90731095D01*
X169097554Y-90634622D01*
X169151716Y-90595270D01*
X169151717Y-90595270D01*
X168519408Y-89962962D01*
X168582993Y-89945925D01*
X168697007Y-89880099D01*
X168790099Y-89787007D01*
X168855925Y-89672993D01*
X168872962Y-89609408D01*
X169505270Y-90241717D01*
X169505270Y-90241716D01*
X169544622Y-90187554D01*
X169641095Y-89998217D01*
X169706757Y-89796130D01*
X169706757Y-89796127D01*
X169740000Y-89586246D01*
X169740000Y-89373753D01*
X169706757Y-89163872D01*
X169706757Y-89163869D01*
X169641095Y-88961782D01*
X169544624Y-88772449D01*
X169505270Y-88718282D01*
X169505269Y-88718282D01*
X168872962Y-89350590D01*
X168855925Y-89287007D01*
X168790099Y-89172993D01*
X168697007Y-89079901D01*
X168582993Y-89014075D01*
X168519409Y-88997037D01*
X169151716Y-88364728D01*
X169097547Y-88325373D01*
X169097547Y-88325372D01*
X169088500Y-88320763D01*
X169037706Y-88272788D01*
X169020912Y-88204966D01*
X169043451Y-88138832D01*
X169088508Y-88099793D01*
X169097816Y-88095051D01*
X169186990Y-88030263D01*
X169269786Y-87970109D01*
X169269788Y-87970106D01*
X169269792Y-87970104D01*
X169420104Y-87819792D01*
X169420106Y-87819788D01*
X169420109Y-87819786D01*
X169545048Y-87647820D01*
X169545047Y-87647820D01*
X169545051Y-87647816D01*
X169641557Y-87458412D01*
X169707246Y-87256243D01*
X169740500Y-87046287D01*
X169740500Y-86833713D01*
X169707246Y-86623757D01*
X169641557Y-86421588D01*
X169545051Y-86232184D01*
X169545049Y-86232181D01*
X169545048Y-86232179D01*
X169420109Y-86060213D01*
X169306569Y-85946673D01*
X169273084Y-85885350D01*
X169278068Y-85815658D01*
X169319940Y-85759725D01*
X169350915Y-85742810D01*
X169482331Y-85693796D01*
X169597546Y-85607546D01*
X169683796Y-85492331D01*
X169734091Y-85357483D01*
X169740500Y-85297873D01*
X169740499Y-83502128D01*
X169734091Y-83442517D01*
X169726428Y-83421972D01*
X169683797Y-83307671D01*
X169683793Y-83307664D01*
X169597547Y-83192455D01*
X169597544Y-83192452D01*
X169482335Y-83106206D01*
X169482328Y-83106202D01*
X169347482Y-83055908D01*
X169347483Y-83055908D01*
X169287883Y-83049501D01*
X169287881Y-83049500D01*
X169287873Y-83049500D01*
X169287864Y-83049500D01*
X167492129Y-83049500D01*
X167492123Y-83049501D01*
X167432516Y-83055908D01*
X167297671Y-83106202D01*
X167297664Y-83106206D01*
X167182455Y-83192452D01*
X167182452Y-83192455D01*
X167096206Y-83307664D01*
X167096202Y-83307671D01*
X167045908Y-83442517D01*
X167040738Y-83490609D01*
X167039501Y-83502123D01*
X167039500Y-83502135D01*
X165150499Y-83502135D01*
X165150499Y-83502128D01*
X165144091Y-83442517D01*
X165136428Y-83421972D01*
X165093797Y-83307671D01*
X165093793Y-83307664D01*
X165007547Y-83192455D01*
X165007544Y-83192452D01*
X164892335Y-83106206D01*
X164892328Y-83106202D01*
X164757482Y-83055908D01*
X164757483Y-83055908D01*
X164697883Y-83049501D01*
X164697881Y-83049500D01*
X164697873Y-83049500D01*
X164697864Y-83049500D01*
X162902129Y-83049500D01*
X162902123Y-83049501D01*
X162842516Y-83055908D01*
X162707671Y-83106202D01*
X162707664Y-83106206D01*
X162592455Y-83192452D01*
X162592452Y-83192455D01*
X162506206Y-83307664D01*
X162506202Y-83307671D01*
X162455908Y-83442517D01*
X162450738Y-83490609D01*
X162449501Y-83502123D01*
X162449500Y-83502135D01*
X152143075Y-83502135D01*
X152118380Y-83442516D01*
X152109395Y-83420823D01*
X152109390Y-83420814D01*
X152021789Y-83289711D01*
X152021786Y-83289707D01*
X151910292Y-83178213D01*
X151910288Y-83178210D01*
X151779185Y-83090609D01*
X151779172Y-83090602D01*
X151633501Y-83030264D01*
X151633489Y-83030261D01*
X151478845Y-82999500D01*
X151478842Y-82999500D01*
X151321158Y-82999500D01*
X151321155Y-82999500D01*
X151166510Y-83030261D01*
X151166498Y-83030264D01*
X151020827Y-83090602D01*
X151020814Y-83090609D01*
X150889711Y-83178210D01*
X150889707Y-83178213D01*
X150778213Y-83289707D01*
X150778210Y-83289711D01*
X150690609Y-83420814D01*
X150690602Y-83420827D01*
X150630264Y-83566498D01*
X150630261Y-83566510D01*
X150599500Y-83721153D01*
X142400499Y-83721153D01*
X142394244Y-83689707D01*
X142369737Y-83566503D01*
X142361351Y-83546257D01*
X142309397Y-83420827D01*
X142309390Y-83420814D01*
X142221789Y-83289711D01*
X142221786Y-83289707D01*
X142110292Y-83178213D01*
X142110288Y-83178210D01*
X141979185Y-83090609D01*
X141979172Y-83090602D01*
X141833501Y-83030264D01*
X141833489Y-83030261D01*
X141678845Y-82999500D01*
X141678842Y-82999500D01*
X141521158Y-82999500D01*
X141521155Y-82999500D01*
X141366510Y-83030261D01*
X141366498Y-83030264D01*
X141220827Y-83090602D01*
X141220814Y-83090609D01*
X141089711Y-83178210D01*
X141089707Y-83178213D01*
X140978213Y-83289707D01*
X140978210Y-83289711D01*
X140890609Y-83420814D01*
X140890602Y-83420827D01*
X140830264Y-83566498D01*
X140830261Y-83566510D01*
X140799500Y-83721153D01*
X136398469Y-83721153D01*
X136385445Y-83689711D01*
X136375039Y-83664587D01*
X136375032Y-83664575D01*
X136287431Y-83533472D01*
X136287428Y-83533468D01*
X136175934Y-83421974D01*
X136175930Y-83421971D01*
X136044827Y-83334370D01*
X136044814Y-83334363D01*
X135899143Y-83274025D01*
X135899133Y-83274022D01*
X135771682Y-83248670D01*
X135709771Y-83216285D01*
X135692772Y-83195944D01*
X135621789Y-83089711D01*
X135621786Y-83089707D01*
X135510292Y-82978213D01*
X135510288Y-82978210D01*
X135379185Y-82890609D01*
X135379172Y-82890602D01*
X135233501Y-82830264D01*
X135233489Y-82830261D01*
X135078845Y-82799500D01*
X135078842Y-82799500D01*
X134921158Y-82799500D01*
X134921155Y-82799500D01*
X134766510Y-82830261D01*
X134766498Y-82830264D01*
X134620827Y-82890602D01*
X134620814Y-82890609D01*
X134489711Y-82978210D01*
X134489707Y-82978213D01*
X134378213Y-83089707D01*
X134378210Y-83089711D01*
X134290609Y-83220814D01*
X134290602Y-83220827D01*
X134230264Y-83366498D01*
X134230261Y-83366510D01*
X134199500Y-83521153D01*
X124024897Y-83521153D01*
X123979185Y-83490609D01*
X123979172Y-83490602D01*
X123833501Y-83430264D01*
X123833489Y-83430261D01*
X123678845Y-83399500D01*
X123678842Y-83399500D01*
X123521158Y-83399500D01*
X123521155Y-83399500D01*
X123366510Y-83430261D01*
X123366498Y-83430264D01*
X123220827Y-83490602D01*
X123220814Y-83490609D01*
X123089711Y-83578210D01*
X123089707Y-83578213D01*
X122978213Y-83689707D01*
X122978210Y-83689711D01*
X122890609Y-83820814D01*
X122890602Y-83820827D01*
X122830264Y-83966498D01*
X122830261Y-83966510D01*
X122799500Y-84121153D01*
X122500500Y-84121153D01*
X122500500Y-81921153D01*
X142799500Y-81921153D01*
X142799500Y-82078846D01*
X142830261Y-82233489D01*
X142830264Y-82233501D01*
X142890602Y-82379172D01*
X142890609Y-82379185D01*
X142978210Y-82510288D01*
X142978213Y-82510292D01*
X143089707Y-82621786D01*
X143089711Y-82621789D01*
X143220814Y-82709390D01*
X143220827Y-82709397D01*
X143366498Y-82769735D01*
X143366503Y-82769737D01*
X143516131Y-82799500D01*
X143521153Y-82800499D01*
X143521156Y-82800500D01*
X143521158Y-82800500D01*
X143678844Y-82800500D01*
X143678845Y-82800499D01*
X143833497Y-82769737D01*
X143979179Y-82709394D01*
X144110289Y-82621789D01*
X144221789Y-82510289D01*
X144309394Y-82379179D01*
X144369737Y-82233497D01*
X144400500Y-82078842D01*
X144400500Y-81921158D01*
X144400500Y-81921155D01*
X144400499Y-81921153D01*
X144369738Y-81766510D01*
X144369737Y-81766503D01*
X144330242Y-81671153D01*
X174299500Y-81671153D01*
X174299500Y-81828846D01*
X174330261Y-81983489D01*
X174330264Y-81983501D01*
X174390602Y-82129172D01*
X174390609Y-82129185D01*
X174478210Y-82260288D01*
X174478213Y-82260292D01*
X174589707Y-82371786D01*
X174589711Y-82371789D01*
X174720814Y-82459390D01*
X174720827Y-82459397D01*
X174866498Y-82519735D01*
X174866503Y-82519737D01*
X175021153Y-82550499D01*
X175021156Y-82550500D01*
X175021158Y-82550500D01*
X175178844Y-82550500D01*
X175178845Y-82550499D01*
X175321441Y-82522135D01*
X177849500Y-82522135D01*
X177849500Y-84317870D01*
X177849501Y-84317876D01*
X177855908Y-84377483D01*
X177906202Y-84512328D01*
X177906206Y-84512335D01*
X177992452Y-84627544D01*
X177992455Y-84627547D01*
X178107664Y-84713793D01*
X178107671Y-84713797D01*
X178239082Y-84762810D01*
X178295016Y-84804681D01*
X178319433Y-84870145D01*
X178304582Y-84938418D01*
X178283431Y-84966673D01*
X178169889Y-85080215D01*
X178044951Y-85252179D01*
X177948444Y-85441585D01*
X177948443Y-85441587D01*
X177948443Y-85441588D01*
X177931956Y-85492331D01*
X177882753Y-85643760D01*
X177849500Y-85853713D01*
X177849500Y-86066286D01*
X177875775Y-86232184D01*
X177882754Y-86276243D01*
X177915886Y-86378213D01*
X177948444Y-86478414D01*
X178044951Y-86667820D01*
X178169890Y-86839786D01*
X178320213Y-86990109D01*
X178492182Y-87115050D01*
X178500946Y-87119516D01*
X178551742Y-87167491D01*
X178568536Y-87235312D01*
X178545998Y-87301447D01*
X178500946Y-87340484D01*
X178492182Y-87344949D01*
X178320213Y-87469890D01*
X178169890Y-87620213D01*
X178044951Y-87792179D01*
X177948444Y-87981585D01*
X177882753Y-88183760D01*
X177849500Y-88393713D01*
X177849500Y-88606286D01*
X177880674Y-88803114D01*
X177882754Y-88816243D01*
X177935697Y-88979185D01*
X177948444Y-89018414D01*
X178044951Y-89207820D01*
X178169890Y-89379786D01*
X178320213Y-89530109D01*
X178492179Y-89655048D01*
X178492181Y-89655049D01*
X178492184Y-89655051D01*
X178501493Y-89659794D01*
X178552290Y-89707766D01*
X178569087Y-89775587D01*
X178546552Y-89841722D01*
X178501505Y-89880760D01*
X178492446Y-89885376D01*
X178492440Y-89885380D01*
X178438282Y-89924727D01*
X178438282Y-89924728D01*
X179070591Y-90557037D01*
X179007007Y-90574075D01*
X178892993Y-90639901D01*
X178799901Y-90732993D01*
X178734075Y-90847007D01*
X178717037Y-90910591D01*
X178084728Y-90278282D01*
X178084727Y-90278282D01*
X178045380Y-90332439D01*
X177948904Y-90521782D01*
X177883242Y-90723869D01*
X177883242Y-90723872D01*
X177850000Y-90933753D01*
X177850000Y-91146246D01*
X177883242Y-91356127D01*
X177883242Y-91356130D01*
X177948904Y-91558217D01*
X178045375Y-91747550D01*
X178084728Y-91801716D01*
X178717037Y-91169408D01*
X178734075Y-91232993D01*
X178799901Y-91347007D01*
X178892993Y-91440099D01*
X179007007Y-91505925D01*
X179070590Y-91522962D01*
X178438282Y-92155269D01*
X178438282Y-92155270D01*
X178492449Y-92194624D01*
X178681782Y-92291095D01*
X178883870Y-92356757D01*
X179093754Y-92390000D01*
X179306246Y-92390000D01*
X179516127Y-92356757D01*
X179516130Y-92356757D01*
X179718217Y-92291095D01*
X179907554Y-92194622D01*
X179961716Y-92155270D01*
X179961717Y-92155270D01*
X179329408Y-91522962D01*
X179392993Y-91505925D01*
X179507007Y-91440099D01*
X179600099Y-91347007D01*
X179665925Y-91232993D01*
X179682962Y-91169408D01*
X180315270Y-91801717D01*
X180315270Y-91801716D01*
X180354622Y-91747554D01*
X180451095Y-91558217D01*
X180516757Y-91356130D01*
X180516757Y-91356127D01*
X180550000Y-91146246D01*
X180550000Y-90933753D01*
X180516757Y-90723872D01*
X180516757Y-90723869D01*
X180451095Y-90521782D01*
X180354624Y-90332449D01*
X180315270Y-90278282D01*
X180315269Y-90278282D01*
X179682962Y-90910590D01*
X179665925Y-90847007D01*
X179600099Y-90732993D01*
X179507007Y-90639901D01*
X179392993Y-90574075D01*
X179329409Y-90557037D01*
X179961716Y-89924728D01*
X179907547Y-89885373D01*
X179907547Y-89885372D01*
X179898500Y-89880763D01*
X179847706Y-89832788D01*
X179830912Y-89764966D01*
X179853451Y-89698832D01*
X179898508Y-89659793D01*
X179907816Y-89655051D01*
X180025240Y-89569738D01*
X180079786Y-89530109D01*
X180079788Y-89530106D01*
X180079792Y-89530104D01*
X180230104Y-89379792D01*
X180230106Y-89379788D01*
X180230109Y-89379786D01*
X180355048Y-89207820D01*
X180355047Y-89207820D01*
X180355051Y-89207816D01*
X180451557Y-89018412D01*
X180517246Y-88816243D01*
X180550500Y-88606287D01*
X180550500Y-88393713D01*
X180517246Y-88183757D01*
X180451557Y-87981588D01*
X180355051Y-87792184D01*
X180355049Y-87792181D01*
X180355048Y-87792179D01*
X180230109Y-87620213D01*
X180079786Y-87469890D01*
X179907820Y-87344951D01*
X179907115Y-87344591D01*
X179899054Y-87340485D01*
X179848259Y-87292512D01*
X179831463Y-87224692D01*
X179853999Y-87158556D01*
X179899054Y-87119515D01*
X179907816Y-87115051D01*
X179957654Y-87078842D01*
X180079786Y-86990109D01*
X180079788Y-86990106D01*
X180079792Y-86990104D01*
X180230104Y-86839792D01*
X180230106Y-86839788D01*
X180230109Y-86839786D01*
X180355048Y-86667820D01*
X180355047Y-86667820D01*
X180355051Y-86667816D01*
X180451557Y-86478412D01*
X180517246Y-86276243D01*
X180550500Y-86066287D01*
X180550500Y-85853713D01*
X180517246Y-85643757D01*
X180451557Y-85441588D01*
X180355051Y-85252184D01*
X180355049Y-85252181D01*
X180355048Y-85252179D01*
X180230109Y-85080213D01*
X180116569Y-84966673D01*
X180083084Y-84905350D01*
X180088068Y-84835658D01*
X180129940Y-84779725D01*
X180160915Y-84762810D01*
X180292331Y-84713796D01*
X180407546Y-84627546D01*
X180493796Y-84512331D01*
X180544091Y-84377483D01*
X180550500Y-84317873D01*
X180550499Y-82522128D01*
X180544091Y-82462517D01*
X180542927Y-82459397D01*
X180493797Y-82327671D01*
X180493793Y-82327664D01*
X180407547Y-82212455D01*
X180407544Y-82212452D01*
X180292335Y-82126206D01*
X180292328Y-82126202D01*
X180157482Y-82075908D01*
X180157483Y-82075908D01*
X180097883Y-82069501D01*
X180097881Y-82069500D01*
X180097873Y-82069500D01*
X180097864Y-82069500D01*
X178302129Y-82069500D01*
X178302123Y-82069501D01*
X178242516Y-82075908D01*
X178107671Y-82126202D01*
X178107664Y-82126206D01*
X177992455Y-82212452D01*
X177992452Y-82212455D01*
X177906206Y-82327664D01*
X177906202Y-82327671D01*
X177855908Y-82462517D01*
X177850772Y-82510292D01*
X177849501Y-82522123D01*
X177849500Y-82522135D01*
X175321441Y-82522135D01*
X175333497Y-82519737D01*
X175446166Y-82473067D01*
X175479172Y-82459397D01*
X175479172Y-82459396D01*
X175479179Y-82459394D01*
X175610289Y-82371789D01*
X175721789Y-82260289D01*
X175809394Y-82129179D01*
X175810626Y-82126206D01*
X175869735Y-81983501D01*
X175869737Y-81983497D01*
X175900500Y-81828842D01*
X175900500Y-81671158D01*
X175900500Y-81671155D01*
X175900499Y-81671153D01*
X175880326Y-81569737D01*
X175869737Y-81516503D01*
X175866791Y-81509390D01*
X175809397Y-81370827D01*
X175809390Y-81370814D01*
X175721789Y-81239711D01*
X175721786Y-81239707D01*
X175610292Y-81128213D01*
X175610288Y-81128210D01*
X175479185Y-81040609D01*
X175479172Y-81040602D01*
X175333501Y-80980264D01*
X175333489Y-80980261D01*
X175178845Y-80949500D01*
X175178842Y-80949500D01*
X175021158Y-80949500D01*
X175021155Y-80949500D01*
X174866510Y-80980261D01*
X174866498Y-80980264D01*
X174720827Y-81040602D01*
X174720814Y-81040609D01*
X174589711Y-81128210D01*
X174589707Y-81128213D01*
X174478213Y-81239707D01*
X174478210Y-81239711D01*
X174390609Y-81370814D01*
X174390602Y-81370827D01*
X174330264Y-81516498D01*
X174330261Y-81516510D01*
X174299500Y-81671153D01*
X144330242Y-81671153D01*
X144329933Y-81670408D01*
X144309397Y-81620827D01*
X144309390Y-81620814D01*
X144221789Y-81489711D01*
X144221786Y-81489707D01*
X144110292Y-81378213D01*
X144110288Y-81378210D01*
X143979185Y-81290609D01*
X143979172Y-81290602D01*
X143833501Y-81230264D01*
X143833489Y-81230261D01*
X143678845Y-81199500D01*
X143678842Y-81199500D01*
X143521158Y-81199500D01*
X143521155Y-81199500D01*
X143366510Y-81230261D01*
X143366498Y-81230264D01*
X143220827Y-81290602D01*
X143220814Y-81290609D01*
X143089711Y-81378210D01*
X143089707Y-81378213D01*
X142978213Y-81489707D01*
X142978210Y-81489711D01*
X142890609Y-81620814D01*
X142890602Y-81620827D01*
X142830264Y-81766498D01*
X142830261Y-81766510D01*
X142799500Y-81921153D01*
X122500500Y-81921153D01*
X122500500Y-80721153D01*
X139799500Y-80721153D01*
X139799500Y-80878846D01*
X139830261Y-81033489D01*
X139830264Y-81033501D01*
X139890602Y-81179172D01*
X139890609Y-81179185D01*
X139978210Y-81310288D01*
X139978213Y-81310292D01*
X140089707Y-81421786D01*
X140089711Y-81421789D01*
X140220814Y-81509390D01*
X140220827Y-81509397D01*
X140366498Y-81569735D01*
X140366503Y-81569737D01*
X140521153Y-81600499D01*
X140521156Y-81600500D01*
X140521158Y-81600500D01*
X140678844Y-81600500D01*
X140678845Y-81600499D01*
X140833497Y-81569737D01*
X140979179Y-81509394D01*
X141110289Y-81421789D01*
X141221789Y-81310289D01*
X141309394Y-81179179D01*
X141369737Y-81033497D01*
X141400500Y-80878842D01*
X141400500Y-80721158D01*
X141400500Y-80721155D01*
X141400499Y-80721153D01*
X141369738Y-80566510D01*
X141369737Y-80566503D01*
X141369735Y-80566498D01*
X141309397Y-80420827D01*
X141309390Y-80420814D01*
X141221789Y-80289711D01*
X141221786Y-80289707D01*
X141110292Y-80178213D01*
X141110288Y-80178210D01*
X140979185Y-80090609D01*
X140979172Y-80090602D01*
X140833501Y-80030264D01*
X140833489Y-80030261D01*
X140678845Y-79999500D01*
X140678842Y-79999500D01*
X140521158Y-79999500D01*
X140521155Y-79999500D01*
X140366510Y-80030261D01*
X140366498Y-80030264D01*
X140220827Y-80090602D01*
X140220814Y-80090609D01*
X140089711Y-80178210D01*
X140089707Y-80178213D01*
X139978213Y-80289707D01*
X139978210Y-80289711D01*
X139890609Y-80420814D01*
X139890602Y-80420827D01*
X139830264Y-80566498D01*
X139830261Y-80566510D01*
X139799500Y-80721153D01*
X122500500Y-80721153D01*
X122500500Y-75124500D01*
X122520185Y-75057461D01*
X122572989Y-75011706D01*
X122624500Y-75000500D01*
X130348429Y-75000500D01*
X130415468Y-75020185D01*
G37*
%TD.AperFunction*%
%TA.AperFunction,Conductor*%
G36*
X136063586Y-75020185D02*
G01*
X136109341Y-75072989D01*
X136119285Y-75142147D01*
X136090260Y-75205703D01*
X136052843Y-75234984D01*
X136032443Y-75245378D01*
X136032440Y-75245380D01*
X135978282Y-75284727D01*
X135978282Y-75284728D01*
X136610591Y-75917037D01*
X136547007Y-75934075D01*
X136432993Y-75999901D01*
X136339901Y-76092993D01*
X136274075Y-76207007D01*
X136257037Y-76270591D01*
X135624728Y-75638282D01*
X135624727Y-75638282D01*
X135585380Y-75692440D01*
X135585376Y-75692446D01*
X135580760Y-75701505D01*
X135532781Y-75752297D01*
X135464959Y-75769087D01*
X135398826Y-75746543D01*
X135359794Y-75701493D01*
X135355051Y-75692184D01*
X135355049Y-75692181D01*
X135355048Y-75692179D01*
X135230109Y-75520213D01*
X135079786Y-75369890D01*
X134907817Y-75244949D01*
X134888261Y-75234985D01*
X134837464Y-75187011D01*
X134820669Y-75119190D01*
X134843206Y-75053055D01*
X134897921Y-75009603D01*
X134944555Y-75000500D01*
X135996547Y-75000500D01*
X136063586Y-75020185D01*
G37*
%TD.AperFunction*%
%TD*%
M02*
